<svg width="21" height="21" viewBox="0 0 21 21" fill="none" xmlns="http://www.w3.org/2000/svg">
<path d="M21 16.4126C20.5075 16.7292 20.1026 17.1612 19.8217 17.6698C19.5408 18.1785 19.3926 18.7478 19.3906 19.3268C16.065 20.6991 12.4461 21.2403 8.85642 20.9021C8.52744 20.4086 8.0712 20.0099 7.53438 19.7469C6.99756 19.4838 6.39943 19.3658 5.80107 19.4049C4.53226 17.8798 3.1504 16.4317 2.01614 14.8151C0.656845 13.3109 -0.0633181 11.3503 0.00437391 9.33825C0.072066 7.32625 0.922512 5.4167 2.37993 4.00432C2.96693 2.96055 3.79035 2.06385 4.78637 1.38401C5.78239 0.704167 6.92421 0.259422 8.12314 0.0841934C9.32207 -0.0910356 10.5459 0.00809822 11.6996 0.373743C12.8534 0.739388 13.906 1.36165 14.7758 2.19251C16.3624 3.39971 17.8845 4.68695 19.336 6.04885C19.5052 7.65777 19.3691 9.37687 20.9785 10.4653C20.9848 12.4485 20.9919 14.4309 21 16.4126Z" fill="#FFA4DC"/>
</svg>
