<svg width="200" height="24" viewBox="0 0 200 24" fill="none" xmlns="http://www.w3.org/2000/svg">
<path d="M198.597 7.86065C197.916 6.7262 195.955 7.71427 196.594 8.84872C198.001 11.2274 198.342 13.7891 196.253 15.9482C194.463 17.8145 191.693 18.8758 189.051 19.5711C186.11 20.3396 182.999 20.7055 179.93 20.669C178.566 20.6324 177.288 20.4494 176.009 20.1566C176.819 19.6443 177.629 19.1319 178.396 18.6196C181.166 16.7167 182.445 13.9354 180.442 11.1542C178.268 8.11681 173.751 7.34831 169.915 6.98235C167.486 6.76278 165.056 6.7262 162.584 6.83599C162.201 5.88451 161.519 5.00622 160.496 4.31091C157.172 1.93223 152.015 1.67606 147.881 1.67606C141.829 1.63946 136.118 2.9203 130.492 4.75006C120.945 7.89724 109.992 12.5448 105.73 21.1081C105.176 22.2791 107.137 23.2672 107.733 22.0961C110.845 15.8018 117.877 11.8495 124.824 8.9585C132.708 5.70153 141.147 3.21305 150.012 3.68879C153.165 3.83517 157.555 4.12794 159.729 6.39684C159.899 6.57982 160.07 6.76278 160.198 6.98235C158.322 7.12873 156.447 7.31172 154.615 7.56789C149.245 8.2266 144.215 9.87338 139.272 11.8129C135.99 13.1303 131.685 15.1797 131.387 18.766C131.089 22.4255 135.265 23.011 138.632 23.011C143.406 22.9744 148.009 21.4008 152.1 19.4247C155.637 17.7047 159.942 15.5456 161.945 12.3618C162.67 11.2274 163.011 10.0198 163.011 8.81211C165.056 8.73892 167.059 8.77551 169.105 8.92189C172.6 9.21465 179.589 10.1661 179.121 14.4478C178.95 16.0214 177.373 16.9362 176.009 17.7779C175.072 18.3634 174.134 18.949 173.154 19.4613C171.961 19.132 170.767 18.8026 169.489 18.5464C167.017 18.0341 162.243 17.6681 160.794 20.0468C160.198 20.9983 160.453 22.1693 161.263 22.9744C162.542 24.2187 165.141 24.0723 166.889 23.8527C169.19 23.56 171.364 22.7549 173.41 21.7302C174.432 22.023 175.455 22.3157 176.563 22.4621C178.652 22.7549 180.783 22.7915 182.914 22.6451C187.687 22.3157 192.887 21.2179 196.637 18.4732C200.515 15.5822 200.856 11.5934 198.597 7.86065ZM155.595 15.1065C152.313 17.1192 148.69 18.9856 144.812 20.0468C142.596 20.6689 132.666 22.5353 133.816 18.4C134.797 14.8137 140.635 13.2767 144.088 12.0691C148.136 10.6419 152.27 9.69041 156.618 9.21467C158.024 9.06829 159.43 8.9219 160.88 8.81211C160.837 11.3372 157.811 13.7525 155.595 15.1065ZM164.673 21.8766C163.309 21.8034 162.201 20.8519 163.991 20.3396C164.8 20.0834 165.738 20.0468 166.591 20.0834C167.912 20.12 169.19 20.3762 170.426 20.7421C168.636 21.4375 166.676 21.9498 164.673 21.8766Z" fill="url(#paint0_linear)"/>
<path d="M72.8706 5.84846C63.8354 2.5549 53.5215 0.0664304 43.7191 2.44512C40.9915 3.10383 38.3491 4.45784 37.3689 6.76334C32.9365 6.58036 27.9074 6.65354 23.7734 8.19054C20.4917 9.39818 17.6788 12.2892 18.8295 15.5096C19.5115 17.4125 21.685 18.9861 23.9865 20.2304C23.7307 20.267 23.5177 20.3401 23.2619 20.3767C19.9803 20.9257 16.4855 20.6695 13.2464 20.0474C6.85357 18.8397 -0.391689 15.2168 3.44403 8.81266C4.12594 7.67821 2.12284 6.69014 1.44093 7.82459C-0.519548 11.045 -0.690025 14.5947 2.2507 17.4125C5.10618 20.1572 9.66643 21.5112 13.8005 22.1333C18.1903 22.792 22.4096 22.6822 26.6715 21.5478C27.0124 21.7307 27.396 21.8771 27.6943 22.0235C30.3367 23.2312 35.9624 25.1341 38.6048 22.975C41.0767 20.9623 38.5622 18.7665 36.1329 18.2542C32.8939 17.5955 29.9958 18.547 27.055 19.4253C26.1174 18.9129 25.2224 18.364 24.37 17.8151C23.0915 17.01 21.3867 16.1317 21.0031 14.7045C20.4065 12.6552 22.4096 10.8986 24.37 10.0935C28.0779 8.55649 32.766 8.55651 36.8148 8.66629C36.8574 8.66629 36.9427 8.66629 36.9853 8.66629C36.9427 11.7037 39.5425 14.2653 42.2275 16.0585C45.9779 18.5104 50.1972 20.6695 54.6722 21.9137C58.0818 22.8652 63.7075 23.8533 66.9466 21.9869C70.2709 20.084 68.0973 16.4245 66.0516 14.5215C64.6025 13.1675 62.6847 12.4722 60.7668 11.7037C58.3801 10.7522 55.9934 9.87393 53.4789 9.14203C49.1318 7.8612 44.5715 7.20247 39.9686 6.90971C40.821 5.70207 42.4832 4.78719 44.3584 4.34805C53.5642 2.11574 63.3666 4.49444 71.8478 7.60502C79.9028 10.5326 88.6397 14.7777 92.2623 22.0235C92.859 23.1946 94.8195 22.1699 94.2654 21.0355C90.4723 13.4237 81.3092 8.95905 72.8706 5.84846ZM33.0643 20.084C33.8741 20.0474 34.7265 20.0474 35.4936 20.2304C35.8772 20.3035 36.3886 20.3401 36.687 20.5963C37.582 21.3282 36.3034 21.8771 35.3658 21.9137C33.3201 21.9869 31.4022 21.5112 29.6122 20.7793C30.7203 20.4133 31.871 20.1572 33.0643 20.084ZM62.2158 14.5581C63.7927 15.2534 65.327 16.5343 66.0089 17.9981C67.2875 20.8525 63.6223 20.9623 61.3208 20.9623C57.1015 20.9257 53.0101 19.535 49.3875 17.7785C46.0632 16.1683 41.9291 14.2287 40.0113 11.2645C39.4572 10.3863 39.2441 9.58117 39.2441 8.84927C47.3418 9.3982 54.928 11.3011 62.2158 14.5581Z" fill="url(#paint1_linear)"/>
<path d="M109.694 3.10347C108.927 1.27371 106.54 -0.519461 104.153 0.139251C102.278 0.651584 101.255 2.40815 100.403 3.98174C99.2948 2.59113 98.3146 1.01754 95.8427 1.85923C92.8167 2.88389 92.3053 6.32383 92.6889 8.73911C93.2003 11.9595 95.2886 14.6675 97.2065 17.3756C98.0589 18.5832 99.4227 21.9866 101.596 20.1202C102.917 18.9492 103.812 17.0462 104.793 15.6556C105.773 14.2284 106.711 12.8012 107.563 11.3374C109.012 8.88551 110.845 5.9213 109.694 3.10347ZM101.298 16.79C101.085 17.0828 100.488 17.6683 100.446 17.9977C100.062 17.339 99.4227 16.6437 98.9965 16.0581C97.7605 14.3382 96.4393 12.6182 95.6296 10.7153C94.9051 8.99529 94.1379 5.9213 95.8001 4.3843C97.7179 2.62774 98.6555 5.48216 99.8489 6.47023C100.105 6.65321 100.36 6.76299 100.616 6.76299C101 6.79958 101.426 6.6898 101.681 6.28725C102.363 5.1894 102.875 3.98175 103.727 2.95708C104.537 2.00561 105.73 1.67627 106.796 2.62774C107.819 3.54262 107.947 4.89664 107.648 6.10428C106.668 9.87358 103.557 13.6063 101.298 16.79Z" fill="url(#paint2_linear)"/>
<defs>
<linearGradient id="paint0_linear" x1="148.287" y1="1.6753" x2="200.599" y2="10.714" gradientUnits="userSpaceOnUse">
<stop stop-color="#F2B5C9"/>
<stop offset="1" stop-color="#EF95B2"/>
</linearGradient>
<linearGradient id="paint1_linear" x1="42.6521" y1="1.50245" x2="94.9789" y2="10.4912" gradientUnits="userSpaceOnUse">
<stop stop-color="#F2B5C9"/>
<stop offset="1" stop-color="#EF95B2"/>
</linearGradient>
<linearGradient id="paint2_linear" x1="100.478" y1="6.54792e-06" x2="110.444" y2="0.344501" gradientUnits="userSpaceOnUse">
<stop stop-color="#F2B5C9"/>
<stop offset="1" stop-color="#EF95B2"/>
</linearGradient>
</defs>
</svg>
