<svg width="240" height="30" viewBox="0 0 240 30" fill="none" xmlns="http://www.w3.org/2000/svg">
<path d="M235.01 18.0505C231.056 15.4624 226.178 14.5644 221.557 14.9342C221.454 14.9342 221.351 14.987 221.249 14.987C219.143 14.1419 216.884 13.5081 214.47 13.1912C210.414 12.7158 206.255 12.8742 202.147 13.4024C207.846 9.96921 214.881 4.42324 209.9 0.990015C206.871 -1.12274 202.763 0.461828 200.349 2.78585C197.268 5.69089 194.855 9.96921 194.136 14.2475C194.085 14.4588 194.085 14.6701 194.136 14.8814C191.466 15.4624 188.796 16.0434 186.177 16.6244C176.985 18.6843 167.999 21.5893 158.91 23.9134C161.478 21.3781 163.686 16.8356 161.324 13.5081C158.91 10.0748 155.265 11.8707 153.005 14.406C151.362 16.2546 149.77 18.3146 148.487 20.4801C146.792 23.3852 144.635 24.9169 141.4 25.6036C141.195 25.6564 140.99 25.762 140.835 25.8677C136.728 25.3923 132.312 24.0718 129.949 20.4801C128.922 19.0012 126.56 20.4273 127.536 21.9063C132.209 28.9312 142.171 29.5122 149.668 28.6142C155.984 27.8748 162.197 26.0789 168.307 24.2303H168.359C170.926 24.3887 173.442 24.8641 175.702 26.0261C177.653 27.0825 179.502 28.3501 181.556 29.2481C183.969 30.3044 189.104 30.6214 190.542 27.6635C192.288 24.0718 188.18 20.9555 185.509 19.8463C185.355 19.7935 185.201 19.7407 184.996 19.635C192.39 17.8392 199.939 16.2018 207.384 15.7793C212.16 15.5152 216.935 15.9377 221.351 17.9448V17.9977C223.046 22.1175 225.973 25.6036 229.824 27.822C232.494 29.4065 237.937 31.3608 239.58 27.2938C241.172 23.5436 237.937 19.8991 235.01 18.0505ZM155.573 15.6736C156.24 15.0398 157.113 14.0363 158.089 14.3532C159.783 14.8814 159.732 16.9941 159.321 18.2618C158.654 20.2689 157.113 22.1175 155.265 23.0683C154.957 23.2267 154.597 23.3852 154.289 23.4908C155.213 22.5929 155.932 21.6422 156.651 20.533C157.627 19.0012 155.213 17.5751 154.238 19.1069C153.467 20.3217 152.646 21.3781 151.465 22.2232C151.105 22.4873 150.643 22.8042 150.232 23.1211C151.978 20.6386 153.313 17.8392 155.573 15.6736ZM187.563 25.5508C187.666 27.1353 187.101 27.0297 185.663 27.0825C184.688 27.1353 183.815 27.0297 182.891 26.66C181.042 25.9733 179.45 24.8113 177.756 23.8606C179.912 24.2831 182.12 24.9697 183.918 25.9205C185.509 26.7128 186.896 24.2831 185.304 23.438C183.866 22.6985 182.377 22.1704 180.785 21.7478C181.864 21.8006 182.839 21.9063 183.661 22.1175C185.407 22.6457 187.409 23.7021 187.563 25.5508ZM199.887 7.75082C201.171 5.90216 204.406 1.62384 207.127 2.94431C210.208 4.42323 204.765 8.27901 203.328 9.33538C202.711 9.81075 202.095 10.2333 201.428 10.6559C202.301 9.49384 203.174 8.27901 204.406 7.48673C205.946 6.53599 204.509 4.05351 203.02 5.00425C201.53 5.95498 200.452 7.32827 199.374 8.75437C199.117 9.07129 198.86 9.44102 198.603 9.75794C199.014 9.12411 199.425 8.43747 199.887 7.75082ZM228.9 23.7021C227.821 22.8042 226.897 21.7478 226.075 20.6386C228.54 22.3288 230.8 24.2831 233.059 26.2374C231.313 25.4979 229.567 24.2831 228.9 23.7021ZM235.78 26.924C236.345 26.4487 236.551 25.6036 235.832 24.9697C232.956 22.4344 230.029 19.952 226.897 17.9448C227.975 18.1033 229.054 18.4202 230.081 18.7899C232.443 19.635 237.372 21.9591 237.218 25.2338C237.218 26.3958 236.602 26.8712 235.78 26.924Z" fill="url(#paint0_linear)"/>
<path d="M110.077 20.4801C107.715 24.019 103.298 25.3395 99.1905 25.8677C99.0365 25.762 98.8824 25.6564 98.6257 25.6036C95.5961 24.9697 93.3367 23.5965 91.7449 20.7971C90.5125 18.6315 89.0233 16.5716 87.3802 14.7229C85.0695 12.082 81.3209 9.81076 78.7535 13.4553C76.4428 16.73 78.4454 21.0612 80.9101 23.6493C81.0128 23.7549 81.1155 23.8077 81.2182 23.9134C72.0781 21.5893 63.0919 18.6843 53.9004 16.6244C51.2816 16.0434 48.6114 15.4095 45.9413 14.8814C45.9926 14.6701 45.9926 14.4588 45.9413 14.2475C45.2224 10.022 42.8089 5.74371 39.728 2.78585C37.2632 0.461828 33.2066 -1.12274 30.177 0.990015C25.1961 4.47606 32.231 9.96921 37.9308 13.4024C33.9769 12.8742 29.9716 12.663 26.0691 13.0855C23.4502 13.3496 21.0882 14.0363 18.8288 14.9342C18.7261 14.8814 18.6234 14.8814 18.4694 14.8814C14.002 14.5116 9.27783 15.4095 5.37528 17.7864C2.34567 19.635 -1.19743 23.3852 0.3944 27.3466C1.98623 31.2552 7.12116 29.5122 9.79132 28.0332C13.7966 25.8677 16.8262 22.276 18.6234 17.9977V17.9448C22.9881 15.9377 27.8149 15.5152 32.5904 15.7793C40.0874 16.2018 47.6358 17.7864 54.9787 19.635C54.8247 19.6879 54.6706 19.7407 54.4652 19.8463C51.7951 21.0083 47.6871 24.1246 49.433 27.6635C50.8708 30.6214 56.0057 30.3044 58.4191 29.2481C60.4731 28.3501 62.3217 27.0297 64.273 26.0261C66.5837 24.8113 69.0998 24.3887 71.6159 24.2303H71.6673C77.8292 26.0789 83.9911 27.8748 90.3071 28.6142C97.8041 29.5122 107.766 28.9312 112.439 21.9063C113.466 20.3745 111.052 18.9484 110.077 20.4801ZM2.80782 25.181C2.70512 22.1175 7.27521 19.7407 9.53458 18.8956C10.7156 18.473 11.948 18.1561 13.129 17.9448C9.99672 19.952 7.06981 22.3816 4.19425 24.9697C3.47536 25.6036 3.68076 26.4487 4.2456 26.9769C3.42401 26.8712 2.85917 26.3959 2.80782 25.181ZM11.4859 23.438C10.8183 24.019 8.86704 25.3923 7.01846 26.2374C9.27783 24.2831 11.5372 22.3288 14.002 20.6386C13.2317 21.695 12.4101 22.5929 11.4859 23.438ZM32.8985 2.94431C36.4416 1.88793 39.6253 6.0078 41.5252 9.96921C41.2171 9.59948 40.9604 9.17693 40.6523 8.8072C39.5739 7.38109 38.4956 6.0078 37.0065 5.05706C35.466 4.10632 34.0796 6.53598 35.62 7.53954C36.8524 8.33182 37.7254 9.54665 38.5983 10.7087C38.0848 10.3918 37.5713 10.022 37.1092 9.65229C35.9795 8.80719 29.4581 4.00068 32.8985 2.94431ZM80.7561 18.2618C80.3453 17.0469 80.3453 16.0434 81.3209 15.0926C82.6047 13.8778 83.1695 14.406 84.5046 15.6736C86.764 17.8392 88.0991 20.6386 89.8963 23.1211C89.4341 22.8042 89.0233 22.4344 88.6125 22.1704C87.4315 21.3253 86.6099 20.2689 85.8397 19.054C84.8641 17.5223 82.4506 18.9484 83.4263 20.4801C84.1452 21.5893 84.8641 22.5401 85.737 23.438C85.5829 23.3852 85.4289 23.3324 85.3262 23.2795C83.2209 22.4344 81.475 20.4273 80.7561 18.2618ZM57.1354 26.7128C56.0571 27.0825 53.3356 27.6635 52.3599 26.7128C50.306 24.8113 55.3895 22.3816 56.3652 22.1704C57.1354 21.9591 58.1624 21.8534 59.1894 21.8006C57.6489 22.2232 56.1084 22.7514 54.722 23.4908C53.1302 24.3359 54.5166 26.7656 56.1084 25.9733C57.957 25.0226 60.165 24.3359 62.2703 23.9134C60.6272 24.8641 58.984 26.0261 57.1354 26.7128Z" fill="url(#paint1_linear)"/>
<defs>
<linearGradient id="paint0_linear" x1="178.243" y1="9.50441e-06" x2="241.098" y2="9.65152" gradientUnits="userSpaceOnUse">
<stop stop-color="#F2B5C9"/>
<stop offset="1" stop-color="#EF95B2"/>
</linearGradient>
<linearGradient id="paint1_linear" x1="50.935" y1="9.50441e-06" x2="113.786" y2="9.65019" gradientUnits="userSpaceOnUse">
<stop stop-color="#F2B5C9"/>
<stop offset="1" stop-color="#EF95B2"/>
</linearGradient>
</defs>
</svg>
