<svg width="201" height="20" viewBox="0 0 201 20" fill="none" xmlns="http://www.w3.org/2000/svg">
<path d="M198.326 14.5534C197.63 15.778 196.637 16.6257 195.445 17.2223C196.438 15.8722 197.134 13.8627 196.239 12.3555C195.312 10.7856 192.696 10.4088 191.073 11.131C189.185 11.9474 189.285 13.8941 190.378 15.2756C191.04 16.1548 192.597 15.307 191.934 14.4278C190.676 12.8265 192.696 12.1985 193.921 12.7009C195.312 13.2347 194.848 14.8046 194.319 15.778C193.458 17.3793 191.835 18.1643 190.013 18.3213C189.98 18.3213 189.98 18.3213 189.947 18.3213C188.921 18.2899 187.861 18.1643 186.934 17.9445C183.655 17.1909 180.674 15.6524 177.793 13.9883C183.953 13.2033 189.285 10.1262 193.193 5.57344C193.921 4.72568 192.663 3.53254 191.934 4.3803C188.026 8.90169 182.695 11.9788 176.502 12.4497C176.071 12.4811 175.641 12.5125 175.177 12.5125C175.011 12.4811 174.879 12.4811 174.746 12.5125C172.66 12.5439 170.607 12.3241 168.521 11.9788C168.653 10.6914 168.487 9.40407 167.958 8.27372C167.759 7.83414 167.527 7.45736 167.262 7.11197C169.282 7.70855 171.269 8.24232 173.223 8.39931C176.667 8.7133 180.608 9.05868 183.059 6.29561C184.317 4.85127 185.543 1.55442 183.456 0.172884C182.496 -0.455087 181.602 1.02065 182.562 1.64862C182.794 1.80561 182.761 2.74757 182.761 2.99876C182.695 3.90932 182.132 4.78848 181.502 5.44785C180.078 6.86078 178.29 6.86078 176.369 6.86078C172.329 6.79799 168.752 5.85603 164.944 4.66288C159.248 2.87316 153.386 2.21379 148.816 6.5154C143.749 4.94547 138.682 3.37554 133.549 2.151C127.853 0.769458 121.793 0.235682 116.262 2.52778C112.619 4.06631 109.639 6.5468 107.32 9.52966C105.963 11.131 104.936 13.1405 103.909 14.7418C103.578 15.2442 103.909 15.7466 104.373 15.935C104.77 16.249 105.367 16.3118 105.665 15.7152C106.161 14.6162 106.757 13.5487 107.387 12.5439C107.95 11.6962 108.513 10.8484 109.175 10.0948C110.632 8.43071 112.785 7.99113 114.97 8.02253C117.222 8.05393 119.375 8.6191 121.461 9.37267C121.528 9.40407 121.594 9.46686 121.693 9.49826C124.74 10.4402 126.33 13.7685 128.714 15.621C130.999 17.4107 133.946 18.6039 136.828 17.3793C137.821 16.9711 138.715 16.249 139.378 15.4012C141.795 15.2756 143.981 14.3336 145.637 11.9788C146.266 11.0682 144.743 10.2204 144.08 11.131C143.087 12.5439 141.762 13.2975 140.338 13.5801C140.603 12.7323 140.636 11.8218 140.338 10.9426C139.576 8.7133 136.397 7.04918 134.311 8.7447C133.45 9.46687 134.708 10.66 135.569 9.93785C136.265 9.37267 137.589 10.032 138.053 10.4716C138.616 11.0368 138.815 11.8218 138.748 12.5753C138.715 12.9521 138.583 13.3289 138.384 13.7057C136.761 13.6429 135.072 13.2033 133.516 12.6695C129.906 11.445 126.628 9.59246 123.117 8.17952C122.819 8.05393 122.521 7.92834 122.19 7.80274H122.157C122.024 7.73994 121.859 7.67715 121.726 7.64575C118.978 6.67239 115.865 5.98162 112.917 6.3898C114.176 5.44785 115.533 4.63148 117.024 4.00351C123.25 1.36603 130.171 2.81037 136.43 4.56869C143.451 6.5468 150.439 8.7133 157.426 10.7856C160.374 11.6648 163.387 12.5439 166.434 13.2033C165.706 14.9616 164.149 16.5629 161.996 16.4688C161.036 16.4374 159.678 15.9664 158.983 15.3384C158.056 14.5534 158.122 13.4859 158.354 12.4497C158.619 11.3822 156.897 10.9426 156.632 12.0101C156.002 14.6162 156.93 16.5315 159.546 17.5991C162.195 18.6666 165.275 18.0387 167.063 15.8094C167.593 15.15 168.024 14.3964 168.289 13.5801C170.474 13.9569 172.66 14.1767 174.879 14.1767C179.118 16.6885 183.622 19.326 188.689 19.8912C192.928 20.3622 197.862 19.169 200.015 15.4012C200.412 14.4592 198.856 13.5801 198.326 14.5534ZM136.927 15.2756C136.761 15.4012 136.629 15.4954 136.463 15.5896C134.112 16.9083 131.529 15.7466 129.641 14.2395C128.813 13.5801 128.118 12.8265 127.422 12.0415C127.456 12.0729 127.522 12.0729 127.555 12.1043C130.304 13.3603 133.682 14.8674 136.927 15.2756ZM154.744 8.30512C153.386 7.89694 152.028 7.48875 150.671 7.08057C153.684 4.66288 157.062 4.56869 160.539 5.25945C160.606 5.29085 160.672 5.32226 160.738 5.32226C162.328 5.69904 164.017 6.20142 165.176 7.36316C166.368 8.52491 166.865 10.0948 166.699 11.6334C162.659 10.7856 158.652 9.46687 154.744 8.30512Z" fill="#EC6985"/>
<path d="M92.9811 9.65522C91.0603 7.11193 88.6428 4.91403 85.7285 3.34411C80.6616 0.643827 74.8993 0.486833 69.3025 1.52299C63.2421 2.65334 57.3142 4.63145 51.3863 6.48396C46.8161 2.15096 40.9545 2.81033 35.2583 4.60005C31.5824 5.7618 28.1051 6.73515 24.1642 6.79795C22.2103 6.82935 20.3226 6.92354 18.8323 5.5734C18.17 4.94543 17.5408 4.06627 17.4083 3.15571C17.3752 2.87312 17.309 1.77418 17.5739 1.61718C18.5012 0.989211 17.607 -0.455125 16.6797 0.141448C14.6927 1.46019 15.7194 4.63145 16.9116 6.07578C19.3291 9.02725 23.3362 8.68186 26.8798 8.36788C28.8005 8.21089 30.8207 7.67711 32.8077 7.08053C32.609 7.36312 32.4103 7.67711 32.2447 8.02249C31.6486 9.24704 31.4168 10.6286 31.5492 11.9787C29.794 12.2613 28.0388 12.4497 26.2505 12.4811C25.9194 12.4811 25.6213 12.4811 25.2901 12.4811C25.1908 12.4497 25.0583 12.4497 24.9258 12.4811C18.2362 12.2613 12.4077 9.34124 8.13559 4.38026C7.40702 3.5325 6.14856 4.72564 6.87713 5.5734C10.4538 9.74941 15.2888 12.7637 20.8856 13.7998C21.3492 13.894 21.8129 13.9568 22.2765 13.9882C19.3953 15.6523 16.4148 17.1909 13.1362 17.9444C12.1758 18.1642 11.1492 18.2898 10.1226 18.3212C10.0895 18.3212 10.0895 18.3212 10.0563 18.3212C8.23492 18.1642 6.61219 17.3479 5.75115 15.7779C5.28751 14.9616 4.8239 13.4858 5.81741 12.8265C6.14858 12.6067 6.91026 12.5439 7.30767 12.5439C8.00312 12.4183 8.30115 12.6695 8.23492 13.3603C8.53297 13.7998 8.53299 14.1452 8.13559 14.4592C7.44014 15.3384 8.99661 16.1861 9.69207 15.307C10.7849 13.9254 10.8843 11.9787 8.99662 11.1624C7.37389 10.4402 4.75767 10.8484 3.83039 12.3869C2.93624 13.9254 3.6317 15.9035 4.62521 17.2537C3.433 16.6571 2.43947 15.7779 1.74401 14.5534C1.21414 13.58 -0.342338 14.4592 0.187532 15.4012C2.34013 19.2004 7.24142 20.3935 11.5135 19.8912C16.5804 19.326 21.0843 16.6885 25.3564 14.1452C27.5421 14.1766 29.7609 13.9254 31.9135 13.5486C32.1784 14.365 32.609 15.1186 33.1389 15.8093C34.8278 17.913 37.8415 18.6666 40.3915 17.6933C43.1402 16.6571 44.2661 14.7418 43.5707 12.0101C43.3058 10.9426 41.5836 11.4135 41.8486 12.4497C42.4116 14.7104 40.9544 16.0291 38.6694 16.4059C36.3181 16.7827 34.5298 15.0872 33.7681 13.2033C35.8213 12.7637 37.8414 12.2299 39.8285 11.6647C46.8492 9.65522 53.8369 7.52012 60.8577 5.44781C67.4148 3.5011 74.5681 1.3032 81.3902 3.34411C83.609 4.00348 85.5629 5.03963 87.285 6.35837C84.3376 5.95018 81.1915 6.64095 78.4759 7.61431C78.3435 7.67711 78.1778 7.7399 78.0454 7.7713H78.0123C77.6811 7.8655 77.383 7.9911 77.085 8.14809C73.6739 9.52963 70.4616 11.3193 66.9843 12.5439C65.3285 13.1091 63.5071 13.6114 61.785 13.6742C61.6525 13.4544 61.5532 13.2033 61.4869 12.9835C61.1226 11.6961 62.8447 8.46207 64.5999 9.90641C65.461 10.6286 66.7194 9.43543 65.8583 8.71326C63.8051 7.01774 60.6921 8.61907 59.8642 10.7856C59.533 11.6961 59.533 12.6381 59.798 13.5486C58.3408 13.2661 57.0493 12.5125 56.0557 11.0996C55.4265 10.189 53.87 11.0368 54.4993 11.9473C56.1551 14.3022 58.3408 15.2442 60.7584 15.3698C61.4207 16.2175 62.3148 16.9083 63.3084 17.3479C66.0902 18.541 68.9714 17.4421 71.1902 15.7465C72.4818 14.7732 73.6077 13.6428 74.6343 12.4183C75.6941 11.0996 76.7207 9.9692 78.4428 9.43543C78.5421 9.40403 78.6084 9.37263 78.6746 9.30984C80.6616 8.55627 82.7149 8.02249 84.8675 7.9597C87.1525 7.8655 89.4707 8.30508 90.961 10.032C91.4908 10.6286 91.9545 11.2879 92.4181 11.9473C93.2129 13.1405 93.9084 14.365 94.5045 15.6524C94.7694 16.2175 95.3986 16.1861 95.796 15.8721C96.2597 15.6837 96.5909 15.2128 96.2597 14.679C95.2662 13.1405 94.2727 11.2251 92.9811 9.65522ZM33.3707 11.6647C33.2051 10.189 33.6356 8.71326 34.6953 7.55151C35.8875 6.29557 37.6427 5.76179 39.3317 5.35361C39.3979 5.32221 39.4642 5.32222 39.5304 5.29082C43.0077 4.60005 46.4187 4.69424 49.4324 7.11194C48.9687 7.26893 48.472 7.39452 48.0084 7.55151C43.2395 8.93305 38.3713 10.66 33.3707 11.6647ZM70.4285 14.2394C68.5408 15.7465 65.9577 16.9397 63.6064 15.5896C63.4408 15.4954 63.2752 15.4012 63.1428 15.2756C66.3882 14.836 69.7662 13.3603 72.5149 12.1043C72.548 12.0729 72.6142 12.0729 72.6473 12.0415C71.9519 12.8265 71.2564 13.58 70.4285 14.2394Z" fill="#EC6985"/>
</svg>
