<svg width="90" height="90" viewBox="0 0 90 90" fill="none" xmlns="http://www.w3.org/2000/svg">
<path d="M77.2974 68.9999C77.6156 68.9999 77.9209 68.8735 78.1459 68.6485C78.371 68.4234 78.4974 68.1182 78.4974 67.7999V26.9998C78.4974 26.7825 78.4385 26.5693 78.3268 26.383C78.2152 26.1966 78.0551 26.044 77.8635 25.9415C77.6719 25.839 77.4562 25.7905 77.2392 25.801C77.0222 25.8115 76.8121 25.8808 76.6314 26.0014L76.0098 26.4154C75.7532 24.4734 74.8682 22.6688 73.4898 21.2769C73.7782 21.1907 74.0726 21.1257 74.3706 21.0825L75.0558 20.9889C75.2119 20.9677 75.3624 20.9158 75.4985 20.8364C75.6347 20.757 75.7538 20.6516 75.8492 20.5261C75.9446 20.4006 76.0143 20.2576 76.0545 20.1052C76.0946 19.9527 76.1043 19.7939 76.083 19.6377C76.0617 19.4816 76.0099 19.3311 75.9305 19.195C75.851 19.0588 75.7456 18.9397 75.6201 18.8443C75.4946 18.7489 75.3516 18.6792 75.1992 18.6391C75.0468 18.599 74.8879 18.5893 74.7318 18.6105L74.0454 18.7041C73.0584 18.8403 72.1026 19.1469 71.2206 19.6101C70.1697 19.0592 69.0187 18.7255 67.8361 18.629C66.6535 18.5325 65.4636 18.6752 64.3373 19.0485C64.9573 18.2279 65.2941 17.2282 65.2973 16.1997C65.2973 14.9267 64.7916 13.7058 63.8914 12.8056C62.9913 11.9054 61.7704 11.3997 60.4973 11.3997C60.1223 11.3996 59.7487 11.4455 59.3849 11.5365C58.8332 10.7528 58.1012 10.1133 57.2506 9.67188C56.4 9.23042 55.4557 8.99998 54.4973 8.99998C53.5389 8.99998 52.5946 9.23042 51.744 9.67188C50.8933 10.1133 50.1613 10.7528 49.6097 11.5365C49.2459 11.4456 48.8723 11.3996 48.4973 11.3997C47.2242 11.3997 46.0033 11.9054 45.1031 12.8056C44.203 13.7058 43.6972 14.9267 43.6972 16.1997C43.6971 16.5747 43.743 16.9483 43.834 17.3121C43.177 17.7724 42.6197 18.3608 42.1958 19.0419C41.7719 19.723 41.49 20.4828 41.3672 21.2756C41.2443 22.0684 41.283 22.8778 41.4809 23.6553C41.6789 24.4328 42.0319 25.1622 42.5188 25.7998C42.3462 26.0312 42.1902 26.2746 42.052 26.5282L36.2572 16.4805L35.0572 14.3997C34.3479 13.1707 33.4034 12.0934 32.2776 11.2296C31.1518 10.3657 29.8668 9.7322 28.4961 9.36522C27.1253 8.99823 25.6957 8.90498 24.2888 9.09079C22.882 9.2766 21.5256 9.73782 20.2971 10.4481C18.9206 11.2451 17.9163 12.5556 17.5046 14.0921C17.0929 15.6286 17.3075 17.2656 18.1011 18.6441L19.4727 21.0189C19.633 21.2923 19.8949 21.4912 20.2012 21.5722C20.5076 21.6532 20.8336 21.6097 21.108 21.4513C21.3824 21.2928 21.583 21.0323 21.666 20.7265C21.7491 20.4207 21.7078 20.0944 21.5512 19.8189L20.1771 17.4441C19.9405 17.0345 19.7869 16.5822 19.7252 16.1131C19.6635 15.6441 19.6948 15.1675 19.8174 14.7105C19.94 14.2536 20.1514 13.8253 20.4397 13.4501C20.7279 13.075 21.0872 12.7603 21.4971 12.5241C22.4525 11.9726 23.5072 11.6147 24.6008 11.4708C25.6945 11.3269 26.8059 11.3999 27.8714 11.6855C28.9369 11.9711 29.9357 12.4637 30.8108 13.1353C31.6859 13.807 32.4201 14.6444 32.9716 15.5997L33.5716 16.6377L29.416 19.0377C29.2794 19.1165 29.1597 19.2214 29.0637 19.3465C28.9677 19.4715 28.8973 19.6143 28.8565 19.7666C28.8156 19.9188 28.8052 20.0776 28.8257 20.234C28.8463 20.3903 28.8974 20.541 28.9762 20.6775C29.055 20.8141 29.1599 20.9338 29.2849 21.0298C29.41 21.1258 29.5527 21.1962 29.705 21.2371C29.8573 21.2779 30.0161 21.2883 30.1724 21.2678C30.3287 21.2473 30.4794 21.1961 30.616 21.1173L34.7728 18.7173L36.5728 21.8373L32.416 24.2374C32.2076 24.3595 32.0408 24.5416 31.9376 24.76C31.8344 24.9784 31.7995 25.2229 31.8375 25.4615C31.8755 25.7 31.9846 25.9216 32.1505 26.0971C32.3165 26.2727 32.5315 26.394 32.7676 26.4454L27.4312 29.9998L23.7496 23.6242C23.5904 23.3484 23.3283 23.1471 23.0207 23.0646C22.7132 22.9822 22.3855 23.0252 22.1098 23.1844C21.834 23.3435 21.6327 23.6056 21.5502 23.9132C21.4678 24.2207 21.5108 24.5484 21.67 24.8242L23.59 28.1518L20.3607 25.999C20.1799 25.8789 19.9698 25.8102 19.753 25.8001C19.5362 25.79 19.3206 25.8389 19.1294 25.9416C18.9382 26.0443 18.7784 26.1969 18.667 26.3833C18.5557 26.5696 18.497 26.7827 18.4971 26.9998V32.9998C18.4971 33.3181 18.6236 33.6233 18.8486 33.8483C19.0737 34.0734 19.3789 34.1998 19.6971 34.1998C20.0154 34.1998 20.3206 34.0734 20.5457 33.8483C20.7707 33.6233 20.8971 33.3181 20.8971 32.9998V29.2426L26.2312 32.7982C26.4284 32.9298 26.6601 33 26.8972 33C27.1342 33 27.366 32.9298 27.5632 32.7982L34.0972 28.4398L40.6312 32.7958C40.8284 32.9274 41.0602 32.9976 41.2972 32.9976C41.5343 32.9976 41.766 32.9274 41.9632 32.7958L48.4973 28.4398L55.0313 32.7958C55.2285 32.9274 55.4602 32.9976 55.6973 32.9976C55.9344 32.9976 56.1661 32.9274 56.3633 32.7958L61.6973 29.2414V78.6H46.0973C45.779 78.6 45.4738 78.7264 45.2487 78.9514C45.0237 79.1765 44.8972 79.4817 44.8972 79.8C44.8972 80.1182 45.0237 80.4235 45.2487 80.6485C45.4738 80.8736 45.779 81 46.0973 81H77.2974C77.6156 81 77.9209 80.8736 78.1459 80.6485C78.371 80.4235 78.4974 80.1182 78.4974 79.8V72.6C78.4974 72.2817 78.371 71.9765 78.1459 71.7514C77.9209 71.5264 77.6156 71.3999 77.2974 71.3999C76.9791 71.3999 76.6739 71.5264 76.4489 71.7514C76.2238 71.9765 76.0974 72.2817 76.0974 72.6V76.9032L71.2974 72.1031V65.3999C71.2974 65.0817 71.1709 64.7764 70.9459 64.5514C70.7208 64.3263 70.4156 64.1999 70.0974 64.1999C69.7791 64.1999 69.4739 64.3263 69.2488 64.5514C69.0238 64.7764 68.8974 65.0817 68.8974 65.3999V72.1031L64.0973 76.9032V29.2414L68.8974 32.4418V47.3999C68.8974 47.7181 69.0238 48.0233 69.2488 48.2484C69.4739 48.4734 69.7791 48.5999 70.0974 48.5999C70.4156 48.5999 70.7208 48.4734 70.9459 48.2484C71.1709 48.0233 71.2974 47.7181 71.2974 47.3999V32.4418L76.0974 29.2426V67.7999C76.0974 68.1182 76.2238 68.4234 76.4489 68.6485C76.6739 68.8735 76.9791 68.9999 77.2974 68.9999ZM69.0078 21.2841C68.5749 21.7405 68.193 22.2427 67.8689 22.7818C67.7844 22.9169 67.7276 23.0675 67.7019 23.2248C67.6762 23.3822 67.6821 23.543 67.7192 23.698C67.7564 23.8531 67.8241 23.9991 67.9183 24.1277C68.0125 24.2563 68.1315 24.3648 68.2681 24.4469C68.4047 24.529 68.5564 24.5831 68.7141 24.6059C68.8719 24.6288 69.0326 24.62 69.1869 24.58C69.3413 24.5401 69.4861 24.4698 69.6129 24.3732C69.7398 24.2767 69.8461 24.1559 69.9258 24.0178C70.2774 23.4329 70.7235 22.9102 71.2458 22.471C72.0115 23.0885 72.6291 23.8698 73.0533 24.7573C73.4776 25.6448 73.6976 26.6161 73.6974 27.5998C73.6974 27.7282 73.677 27.8506 73.6686 27.9766L70.0974 30.3598L63.5633 26.0038C63.3664 25.8714 63.1346 25.8004 62.8973 25.7998C62.8966 24.9557 62.6704 24.1271 62.2421 23.3998C62.3431 23.2263 62.4332 23.0467 62.5121 22.8622C63.3547 22.0421 64.4018 21.4631 65.5443 21.1855C66.6868 20.9079 67.8829 20.942 69.0078 21.2841ZM34.7632 26.0014C34.6592 25.9326 34.545 25.8807 34.4248 25.8478L37.7728 23.9158L41.4376 30.2638L41.2972 30.3598L34.7632 26.0014ZM55.6973 30.3598L50.8193 27.1078C52.2038 24.5518 54.439 22.5608 57.1373 21.4797C57.433 21.3614 57.6695 21.1304 57.7948 20.8376C57.9202 20.5448 57.9241 20.2142 57.8057 19.9185C57.6873 19.6229 57.4563 19.3864 57.1635 19.261C56.8708 19.1357 56.5402 19.1317 56.2445 19.2501C54.8671 19.8069 53.5812 20.5674 52.4297 21.5061C52.5405 20.0307 52.4161 18.547 52.0613 17.1105C52.0239 16.9567 51.9565 16.8118 51.8628 16.6841C51.7692 16.5565 51.6513 16.4486 51.5158 16.3667C51.3803 16.2849 51.2299 16.2306 51.0734 16.2071C50.9168 16.1836 50.7571 16.1913 50.6036 16.2298C50.45 16.2683 50.3056 16.3367 50.1786 16.4313C50.0516 16.5258 49.9446 16.6445 49.8637 16.7806C49.7828 16.9167 49.7296 17.0674 49.7072 17.2241C49.6849 17.3809 49.6937 17.5404 49.7333 17.6937C50.4191 20.4366 50.075 23.3357 48.7661 25.8418C48.6075 25.8033 48.4426 25.7979 48.2818 25.8257C48.121 25.8536 47.9677 25.9142 47.8313 26.0038L43.7728 28.7098C43.9291 27.9299 44.3408 27.2243 44.9428 26.7046C45.0705 26.592 45.1728 26.4535 45.2428 26.2983C45.3129 26.1431 45.3491 25.9748 45.3491 25.8046C45.3491 25.6343 45.3129 25.466 45.2428 25.3108C45.1728 25.1557 45.0705 25.0172 44.9428 24.9046C44.5518 24.5708 44.2379 24.156 44.0228 23.689C43.8077 23.222 43.6967 22.7139 43.6972 22.1998C43.7003 21.5102 43.9008 20.836 44.2751 20.2569C44.6494 19.6778 45.1818 19.2181 45.8092 18.9321C45.9569 18.8646 46.0894 18.7678 46.1986 18.6477C46.3078 18.5275 46.3915 18.3863 46.4445 18.2329C46.4976 18.0794 46.519 17.9167 46.5073 17.7548C46.4957 17.5928 46.4513 17.4349 46.3769 17.2905C46.197 16.9548 46.101 16.5806 46.0973 16.1997C46.1002 15.7904 46.2078 15.3887 46.4098 15.0327C46.6117 14.6767 46.9014 14.3783 47.2512 14.1658C47.601 13.9534 47.9994 13.8339 48.4084 13.8187C48.8174 13.8036 49.2235 13.8933 49.5881 14.0793C49.7324 14.1538 49.8903 14.1982 50.0523 14.2098C50.2143 14.2214 50.3769 14.2001 50.5304 14.147C50.6839 14.0939 50.825 14.0103 50.9452 13.9011C51.0654 13.7919 51.1622 13.6594 51.2297 13.5117C51.5129 12.8822 51.972 12.3479 52.5517 11.9731C53.1314 11.5983 53.807 11.3989 54.4973 11.3989C55.1876 11.3989 55.8632 11.5983 56.4429 11.9731C57.0226 12.3479 57.4816 12.8822 57.7649 13.5117C57.8324 13.6596 57.9292 13.7922 58.0494 13.9015C58.1697 14.0109 58.3109 14.0946 58.4645 14.1477C58.6181 14.1998 58.7806 14.2206 58.9424 14.2088C59.1042 14.1971 59.262 14.1531 59.4065 14.0793C59.7043 13.9236 60.0315 13.8325 60.3669 13.812C60.7023 13.7914 61.0382 13.8419 61.3527 13.9602C61.6672 14.0785 61.9532 14.2618 62.192 14.4982C62.4308 14.7346 62.617 15.0188 62.7383 15.3321C62.8597 15.6454 62.9136 15.9808 62.8964 16.3164C62.8792 16.6519 62.7914 16.9801 62.6386 17.2794C62.4859 17.5787 62.2716 17.8423 62.01 18.0531C61.7483 18.2639 61.4451 18.417 61.1201 18.5025C60.9566 18.5468 60.8044 18.6252 60.6734 18.7325C60.5424 18.8398 60.4355 18.9736 60.3599 19.1251C60.2843 19.2767 60.2416 19.4425 60.2347 19.6117C60.2278 19.781 60.2568 19.9497 60.3197 20.1069C60.4353 20.3905 60.4956 20.6935 60.4973 20.9997C60.4954 21.5917 60.272 22.1615 59.8709 22.597C59.6726 22.8173 59.5628 23.1033 59.5628 23.3998C59.5628 23.6962 59.6726 23.9822 59.8709 24.2026C60.1831 24.5425 60.3899 24.9656 60.4663 25.4207C60.5427 25.8759 60.4853 26.3434 60.3013 26.7666C60.1172 27.1897 59.8142 27.5504 59.4292 27.8048C59.0442 28.0592 58.5936 28.1964 58.1321 28.1998C58.1009 28.1998 57.9737 28.1818 57.9437 28.1806C57.7547 28.168 57.5653 28.2008 57.3915 28.2762C57.2177 28.3516 57.0644 28.4674 56.9444 28.6141C56.8244 28.7607 56.7412 28.9339 56.7017 29.1192C56.6622 29.3045 56.6676 29.4966 56.7173 29.6794L55.6973 30.3598ZM70.0974 74.2968L74.4006 78.6H65.7941L70.0974 74.2968Z" fill="#B0A2A2"/>
<path d="M70.0973 53.3999C69.7791 53.3999 69.4739 53.5263 69.2488 53.7514C69.0238 53.9764 68.8973 54.2816 68.8973 54.5999V59.3999C68.8973 59.7182 69.0238 60.0234 69.2488 60.2485C69.4739 60.4735 69.7791 60.5999 70.0973 60.5999C70.4156 60.5999 70.7208 60.4735 70.9459 60.2485C71.1709 60.0234 71.2973 59.7182 71.2973 59.3999V54.5999C71.2973 54.2816 71.1709 53.9764 70.9459 53.7514C70.7208 53.5263 70.4156 53.3999 70.0973 53.3999Z" fill="#B0A2A2"/>
<path d="M44.9594 68.3508C44.8021 68.3392 44.644 68.3587 44.4943 68.4082C44.3445 68.4577 44.206 68.5363 44.0867 68.6394C43.9673 68.7425 43.8694 68.8681 43.7987 69.009C43.7279 69.15 43.6856 69.3035 43.6742 69.4608C43.4054 73.152 40.8434 78.6 38.897 78.6C37.855 78.5968 36.843 78.251 36.0169 77.616C35.8086 77.4585 35.5545 77.3733 35.2933 77.3733C35.0322 77.3733 34.7781 77.4585 34.5697 77.616C33.7456 78.2496 32.7364 78.5952 31.6969 78.6C29.5369 78.6 26.8969 72.1728 26.8969 69C26.8969 67.7269 27.4026 66.506 28.3028 65.6059C29.203 64.7057 30.4239 64.2 31.6969 64.2C32.7389 64.2032 33.7509 64.5489 34.5769 65.184C34.7853 65.3415 35.0394 65.4267 35.3005 65.4267C35.5617 65.4267 35.8158 65.3415 36.0241 65.184C36.9804 64.4696 38.1684 64.1371 39.3566 64.2513C40.5447 64.3656 41.6476 64.9184 42.4502 65.802C42.6681 66.0158 42.9594 66.1385 43.2646 66.1451C43.5699 66.1517 43.8662 66.0417 44.0931 65.8375C44.3201 65.6333 44.4607 65.3503 44.4864 65.046C44.512 64.7418 44.4206 64.4392 44.231 64.2C43.5593 63.449 42.7375 62.8473 41.8187 62.4339C40.8998 62.0205 39.9045 61.8045 38.897 61.8C38.0326 61.803 37.1762 61.9658 36.3709 62.28C36.2812 61.708 36.1386 61.1456 35.9449 60.6H38.897C40.4877 60.598 42.0127 59.9653 43.1375 58.8405C44.2623 57.7157 44.8951 56.1906 44.897 54.5999C44.897 54.2817 44.7705 53.9764 44.5455 53.7514C44.3205 53.5264 44.0152 53.3999 43.697 53.3999H40.097C38.788 53.4035 37.5162 53.8357 36.476 54.6303C35.4359 55.425 34.6846 56.5384 34.3369 57.8003C33.7684 57.1077 33.1022 56.5014 32.3593 56.0003C32.2282 55.9129 32.0812 55.8521 31.9266 55.8215C31.772 55.7908 31.6128 55.791 31.4583 55.8218C31.3037 55.8527 31.1568 55.9137 31.0258 56.0014C30.8948 56.089 30.7824 56.2016 30.6949 56.3327C30.6075 56.4638 30.5467 56.6109 30.5161 56.7655C30.4854 56.9201 30.4855 57.0792 30.5164 57.2338C30.5473 57.3883 30.6083 57.5353 30.6959 57.6663C30.7836 57.7973 30.8962 57.9097 31.0273 57.9971C32.4854 58.9692 33.5159 60.4626 33.9073 62.1708C33.1952 61.9294 32.4488 61.8042 31.6969 61.8C31.2946 61.8024 30.8932 61.8385 30.4969 61.908V60.3948C30.5003 59.1605 30.2588 57.9378 29.7865 56.7975C29.3142 55.6572 28.6204 54.6219 27.7453 53.7515C27.0937 53.1035 26.5771 52.3326 26.2255 51.4836C25.8738 50.6345 25.6942 49.7241 25.6969 48.8051V43.7999C26.0152 43.7999 26.3204 43.6735 26.5454 43.4484C26.7705 43.2234 26.8969 42.9181 26.8969 42.5999V37.7999C26.8969 37.4816 26.7705 37.1764 26.5454 36.9513C26.3204 36.7263 26.0152 36.5999 25.6969 36.5999H14.8969C14.5786 36.5999 14.2734 36.7263 14.0483 36.9513C13.8233 37.1764 13.6969 37.4816 13.6969 37.7999V42.5999C13.6969 42.9181 13.8233 43.2234 14.0483 43.4484C14.2734 43.6735 14.5786 43.7999 14.8969 43.7999V48.8051C14.8996 49.7241 14.7199 50.6345 14.3683 51.4836C14.0167 52.3326 13.5001 53.1035 12.8484 53.7515C11.9733 54.6219 11.2795 55.6572 10.8072 56.7975C10.3349 57.9378 10.0935 59.1605 10.0968 60.3948V79.8C10.0968 80.1183 10.2233 80.4235 10.4483 80.6486C10.6734 80.8736 10.9786 81 11.2968 81H24.4969C24.8152 81 25.1204 80.8736 25.3454 80.6486C25.5705 80.4235 25.6969 80.1183 25.6969 79.8C25.6969 79.4818 25.5705 79.1765 25.3454 78.9515C25.1204 78.7265 24.8152 78.6 24.4969 78.6H12.4968V72.6H25.0645C26.0905 76.4328 28.4545 81 31.6969 81C32.9635 81 34.2068 80.6597 35.2969 80.0148C36.387 80.6599 37.6303 81.0001 38.897 81C43.001 81 45.7874 73.4928 46.0694 69.636C46.081 69.4787 46.0615 69.3207 46.012 69.1709C45.9624 69.0212 45.8839 68.8826 45.7808 68.7633C45.6777 68.6439 45.5521 68.546 45.4112 68.4753C45.2702 68.4045 45.1167 68.3622 44.9594 68.3508ZM40.097 55.7999H42.2918C42.0427 56.5013 41.5827 57.1085 40.9749 57.5382C40.3671 57.9679 39.6413 58.199 38.897 58.1999H36.7021C36.9512 57.4985 37.4112 56.8914 38.019 56.4617C38.6268 56.032 39.3526 55.8008 40.097 55.7999ZM16.0969 38.9999H24.4969V41.3999H16.0969V38.9999ZM12.4968 70.2V64.2H23.2969C23.6152 64.2 23.9204 64.0735 24.1454 63.8485C24.3705 63.6234 24.4969 63.3182 24.4969 63C24.4969 62.6817 24.3705 62.3765 24.1454 62.1514C23.9204 61.9264 23.6152 61.8 23.2969 61.8H12.4968V60.3948C12.4941 59.4758 12.6738 58.5654 13.0254 57.7163C13.377 56.8672 13.8936 56.0963 14.5453 55.4483C15.4204 54.5779 16.1142 53.5426 16.5865 52.4023C17.0588 51.262 17.3002 50.0394 17.2969 48.8051V43.7999H23.2969V48.8051C23.2933 50.0394 23.5346 51.2621 24.0069 52.4025C24.4792 53.5428 25.1732 54.5781 26.0485 55.4483C26.7001 56.0963 27.2167 56.8672 27.5684 57.7163C27.92 58.5654 28.0996 59.4758 28.0969 60.3948V62.7744C27.0038 63.4055 26.0958 64.3128 25.464 65.4055C24.8321 66.4982 24.4986 67.7378 24.4969 69C24.5026 69.4014 24.5322 69.8021 24.5857 70.2H12.4968Z" fill="#B0A2A2"/>
<path d="M55.6971 38.9998H44.897C44.5788 38.9998 44.2735 39.1262 44.0485 39.3512C43.8234 39.5763 43.697 39.8815 43.697 40.1998C43.697 40.518 43.8234 40.8232 44.0485 41.0483C44.2735 41.2733 44.5788 41.3998 44.897 41.3998H55.6971C56.0153 41.3998 56.3206 41.2733 56.5456 41.0483C56.7706 40.8232 56.8971 40.518 56.8971 40.1998C56.8971 39.8815 56.7706 39.5763 56.5456 39.3512C56.3206 39.1262 56.0153 38.9998 55.6971 38.9998Z" fill="#B0A2A2"/>
<path d="M55.697 44.9999H48.497C48.1787 44.9999 47.8735 45.1263 47.6485 45.3514C47.4234 45.5764 47.297 45.8816 47.297 46.1999C47.297 46.5181 47.4234 46.8234 47.6485 47.0484C47.8735 47.2735 48.1787 47.3999 48.497 47.3999H55.697C56.0153 47.3999 56.3205 47.2735 56.5456 47.0484C56.7706 46.8234 56.897 46.5181 56.897 46.1999C56.897 45.8816 56.7706 45.5764 56.5456 45.3514C56.3205 45.1263 56.0153 44.9999 55.697 44.9999Z" fill="#B0A2A2"/>
</svg>
