<svg width="90" height="90" viewBox="0 0 90 90" fill="none" xmlns="http://www.w3.org/2000/svg">
<path d="M8.89331 35.2917H12.3664C13.3372 35.2917 14.1242 34.5048 14.1242 33.5339C14.1242 32.5631 13.3372 31.7761 12.3664 31.7761H8.89331C7.92247 31.7761 7.1355 32.5631 7.1355 33.5339C7.1355 34.5048 7.92247 35.2917 8.89331 35.2917Z" fill="#B0A2A2"/>
<path d="M5.09133 43.8577C6.06217 43.8577 6.84914 43.0707 6.84914 42.0999C6.84914 41.129 6.06217 40.342 5.09133 40.342H1.75781C0.786973 40.342 0 41.129 0 42.0999C0 43.0707 0.786973 43.8577 1.75781 43.8577H5.09133Z" fill="#B0A2A2"/>
<path d="M75.7589 35.1274C72.1382 35.1274 69.1926 32.1817 69.1926 28.5609C69.1926 24.9402 72.1384 21.9946 75.7589 21.9946C79.3795 21.9946 82.3252 24.9404 82.3252 28.5609C82.3252 32.1817 79.3797 35.1274 75.7589 35.1274ZM75.7589 25.5101C74.0767 25.5101 72.7083 26.8787 72.7083 28.5608C72.7083 30.243 74.0769 31.6116 75.7589 31.6116C77.441 31.6116 78.8096 30.243 78.8096 28.5608C78.8096 26.8787 77.4412 25.5101 75.7589 25.5101Z" fill="#B0A2A2"/>
<path d="M49.8477 33.7196C42.5981 33.7196 35.5897 36.7473 30.6195 42.026C29.954 42.7328 29.9875 43.8453 30.6943 44.5108C31.0338 44.8304 31.4669 44.9888 31.899 44.9888C32.3667 44.9888 32.8333 44.8033 33.1792 44.4359C37.5512 39.7925 43.4708 37.2352 49.8478 37.2352C50.8187 37.2352 51.6056 36.4483 51.6056 35.4774C51.6056 34.5066 50.8185 33.7196 49.8477 33.7196Z" fill="#B0A2A2"/>
<path d="M30.0805 63.8969H30.0705C29.0997 63.8969 28.3176 64.6838 28.3176 65.6547C28.3176 66.6255 29.1095 67.4125 30.0804 67.4125C31.0512 67.4125 31.8382 66.6255 31.8382 65.6547C31.8382 64.6838 31.0514 63.8969 30.0805 63.8969Z" fill="#B0A2A2"/>
<path d="M70.6464 63.8969H70.6415C69.6706 63.8969 68.8861 64.6838 68.8861 65.6547C68.8861 66.6255 69.6755 67.4125 70.6464 67.4125C71.6172 67.4125 72.4042 66.6255 72.4042 65.6547C72.4042 64.6838 71.6172 63.8969 70.6464 63.8969Z" fill="#B0A2A2"/>
<path d="M83.6319 58.3508H83.5755C83.3774 54.449 82.5166 50.6665 81.011 47.0702C81.011 47.0702 82.7493 44.9323 83.1065 44.4637C86.6875 39.7644 90.0699 35.3252 89.9989 28.5511C89.9935 20.7035 83.6075 14.3206 75.759 14.3206C67.9591 14.3206 61.6069 20.6253 61.5229 28.4059C60.0294 27.8543 58.5044 27.4138 56.9533 27.0817C57.1471 26.4152 57.2465 25.7193 57.2465 25.0081C57.2465 20.9285 53.9275 17.6094 49.848 17.6094C45.7657 17.6094 42.4446 20.9284 42.4446 25.0081C42.4446 25.7219 42.5448 26.4203 42.7401 27.0891C38.6699 27.965 34.8695 29.5756 31.4859 31.7762H21.7942C20.8234 31.7762 20.0364 32.5631 20.0364 33.534C20.0364 34.5048 20.8234 35.2918 21.7942 35.2918H26.966C25.3095 36.8206 23.806 38.5125 22.4808 40.342H13.0888C12.118 40.342 11.331 41.129 11.331 42.0998C11.331 43.0706 12.118 43.8576 13.0888 43.8576H20.2496C19.3631 45.466 18.6046 47.154 17.9862 48.9078H3.16296C2.19212 48.9078 1.40515 49.6948 1.40515 50.6656C1.40515 51.6365 2.19212 52.4234 3.16296 52.4234H16.9576C16.5034 54.3683 16.2175 56.3771 16.1166 58.4339C13.4036 58.896 11.3312 61.2622 11.3312 64.105C11.3312 67.2778 13.9125 69.8592 17.0852 69.8592H20.9789C22.5718 73.2918 26.0492 75.6793 30.0758 75.6793C34.1024 75.6793 37.5797 73.2918 39.1726 69.8592H42.4684C43.4392 69.8592 44.2262 69.0722 44.2262 68.1014C44.2262 67.1305 43.4392 66.3435 42.4684 66.3435H40.074C40.0897 66.1156 40.1004 65.8865 40.1004 65.6547C40.1004 64.3145 39.8341 63.0359 39.3549 61.8664H61.368C60.8888 63.036 60.6225 64.3145 60.6225 65.6547C60.6225 65.8865 60.6332 66.1156 60.6489 66.3435H58.2539C57.283 66.3435 56.4961 67.1305 56.4961 68.1014C56.4961 69.0722 57.283 69.8592 58.2539 69.8592H61.5496C63.1425 73.2918 66.6198 75.6793 70.6464 75.6793C74.6731 75.6793 78.1504 73.2918 79.7433 69.8592H83.6319C86.8048 69.8592 89.386 67.2778 89.386 64.105C89.386 60.9321 86.8048 58.3508 83.6319 58.3508ZM65.0346 28.5609C65.0346 22.6473 69.8456 17.8362 75.759 17.8362C81.6725 17.8362 86.4833 22.6473 86.4833 28.5609V28.5803C86.5444 34.1515 83.6553 37.9429 80.31 42.3329C79.9599 42.7924 79.6065 43.2563 79.2527 43.727L76.5532 46.8536C76.2713 47.179 75.9744 47.3732 75.7589 47.3732C75.5434 47.3732 75.2465 47.179 74.9666 46.8561L72.265 43.727C71.9112 43.2563 71.5579 42.7925 71.2075 42.3329C67.8622 37.9427 64.9733 34.1515 65.0343 28.5803C65.0346 28.5738 65.0346 28.5674 65.0346 28.5609ZM49.8478 21.125C51.9888 21.125 53.7307 22.867 53.7307 25.0081C53.7307 25.5356 53.6262 26.0467 53.4253 26.5215C52.245 26.3981 51.0519 26.3349 49.8477 26.3349C48.6381 26.3349 47.4435 26.3999 46.2663 26.5247C46.0645 26.0492 45.9597 25.5368 45.9597 25.0082C45.9599 22.867 47.704 21.125 49.8478 21.125ZM20.0775 66.3435H17.0852C15.8509 66.3435 14.8468 65.3393 14.8468 64.105C14.8468 62.8706 15.8509 61.8664 17.0852 61.8664H20.7968C20.3176 63.036 20.0513 64.3145 20.0513 65.6547C20.0511 65.8865 20.062 66.1157 20.0775 66.3435ZM30.0756 72.1638C26.4867 72.1638 23.5668 69.2439 23.5668 65.6548C23.5668 62.0657 26.4867 59.1458 30.0756 59.1458C33.6645 59.1458 36.5844 62.0657 36.5844 65.6548C36.5844 69.2439 33.6645 72.1638 30.0756 72.1638ZM70.6464 72.1638C67.0575 72.1638 64.1376 69.2439 64.1376 65.6548C64.1376 62.0657 67.0575 59.1458 70.6464 59.1458C74.2354 59.1458 77.1553 62.0657 77.1553 65.6548C77.1553 69.2439 74.2354 72.1638 70.6464 72.1638ZM77.5021 58.3508C75.7077 56.6656 73.2965 55.63 70.6464 55.63C67.9964 55.63 65.585 56.6656 63.7908 58.3508H36.9312C35.1369 56.6656 32.7257 55.63 30.0756 55.63C27.4255 55.63 25.0142 56.6656 23.22 58.3508H19.6428C20.5565 42.4814 33.754 29.8503 49.8478 29.8503C54.0346 29.8503 58.0714 30.684 61.8614 32.3283C62.8006 37.0967 65.5414 40.6972 68.4114 44.4637C68.7686 44.9323 72.3078 49.1558 72.3078 49.1558C73.2761 50.2733 74.5017 50.8887 75.7589 50.8887C76.6715 50.8887 77.5669 50.563 78.3606 49.9567C79.323 52.6581 79.8906 55.4674 80.0541 58.3506H77.5021V58.3508ZM83.6319 66.3435H80.6445C80.6602 66.1156 80.6709 65.8865 80.6709 65.6547C80.6709 64.3145 80.4046 63.0359 79.9254 61.8664H83.6321C84.8664 61.8664 85.8705 62.8706 85.8705 64.105C85.8703 65.3393 84.8663 66.3435 83.6319 66.3435Z" fill="#B0A2A2"/>
<path d="M50.3612 66.3436C49.3904 66.3436 48.6034 67.1306 48.6034 68.1014C48.6034 69.0723 49.3904 69.8593 50.3612 69.8593H50.3661C51.337 69.8593 52.1215 69.0723 52.1215 68.1014C52.1215 67.1306 51.3319 66.3436 50.3612 66.3436Z" fill="#B0A2A2"/>
</svg>
