<svg width="90" height="90" viewBox="0 0 90 90" fill="none" xmlns="http://www.w3.org/2000/svg">
<path d="M12.6562 68.9062H9.84375V87.1875H12.6562V68.9062Z" fill="#B0A2A2"/>
<path d="M83.3007 11.25L81.5625 10.3809V4.21875C81.5625 3.84579 81.4143 3.48811 81.1506 3.22439C80.8869 2.96066 80.5292 2.8125 80.1562 2.8125H74.5312C74.3075 2.8125 74.0869 2.86601 73.888 2.96857C73.6892 3.07113 73.5177 3.21976 73.3879 3.40207L73.387 3.40138L66.7764 12.6562H19.6875C17.0777 12.6592 14.5756 13.6972 12.7302 15.5427C10.8847 17.3881 9.84669 19.8902 9.84375 22.5V43.5938H12.6562V22.5C12.6584 20.6358 13.3998 18.8486 14.718 17.5305C16.0362 16.2123 17.8233 15.4709 19.6875 15.4688H66.0938V18.2812H19.6875C18.569 18.2825 17.4967 18.7274 16.7058 19.5183C15.9149 20.3092 15.47 21.3815 15.4688 22.5V42.1875H18.2812V22.5C18.2817 22.1272 18.43 21.7697 18.6936 21.5061C18.9572 21.2425 19.3147 21.0942 19.6875 21.0938H66.0938V56.25H63.2812V52.0312C63.6542 52.0312 64.0119 51.8831 64.2756 51.6194C64.5393 51.3556 64.6875 50.998 64.6875 50.625V46.4062C64.6875 46.0333 64.5393 45.6756 64.2756 45.4119C64.0119 45.1482 63.6542 45 63.2812 45V40.7812C63.6542 40.7812 64.0119 40.6331 64.2756 40.3694C64.5393 40.1056 64.6875 39.748 64.6875 39.375V35.1562C64.6875 34.7833 64.5393 34.4256 64.2756 34.1619C64.0119 33.8982 63.6542 33.75 63.2812 33.75H46.4062C46.0333 33.75 45.6756 33.8982 45.4119 34.1619C45.1482 34.4256 45 34.7833 45 35.1562V39.375C45 39.748 45.1482 40.1056 45.4119 40.3694C45.6756 40.6331 46.0333 40.7812 46.4062 40.7812V45C46.0333 45 45.6756 45.1482 45.4119 45.4119C45.1482 45.6756 45 46.0333 45 46.4062V47.8125H61.875V49.2188H49.2188V52.0312H60.4688V56.25H47.8125V59.0625H66.0938V60.4688H66.097C66.0959 60.6535 66.1314 60.8365 66.2015 61.0074C66.2716 61.1783 66.3748 61.3336 66.5053 61.4644C66.6358 61.5951 66.7908 61.6988 66.9616 61.7692C67.1323 61.8397 67.3153 61.8757 67.5 61.875H71.7188V87.1875H74.5312V60.9194L81.3005 51.4424C81.4709 51.2038 81.5625 50.9181 81.5625 50.625V36.0254L83.3007 35.1562C84.4715 34.5758 85.4562 33.679 86.1432 32.5674C86.8301 31.4559 87.1919 30.1741 87.1875 28.8673V17.5389C87.1919 16.2322 86.8301 14.9504 86.1432 13.8388C85.4562 12.7273 84.4715 11.8304 83.3007 11.25ZM47.8125 36.5625H61.875V37.9688H47.8125V36.5625ZM49.2188 40.7812H60.4688V45H49.2188V40.7812ZM78.75 5.625V49.2188H75.9375V5.625H78.75ZM68.9062 14.5131L73.125 8.60689V50.1744L68.9062 56.0806V14.5131ZM75.2549 52.0312H77.4237L72.4013 59.0625H70.2327L75.2549 52.0312ZM84.375 28.8673C84.3776 29.6514 84.1605 30.4205 83.7483 31.0874C83.3361 31.7544 82.7453 32.2925 82.0428 32.6407L81.5625 32.8809V13.5254L82.0428 13.7655C82.7453 14.1138 83.3361 14.6519 83.7483 15.3188C84.1605 15.9858 84.3776 16.7549 84.375 17.5389V28.8673Z" fill="#B0A2A2"/>
<path d="M64.6875 63.2812H37.9688V66.0938H64.6875C65.0603 66.0942 65.4178 66.2425 65.6814 66.5061C65.945 66.7697 66.0933 67.1272 66.0938 67.5V87.1875H68.9062V67.5C68.905 66.3815 68.4601 65.3092 67.6692 64.5183C66.8783 63.7274 65.806 63.2825 64.6875 63.2812Z" fill="#B0A2A2"/>
<path d="M18.2812 68.9062H15.4688V87.1875H18.2812V68.9062Z" fill="#B0A2A2"/>
<path d="M25.3125 68.9062C24.194 68.9075 23.1217 69.3524 22.3308 70.1433C21.5399 70.9342 21.095 72.0065 21.0938 73.125V87.1875H23.9062V73.125C23.9062 72.752 24.0544 72.3944 24.3181 72.1306C24.5819 71.8669 24.9395 71.7188 25.3125 71.7188C25.6855 71.7188 26.0431 71.8669 26.3069 72.1306C26.5706 72.3944 26.7188 72.752 26.7188 73.125V87.1875H29.5312V73.125C29.53 72.0065 29.0851 70.9342 28.2942 70.1433C27.5033 69.3524 26.431 68.9075 25.3125 68.9062Z" fill="#B0A2A2"/>
<path d="M39.375 39.375V35.1562C39.375 34.7833 39.2268 34.4256 38.9631 34.1619C38.6994 33.8982 38.3417 33.75 37.9688 33.75H21.0938C20.7208 33.75 20.3631 33.8982 20.0994 34.1619C19.8357 34.4256 19.6875 34.7833 19.6875 35.1562V39.375C19.6875 39.748 19.8357 40.1056 20.0994 40.3694C20.3631 40.6331 20.7208 40.7812 21.0938 40.7812V42.1875H23.9062V40.7812H35.1562V45H30.9375V47.8125H39.375V46.4062C39.375 46.0333 39.2268 45.6756 38.9631 45.4119C38.6994 45.1482 38.3417 45 37.9688 45V40.7812C38.3417 40.7812 38.6994 40.6331 38.9631 40.3694C39.2268 40.1056 39.375 39.748 39.375 39.375ZM22.5 36.5625H36.5625V37.9688H22.5V36.5625Z" fill="#B0A2A2"/>
<path d="M45 60.4688V56.25C45.373 56.25 45.7306 56.1019 45.9944 55.8381C46.2581 55.5744 46.4062 55.2167 46.4062 54.8438V50.625C46.4062 50.2521 46.2581 49.8944 45.9944 49.6307C45.7306 49.3669 45.373 49.2188 45 49.2188H29.2893C29.5147 48.5825 29.584 47.9015 29.4914 47.2328C29.3989 46.5642 29.1472 45.9276 28.7576 45.3764C28.3679 44.8253 27.8516 44.3757 27.2521 44.0655C26.6527 43.7553 25.9875 43.5935 25.3125 43.5938H19.205C18.2812 43.5913 17.3661 43.772 16.5127 44.1255C15.6593 44.479 14.8844 44.9983 14.233 45.6532L10.0535 49.8326C9.46508 50.4222 8.71478 50.8238 7.89779 50.9863L3.94289 51.7773L4.49461 54.5352L8.44934 53.7442C9.81104 53.4733 11.0616 52.804 12.0424 51.8213L16.2217 47.642C16.6125 47.249 17.0775 46.9375 17.5895 46.7253C18.1016 46.5132 18.6507 46.4048 19.205 46.4063H25.3125C25.6855 46.4063 26.0431 46.5544 26.3069 46.8182C26.5706 47.0819 26.7187 47.4396 26.7187 47.8125C26.7187 48.1855 26.5706 48.5432 26.3069 48.8069C26.0431 49.0706 25.6855 49.2188 25.3125 49.2188H21.0937C20.7208 49.2188 20.3631 49.3669 20.0994 49.6307C19.8357 49.8944 19.6875 50.2521 19.6875 50.625C19.6887 51.6914 19.4259 52.7416 18.9228 53.6818C18.4196 54.6221 17.6915 55.4232 16.8036 56.0138L16.095 56.4861L17.655 58.8264L18.3636 58.354C19.246 57.7652 20.0211 57.0297 20.6553 56.1794C20.7968 56.2261 20.9448 56.2499 21.0937 56.25V60.4688C21.0937 60.8417 21.2419 61.1994 21.5056 61.4631C21.7694 61.7269 22.127 61.875 22.5 61.875H32.3437C32.3433 62.2478 32.195 62.6053 31.9314 62.8689C31.6678 63.1325 31.3103 63.2808 30.9375 63.2813H12.6562C12.4658 63.2813 12.2773 63.32 12.1023 63.395L3.66479 67.011L4.7727 69.5961L12.9448 66.0938H30.9375C32.056 66.0925 33.1283 65.6476 33.9192 64.8567C34.7101 64.0658 35.155 62.9935 35.1562 61.875H43.5937C43.9667 61.875 44.3244 61.7269 44.5881 61.4631C44.8518 61.1994 45 60.8417 45 60.4688ZM25.3125 52.0313H43.5937V53.4375H22.5V52.0313H25.3125ZM23.9062 59.0625V56.25H42.1875V59.0625H23.9062Z" fill="#B0A2A2"/>
</svg>
