<svg width="1920" height="109" viewBox="0 0 1920 109" fill="none" xmlns="http://www.w3.org/2000/svg">
<g style="mix-blend-mode:multiply" opacity="0.3">
<g style="mix-blend-mode:multiply" opacity="0.3">
<g style="mix-blend-mode:multiply" opacity="0.3">
<path d="M165.36 10.0692C215.678 11.8387 298.112 15.4177 335.774 23.3575C445.66 37.5691 528.829 61.0812 650.466 70.0841C739.879 76.7018 832.725 74.4173 926.793 70.2308C841.24 73.5385 756.883 74.6414 675.279 68.6017C549.002 59.2554 462.66 34.8464 348.582 20.0925C309.484 11.8499 223.905 8.13443 171.668 6.29742C140.688 5.20781 66.1523 4.01857 0 5.51505V9.31548C63.7211 7.87406 135.519 9.01971 165.36 10.0692Z" fill="#FBA7AF"/>
</g>
<g style="mix-blend-mode:multiply" opacity="0.3">
<path d="M1673.93 90.9556C1574.71 77.6002 1475.43 62.5539 1359.5 58.2527C1277.46 55.2094 1194.11 57.7925 1110.84 61.5915C1177.44 58.9844 1243.93 57.6811 1309.54 60.1154C1421.22 64.2585 1516.85 78.7519 1612.42 91.6166C1661.41 98.2109 1713.46 104.569 1767.78 108.944H1835.22C1778.82 104.402 1724.79 97.8015 1673.93 90.9556Z" fill="#FBA7AF"/>
</g>
</g>
<g style="mix-blend-mode:multiply" opacity="0.3">
<g style="mix-blend-mode:multiply" opacity="0.3">
<path d="M165.81 9.80027C216.264 11.5747 298.922 15.1633 336.686 23.1246C446.871 37.3749 530.266 60.9509 652.234 69.9782C741.89 76.614 834.988 74.3233 929.312 70.1254C843.526 73.4421 758.939 74.548 677.114 68.4919C550.494 59.1202 463.917 34.6449 349.529 19.8509C310.325 11.5858 224.514 7.86025 172.135 6.01826C141.071 4.92569 66.3322 3.73322 0 5.23375V9.04455C63.8942 7.59923 135.888 8.74797 165.81 9.80027Z" fill="#FBACB4"/>
</g>
<g style="mix-blend-mode:multiply" opacity="0.3">
<path d="M1678.48 90.9075C1578.99 77.5158 1479.44 62.4287 1363.19 58.1158C1280.94 55.0642 1197.36 57.6542 1113.86 61.4636C1180.64 58.8493 1247.31 57.5426 1313.1 59.9835C1425.08 64.1378 1520.97 78.6707 1616.8 91.5703C1665.92 98.1826 1718.12 104.558 1772.58 108.945H1840.2C1783.66 104.391 1729.47 97.772 1678.48 90.9075Z" fill="#FBACB4"/>
</g>
</g>
<g style="mix-blend-mode:multiply" opacity="0.3">
<g style="mix-blend-mode:multiply" opacity="0.3">
<path d="M166.259 9.53231C216.85 11.3115 299.732 14.9099 337.599 22.8928C448.082 37.1817 531.703 60.8216 654.002 69.8734C743.9 76.5272 837.251 74.2302 931.83 70.021C845.812 73.3467 760.996 74.4556 678.95 68.383C551.986 58.986 465.174 34.4442 350.477 19.6102C311.166 11.3228 225.122 7.58708 172.601 5.74011C141.453 4.64458 66.512 3.44883 0 4.95342V8.77458C64.0675 7.32532 136.256 8.47716 166.259 9.53231Z" fill="#FBB1B8"/>
</g>
<g style="mix-blend-mode:multiply" opacity="0.3">
<path d="M1683.03 90.8584C1583.27 77.4304 1483.45 62.3024 1366.89 57.9778C1284.41 54.9179 1200.6 57.5151 1116.88 61.3348C1183.84 58.7134 1250.69 57.4031 1316.66 59.8506C1428.94 64.0162 1525.09 78.5884 1621.18 91.5229C1670.44 98.1532 1722.77 104.546 1777.39 108.944H1845.19C1788.49 104.378 1734.16 97.7416 1683.03 90.8584Z" fill="#FBB1B8"/>
</g>
</g>
<g style="mix-blend-mode:multiply" opacity="0.3">
<g style="mix-blend-mode:multiply" opacity="0.3">
<path d="M166.709 9.26339C217.436 11.0474 300.542 14.6555 338.511 22.66C449.293 36.9875 533.14 60.6913 655.769 69.7675C745.911 76.4393 839.515 74.1361 934.349 69.9155C848.099 73.2502 763.053 74.3621 680.785 68.2731C553.477 58.8507 466.432 34.2426 351.424 19.3685C312.007 11.0587 225.731 7.31288 173.068 5.46092C141.835 4.36244 66.6916 3.16347 0 4.67216V8.50362C64.2406 7.05042 136.624 8.20539 166.709 9.26339Z" fill="#FCB7BD"/>
</g>
<g style="mix-blend-mode:multiply" opacity="0.3">
<path d="M1687.57 90.8093C1587.55 77.345 1487.46 62.1762 1370.58 57.8398C1287.88 54.7717 1203.85 57.3758 1119.9 61.2059C1187.04 58.5774 1254.07 57.2636 1320.22 59.7177C1432.81 63.8945 1529.21 78.5062 1625.56 91.4757C1674.95 98.1238 1727.43 104.534 1782.19 108.944H1850.18C1793.32 104.366 1738.85 97.711 1687.57 90.8093Z" fill="#FCB7BD"/>
</g>
</g>
<g style="mix-blend-mode:multiply" opacity="0.3">
<g style="mix-blend-mode:multiply" opacity="0.3">
<path d="M167.158 8.99448C218.022 10.7833 301.352 14.4011 339.424 22.4272C450.504 36.7933 534.577 60.561 657.537 69.6618C747.922 76.3515 841.777 74.0421 936.867 69.8101C850.385 73.1538 765.11 74.2686 682.62 68.1632C554.969 58.7154 467.689 34.041 352.371 19.1269C312.848 10.7946 226.339 7.03868 173.534 5.18174C142.218 4.08029 66.8714 2.87812 0 4.39087V8.2326C64.4139 6.77551 136.992 7.93362 167.158 8.99448Z" fill="#FCBCC2"/>
</g>
<g style="mix-blend-mode:multiply" opacity="0.3">
<path d="M1692.12 90.7602C1591.83 77.2596 1491.47 62.0498 1374.28 57.7019C1291.35 54.6255 1207.09 57.2367 1122.92 61.077C1190.24 58.4415 1257.45 57.1241 1323.78 59.5848C1436.67 63.773 1533.33 78.4239 1629.95 91.4284C1679.47 98.0944 1732.08 104.522 1787 108.944H1855.16C1798.16 104.353 1743.54 97.6805 1692.12 90.7602Z" fill="#FCBCC2"/>
</g>
</g>
<g style="mix-blend-mode:multiply" opacity="0.3">
<g style="mix-blend-mode:multiply" opacity="0.3">
<path d="M167.607 8.72555C218.608 10.5192 302.162 14.1468 340.336 22.1944C451.715 36.5992 536.015 60.4307 659.305 69.5559C749.932 76.2636 844.04 73.9481 939.386 69.7047C852.671 73.0574 767.167 74.1752 684.455 68.0534C556.461 58.5802 468.946 33.8395 353.318 18.8852C313.689 10.5305 226.948 6.76451 174.001 4.90258C142.6 3.79818 67.0512 2.59277 0 4.10957V7.96166C64.587 6.50063 137.361 7.66185 167.607 8.72555Z" fill="#FCC1C7"/>
</g>
<g style="mix-blend-mode:multiply" opacity="0.3">
<path d="M1696.67 90.7111C1596.1 77.1743 1495.48 61.9236 1377.97 57.5639C1294.82 54.4793 1210.34 57.0974 1125.94 60.9481C1193.44 58.3055 1260.83 56.9845 1327.34 59.4519C1440.53 63.6513 1537.46 78.3416 1634.33 91.3811C1683.98 98.0651 1736.74 104.51 1791.8 108.944H1860.15C1802.99 104.34 1748.22 97.6501 1696.67 90.7111Z" fill="#FCC1C7"/>
</g>
</g>
<g style="mix-blend-mode:multiply" opacity="0.3">
<g style="mix-blend-mode:multiply" opacity="0.3">
<path d="M168.057 8.45664C219.195 10.2551 302.972 13.8924 341.249 21.9616C452.927 36.405 537.452 60.3004 661.073 69.4501C751.943 76.1758 846.304 73.8541 941.905 69.5993C854.957 72.961 769.224 74.0818 686.29 67.9436C557.953 58.4449 470.204 33.6379 354.266 18.6435C314.53 10.2665 227.556 6.49042 174.467 4.62345C142.982 3.51609 67.231 2.30741 0 3.82827V7.69072C64.76 6.2258 137.729 7.3901 168.057 8.45664Z" fill="#FCC6CB"/>
</g>
<g style="mix-blend-mode:multiply" opacity="0.3">
<path d="M1701.22 90.663C1600.38 77.0898 1499.49 61.7983 1381.66 57.4269C1298.29 54.334 1213.58 56.9592 1128.96 60.8202C1196.64 58.1705 1264.21 56.846 1330.89 59.32C1444.39 63.5306 1541.58 78.2603 1638.71 91.3348C1688.5 98.0367 1741.4 104.499 1796.6 108.945H1865.14C1807.83 104.329 1752.91 97.6206 1701.22 90.663Z" fill="#FCC6CB"/>
</g>
</g>
<g style="mix-blend-mode:multiply" opacity="0.3">
<g style="mix-blend-mode:multiply" opacity="0.3">
<path d="M168.506 8.18872C219.781 9.99197 303.783 13.639 342.161 21.7298C454.137 36.2118 538.888 60.1712 662.84 69.3453C753.954 76.089 848.566 73.761 944.423 69.4948C857.243 72.8655 771.281 73.9894 688.125 67.8347C559.445 58.3107 471.461 33.4373 355.213 18.4029C315.371 10.0034 228.165 6.21721 174.934 4.34525C143.365 3.23488 67.4108 2.02306 0 3.54797V7.42075C64.9334 5.95188 138.097 7.11932 168.506 8.18872Z" fill="#FDCBD0"/>
</g>
<g style="mix-blend-mode:multiply" opacity="0.3">
<path d="M1705.77 90.614C1604.66 77.0045 1503.5 61.672 1385.36 57.289C1301.76 54.1877 1216.83 56.82 1131.97 60.6913C1199.84 58.0345 1267.59 56.7065 1334.45 59.1871C1448.26 63.409 1545.7 78.1781 1643.09 91.2875C1693.01 98.0073 1746.05 104.486 1801.41 108.944H1870.13C1812.66 104.316 1757.6 97.5901 1705.77 90.614Z" fill="#FDCBD0"/>
</g>
</g>
<g style="mix-blend-mode:multiply" opacity="0.3">
<g style="mix-blend-mode:multiply" opacity="0.3">
<path d="M168.956 7.91983C220.367 9.72785 304.593 13.3846 343.074 21.497C455.349 36.0176 540.326 60.0409 664.608 69.2395C755.964 76.0011 850.829 73.6669 946.942 69.3894C859.529 72.769 773.338 73.8959 689.96 67.7249C560.937 58.1754 472.718 33.2357 356.16 18.1612C316.212 9.73931 228.773 5.94301 175.4 4.06607C143.747 2.95274 67.5904 1.73769 0 3.26671V7.14976C65.1064 5.677 138.466 6.84753 168.956 7.91983Z" fill="#FDD0D5"/>
</g>
<g style="mix-blend-mode:multiply" opacity="0.3">
<path d="M1710.32 90.5649C1608.94 76.9191 1507.51 61.5457 1389.05 57.151C1305.24 54.0415 1220.07 56.6808 1134.99 60.5624C1203.04 57.8985 1270.97 56.567 1338.01 59.0542C1452.12 63.2874 1549.82 78.0959 1647.47 91.2402C1697.53 97.9779 1750.71 104.474 1806.21 108.944H1875.11C1817.49 104.304 1762.28 97.5596 1710.32 90.5649Z" fill="#FDD0D5"/>
</g>
</g>
<g style="mix-blend-mode:multiply" opacity="0.3">
<g style="mix-blend-mode:multiply" opacity="0.3">
<path d="M169.405 7.65089C220.953 9.46374 305.403 13.1302 343.986 21.2642C456.56 35.8234 541.763 59.9106 666.376 69.1337C757.975 75.9133 853.092 73.5729 949.461 69.284C861.815 72.6726 775.395 73.8025 691.795 67.6151C562.429 58.0402 473.976 33.0342 357.107 17.9195C317.053 9.47521 229.381 5.66886 175.867 3.78694C144.129 2.67064 67.7702 1.45233 0 2.9854V6.87882C65.2798 5.40212 138.834 6.57574 169.405 7.65089Z" fill="#FDD6D9"/>
</g>
<g style="mix-blend-mode:multiply" opacity="0.3">
<path d="M1714.87 90.5158C1613.22 76.8337 1511.52 61.4195 1392.75 57.0131C1308.71 53.8953 1223.32 56.5415 1138.01 60.4335C1206.24 57.7626 1274.35 56.4275 1341.57 58.9213C1455.98 63.1657 1553.94 78.0136 1651.86 91.1929C1702.04 97.9486 1755.37 104.462 1811.02 108.944H1880.1C1822.33 104.291 1766.97 97.5291 1714.87 90.5158Z" fill="#FDD6D9"/>
</g>
</g>
<g style="mix-blend-mode:multiply" opacity="0.3">
<g style="mix-blend-mode:multiply" opacity="0.3">
<path d="M169.854 7.383C221.539 9.20067 306.213 12.8769 344.899 21.0324C457.771 35.6303 543.2 59.7813 668.143 69.0288C759.986 75.8264 855.355 73.4799 951.979 69.1796C864.102 72.5772 777.451 73.71 693.63 67.5062C563.921 57.9059 475.233 32.8336 358.055 17.6788C317.894 9.21211 229.99 5.39569 176.333 3.50878C144.512 2.38953 67.95 1.16792 0 2.7051V6.60889C65.4528 5.12824 139.202 6.305 169.854 7.383Z" fill="#FDDBDE"/>
</g>
<g style="mix-blend-mode:multiply" opacity="0.3">
<path d="M1719.42 90.4677C1617.5 76.7493 1515.53 61.2942 1396.44 56.8761C1312.18 53.75 1226.57 56.4034 1141.03 60.3056C1209.43 57.6276 1277.73 56.289 1345.13 58.7894C1459.84 63.0451 1558.07 77.9323 1656.24 91.1466C1706.56 97.9201 1760.02 104.451 1815.82 108.945H1885.09C1827.16 104.28 1771.66 97.4996 1719.42 90.4677Z" fill="#FDDBDE"/>
</g>
</g>
<g style="mix-blend-mode:multiply" opacity="0.3">
<g style="mix-blend-mode:multiply" opacity="0.3">
<path d="M170.304 7.11408C222.125 8.93657 307.023 12.6225 345.811 20.7996C458.982 35.4361 544.637 59.6511 669.911 68.9231C761.997 75.7387 857.618 73.3858 954.498 69.0742C866.388 72.4808 779.508 73.6166 695.466 67.3963C565.413 57.7706 476.49 32.632 359.002 17.4371C318.735 8.94806 230.598 5.12149 176.8 3.22959C144.894 2.10739 68.1298 0.88258 0 2.42381V6.33786C65.6259 4.85338 139.571 6.03324 170.304 7.11408Z" fill="#FEE0E3"/>
</g>
<g style="mix-blend-mode:multiply" opacity="0.3">
<path d="M1723.97 90.4176C1621.78 76.6629 1519.54 61.1669 1400.14 56.7371C1315.65 53.6028 1229.81 56.2631 1144.05 60.1757C1212.63 57.4906 1281.11 56.1485 1348.69 58.6555C1463.7 62.9225 1562.19 77.8491 1660.62 91.0983C1711.07 97.8898 1764.68 104.438 1820.62 108.944H1890.08C1832 104.266 1776.35 97.4681 1723.97 90.4176Z" fill="#FEE0E3"/>
</g>
</g>
<g style="mix-blend-mode:multiply" opacity="0.3">
<g style="mix-blend-mode:multiply" opacity="0.3">
<path d="M170.753 6.84516C222.711 8.67246 307.833 12.3681 346.724 20.5668C460.193 35.2419 546.074 59.5207 671.679 68.8172C764.007 75.6508 859.881 73.2918 957.016 68.9688C868.674 72.3844 781.565 73.5232 697.301 67.2865C566.905 57.6354 477.748 32.4304 359.949 17.1954C319.576 8.68398 231.207 4.84732 177.266 2.95044C145.276 1.82527 68.3097 0.597227 0 2.14252V6.06693C65.7992 4.5785 139.939 5.76146 170.753 6.84516Z" fill="#FEE5E7"/>
</g>
<g style="mix-blend-mode:multiply" opacity="0.3">
<path d="M1728.52 90.3695C1626.06 76.5785 1523.55 61.0417 1403.83 56.6002C1319.12 53.4576 1233.06 56.1249 1147.07 60.0478C1215.83 57.3556 1284.49 56.0099 1352.25 58.5236C1467.57 62.8018 1566.31 77.7678 1665 91.052C1715.59 97.8614 1769.34 104.427 1825.43 108.944H1895.06C1836.83 104.255 1781.03 97.4386 1728.52 90.3695Z" fill="#FEE5E7"/>
</g>
</g>
<g style="mix-blend-mode:multiply" opacity="0.3">
<g style="mix-blend-mode:multiply" opacity="0.3">
<path d="M171.202 6.57623C223.297 8.4083 308.644 12.1137 347.636 20.334C461.404 35.0477 547.511 59.3905 673.446 68.7114C766.018 75.563 862.144 73.1977 959.535 68.8633C870.96 72.2879 783.622 73.4298 699.136 67.1767C568.397 57.5002 479.005 32.2288 360.897 16.9538C320.417 8.41993 231.816 4.5732 177.733 2.67128C145.659 1.54315 68.4895 0.311853 0 1.86125V5.79596C65.9723 4.30359 140.307 5.48968 171.202 6.57623Z" fill="#FEEAEC"/>
</g>
<g style="mix-blend-mode:multiply" opacity="0.3">
<path d="M1733.06 90.3203C1630.34 76.4931 1527.56 60.9154 1407.53 56.4622C1322.59 53.3113 1236.3 55.9857 1150.09 59.919C1219.03 57.2196 1287.87 55.8704 1355.81 58.3907C1471.43 62.6801 1570.43 77.6856 1669.38 91.0047C1720.1 97.8321 1773.99 104.415 1830.23 108.944H1900.05C1841.66 104.242 1785.72 97.4081 1733.06 90.3203Z" fill="#FEEAEC"/>
</g>
</g>
<g style="mix-blend-mode:multiply" opacity="0.3">
<g style="mix-blend-mode:multiply" opacity="0.3">
<path d="M171.652 6.30731C223.883 8.1442 309.454 11.8593 348.549 20.1012C462.615 34.8535 548.949 59.2602 675.214 68.6055C768.029 75.4751 864.407 73.1037 962.054 68.7579C873.246 72.1915 785.679 73.3363 700.971 67.0668C569.889 57.365 480.262 32.0273 361.844 16.7121C321.258 8.15582 232.424 4.299 178.199 2.39209C146.041 1.26101 68.6691 0.0265095 0 1.57996V5.525C66.1456 4.02869 140.675 5.21792 171.652 6.30731Z" fill="#FEEFF1"/>
</g>
<g style="mix-blend-mode:multiply" opacity="0.3">
<path d="M1737.61 90.2713C1634.62 76.4077 1531.57 60.7891 1411.22 56.3242C1326.07 53.1651 1239.55 55.8465 1153.11 59.7901C1222.23 57.0837 1291.25 55.7309 1359.37 58.2578C1475.29 62.5585 1574.56 77.6033 1673.76 90.9574C1724.62 97.8027 1778.65 104.403 1835.04 108.944H1905.04C1846.5 104.23 1790.41 97.3777 1737.61 90.2713Z" fill="#FEEFF1"/>
</g>
</g>
<g style="mix-blend-mode:multiply" opacity="0.3">
<g style="mix-blend-mode:multiply" opacity="0.3">
<path d="M172.101 6.03936C224.47 7.88107 310.264 11.6059 349.461 19.8694C463.826 34.6604 550.386 59.1309 676.982 68.5008C770.039 75.3883 866.67 73.0106 964.572 68.6535C875.532 72.096 787.736 73.2439 702.806 66.9579C571.381 57.2307 481.519 31.8267 362.791 16.4714C322.099 7.89277 233.032 4.0258 178.666 2.11391C146.423 0.979871 68.8489 -0.257866 0 1.29964V5.25501C66.3186 3.75486 141.044 4.94712 172.101 6.03936Z" fill="#FFF5F6"/>
</g>
<g style="mix-blend-mode:multiply" opacity="0.3">
<path d="M1742.16 90.2232C1638.9 76.3234 1535.58 60.6638 1414.92 56.1872C1329.54 53.0199 1242.79 55.7083 1156.12 59.6621C1225.43 56.9487 1294.63 55.5924 1362.92 58.1259C1479.15 62.4379 1578.68 77.5221 1678.15 90.9111C1729.13 97.7743 1783.31 104.392 1839.84 108.945H1910.03C1851.33 104.218 1795.1 97.3481 1742.16 90.2232Z" fill="#FFF5F6"/>
</g>
</g>
<g style="mix-blend-mode:multiply" opacity="0.3">
<g style="mix-blend-mode:multiply" opacity="0.3">
<path d="M172.55 5.77047C225.056 7.617 311.074 11.3515 350.374 19.6365C465.038 34.4662 551.823 59.0006 678.75 68.3949C772.05 75.3004 868.933 72.9166 967.091 68.548C877.818 71.9996 789.793 73.1504 704.641 66.8481C572.873 57.0954 482.777 31.6251 363.738 16.2298C322.94 7.62866 233.641 3.75163 179.133 1.83475C146.806 0.697754 69.0287 -0.543219 0 1.01834V4.98408C66.4917 3.47999 141.412 4.67538 172.55 5.77047Z" fill="#FFFAFA"/>
</g>
<g style="mix-blend-mode:multiply" opacity="0.3">
<path d="M1746.71 90.174C1643.18 76.238 1539.59 60.5375 1418.61 56.0493C1333.01 52.8736 1246.04 55.569 1159.14 59.5333C1228.63 56.8127 1298.01 55.4528 1366.48 57.9929C1483.02 62.3162 1582.8 77.4398 1682.53 90.8638C1733.65 97.7449 1787.96 104.38 1844.65 108.945H1915.01C1856.17 104.205 1799.78 97.3176 1746.71 90.174Z" fill="#FFFAFA"/>
</g>
</g>
<g style="mix-blend-mode:multiply" opacity="0.3">
<g style="mix-blend-mode:multiply" opacity="0.3">
<path d="M173 5.50157C225.642 7.35287 311.884 11.0972 351.286 19.4038C466.249 34.272 553.26 58.8703 680.517 68.2891C774.061 75.2126 871.196 72.8225 969.61 68.4426C880.105 71.9031 791.85 73.057 706.476 66.7382C574.365 56.9602 484.034 31.4235 364.686 15.988C323.782 7.3646 234.249 3.47745 179.599 1.55559C147.188 0.415637 69.2085 -0.828571 0 0.737042V4.71311C66.665 3.20507 141.78 4.40358 173 5.50157Z" fill="white"/>
</g>
<g style="mix-blend-mode:multiply" opacity="0.3">
<path d="M1751.26 90.125C1647.46 76.1526 1543.6 60.4113 1422.3 55.9113C1336.48 52.7274 1249.28 55.4299 1162.16 59.4044C1231.83 56.6768 1301.4 55.3133 1370.04 57.86C1486.88 62.1945 1586.92 77.3575 1686.91 90.8165C1738.16 97.7155 1792.62 104.367 1849.45 108.944H1920C1861 104.193 1804.47 97.2872 1751.26 90.125Z" fill="white"/>
</g>
</g>
</g>
<path d="M1809 109C1753.41 104.551 1700.15 98.0859 1650.02 91.3802C1552.21 78.2984 1454.36 63.5605 1340.08 59.3474C1115.46 51.0667 880.828 85.3113 665.633 69.4842C541.159 60.3294 456.051 36.4205 343.603 21.969C305.063 13.8951 220.707 10.2558 169.216 8.45638C138.679 7.38917 65.2071 6.22426 0 7.69002V109H1809Z" fill="url(#paint0_linear)"/>
<path d="M1727 109C1673.93 104.726 1623.08 98.514 1575.22 92.0712C1481.85 79.5025 1388.43 65.3424 1279.33 61.2946C1064.89 53.3386 840.902 86.2403 635.461 71.0338C516.629 62.2381 435.379 39.2667 328.027 25.3819C291.234 17.6247 210.703 14.1281 161.545 12.3992C132.393 11.3739 62.2514 10.2547 0 11.6629V109H1727Z" fill="url(#paint1_linear)"/>
<defs>
<linearGradient id="paint0_linear" x1="0" y1="104897" x2="1.25912e+06" y2="104897" gradientUnits="userSpaceOnUse">
<stop stop-color="white"/>
<stop offset="0.8475" stop-color="#FFEDEF"/>
</linearGradient>
<linearGradient id="paint1_linear" x1="0" y1="101201" x2="1.14792e+06" y2="101201" gradientUnits="userSpaceOnUse">
<stop stop-color="#FFFAFA"/>
<stop offset="0.8475" stop-color="#FFE0E3"/>
</linearGradient>
</defs>
</svg>
