<svg width="50" height="50" viewBox="0 0 50 50" fill="none" xmlns="http://www.w3.org/2000/svg">
<g clip-path="url(#clip0)">
<path d="M48.24 28.9439C49.7317 16.3877 47.5233 8.46059 43.54 4.87517L43.5421 4.87309C37.1129 -1.24983 15.4004 -2.15608 7.70874 5.14809C4.25458 8.72101 3.03791 13.9648 2.90458 20.4564C2.77124 26.9502 2.61291 39.1148 13.9483 42.4148H13.9587L13.9483 47.4543C13.9483 47.4543 13.8712 49.496 15.1754 49.9064C16.6671 50.3898 17.3421 49.4418 21.9817 43.9002C29.74 44.5731 35.6983 43.0314 36.3754 42.8064C37.9421 42.2814 46.8067 41.1085 48.24 28.9439ZM22.7462 40.3543C22.7462 40.3543 17.8358 46.4773 16.3087 48.0668C15.8087 48.5835 15.2608 48.5356 15.2692 47.5106C15.2692 46.8377 15.3067 39.1439 15.3067 39.1439C5.69624 36.3898 6.26291 26.0314 6.36708 20.6127C6.47124 15.1918 7.46291 10.7523 10.3879 7.76267C17.1358 1.43559 36.1713 2.85017 41.0213 7.40851C46.9504 12.6648 44.84 27.5148 44.8525 28.021C43.6338 38.1752 36.4504 38.8189 35.1296 39.2585C34.565 39.446 29.3254 40.7939 22.7462 40.3543Z" fill="#8E24AA"/>
<path d="M25.4629 8.95215C24.6608 8.95215 24.6608 10.2021 25.4629 10.2126C31.6858 10.2605 36.8108 14.598 36.8671 22.5542C36.8671 23.3938 38.0962 23.3834 38.0858 22.5438H38.0837C38.0171 13.9709 32.4212 9.00007 25.4629 8.95215Z" fill="#8E24AA"/>
<path d="M33.6486 21.2355C33.6299 22.0647 34.8569 22.1042 34.8674 21.2647C34.9694 16.5376 32.0549 12.6438 26.5778 12.2334C25.7757 12.1751 25.6924 13.4355 26.4924 13.4938C31.2424 13.8542 33.7444 17.0959 33.6486 21.2355Z" fill="#8E24AA"/>
<path d="M32.3353 26.6129C31.3061 26.017 30.2582 26.3879 29.8249 26.9733L28.9186 28.1462C28.4582 28.7421 27.5978 28.6629 27.5978 28.6629C21.3186 27.0025 19.6395 20.4316 19.6395 20.4316C19.6395 20.4316 19.5624 19.542 20.1374 19.065L21.2707 18.1275C21.8374 17.6775 22.1957 16.5941 21.6186 15.5295C20.077 12.7441 19.0415 11.7837 18.5145 11.0462C17.9603 10.3525 17.127 10.1962 16.2603 10.665H16.2415C14.4395 11.7191 12.4665 13.692 13.0978 15.7233C14.1749 17.865 16.154 24.692 22.4624 29.8504C25.427 32.29 30.1186 34.79 32.1103 35.3671L32.129 35.3962C34.0915 36.0504 35.9999 34.0004 37.0186 32.1441V32.1296C37.4707 31.2316 37.3207 30.3816 36.6603 29.8254C35.4895 28.6837 33.7228 27.4233 32.3353 26.6129Z" fill="#8E24AA"/>
<path d="M27.4358 16.8838C29.4379 17.0005 30.4087 18.0463 30.5129 20.1942C30.5504 21.0338 31.7691 20.9755 31.7316 20.1359C31.5983 17.3317 30.1358 15.7692 27.5025 15.6234C26.7004 15.5755 26.6254 16.8359 27.4358 16.8838Z" fill="#8E24AA"/>
</g>
<defs>
<clipPath id="clip0">
<rect width="50" height="50" fill="white"/>
</clipPath>
</defs>
</svg>
