<svg width="50" height="50" viewBox="0 0 50 50" fill="none" xmlns="http://www.w3.org/2000/svg">
<path d="M0 50L3.44824 37.5C1.20693 33.6207 0 29.3104 0 24.8275C0 11.2069 11.2069 0 24.9138 0C38.6206 0 50 11.2069 50 24.8275C50 38.4481 38.6207 50 24.9138 50C20.6034 50 16.4655 48.6207 12.7586 46.5518L0 50Z" fill="#EDEDED"/>
<path d="M13.4484 42.0691L14.2243 42.5002C17.414 44.4829 21.1209 45.6898 25.0002 45.6898C36.2933 45.6898 45.6898 36.2933 45.6898 24.8277C45.6898 13.3622 36.2933 4.31055 24.914 4.31055C13.5347 4.31055 4.31055 13.4484 4.31055 24.8277C4.31055 28.7933 5.43125 32.6726 7.5002 35.9484L8.01748 36.7243L6.03477 43.9657L13.4484 42.0691Z" fill="#55CD6C"/>
<path d="M18.2759 13.2757L16.638 13.1895C16.1207 13.1895 15.6035 13.3619 15.2587 13.7067C14.4828 14.3964 13.1898 15.6895 12.8449 17.4137C12.2415 19.9999 13.1898 23.1033 15.4312 26.2067C17.6726 29.3102 21.9829 34.3101 29.5691 36.4653C31.9828 37.155 33.8794 36.7239 35.4312 35.7757C36.6381 34.9998 37.4139 33.793 37.6726 32.4998L37.9312 31.2929C38.0174 30.948 37.8449 30.517 37.5001 30.3446L32.0691 27.8446C31.7242 27.6722 31.2932 27.7584 31.0346 28.1032L28.8794 30.8618C28.7069 31.0343 28.4484 31.1204 28.1898 31.0343C26.7242 30.517 21.8105 28.448 19.138 23.2757C19.0518 23.0171 19.0518 22.7584 19.2242 22.586L21.2932 20.2585C21.4656 19.9999 21.5518 19.6551 21.4656 19.3964L18.9656 13.793C18.8793 13.5343 18.6207 13.2757 18.2759 13.2757Z" fill="#FEFEFE"/>
</svg>
