<svg width="30" height="30" viewBox="0 0 30 30" fill="none" xmlns="http://www.w3.org/2000/svg">
<path d="M29 15C29 22.732 22.732 29 15 29C7.26801 29 1 22.732 1 15C1 7.26801 7.26801 1 15 1C22.732 1 29 7.26801 29 15Z" stroke="#1FC173" stroke-width="2"/>
<path d="M21.8966 17.8518C20.4087 17.8518 18.9897 17.5277 17.6811 16.888C17.4759 16.7897 17.238 16.7742 17.0208 16.8484C16.8035 16.9242 16.6259 17.0828 16.5259 17.288L15.9052 18.5725C14.0432 17.5035 12.4984 15.957 11.4277 14.0949L12.7139 13.4742C12.9208 13.3742 13.0777 13.1966 13.1535 12.9794C13.2277 12.7621 13.2139 12.5242 13.1139 12.319C12.4725 11.0121 12.1484 9.59318 12.1484 8.10352C12.1484 7.62766 11.7621 7.24146 11.2863 7.24146H8.10352C7.62766 7.24146 7.24146 7.62766 7.24146 8.10352C7.24146 16.1846 13.8156 22.7587 21.8966 22.7587C22.3725 22.7587 22.7587 22.3725 22.7587 21.8966V18.7139C22.7587 18.238 22.3725 17.8518 21.8966 17.8518Z" fill="#1FC173"/>
</svg>
