<svg width="32" height="26" viewBox="0 0 32 26" fill="none" xmlns="http://www.w3.org/2000/svg">
<path d="M31.5265 12.7286C29.7256 12.7286 27.906 12.7286 26.105 12.7096C25.7151 10.9308 24.9725 9.28445 24.137 7.69486C23.32 6.10528 22.4288 4.55351 21.3705 3.13424C20.4793 1.94205 19.4396 0.693098 17.9542 0.238929C16.8031 -0.120621 15.1507 -0.12063 14.1109 0.560623C13.0712 1.22295 13.0155 2.41515 13.5354 3.45596C14.3337 4.98877 15.5034 6.54051 16.5989 7.84624C17.6757 9.15197 19.0125 10.136 20.3865 11.12C21.0549 11.5931 21.7233 12.0662 22.4845 12.3879C22.763 12.5015 23.0415 12.615 23.3386 12.6907C21.5562 12.6718 19.7924 12.6529 18.0099 12.6339C17.9728 12.5393 17.9171 12.4447 17.8057 12.3879C16.3018 11.4417 14.4266 11.1579 12.737 10.7037C10.8803 10.2117 9.02363 9.60614 7.11125 9.36013C5.57021 9.15197 3.97347 9.22768 2.52526 9.87109C1.35556 10.382 0.0187504 11.4228 0.000183671 12.861C-0.0183831 14.356 1.37412 15.1508 2.6181 15.4725C4.21484 15.8888 5.90441 16.0591 7.55686 16.0591C11.1217 16.078 14.6308 15.2454 17.8428 13.6747C20.1823 13.7126 22.5402 13.7315 24.8796 13.7504C24.1184 14.0911 23.3757 14.4695 22.6331 14.8669C21.0735 15.6996 19.551 16.6079 18.1585 17.6866C16.9888 18.5949 15.7634 19.6546 15.3178 21.1685C14.965 22.3418 14.965 24.026 15.6334 25.0857C16.2832 26.1454 17.4529 26.2022 18.4741 25.6724C19.978 24.8586 21.5005 23.6665 22.7816 22.55C24.0627 21.4524 25.0282 20.0899 25.9936 18.6895C26.4578 18.0083 26.922 17.327 27.2376 16.5511C27.5904 15.7374 27.7389 14.8669 28.036 14.0343C28.0546 13.9965 28.0917 13.9586 28.1103 13.9397C28.1474 13.8829 28.1845 13.8261 28.2031 13.7694C29.3171 13.7694 30.4125 13.7694 31.5265 13.7694C32.1578 13.7504 32.1578 12.7286 31.5265 12.7286ZM21.9832 10.9876C20.8135 10.2874 19.6624 9.4169 18.6412 8.52749C17.5643 7.5813 16.7103 6.42698 15.9119 5.23479C15.2621 4.26968 13.1826 2.0556 14.9464 1.27973C17.8985 -0.00707868 20.1266 2.96393 21.5191 5.12123C22.8373 7.16498 24.1184 9.43583 24.8425 11.8202C24.2855 11.366 23.7471 10.893 23.2829 10.3631C22.4474 9.37907 21.7047 8.31933 20.9249 7.29745C19.681 5.65109 18.7712 3.66412 17.323 2.207C16.8588 1.75283 16.1533 2.47191 16.6174 2.92608C18.1028 4.42105 19.0682 6.50266 20.3494 8.20579C21.0363 9.11413 21.7233 10.0603 22.4474 10.9497C22.5959 11.139 22.763 11.3093 22.9301 11.4796C22.5959 11.3093 22.2803 11.1768 21.9832 10.9876ZM9.11646 14.9805C7.79822 15.0562 6.46142 15.0372 5.14318 14.8669C3.95491 14.7345 0.984222 14.5452 1.00279 12.8232C1.02136 11.3282 3.1751 10.5523 4.32624 10.3631C5.83015 10.0982 7.37119 10.3442 8.83796 10.7037C10.2862 11.0633 11.7344 11.4796 13.1826 11.8581C14.0552 12.1041 15.0021 12.2933 15.8748 12.5961C13.0898 12.5582 10.2862 12.5015 7.50116 12.4258C6.85132 12.4069 6.85132 13.4287 7.50116 13.4476C10.1376 13.5233 12.7555 13.5612 15.392 13.599C13.3683 14.3749 11.2516 14.848 9.11646 14.9805ZM25.8451 17.0242C25.1581 18.2164 24.3041 19.3897 23.4314 20.4305C22.5031 21.5281 21.3705 22.3986 20.2008 23.2123C19.2539 23.8746 17.0816 25.9941 16.3204 24.1963C15.0578 21.1874 17.9728 18.9166 20.0894 17.4973C22.0946 16.1727 24.3226 14.848 26.6435 14.11C26.0865 14.8102 25.4923 15.4725 24.7868 16.0402C23.6728 16.9485 22.5402 17.8569 21.3705 18.7274C19.7181 19.9574 17.8614 20.9604 17.1187 23.023C16.8959 23.6475 17.8614 23.9124 18.0842 23.288C18.864 21.1685 21.352 20.052 23.0044 18.7463C23.8956 18.0461 24.7868 17.3649 25.6409 16.6458C25.8822 16.4565 26.1051 16.2484 26.3093 16.0213C26.1793 16.3808 26.0308 16.7214 25.8451 17.0242Z" fill="#EC6985"/>
</svg>
