<svg width="192" height="40" viewBox="0 0 192 40" fill="none" xmlns="http://www.w3.org/2000/svg">
<path d="M181.796 27.7985C179.623 27.2534 177.537 27.4211 175.581 28.0081C177.624 24.9473 178.536 21.3833 177.45 17.5258C175.755 11.3621 170.67 6.0371 164.933 3.01817C153.547 -2.97775 136.336 0.460473 131.078 12.8716C127.905 20.377 133.946 27.3792 141.378 29.1822C147.94 30.7755 157.806 28.6371 157.415 20.4189C157.328 18.9514 154.981 18.9514 155.068 20.4189C155.546 29.7273 141.334 28.3017 136.336 24.3184C133.381 21.9284 131.73 18.0709 132.946 14.4649C134.033 11.1525 136.814 8.25936 139.726 6.28867C151.33 -1.63601 167.932 2.9343 174.06 15.2196C175.842 18.8256 176.189 22.5992 174.103 26.1213C172.321 29.0983 169.453 31.4464 166.454 33.1655C160.196 36.7714 152.851 37.7358 145.68 37.3584C137.901 36.8972 129.513 35.0942 122.559 31.5722C124.95 31.5722 127.253 30.9432 128.383 29.0564C129.296 27.5469 129.252 26.1632 128.166 24.7796C126.819 22.9766 124.646 22.6831 122.516 22.5993C120.995 22.5154 120.995 24.7796 122.516 24.8634C123.776 24.9054 126.08 25.0312 126.558 26.4987C127.036 27.9243 125.515 28.8468 124.254 29.0983C121.864 29.5176 119.343 29.0983 117.083 28.3436C116.953 28.3016 116.779 28.2597 116.649 28.2597C112.694 25.9955 108.478 24.0668 103.785 25.1569C101.264 25.744 98.8302 27.3792 98.439 29.9788C98.0913 32.285 99.1778 35.22 101.003 36.7714C105.262 40.4612 111.607 40.5032 115.867 36.9811C116.997 36.0167 115.345 34.4234 114.215 35.3878C111.26 37.8197 107.479 37.9454 104.132 36.1425C101.307 34.633 98.9605 30.2723 102.394 28.092C105.958 25.8697 111.39 27.7566 114.693 29.6434C118.083 31.5722 121.212 33.7106 124.863 35.1362C138.64 40.5031 157.023 42.7673 169.757 33.7944C169.975 33.6686 170.148 33.5009 170.322 33.3751C170.409 33.3332 170.496 33.2913 170.54 33.2493C174.103 30.5239 179.275 28.1759 183.447 31.1529C185.403 32.5365 187.359 35.5555 184.49 37.1488C183.36 37.7777 181.883 37.9874 180.622 37.5681C179.84 37.2746 177.232 35.4297 178.884 34.4653C180.188 33.7106 179.014 31.7818 177.71 32.4946C174.407 34.3814 176.711 38.3228 179.449 39.4968C182.535 40.8386 187.663 39.4549 188.315 35.849C189.01 32.0753 185.229 28.6371 181.796 27.7985Z" fill="url(#paint0_linear)"/>
<path d="M189.227 22.222C190.966 21.1318 192.226 19.7482 191.965 18.0291C191.618 15.9745 188.489 15.9745 186.924 16.3519C185.968 16.6035 185.142 17.0228 184.403 17.6098C184.36 17.5678 184.36 17.484 184.316 17.442C183.751 16.5615 182.839 16.268 181.883 16.8131C178.971 18.4903 180.362 22.5994 179.536 25.1571C179.145 26.373 180.84 27.002 181.578 26.1634C182.926 25.5345 184.143 26.8762 185.446 27.0858C186.403 27.2535 187.576 27.1278 188.489 26.8762C189.923 26.4988 191.618 25.2409 190.966 23.6057C190.705 22.9767 190.053 22.5155 189.227 22.222ZM186.794 18.8257C187.228 18.6161 188.836 18.071 189.314 18.4903C189.836 18.9934 188.662 19.6643 188.271 19.9578C187.272 20.7125 186.098 21.2996 184.881 21.7189C183.969 21.8027 183.1 22.0124 182.23 22.3059C182.23 22.0543 182.23 21.8027 182.23 21.5092C182.752 21.9285 183.665 21.9285 184.099 21.2996C184.795 20.2932 185.62 19.3289 186.794 18.8257ZM187.315 24.8636C186.098 25.0313 185.36 24.6539 184.49 24.2346C184.751 24.1508 185.055 24.0669 185.36 23.9831C186.185 23.8992 187.011 23.9831 187.793 24.1927C189.271 24.612 188.358 24.6958 187.315 24.8636Z" fill="url(#paint1_linear)"/>
<path d="M91.4857 26.5826C86.792 22.8928 79.8384 25.4505 75.1881 28.1759C75.1012 28.1759 74.9708 28.2178 74.8839 28.2597C72.624 29.0564 70.1033 29.4757 67.713 29.0145C66.6265 28.8048 65.0619 28.0501 65.3661 26.7503C65.7572 25.0312 68.0172 24.8634 69.4514 24.7796C70.9725 24.6957 70.9725 22.4315 69.4514 22.5154C67.3653 22.5993 65.2792 22.8928 63.8885 24.6119C62.7585 26.0375 62.6716 27.4631 63.5842 29.0145C64.7142 30.9013 66.9307 31.5302 69.2775 31.5302C64.1058 34.0041 58.5863 35.6393 52.8496 36.6037C45.5048 37.8616 37.7254 37.9454 30.6414 35.4716C28.2076 34.633 25.5131 33.3332 23.1662 31.656C23.1228 31.6141 23.1228 31.6141 23.0793 31.5722C22.7751 31.3206 22.4274 31.1109 22.1232 30.8594C18.9071 28.3017 16.5168 24.9892 16.4299 21.0898C16.2561 14.423 22.3405 8.17551 27.9469 5.11465C33.9878 1.84415 41.1588 1.34098 47.5909 3.81482C54.501 6.49831 62.9323 14.3391 57.9344 21.9284C55.4572 25.6601 50.5896 27.4211 46.1132 27.505C41.7237 27.5889 36.7258 25.2827 36.9866 20.4189C37.0735 18.9514 34.7266 18.9514 34.6397 20.4189C34.292 27.4212 41.941 30.3562 48.0689 29.6434C54.588 28.8887 61.1505 24.7377 61.8024 17.987C62.4108 11.5299 56.5437 5.78552 51.0677 2.93431C45.2006 -0.12654 38.16 -0.881281 31.7714 1.08941C25.6 2.97623 20.124 7.12728 16.821 12.5362C13.605 17.7354 13.3008 23.1863 16.4299 28.0082C14.6046 27.4631 12.6489 27.2953 10.6062 27.7146C6.99903 28.4694 3.04415 31.9915 3.69605 35.8071C4.30449 39.3291 9.17204 40.7128 12.2577 39.5807C15.1261 38.5325 17.6902 34.4234 14.2569 32.4527C12.9531 31.698 11.7797 33.6686 13.0835 34.4234C14.7349 35.3877 12.1273 37.2327 11.3451 37.5262C10.0847 37.9874 8.60706 37.7358 7.47709 37.1069C4.56525 35.5135 6.52097 32.4946 8.52014 31.1109C12.5185 28.3017 17.386 30.2723 20.9063 32.83C31.5975 41.5514 47.8951 40.7547 60.6289 37.2326C65.0619 36.0167 69.2775 34.4234 73.2324 32.1592C77.3177 29.8111 81.5768 26.6664 86.6616 27.1696C89.1388 27.4211 91.7465 28.9306 91.2249 31.6979C90.9207 33.2493 90.1819 34.675 88.8346 35.5974C85.4447 37.9035 81.0552 38.0713 77.7957 35.3878C76.6658 34.4653 74.9708 36.0586 76.1442 36.9811C80.1426 40.2935 85.4447 40.4193 89.8342 37.6519C93.4414 35.262 95.2667 29.5596 91.4857 26.5826Z" fill="url(#paint2_linear)"/>
<path d="M6.52099 27.1277C7.8248 26.918 9.04169 25.5343 10.389 26.2052C11.1278 27.0438 12.8227 26.4148 12.4316 25.1989C11.6058 22.6412 12.9531 18.5321 10.0847 16.8549C9.25898 16.3937 8.34632 16.5195 7.78134 17.2742C7.69442 17.4 7.6075 17.4839 7.56404 17.6097C6.82521 17.0646 5.99947 16.6033 5.0868 16.3937C3.47878 15.9744 0.43656 16.0163 0.0454183 18.0709C-0.258803 19.79 1.00155 21.2156 2.73995 22.2638C1.95767 22.5573 1.26231 23.0186 1.00155 23.6894C0.349642 25.3247 2.04459 26.6245 3.47878 26.9599C4.4349 27.1696 5.56487 27.2954 6.52099 27.1277ZM2.60957 18.616C2.87033 18.029 4.39144 18.4902 4.82604 18.6579C6.17331 19.1191 7.12943 20.1254 7.86826 21.2995C8.30286 21.9284 9.21553 21.9284 9.73705 21.5091C9.73705 21.7607 9.73705 22.0122 9.73705 22.2638C8.91131 21.9703 7.99864 21.7607 7.08598 21.6768C5.86909 21.2575 4.69566 20.6705 3.69608 19.9158C3.3484 19.7061 2.39227 19.0772 2.60957 18.616ZM4.69566 24.8635C3.95684 24.7377 2.26189 24.7796 4.2176 24.2345C4.99988 24.0249 5.78217 23.941 6.60791 23.9829H6.65137C6.9556 24.0668 7.25982 24.1926 7.56404 24.2765C6.69483 24.6119 5.95601 25.0312 4.69566 24.8635Z" fill="url(#paint3_linear)"/>
<path d="M104.611 17.8193C104.393 16.4356 103.307 15.2197 101.873 14.9681C101.09 14.8423 100.438 15.01 99.8735 15.3454C99.2216 12.5362 97.4832 9.68496 94.2237 10.5655C91.7899 11.2364 90.8338 14.1714 90.6599 16.6872C88.8781 16.2679 87.0962 17.0646 86.9658 19.4545C86.8354 22.6831 91.9637 25.4085 94.3541 26.7083C94.7887 26.9599 95.2233 26.876 95.5275 26.6664C95.7882 26.7083 96.049 26.7083 96.3098 26.5406C99.4389 24.8634 105.306 22.138 104.611 17.8193ZM102.22 19.2449C102.047 20.1254 100.96 20.9221 100.091 21.5091C100.047 21.3414 99.9604 21.1317 99.7866 21.0059C99.352 20.5866 98.5262 20.5447 98.1351 21.0059C97.7005 21.551 97.2224 22.0542 96.7444 22.5573C96.4401 20.5447 96.7444 18.5321 96.7009 16.4775C96.7009 15.01 94.3541 15.01 94.3541 16.4775C94.3975 18.2386 94.1802 19.9577 94.3106 21.7187C94.1368 21.4671 93.9629 21.1737 93.7456 20.9221C92.9199 19.7061 90.9207 20.8382 91.703 22.0542C91.8334 22.2638 91.9637 22.4735 92.1376 22.725C91.8768 22.5154 91.5726 22.3057 91.3118 22.0961C90.7903 21.6768 90.0515 21.1736 89.7473 20.5866C89.3127 19.748 89.1388 17.7774 90.9642 19.4545C91.8768 20.2931 93.0937 19.4126 92.9199 18.3644C92.7026 16.9807 93.0068 15.1777 93.7891 13.9618C94.919 12.2007 96.7878 13.6683 97.3093 14.9681C97.7439 16.0582 97.7874 17.1484 97.7439 18.2805C97.7005 19.4126 99.352 19.79 99.917 18.8675C100.656 17.5258 102.568 17.7354 102.22 19.2449Z" fill="url(#paint4_linear)"/>
<defs>
<linearGradient id="paint0_linear" x1="139.065" y1="0.145154" x2="190.024" y2="4.85022" gradientUnits="userSpaceOnUse">
<stop stop-color="#F2B5C9"/>
<stop offset="1" stop-color="#EF95B2"/>
</linearGradient>
<linearGradient id="paint1_linear" x1="185.138" y1="16.1594" x2="192.271" y2="16.4912" gradientUnits="userSpaceOnUse">
<stop stop-color="#F2B5C9"/>
<stop offset="1" stop-color="#EF95B2"/>
</linearGradient>
<linearGradient id="paint2_linear" x1="44.2839" y1="1.26622e-05" x2="95.2063" y2="4.6848" gradientUnits="userSpaceOnUse">
<stop stop-color="#F2B5C9"/>
<stop offset="1" stop-color="#EF95B2"/>
</linearGradient>
<linearGradient id="paint3_linear" x1="5.6452" y1="16.1827" x2="12.76" y2="16.5123" gradientUnits="userSpaceOnUse">
<stop stop-color="#F2B5C9"/>
<stop offset="1" stop-color="#EF95B2"/>
</linearGradient>
<linearGradient id="paint4_linear" x1="94.9656" y1="10.4028" x2="105.053" y2="10.8463" gradientUnits="userSpaceOnUse">
<stop stop-color="#F2B5C9"/>
<stop offset="1" stop-color="#EF95B2"/>
</linearGradient>
</defs>
</svg>
