<svg width="50" height="50" viewBox="0 0 50 50" fill="none" xmlns="http://www.w3.org/2000/svg">
<path d="M43.75 41.4063C43.75 42.0243 43.5667 42.6285 43.2233 43.1424C42.88 43.6563 42.3919 44.0569 41.8209 44.2934C41.2499 44.5299 40.6215 44.5918 40.0153 44.4712C39.4092 44.3506 38.8523 44.053 38.4153 43.616C37.9783 43.1789 37.6806 42.6221 37.56 42.0159C37.4395 41.4097 37.5014 40.7814 37.7379 40.2104C37.9744 39.6393 38.3749 39.1513 38.8888 38.8079C39.4027 38.4645 40.0069 38.2812 40.625 38.2812C41.4538 38.2812 42.2487 38.6105 42.8347 39.1965C43.4208 39.7826 43.75 40.5775 43.75 41.4063V41.4063ZM40.625 39.8438C40.316 39.8438 40.0139 39.9354 39.7569 40.1071C39.5 40.2788 39.2997 40.5228 39.1814 40.8083C39.0632 41.0938 39.0322 41.408 39.0925 41.7111C39.1528 42.0142 39.3016 42.2926 39.5201 42.5111C39.7387 42.7296 40.0171 42.8784 40.3202 42.9387C40.6233 42.999 40.9374 42.9681 41.2229 42.8498C41.5085 42.7316 41.7525 42.5313 41.9242 42.2743C42.0959 42.0174 42.1875 41.7153 42.1875 41.4063C42.1875 40.9919 42.0229 40.5944 41.7299 40.3014C41.4368 40.0084 41.0394 39.8438 40.625 39.8438Z" fill="#9F3E4B"/>
<path d="M46.9133 38.2812C47.3703 39.2003 47.6204 40.2082 47.646 41.2343C47.6716 42.2603 47.4721 43.2795 47.0616 44.2202C46.651 45.1609 46.0393 46.0001 45.2695 46.679C44.4997 47.3579 43.5906 47.8599 42.6059 48.1496C41.6213 48.4394 40.5852 48.5099 39.5704 48.3562C38.5556 48.2025 37.5868 47.8284 36.7321 47.26C35.8775 46.6917 35.1577 45.9431 34.6235 45.0667C34.0892 44.1903 33.7535 43.2076 33.6398 42.1875H19.4852C19.2879 43.9018 18.4671 45.4837 17.179 46.6321C15.891 47.7804 14.2256 48.415 12.5 48.415C10.7744 48.415 9.10901 47.7804 7.82096 46.6321C6.5329 45.4837 5.71211 43.9018 5.51484 42.1875H3.125C2.9178 42.1875 2.71909 42.1052 2.57257 41.9587C2.42606 41.8122 2.34375 41.6135 2.34375 41.4062V39.8438C2.34742 37.6524 3.18769 35.5452 4.69287 33.9526C6.19805 32.36 8.25455 31.4022 10.4422 31.275L11.7188 28.7219V26.5625H2.34375V25H14.8438V13.2812C14.8438 13.074 14.9261 12.8753 15.0726 12.7288C15.2191 12.5823 15.4178 12.5 15.625 12.5H25C25.2072 12.5 25.4059 12.5823 25.5524 12.7288C25.6989 12.8753 25.7812 13.074 25.7812 13.2812V15.625H28.9062C29.1135 15.625 29.3122 15.7073 29.4587 15.8538C29.6052 16.0003 29.6875 16.199 29.6875 16.4062V19.5312C29.6875 19.7385 29.6052 19.9372 29.4587 20.0837C29.3122 20.2302 29.1135 20.3125 28.9062 20.3125H25.7812V21.875H28.9062C29.5279 21.875 30.124 22.1219 30.5635 22.5615C31.0031 23.001 31.25 23.5971 31.25 24.2188V36.4312C32.5114 33.8116 34.7584 31.7978 37.5 30.8297V19.5312H36.7188C36.5115 19.5312 36.3128 19.4489 36.1663 19.3024C36.0198 19.1559 35.9375 18.9572 35.9375 18.75H34.2312C34.047 19.2713 33.6843 19.7106 33.2074 19.9903C32.7306 20.2701 32.1701 20.3722 31.6252 20.2787C31.0803 20.1853 30.586 19.9021 30.2296 19.4794C29.8732 19.0567 29.6778 18.5216 29.6778 17.9688C29.6778 17.4159 29.8732 16.8808 30.2296 16.4581C30.586 16.0354 31.0803 15.7522 31.6252 15.6588C32.1701 15.5653 32.7306 15.6674 33.2074 15.9472C33.6843 16.2269 34.047 16.6662 34.2312 17.1875H35.9375V14.0625C35.9375 13.8553 36.0198 13.6566 36.1663 13.5101C36.3128 13.3636 36.5115 13.2812 36.7188 13.2812H37.7984L37.0172 11.7188H34.375C33.7534 11.7188 33.1573 11.4718 32.7177 11.0323C32.2782 10.5927 32.0312 9.9966 32.0312 9.375C32.0312 8.7534 32.2782 8.15726 32.7177 7.71772C33.1573 7.27818 33.7534 7.03125 34.375 7.03125H37.5C37.7072 7.03125 37.9059 7.11356 38.0524 7.26007C38.1989 7.40659 38.2812 7.6053 38.2812 7.8125V10.7531L39.5453 13.2812H44.5312C44.7385 13.2812 44.9372 13.3636 45.0837 13.5101C45.2302 13.6566 45.3125 13.8553 45.3125 14.0625V18.75C45.3125 18.9572 45.2302 19.1559 45.0837 19.3024C44.9372 19.4489 44.7385 19.5312 44.5312 19.5312H43.75V23.9641L48.2227 22.6867C48.3389 22.6535 48.4613 22.6477 48.5802 22.6697C48.699 22.6918 48.8112 22.7412 48.9077 22.814C49.0043 22.8867 49.0826 22.9809 49.1366 23.0891C49.1906 23.1973 49.2187 23.3166 49.2188 23.4375V28.125C49.2187 28.2459 49.1906 28.3652 49.1366 28.4734C49.0826 28.5816 49.0043 28.6758 48.9077 28.7485C48.8112 28.8213 48.699 28.8707 48.5802 28.8928C48.4613 28.9148 48.3389 28.909 48.2227 28.8758L43.75 27.5984V30.8234C46.9953 31.8258 49.2188 34.793 49.2188 37.5C49.2188 37.7072 49.1364 37.9059 48.9899 38.0524C48.8434 38.1989 48.6447 38.2812 48.4375 38.2812H46.9133ZM12.5 46.875C13.8139 46.8735 15.0834 46.3989 16.0762 45.5381C17.0689 44.6774 17.7185 43.488 17.9062 42.1875H15.5141C15.3435 42.8575 14.9546 43.4516 14.4088 43.8759C13.863 44.3002 13.1913 44.5305 12.5 44.5305C11.8087 44.5305 11.137 44.3002 10.5912 43.8759C10.0454 43.4516 9.65646 42.8575 9.48594 42.1875H7.09375C7.28146 43.488 7.93111 44.6774 8.92385 45.5381C9.91659 46.3989 11.1861 46.8735 12.5 46.875ZM13.8453 42.1875H11.1547C11.2902 42.4247 11.486 42.6219 11.7222 42.7591C11.9585 42.8962 12.2268 42.9685 12.5 42.9685C12.7732 42.9685 13.0415 42.8962 13.2778 42.7591C13.514 42.6219 13.7098 42.4247 13.8453 42.1875ZM10.9375 32.8125C9.07339 32.8148 7.28629 33.5563 5.96817 34.8744C4.65005 36.1925 3.90852 37.9796 3.90625 39.8438V40.625H21.0938V32.8125H10.9375ZM12.2016 31.25H21.875C22.0822 31.25 22.2809 31.3323 22.4274 31.4788C22.5739 31.6253 22.6562 31.824 22.6562 32.0312V37.5H24.5664C23.0187 33.743 23.6414 31.1328 24.3414 29.6875H12.9828L12.2016 31.25ZM24.2188 21.875V20.3125H22.6562C22.4491 20.3125 22.2504 20.2301 22.1039 20.0836L16.4062 14.3859V21.875H24.2188ZM16.4062 23.4375V25H24.2188V23.4375H16.4062ZM24.2188 14.0625H22.9797L24.2188 15.3016V14.0625ZM28.125 18.75V17.1875H24.2188C24.0116 17.1875 23.8129 17.1051 23.6664 16.9586L20.7703 14.0625H18.2922L22.9797 18.75H28.125ZM13.2812 26.5625V28.125H26.5625V26.5625H13.2812ZM26.2828 37.5H26.5625V29.6875H26.1492C25.6008 30.4313 24.1961 32.9922 26.2828 37.5ZM29.6875 24.2188C29.6875 24.0115 29.6052 23.8128 29.4587 23.6663C29.3122 23.5198 29.1135 23.4375 28.9062 23.4375H25.7812V25H27.3438C27.551 25 27.7497 25.0823 27.8962 25.2288C28.0427 25.3753 28.125 25.574 28.125 25.7812V34.375H29.6875V24.2188ZM29.6875 35.9375H28.125V37.5H29.6875V35.9375ZM30.4688 39.0625H22.6562V40.625H30.4688V39.0625ZM32.0312 17.1875C31.8767 17.1875 31.7257 17.2333 31.5972 17.3192C31.4687 17.405 31.3686 17.527 31.3095 17.6698C31.2503 17.8125 31.2349 17.9696 31.265 18.1212C31.2952 18.2727 31.3696 18.4119 31.4788 18.5212C31.5881 18.6304 31.7273 18.7048 31.8788 18.735C32.0304 18.7651 32.1875 18.7497 32.3302 18.6905C32.473 18.6314 32.595 18.5313 32.6808 18.4028C32.7667 18.2743 32.8125 18.1233 32.8125 17.9688C32.8125 17.7615 32.7302 17.5628 32.5837 17.4163C32.4372 17.2698 32.2385 17.1875 32.0312 17.1875ZM36.7188 8.59375H34.375C34.1678 8.59375 33.9691 8.67606 33.8226 8.82257C33.6761 8.96909 33.5938 9.1678 33.5938 9.375C33.5938 9.5822 33.6761 9.78091 33.8226 9.92743C33.9691 10.0739 34.1678 10.1562 34.375 10.1562H36.7188V8.59375ZM40.625 46.875C42.0749 46.8733 43.4649 46.2966 44.4902 45.2714C45.5154 44.2462 46.0921 42.8561 46.0938 41.4062C46.0916 40.2854 45.7402 39.1931 45.0883 38.2812H36.4664L35.1633 41.5406C35.1983 42.9664 35.789 44.3221 36.8093 45.3186C37.8296 46.3151 39.1988 46.8736 40.625 46.875ZM39.8438 14.8438H37.5V17.9688H39.8438V14.8438ZM39.0625 19.5312V30.5102C39.3211 30.4844 39.5813 30.4688 39.8438 30.4688H41.4062C41.6672 30.4692 41.9279 30.4828 42.1875 30.5094V19.5312H39.0625ZM43.75 14.8438H41.4062V17.9688H43.75V14.8438ZM47.6562 27.0891V24.4734L43.75 25.5891V25.9734L47.6562 27.0891ZM41.4062 32.0312H39.8438C36.0273 32.0312 33.3195 35.3125 32.0312 38.4375V40.625H33.8461L35.2117 37.2094C35.2698 37.0644 35.37 36.9402 35.4994 36.8528C35.6287 36.7653 35.7813 36.7186 35.9375 36.7188H47.5734C47.1993 35.3706 46.3937 34.1823 45.2798 33.3357C44.166 32.4891 42.8053 32.0309 41.4062 32.0312V32.0312Z" fill="#9F3E4B"/>
<path d="M25 10.9375H15.625C15.4178 10.9375 15.2191 10.8552 15.0726 10.7087C14.9261 10.5622 14.8438 10.3635 14.8438 10.1562V3.90625C14.8438 3.28465 15.0907 2.68851 15.5302 2.24897C15.9698 1.80943 16.5659 1.5625 17.1875 1.5625H23.4375C24.0591 1.5625 24.6552 1.80943 25.0948 2.24897C25.5343 2.68851 25.7812 3.28465 25.7812 3.90625V4.6875H27.3438V6.25H25.7812V10.1562C25.7812 10.3635 25.6989 10.5622 25.5524 10.7087C25.4059 10.8552 25.2072 10.9375 25 10.9375ZM24.2188 3.90625C24.2188 3.69905 24.1364 3.50034 23.9899 3.35382C23.8434 3.20731 23.6447 3.125 23.4375 3.125H17.1875C16.9803 3.125 16.7816 3.20731 16.6351 3.35382C16.4886 3.50034 16.4062 3.69905 16.4062 3.90625V9.375H17.9688V5.46875C17.9688 5.26155 18.0511 5.06284 18.1976 4.91632C18.3441 4.76981 18.5428 4.6875 18.75 4.6875H24.2188V3.90625ZM24.2188 6.25H19.5312V9.375H24.2188V6.25Z" fill="#9F3E4B"/>
<path d="M13.2812 7.8125V21.875C13.2812 22.2894 13.1166 22.6868 12.8236 22.9799C12.5306 23.2729 12.1332 23.4375 11.7188 23.4375H3.90625C3.49185 23.4375 3.09442 23.2729 2.80139 22.9799C2.50837 22.6868 2.34375 22.2894 2.34375 21.875V7.8125C2.34375 7.3981 2.50837 7.00067 2.80139 6.70765C3.09442 6.41462 3.49185 6.25 3.90625 6.25H11.7188C12.1332 6.25 12.5306 6.41462 12.8236 6.70765C13.1166 7.00067 13.2812 7.3981 13.2812 7.8125ZM3.90625 21.875H11.7188V20.3125H3.90625V21.875ZM3.90625 18.75H11.7188V7.8125H3.90625V18.75Z" fill="#9F3E4B"/>
<path d="M2.34375 28.125H9.375V29.6875H2.34375V28.125Z" fill="#9F3E4B"/>
<path d="M2.34375 31.25H3.90625V32.8125H2.34375V31.25Z" fill="#9F3E4B"/>
<path d="M8.59375 1.5625H13.2812V3.125H8.59375V1.5625Z" fill="#9F3E4B"/>
<path d="M5.46875 1.5625H7.03125V3.125H5.46875V1.5625Z" fill="#9F3E4B"/>
<path d="M5.46875 9.375H7.03125V10.9375H5.46875V9.375Z" fill="#9F3E4B"/>
</svg>
