<svg width="50" height="50" viewBox="0 0 50 50" fill="none" xmlns="http://www.w3.org/2000/svg">
<path d="M17.9688 9.375H19.5312V10.9375H17.9688V9.375Z" fill="#9F3E4B"/>
<path d="M21.0938 9.375H22.6562V10.9375H21.0938V9.375Z" fill="#9F3E4B"/>
<path d="M24.2188 9.375H25.7812V10.9375H24.2188V9.375Z" fill="#9F3E4B"/>
<path d="M28.9062 4.6875H30.4688V6.25H28.9062V4.6875Z" fill="#9F3E4B"/>
<path d="M43.6906 47.9555C43.7497 47.8127 43.7652 47.6555 43.735 47.504C43.7048 47.3524 43.6304 47.2132 43.521 47.1039L38.9898 42.5727L37.5171 36.6812L38.2765 31.3688C38.2882 31.2854 38.2866 31.2008 38.2718 31.118L36.7093 22.5461C36.6529 21.9557 36.3861 21.4052 35.9575 20.9951C35.529 20.5851 34.9673 20.3428 34.3749 20.3125C34.1095 20.3152 33.8466 20.3636 33.5976 20.4555V5.46875C33.5964 4.43313 33.1844 3.44028 32.4521 2.70798C31.7198 1.97569 30.727 1.56374 29.6913 1.5625H14.0624C13.0268 1.56374 12.034 1.97569 11.3017 2.70798C10.5694 3.44028 10.1574 4.43313 10.1562 5.46875V15.0531C9.58778 14.8758 8.97713 14.8881 8.41635 15.0883C7.92642 15.2582 7.48828 15.551 7.14385 15.9386C6.79943 16.3263 6.56023 16.7958 6.44916 17.3023C6.33772 17.7941 6.35249 18.306 6.49209 18.7905C6.63169 19.2751 6.89159 19.7164 7.2476 20.0734L9.55697 22.3828C8.92295 22.7029 8.42733 23.2432 8.16288 23.9023C7.89842 24.5615 7.88327 25.2945 8.12025 25.9641C7.50132 26.0604 6.92869 26.3499 6.48432 26.7914C6.20619 27.0689 5.98554 27.3985 5.83498 27.7614C5.68443 28.1243 5.60693 28.5134 5.60693 28.9062C5.60693 29.2991 5.68443 29.6882 5.83498 30.0511C5.98554 30.414 6.20619 30.7436 6.48432 31.0211L7.76244 32.2992C7.27983 32.4341 6.83946 32.6895 6.48275 33.0414C5.92257 33.6027 5.60796 34.3633 5.60796 35.1562C5.60796 35.9492 5.92257 36.7098 6.48275 37.2711L9.60775 40.3961C9.77304 40.5579 9.95656 40.7 10.1546 40.8195V41.4062C10.1559 42.4419 10.5678 43.4347 11.3001 44.167C12.0324 44.8993 13.0253 45.3113 14.0609 45.3125H21.5499L24.446 48.2086C24.5188 48.2813 24.6051 48.339 24.7002 48.3783C24.7952 48.4176 24.8971 48.4377 24.9999 48.4375H42.9687C43.1232 48.4375 43.2742 48.3918 43.4027 48.306C43.5312 48.2202 43.6314 48.0982 43.6906 47.9555V47.9555ZM17.9687 3.125H25.7812V4.6875H17.9687V3.125ZM11.7187 16.4062V5.46875C11.7187 4.84715 11.9656 4.25101 12.4052 3.81147C12.8447 3.37193 13.4408 3.125 14.0624 3.125H16.4062V5.46875C16.4062 5.67595 16.4885 5.87466 16.635 6.02118C16.7815 6.16769 16.9802 6.25 17.1874 6.25H26.5624C26.7696 6.25 26.9684 6.16769 27.1149 6.02118C27.2614 5.87466 27.3437 5.67595 27.3437 5.46875V3.125H29.6874C30.309 3.125 30.9052 3.37193 31.3447 3.81147C31.7843 4.25101 32.0312 4.84715 32.0312 5.46875V37.5H14.5976C14.4666 36.9966 14.2052 36.5366 13.8398 36.1664L12.557 34.8836C13.1816 34.7134 13.7323 34.3413 14.1234 33.8254C14.5144 33.3094 14.7237 32.6786 14.7187 32.0312C14.714 31.7093 14.657 31.3903 14.5499 31.0867C14.9777 31.0219 15.3857 30.8627 15.7443 30.6207C16.1029 30.3787 16.4032 30.0599 16.6234 29.6875H20.3124C20.5196 29.6875 20.7184 29.6052 20.8649 29.4587C21.0114 29.3122 21.0937 29.1135 21.0937 28.9062V24.2188C21.0937 24.0115 21.0114 23.8128 20.8649 23.6663C20.7184 23.5198 20.5196 23.4375 20.3124 23.4375H15.6249C15.4177 23.4375 15.219 23.5198 15.0725 23.6663C14.926 23.8128 14.8437 24.0115 14.8437 24.2188V24.6875L13.0546 22.8992C12.6821 22.536 12.2219 22.2754 11.7187 22.143V16.4062ZM16.4062 26.2969V25H19.5312V28.125H17.0609C17.0526 27.4604 16.8222 26.8176 16.4062 26.2992V26.2969ZM8.35229 18.9688C8.18279 18.797 8.05936 18.5852 7.99341 18.353C7.92745 18.1209 7.9211 17.8759 7.97494 17.6406C8.03009 17.3904 8.14953 17.1588 8.32146 16.9688C8.4934 16.7788 8.7119 16.6369 8.95541 16.557C9.07717 16.5132 9.20568 16.4909 9.3351 16.4914C9.63036 16.4955 9.91715 16.5907 10.1562 16.7641V20.7727L8.35229 18.9688ZM9.9351 24.0055C10.2093 23.7445 10.5722 23.5974 10.9507 23.5938C11.3276 23.5925 11.6897 23.7405 11.9578 24.0055L15.0781 27.125C15.3481 27.3943 15.5009 27.7593 15.5031 28.1406C15.502 28.3138 15.4694 28.4853 15.407 28.6469C15.3381 28.8366 15.2276 29.0086 15.0835 29.15C14.8367 29.3973 14.508 29.5459 14.1593 29.5679C13.8105 29.5899 13.4658 29.4838 13.1898 29.2695L9.93822 26.025C9.80499 25.8929 9.6993 25.7356 9.62728 25.5624C9.55527 25.3891 9.51836 25.2033 9.51869 25.0156C9.51955 24.6373 9.66911 24.2745 9.9351 24.0055V24.0055ZM7.59135 29.9164C7.39139 29.7161 7.25536 29.461 7.2005 29.1834C7.14564 28.9058 7.17441 28.6181 7.28317 28.3568C7.39193 28.0955 7.57578 27.8724 7.81144 27.7157C8.0471 27.559 8.32397 27.4758 8.60697 27.4766C8.92916 27.4773 9.24153 27.5875 9.49291 27.7891L12.7343 31.0211C12.9928 31.2909 13.1353 31.6513 13.1313 32.0249C13.1273 32.3985 12.9771 32.7557 12.7128 33.0199C12.4486 33.2842 12.0914 33.4344 11.7178 33.4384C11.3442 33.4424 10.9838 33.2999 10.714 33.0414L7.59135 29.9164ZM10.7163 39.2914L7.59135 36.1664C7.34097 35.8953 7.20518 35.5379 7.21239 35.169C7.21961 34.8 7.36927 34.4482 7.63005 34.1871C7.89083 33.926 8.2425 33.7759 8.61143 33.7683C8.98037 33.7607 9.33795 33.896 9.60932 34.1461L12.7343 37.2711C12.9928 37.5409 13.1353 37.9013 13.1313 38.2749C13.1273 38.6485 12.9771 39.0057 12.7128 39.2699C12.4486 39.5342 12.0914 39.6844 11.7178 39.6884C11.3442 39.6924 10.9838 39.5499 10.714 39.2914H10.7163ZM14.0624 43.75C13.4408 43.75 12.8447 43.5031 12.4052 43.0635C11.9656 42.624 11.7187 42.0279 11.7187 41.4062V41.2695H11.7249C12.3811 41.274 13.0201 41.0593 13.5404 40.6596C14.0608 40.2598 14.4329 39.6977 14.5976 39.0625H32.0312V41.4062C32.0312 42.0279 31.7843 42.624 31.3447 43.0635C30.9052 43.5031 30.309 43.75 29.6874 43.75H14.0624ZM25.3234 46.875L23.7609 45.3125H29.6874C30.7231 45.3113 31.7159 44.8993 32.4482 44.167C33.1805 43.4347 33.5925 42.4419 33.5937 41.4062V22.6516C33.5949 22.4452 33.6778 22.2477 33.8242 22.1022C33.9705 21.9567 34.1686 21.875 34.3749 21.875C34.7828 21.875 35.0976 22.3328 35.1687 22.7961L36.7085 31.2656L35.9453 36.6078C35.9313 36.7079 35.9366 36.8097 35.9609 36.9078L37.5234 43.1578C37.5577 43.2953 37.6287 43.4209 37.7288 43.5211L41.0828 46.875H25.3234Z" fill="#9F3E4B"/>
<path d="M20.3125 40.625H23.4375V42.1875H20.3125V40.625Z" fill="#9F3E4B"/>
<path d="M15.625 21.875H20.3125C20.5197 21.875 20.7184 21.7927 20.8649 21.6462C21.0114 21.4997 21.0938 21.301 21.0938 21.0938V16.4062C21.0938 16.199 21.0114 16.0003 20.8649 15.8538C20.7184 15.7073 20.5197 15.625 20.3125 15.625H15.625C15.4178 15.625 15.2191 15.7073 15.0726 15.8538C14.9261 16.0003 14.8438 16.199 14.8438 16.4062V21.0938C14.8438 21.301 14.9261 21.4997 15.0726 21.6462C15.2191 21.7927 15.4178 21.875 15.625 21.875ZM16.4062 17.1875H19.5312V20.3125H16.4062V17.1875Z" fill="#9F3E4B"/>
<path d="M22.6562 21.0938C22.6562 21.301 22.7386 21.4997 22.8851 21.6462C23.0316 21.7927 23.2303 21.875 23.4375 21.875H28.125C28.3322 21.875 28.5309 21.7927 28.6774 21.6462C28.8239 21.4997 28.9062 21.301 28.9062 21.0938V16.4062C28.9062 16.199 28.8239 16.0003 28.6774 15.8538C28.5309 15.7073 28.3322 15.625 28.125 15.625H23.4375C23.2303 15.625 23.0316 15.7073 22.8851 15.8538C22.7386 16.0003 22.6562 16.199 22.6562 16.4062V21.0938ZM24.2188 17.1875H27.3438V20.3125H24.2188V17.1875Z" fill="#9F3E4B"/>
<path d="M28.125 23.4375H23.4375C23.2303 23.4375 23.0316 23.5198 22.8851 23.6663C22.7386 23.8128 22.6562 24.0115 22.6562 24.2188V28.9062C22.6562 29.1135 22.7386 29.3122 22.8851 29.4587C23.0316 29.6052 23.2303 29.6875 23.4375 29.6875H28.125C28.3322 29.6875 28.5309 29.6052 28.6774 29.4587C28.8239 29.3122 28.9062 29.1135 28.9062 28.9062V24.2188C28.9062 24.0115 28.8239 23.8128 28.6774 23.6663C28.5309 23.5198 28.3322 23.4375 28.125 23.4375ZM27.3438 28.125H24.2188V25H27.3438V28.125Z" fill="#9F3E4B"/>
<path d="M17.9688 34.375H19.5312V35.9375H17.9688V34.375Z" fill="#9F3E4B"/>
<path d="M21.0938 34.375H22.6562V35.9375H21.0938V34.375Z" fill="#9F3E4B"/>
<path d="M24.2188 34.375H25.7812V35.9375H24.2188V34.375Z" fill="#9F3E4B"/>
</svg>
