<svg width="50" height="50" viewBox="0 0 50 50" fill="none" xmlns="http://www.w3.org/2000/svg">
<path d="M16.4062 45.3125C16.199 45.3125 16.0003 45.3948 15.8538 45.5413C15.7073 45.6878 15.625 45.8865 15.625 46.0938C15.625 46.301 15.7073 46.4997 15.8538 46.6462C16.0003 46.7927 16.199 46.875 16.4062 46.875H21.0938C21.301 46.875 21.4997 46.7927 21.6462 46.6462C21.7927 46.4997 21.875 46.301 21.875 46.0938C21.875 45.8865 21.7927 45.6878 21.6462 45.5413C21.4997 45.3948 21.301 45.3125 21.0938 45.3125H16.4062Z" fill="#9F3E4B"/>
<path d="M44.5312 14.0625H32.8125V3.51562C32.8117 2.79067 32.5234 2.09564 32.0107 1.58301C31.4981 1.07039 30.8031 0.782051 30.0781 0.78125H7.42188C6.69692 0.782051 6.00189 1.07039 5.48926 1.58301C4.97664 2.09564 4.6883 2.79067 4.6875 3.51562V46.4844C4.6883 47.2093 4.97664 47.9044 5.48926 48.417C6.00189 48.9296 6.69692 49.2179 7.42188 49.2188H30.0781C30.8031 49.2179 31.4981 48.9296 32.0107 48.417C32.5234 47.9044 32.8117 47.2093 32.8125 46.4844V34.375H44.5312C44.7385 34.375 44.9372 34.2927 45.0837 34.1462C45.2302 33.9997 45.3125 33.801 45.3125 33.5938V14.8438C45.3125 14.6365 45.2302 14.4378 45.0837 14.2913C44.9372 14.1448 44.7385 14.0625 44.5312 14.0625ZM22.4365 2.34375L22.0459 3.90625H15.4541L15.0635 2.34375H22.4365ZM31.25 46.4844C31.2497 46.7951 31.1262 47.093 30.9065 47.3127C30.6868 47.5324 30.3888 47.656 30.0781 47.6562H7.42188C7.11115 47.656 6.81323 47.5324 6.59352 47.3127C6.37381 47.093 6.25026 46.7951 6.25 46.4844V3.51562C6.25026 3.2049 6.37381 2.90698 6.59352 2.68727C6.81323 2.46756 7.11115 2.34401 7.42188 2.34375H13.4521L14.0859 4.87695C14.1282 5.04597 14.2257 5.19601 14.363 5.30324C14.5003 5.41047 14.6695 5.46872 14.8438 5.46875H22.6562C22.8305 5.46872 22.9997 5.41047 23.137 5.30324C23.2743 5.19601 23.3718 5.04597 23.4141 4.87695L24.0479 2.34375H30.0781C30.3888 2.34401 30.6868 2.46756 30.9065 2.68727C31.1262 2.90698 31.2497 3.2049 31.25 3.51562V14.0625H16.4062C16.199 14.0625 16.0003 14.1448 15.8538 14.2913C15.7073 14.4378 15.625 14.6365 15.625 14.8438V21.0938H11.7188C11.5115 21.0938 11.3128 21.1761 11.1663 21.3226C11.0198 21.4691 10.9375 21.6678 10.9375 21.875C10.9375 22.0822 11.0198 22.2809 11.1663 22.4274C11.3128 22.5739 11.5115 22.6562 11.7188 22.6562H15.625V27.3438H11.7188C11.5115 27.3438 11.3128 27.4261 11.1663 27.5726C11.0198 27.7191 10.9375 27.9178 10.9375 28.125C10.9375 28.3322 11.0198 28.5309 11.1663 28.6774C11.3128 28.8239 11.5115 28.9062 11.7188 28.9062H15.625V33.5938C15.625 33.801 15.7073 33.9997 15.8538 34.1462C16.0003 34.2927 16.199 34.375 16.4062 34.375H31.25V46.4844ZM17.1875 19.2324L24.0625 22.6699L17.542 32.8125H17.1875V19.2324ZM19.3994 32.8125L25.4678 23.373L30.1191 25.6992C30.2278 25.7532 30.3474 25.7812 30.4688 25.7812C30.5901 25.7812 30.7097 25.7532 30.8184 25.6992L35.4697 23.373L41.5381 32.8125H19.3994ZM43.75 32.8125H43.3955L36.875 22.6699L43.75 19.2324V32.8125ZM43.75 17.4863L30.4688 24.127L17.1875 17.4863V15.625H43.75V17.4863Z" fill="#9F3E4B"/>
<path d="M8.59375 25.7812H14.0625C14.2697 25.7812 14.4684 25.6989 14.6149 25.5524C14.7614 25.4059 14.8438 25.2072 14.8438 25C14.8438 24.7928 14.7614 24.5941 14.6149 24.4476C14.4684 24.3011 14.2697 24.2188 14.0625 24.2188H8.59375C8.38655 24.2188 8.18784 24.3011 8.04132 24.4476C7.89481 24.5941 7.8125 24.7928 7.8125 25C7.8125 25.2072 7.89481 25.4059 8.04132 25.5524C8.18784 25.6989 8.38655 25.7812 8.59375 25.7812V25.7812Z" fill="#9F3E4B"/>
<path d="M9.375 27.3438H8.59375C8.38655 27.3438 8.18784 27.4261 8.04132 27.5726C7.89481 27.7191 7.8125 27.9178 7.8125 28.125C7.8125 28.3322 7.89481 28.5309 8.04132 28.6774C8.18784 28.8239 8.38655 28.9062 8.59375 28.9062H9.375C9.5822 28.9062 9.78091 28.8239 9.92743 28.6774C10.0739 28.5309 10.1562 28.3322 10.1562 28.125C10.1562 27.9178 10.0739 27.7191 9.92743 27.5726C9.78091 27.4261 9.5822 27.3438 9.375 27.3438Z" fill="#9F3E4B"/>
</svg>
