<svg width="71" height="67" viewBox="0 0 71 67" fill="none" xmlns="http://www.w3.org/2000/svg">
<path d="M9.41882 48.7004C12.7045 52.4242 17.0488 55.3447 22.1963 56.878C36.8722 61.2954 52.3513 53.0083 56.7687 38.3324C59.0321 30.8119 57.9734 23.1089 54.4322 16.7932M33.112 57.9368C36.7627 57.3161 41.1436 53.7749 42.2388 48.2258M53.7021 45.1227C53.7021 45.1227 56.1845 40.9244 62.5733 39.4641M57.9369 29.1326C57.9369 29.1326 57.9004 23.9486 60.5654 20.8455M21.0646 56.513C21.0646 56.513 26.9788 58.7034 30.0819 61.8065M46.5466 52.7527C46.5466 52.7527 48.8831 50.4163 53.483 50.8544M49.8688 15.1503C49.8688 15.1503 52.0957 17.7058 54.3957 16.4281C56.7321 15.1503 55.929 12.1567 55.929 12.1567M37.6754 55.7463C37.6754 55.7463 34.5358 47.3862 42.6769 42.7133C43.1515 44.4291 47.2038 51.329 37.6754 55.7463ZM57.2798 41.6911C57.2798 41.6911 58.6305 32.3087 70.0573 36.8721C66.6986 37.4927 67.3192 43.8815 57.2798 41.6911ZM58.6305 24.6057C58.6305 24.6057 54.5782 17.1217 64.0336 15.5154C62.3908 16.9757 63.5225 23.1454 58.6305 24.6057ZM26.5407 59.178C26.5407 59.178 34.3532 58.8494 33.3675 66.2604C32.3818 63.2668 27.1248 65.0557 26.5407 59.178ZM50.0148 51.0734C50.0148 51.0734 56.0385 46.1084 59.7257 52.6067C57.1702 50.7814 54.0306 55.3813 50.0148 51.0734Z" stroke="#444441" stroke-width="0.730144" stroke-miterlimit="10" stroke-linecap="round" stroke-linejoin="round"/>
<path d="M48.7371 12.1572C48.7371 12.1572 47.3134 10.5144 48.5181 8.14141C48.9562 9.67471 52.4974 8.32395 53.264 11.9747M50.672 9.23663C50.672 9.23663 51.1101 7.5938 52.6799 6.82715C52.7164 7.73983 53.7021 7.70332 54.3957 8.98108M52.972 13.727C52.972 13.727 51.8037 11.5001 49.9419 10.9525M53.2275 10.7334C53.2275 10.7334 52.972 9.20012 52.7529 8.79854M53.5561 14.2746C53.5561 14.2746 50.2339 10.2953 45.6705 13.1794C47.6419 12.7778 48.153 16.9762 53.5561 14.2746ZM53.4831 14.3476C53.4831 14.3476 51.9498 9.41916 56.8052 7.11921C55.418 8.54299 58.6671 11.2445 53.4831 14.3476Z" stroke="#EC6985" stroke-width="0.730144" stroke-miterlimit="10" stroke-linecap="round" stroke-linejoin="round"/>
<path d="M4.746 37.7119L4.96504 38.3325L4.34441 38.5516L4.89202 40.0849L5.51264 39.8658L5.73169 40.4865L4.56346 40.9245L4.49044 40.742C4.16188 40.7055 3.7968 40.742 3.39522 40.815C2.99365 40.888 2.55556 40.9976 2.11747 41.1436L1.38733 39.2087L3.61427 38.4055L3.50475 38.15L4.746 37.7119ZM3.94283 39.0992L2.26351 39.7198L2.48254 40.3039C2.81111 40.1944 3.13968 40.1214 3.46824 40.0849C3.79681 40.0484 4.05235 40.0484 4.3079 40.0484L3.94283 39.0992Z" fill="#EC6985"/>
<path d="M1.82536 34.6453C2.29996 34.5357 2.66503 34.5722 2.99359 34.7913C3.32216 34.9738 3.50469 35.3024 3.61421 35.704C3.72374 36.1421 3.65072 36.5071 3.43168 36.7992C3.21263 37.0912 2.88407 37.3103 2.44598 37.4198C1.97139 37.5293 1.60632 37.4928 1.27776 37.2738C0.949191 37.0912 0.766651 36.7627 0.657129 36.3611C0.547608 35.923 0.620622 35.5579 0.839665 35.2659C1.0222 34.9738 1.35077 34.7548 1.82536 34.6453ZM1.97139 35.4119C1.78885 35.4484 1.64283 35.4849 1.53331 35.5579C1.42378 35.6309 1.35077 35.704 1.27776 35.777C1.20474 35.85 1.16823 35.923 1.16823 36.0325C1.16823 36.1055 1.16823 36.2151 1.16823 36.2881C1.20474 36.3611 1.20474 36.4706 1.27776 36.5071C1.31426 36.5801 1.38727 36.6166 1.4968 36.6897C1.56981 36.7262 1.67933 36.7627 1.82536 36.7627C1.97139 36.7627 2.11742 36.7627 2.26345 36.7262C2.44598 36.6897 2.59201 36.6531 2.70153 36.5801C2.81106 36.5071 2.88407 36.4341 2.95708 36.3611C3.0301 36.2881 3.06661 36.2151 3.06661 36.1055C3.06661 36.0325 3.06661 35.923 3.06661 35.85C3.0301 35.777 3.0301 35.704 2.95708 35.631C2.92058 35.5579 2.84757 35.5214 2.73804 35.4484C2.62852 35.4119 2.519 35.3754 2.40948 35.3754C2.29995 35.3389 2.15393 35.3389 1.97139 35.4119Z" fill="#EC6985"/>
<path d="M3.0666 32.0168C3.1031 32.4549 2.99358 32.82 2.77454 33.0755C2.51899 33.3676 2.19042 33.5136 1.67932 33.5501C1.20473 33.5866 0.839661 33.4771 0.547603 33.2581C0.255546 33.039 0.0730062 32.674 0.036499 32.2359C0.036499 32.1264 0.036499 32.0168 0.036499 31.9073C0.036499 31.7978 0.0365013 31.7248 0.0730084 31.6518C0.0730084 31.5787 0.109515 31.5057 0.146022 31.4327C0.182529 31.3597 0.182528 31.2867 0.219035 31.2502L0.912675 31.1772V31.2502C0.876168 31.2867 0.839659 31.3232 0.803152 31.3962C0.766645 31.4692 0.730137 31.5057 0.69363 31.5787C0.657122 31.6518 0.620616 31.7248 0.620616 31.7978C0.584109 31.8708 0.584107 31.9803 0.584107 32.0533C0.584107 32.1629 0.620613 32.2359 0.65712 32.3454C0.693627 32.4184 0.766642 32.4914 0.839656 32.5644C0.912671 32.6375 1.0222 32.674 1.16822 32.7105C1.31425 32.747 1.46028 32.747 1.60631 32.747C1.78885 32.747 1.93487 32.7105 2.04439 32.6375C2.15392 32.5644 2.26344 32.4914 2.33645 32.4184C2.40947 32.3454 2.44597 32.2359 2.48248 32.1629C2.51899 32.0533 2.51899 31.9803 2.51899 31.8708C2.51899 31.7613 2.48248 31.6883 2.44598 31.6153C2.40947 31.5422 2.37296 31.4692 2.33645 31.3962C2.29995 31.3232 2.22693 31.2867 2.19043 31.2502C2.15392 31.2137 2.11741 31.1772 2.0809 31.1407V31.0676L2.77454 30.9946C2.81105 31.0311 2.84755 31.1042 2.88406 31.1772C2.92057 31.2502 2.95708 31.3232 2.99358 31.3962C3.03009 31.4692 3.0666 31.5787 3.0666 31.6518C3.0666 31.7248 3.0666 31.8708 3.0666 32.0168Z" fill="#EC6985"/>
<path d="M2.92058 29.3517L0.584112 29.2787L0.547608 30.1549L0 30.1183L0.0730133 27.6724H0.620621L0.584112 28.5485L2.95708 28.6215L2.92058 29.3517Z" fill="#EC6985"/>
<path d="M3.03015 27.1248L0.292114 25.701L0.401637 24.8978L3.43174 24.3867L3.32221 25.1169L2.70159 25.1899L2.55556 26.1026L3.10317 26.3581L3.03015 27.1248ZM2.19049 25.2994L1.20479 25.4454L2.11747 25.8835L2.19049 25.2994Z" fill="#EC6985"/>
<path d="M3.46823 20.9551C3.61426 20.9917 3.72378 21.0647 3.7968 21.1377C3.86981 21.2107 3.94283 21.3202 4.01584 21.4297C4.05235 21.5758 4.08885 21.6853 4.08885 21.8313C4.08885 21.9773 4.05235 22.1234 4.01584 22.3424L3.68727 23.4741L0.876221 22.671L1.16828 21.6853C1.24129 21.4662 1.2778 21.3202 1.31431 21.2107C1.35081 21.1012 1.42383 21.0282 1.49684 20.9551C1.56986 20.8821 1.67938 20.8091 1.7889 20.8091C1.89842 20.7726 2.00794 20.7726 2.11746 20.8091C2.26349 20.8456 2.37302 20.9186 2.44603 21.0282C2.51905 21.1377 2.59206 21.2472 2.59206 21.3932C2.66507 21.2472 2.8111 21.1012 2.92063 21.0282C3.10316 20.9186 3.2857 20.8821 3.46823 20.9551ZM2.04445 21.5393C2.00794 21.5393 1.93493 21.5393 1.89842 21.5393C1.86192 21.5393 1.7889 21.5758 1.75239 21.6123C1.71588 21.6488 1.67938 21.7218 1.67938 21.7583C1.64287 21.8313 1.64287 21.9043 1.60636 22.0504V22.0869L2.19048 22.2694L2.22699 22.1964C2.26349 22.0869 2.3 21.9774 2.3 21.9408C2.3 21.9043 2.3 21.8313 2.3 21.7948C2.3 21.7218 2.26349 21.6853 2.22699 21.6488C2.15397 21.5758 2.11746 21.5393 2.04445 21.5393ZM3.24919 21.6853C3.17617 21.6488 3.10316 21.6488 3.03014 21.6853C2.95713 21.7218 2.92062 21.7583 2.88412 21.7948C2.84761 21.8313 2.84761 21.9043 2.8111 21.9773C2.7746 22.0504 2.7746 22.1599 2.73809 22.2694L2.70158 22.4154L3.39521 22.6345V22.598C3.43172 22.4154 3.46823 22.2694 3.50474 22.2329C3.50474 22.1599 3.54124 22.0869 3.50474 22.0139C3.50474 21.9408 3.46823 21.8678 3.43172 21.8313C3.35871 21.7218 3.3222 21.6853 3.24919 21.6853Z" fill="#EC6985"/>
<path d="M5.73165 17.8154L5.40308 18.6186L4.01581 18.8741L3.9428 19.0566L5.03801 19.5312L4.74596 20.1884L2.08093 19.0201L2.37299 18.363L3.46821 18.8376C3.50471 18.7281 3.50471 18.6551 3.50471 18.582C3.4682 18.509 3.4317 18.3995 3.32217 18.29C3.28567 18.2535 3.24916 18.217 3.21265 18.144C3.17615 18.1075 3.13964 18.0344 3.10314 17.9979C2.95711 17.8519 2.88409 17.7059 2.88409 17.5599C2.84758 17.4138 2.88409 17.2678 2.9571 17.0853C2.99361 17.0122 2.99361 16.9757 3.03012 16.9392C3.06662 16.9027 3.06663 16.8662 3.06663 16.8662L3.65074 17.1218L3.57772 17.2678C3.54122 17.3408 3.54122 17.4138 3.57772 17.4868C3.61423 17.5598 3.68725 17.6694 3.79677 17.7789C3.90629 17.8884 3.9428 17.9614 3.97931 18.0344C4.01581 18.1075 4.05232 18.144 4.05232 18.217L5.73165 17.8154Z" fill="#EC6985"/>
<path d="M5.98714 17.3045L3.97925 14.968L4.38083 14.2744L7.41092 14.9315L7.00935 15.5887L6.38872 15.4426L5.91413 16.2458L6.31571 16.7204L5.98714 17.3045ZM5.87762 15.2966L4.89193 15.0776L5.58556 15.8077L5.87762 15.2966Z" fill="#EC6985"/>
<path d="M9.12683 12.668L6.9364 10.7331L8.25066 9.23633L8.65224 9.6014L7.84908 10.5506L8.21415 10.8792L8.9808 10.0395L9.38238 10.4046L8.61573 11.2442L9.19985 11.7553L10.003 10.8061L10.4411 11.1712L9.12683 12.668Z" fill="#EC6985"/>
<path d="M13.6901 9.09028L13.179 9.52837L12.7409 9.01727L11.4997 10.076L11.9378 10.5871L11.4267 11.0252L10.6235 10.1125L10.7696 9.96646C10.6965 9.6744 10.5505 9.34584 10.3315 8.98077C10.1124 8.61569 9.85688 8.25062 9.56482 7.92205L11.0981 6.57129L12.6679 8.36014L12.887 8.1776L13.6901 9.09028ZM12.1203 8.83473L10.9156 7.48397L10.441 7.92205C10.66 8.21411 10.8426 8.46966 10.9886 8.76172C11.1346 9.05378 11.2442 9.30933 11.3172 9.56488L12.1203 8.83473Z" fill="#EC6985"/>
<path d="M15.5156 5.91418C15.5886 6.0237 15.6251 6.16973 15.6616 6.27925C15.6981 6.42528 15.6616 6.5348 15.6251 6.64432C15.5886 6.79035 15.5156 6.89987 15.406 7.00939C15.333 7.11891 15.187 7.22844 15.041 7.30145L14.0553 7.92207L12.4855 5.47609L13.1061 5.07451L13.6902 5.98719L14.0553 5.76815C14.2013 5.65863 14.3473 5.58561 14.4569 5.5491C14.6029 5.5126 14.7124 5.47609 14.8584 5.47609C14.968 5.47609 15.114 5.5491 15.187 5.62212C15.3695 5.69513 15.4426 5.80465 15.5156 5.91418ZM14.8949 6.35226C14.8584 6.31575 14.8219 6.27925 14.8219 6.24274C14.7854 6.20624 14.7489 6.20623 14.7124 6.16973C14.6759 6.16973 14.6029 6.16973 14.5299 6.16973C14.4569 6.16973 14.3838 6.20623 14.3108 6.27925L14.0188 6.46178L14.4204 7.08241L14.7124 6.89987C14.8219 6.82685 14.9315 6.71733 14.968 6.64432C14.968 6.5348 14.968 6.46178 14.8949 6.35226ZM16.8298 6.20623L16.2092 6.60782L14.6394 4.16183L15.26 3.76025L16.8298 6.20623Z" fill="#EC6985"/>
<path d="M22.4154 4.56337L21.7948 4.78241L21.5758 4.12528L20.0425 4.67289L20.2615 5.33002L19.6409 5.54906L19.2393 4.38083L19.4218 4.30782C19.4583 3.97925 19.4218 3.61418 19.3853 3.2126C19.3123 2.81102 19.2028 2.37294 19.0568 1.93485L20.9916 1.24121L21.7948 3.46815L22.0504 3.35863L22.4154 4.56337ZM21.0281 3.76021L20.4075 2.08088L19.8234 2.29992C19.9329 2.62849 19.9694 2.95705 20.0059 3.28562C20.0425 3.61418 20.0425 3.86973 20.0059 4.12528L21.0281 3.76021Z" fill="#EC6985"/>
<path d="M25.6281 3.17618L24.8979 3.32221L24.4233 1.02225L23.6932 1.16828C23.7297 1.2778 23.7297 1.38733 23.7297 1.49685C23.7297 1.60637 23.7662 1.67938 23.7662 1.7889C23.8027 2.04445 23.8392 2.2635 23.8392 2.44603C23.8392 2.62857 23.8392 2.7746 23.8392 2.92063C23.8027 3.06665 23.8027 3.17617 23.7662 3.24919C23.7297 3.3222 23.6932 3.39522 23.6567 3.43172C23.6202 3.50474 23.5472 3.57775 23.4742 3.61426C23.4011 3.65077 23.2916 3.68728 23.2186 3.72378C23.1456 3.72378 23.1091 3.76029 23.0361 3.76029C22.9631 3.76029 22.9265 3.76029 22.89 3.76029L22.7805 3.10316H22.817H22.8535H22.89C22.9265 3.10316 22.9631 3.06665 22.9996 3.06665C23.0361 3.03015 23.0726 3.03015 23.1091 2.99364C23.1821 2.88412 23.2186 2.73809 23.2186 2.55555C23.2186 2.37302 23.1821 2.08096 23.1456 1.7524C23.1091 1.60637 23.1091 1.46034 23.0726 1.31431C23.0361 1.20479 22.9996 1.02225 22.9631 0.766704L25.0805 0.328613L25.6281 3.17618Z" fill="#EC6985"/>
<path d="M29.1693 2.84756L28.4391 2.88407L28.3661 1.82536L28.0741 1.86187L27.4169 2.99359L26.5408 3.0666L27.3074 1.78885C27.1249 1.71584 26.9789 1.64283 26.8693 1.4968C26.7598 1.35077 26.6868 1.20474 26.6868 0.985693C26.6868 0.839664 26.6868 0.693639 26.7598 0.584117C26.8328 0.474596 26.9058 0.365073 26.9789 0.292059C27.0519 0.219044 27.1614 0.182534 27.3074 0.146027C27.4169 0.109519 27.563 0.0730133 27.7455 0.0730133L28.9137 0L29.1693 2.84756ZM28.3296 1.27775L28.2566 0.511098H28.0376C27.928 0.511098 27.8185 0.511101 27.782 0.547608C27.709 0.547608 27.6725 0.584114 27.5995 0.620621C27.563 0.657128 27.5265 0.693639 27.49 0.766653C27.4534 0.80316 27.4535 0.876175 27.4535 0.949189C27.4535 1.0222 27.49 1.05871 27.49 1.13173C27.5265 1.16823 27.563 1.24124 27.5995 1.24124C27.636 1.27775 27.709 1.31426 27.782 1.31426C27.855 1.31426 27.928 1.31426 28.0376 1.31426L28.3296 1.27775Z" fill="#EC6985"/>
<path d="M35.2294 3.32216L34.5358 3.21263L34.7913 1.27775L34.0977 2.44598L33.5866 2.37297L33.258 1.05871L32.966 2.99359L32.3088 2.88407L32.7104 0L33.5501 0.109523L33.9882 1.64282L34.8278 0.292059L35.6675 0.401581L35.2294 3.32216Z" fill="#EC6985"/>
<path d="M36.1786 3.50484L37.9309 0.98584L38.6976 1.20489L38.8436 4.27149L38.1135 4.05245V3.43182L37.2373 3.17627L36.9087 3.68738L36.1786 3.50484ZM38.077 2.88421L38.0404 1.86202L37.4928 2.70168L38.077 2.88421Z" fill="#EC6985"/>
<path d="M42.4579 5.80433L41.7643 5.51228L42.5674 3.75993L41.5817 4.67261L41.1071 4.45356L41.1436 3.1028L40.3405 4.89165L39.7198 4.5996L40.9246 1.93457L41.6912 2.26313V3.86945L42.8595 2.81074L43.6261 3.13931L42.4579 5.80433Z" fill="#EC6985"/>
<path d="M9.41882 48.7004C12.7045 52.4242 17.0488 55.3447 22.1963 56.878C36.8722 61.2954 52.3513 53.0083 56.7687 38.3324C59.0321 30.8119 57.9734 23.1089 54.4322 16.7932M33.112 57.9368C36.7627 57.3161 41.1436 53.7749 42.2388 48.2258M53.7021 45.1227C53.7021 45.1227 56.1845 40.9244 62.5733 39.4641M57.9369 29.1326C57.9369 29.1326 57.9004 23.9486 60.5654 20.8455M21.0646 56.513C21.0646 56.513 26.9788 58.7034 30.0819 61.8065M46.5466 52.7527C46.5466 52.7527 48.8831 50.4163 53.483 50.8544M49.8688 15.1503C49.8688 15.1503 52.0957 17.7058 54.3957 16.4281C56.7321 15.1503 55.929 12.1567 55.929 12.1567M37.6754 55.7463C37.6754 55.7463 34.5358 47.3862 42.6769 42.7133C43.1515 44.4291 47.2038 51.329 37.6754 55.7463ZM57.2798 41.6911C57.2798 41.6911 58.6305 32.3087 70.0573 36.8721C66.6986 37.4927 67.3192 43.8815 57.2798 41.6911ZM58.6305 24.6057C58.6305 24.6057 54.5782 17.1217 64.0336 15.5154C62.3908 16.9757 63.5225 23.1454 58.6305 24.6057ZM26.5407 59.178C26.5407 59.178 34.3532 58.8494 33.3675 66.2604C32.3818 63.2668 27.1248 65.0557 26.5407 59.178ZM50.0148 51.0734C50.0148 51.0734 56.0385 46.1084 59.7257 52.6067C57.1702 50.7814 54.0306 55.3813 50.0148 51.0734Z" stroke="#444441" stroke-width="0.730144" stroke-miterlimit="10" stroke-linecap="round" stroke-linejoin="round"/>
<path d="M48.7371 12.1572C48.7371 12.1572 47.3134 10.5144 48.5181 8.14141C48.9562 9.67471 52.4974 8.32395 53.264 11.9747M50.672 9.23663C50.672 9.23663 51.1101 7.5938 52.6799 6.82715C52.7164 7.73983 53.7021 7.70332 54.3957 8.98108M52.972 13.727C52.972 13.727 51.8037 11.5001 49.9419 10.9525M53.2275 10.7334C53.2275 10.7334 52.972 9.20012 52.7529 8.79854M53.5561 14.2746C53.5561 14.2746 50.2339 10.2953 45.6705 13.1794C47.6419 12.7778 48.153 16.9762 53.5561 14.2746ZM53.4831 14.3476C53.4831 14.3476 51.9498 9.41916 56.8052 7.11921C55.418 8.54299 58.6671 11.2445 53.4831 14.3476Z" stroke="#EC6985" stroke-width="0.730144" stroke-miterlimit="10" stroke-linecap="round" stroke-linejoin="round"/>
<path d="M4.746 37.7119L4.96504 38.3325L4.34441 38.5516L4.89202 40.0849L5.51264 39.8658L5.73169 40.4865L4.56346 40.9245L4.49044 40.742C4.16188 40.7055 3.7968 40.742 3.39522 40.815C2.99365 40.888 2.55556 40.9976 2.11747 41.1436L1.38733 39.2087L3.61427 38.4055L3.50475 38.15L4.746 37.7119ZM3.94283 39.0992L2.26351 39.7198L2.48254 40.3039C2.81111 40.1944 3.13968 40.1214 3.46824 40.0849C3.79681 40.0484 4.05235 40.0484 4.3079 40.0484L3.94283 39.0992Z" fill="#EC6985"/>
<path d="M1.82536 34.6453C2.29996 34.5357 2.66503 34.5722 2.99359 34.7913C3.32216 34.9738 3.50469 35.3024 3.61421 35.704C3.72374 36.1421 3.65072 36.5071 3.43168 36.7992C3.21263 37.0912 2.88407 37.3103 2.44598 37.4198C1.97139 37.5293 1.60632 37.4928 1.27776 37.2738C0.949191 37.0912 0.766651 36.7627 0.657129 36.3611C0.547608 35.923 0.620622 35.5579 0.839665 35.2659C1.0222 34.9738 1.35077 34.7548 1.82536 34.6453ZM1.97139 35.4119C1.78885 35.4484 1.64283 35.4849 1.53331 35.5579C1.42378 35.6309 1.35077 35.704 1.27776 35.777C1.20474 35.85 1.16823 35.923 1.16823 36.0325C1.16823 36.1055 1.16823 36.2151 1.16823 36.2881C1.20474 36.3611 1.20474 36.4706 1.27776 36.5071C1.31426 36.5801 1.38727 36.6166 1.4968 36.6897C1.56981 36.7262 1.67933 36.7627 1.82536 36.7627C1.97139 36.7627 2.11742 36.7627 2.26345 36.7262C2.44598 36.6897 2.59201 36.6531 2.70153 36.5801C2.81106 36.5071 2.88407 36.4341 2.95708 36.3611C3.0301 36.2881 3.06661 36.2151 3.06661 36.1055C3.06661 36.0325 3.06661 35.923 3.06661 35.85C3.0301 35.777 3.0301 35.704 2.95708 35.631C2.92058 35.5579 2.84757 35.5214 2.73804 35.4484C2.62852 35.4119 2.519 35.3754 2.40948 35.3754C2.29995 35.3389 2.15393 35.3389 1.97139 35.4119Z" fill="#EC6985"/>
<path d="M3.0666 32.0168C3.1031 32.4549 2.99358 32.82 2.77454 33.0755C2.51899 33.3676 2.19042 33.5136 1.67932 33.5501C1.20473 33.5866 0.839661 33.4771 0.547603 33.2581C0.255546 33.039 0.0730062 32.674 0.036499 32.2359C0.036499 32.1264 0.036499 32.0168 0.036499 31.9073C0.036499 31.7978 0.0365013 31.7248 0.0730084 31.6518C0.0730084 31.5787 0.109515 31.5057 0.146022 31.4327C0.182529 31.3597 0.182528 31.2867 0.219035 31.2502L0.912675 31.1772V31.2502C0.876168 31.2867 0.839659 31.3232 0.803152 31.3962C0.766645 31.4692 0.730137 31.5057 0.69363 31.5787C0.657122 31.6518 0.620616 31.7248 0.620616 31.7978C0.584109 31.8708 0.584107 31.9803 0.584107 32.0533C0.584107 32.1629 0.620613 32.2359 0.65712 32.3454C0.693627 32.4184 0.766642 32.4914 0.839656 32.5644C0.912671 32.6375 1.0222 32.674 1.16822 32.7105C1.31425 32.747 1.46028 32.747 1.60631 32.747C1.78885 32.747 1.93487 32.7105 2.04439 32.6375C2.15392 32.5644 2.26344 32.4914 2.33645 32.4184C2.40947 32.3454 2.44597 32.2359 2.48248 32.1629C2.51899 32.0533 2.51899 31.9803 2.51899 31.8708C2.51899 31.7613 2.48248 31.6883 2.44598 31.6153C2.40947 31.5422 2.37296 31.4692 2.33645 31.3962C2.29995 31.3232 2.22693 31.2867 2.19043 31.2502C2.15392 31.2137 2.11741 31.1772 2.0809 31.1407V31.0676L2.77454 30.9946C2.81105 31.0311 2.84755 31.1042 2.88406 31.1772C2.92057 31.2502 2.95708 31.3232 2.99358 31.3962C3.03009 31.4692 3.0666 31.5787 3.0666 31.6518C3.0666 31.7248 3.0666 31.8708 3.0666 32.0168Z" fill="#EC6985"/>
<path d="M2.92058 29.3517L0.584112 29.2787L0.547608 30.1549L0 30.1183L0.0730133 27.6724H0.620621L0.584112 28.5485L2.95708 28.6215L2.92058 29.3517Z" fill="#EC6985"/>
<path d="M3.03015 27.1248L0.292114 25.701L0.401637 24.8978L3.43174 24.3867L3.32221 25.1169L2.70159 25.1899L2.55556 26.1026L3.10317 26.3581L3.03015 27.1248ZM2.19049 25.2994L1.20479 25.4454L2.11747 25.8835L2.19049 25.2994Z" fill="#EC6985"/>
<path d="M3.46823 20.9551C3.61426 20.9917 3.72378 21.0647 3.7968 21.1377C3.86981 21.2107 3.94283 21.3202 4.01584 21.4297C4.05235 21.5758 4.08885 21.6853 4.08885 21.8313C4.08885 21.9773 4.05235 22.1234 4.01584 22.3424L3.68727 23.4741L0.876221 22.671L1.16828 21.6853C1.24129 21.4662 1.2778 21.3202 1.31431 21.2107C1.35081 21.1012 1.42383 21.0282 1.49684 20.9551C1.56986 20.8821 1.67938 20.8091 1.7889 20.8091C1.89842 20.7726 2.00794 20.7726 2.11746 20.8091C2.26349 20.8456 2.37302 20.9186 2.44603 21.0282C2.51905 21.1377 2.59206 21.2472 2.59206 21.3932C2.66507 21.2472 2.8111 21.1012 2.92063 21.0282C3.10316 20.9186 3.2857 20.8821 3.46823 20.9551ZM2.04445 21.5393C2.00794 21.5393 1.93493 21.5393 1.89842 21.5393C1.86192 21.5393 1.7889 21.5758 1.75239 21.6123C1.71588 21.6488 1.67938 21.7218 1.67938 21.7583C1.64287 21.8313 1.64287 21.9043 1.60636 22.0504V22.0869L2.19048 22.2694L2.22699 22.1964C2.26349 22.0869 2.3 21.9774 2.3 21.9408C2.3 21.9043 2.3 21.8313 2.3 21.7948C2.3 21.7218 2.26349 21.6853 2.22699 21.6488C2.15397 21.5758 2.11746 21.5393 2.04445 21.5393ZM3.24919 21.6853C3.17617 21.6488 3.10316 21.6488 3.03014 21.6853C2.95713 21.7218 2.92062 21.7583 2.88412 21.7948C2.84761 21.8313 2.84761 21.9043 2.8111 21.9773C2.7746 22.0504 2.7746 22.1599 2.73809 22.2694L2.70158 22.4154L3.39521 22.6345V22.598C3.43172 22.4154 3.46823 22.2694 3.50474 22.2329C3.50474 22.1599 3.54124 22.0869 3.50474 22.0139C3.50474 21.9408 3.46823 21.8678 3.43172 21.8313C3.35871 21.7218 3.3222 21.6853 3.24919 21.6853Z" fill="#EC6985"/>
<path d="M5.73165 17.8154L5.40308 18.6186L4.01581 18.8741L3.9428 19.0566L5.03801 19.5312L4.74596 20.1884L2.08093 19.0201L2.37299 18.363L3.46821 18.8376C3.50471 18.7281 3.50471 18.6551 3.50471 18.582C3.4682 18.509 3.4317 18.3995 3.32217 18.29C3.28567 18.2535 3.24916 18.217 3.21265 18.144C3.17615 18.1075 3.13964 18.0344 3.10314 17.9979C2.95711 17.8519 2.88409 17.7059 2.88409 17.5599C2.84758 17.4138 2.88409 17.2678 2.9571 17.0853C2.99361 17.0122 2.99361 16.9757 3.03012 16.9392C3.06662 16.9027 3.06663 16.8662 3.06663 16.8662L3.65074 17.1218L3.57772 17.2678C3.54122 17.3408 3.54122 17.4138 3.57772 17.4868C3.61423 17.5598 3.68725 17.6694 3.79677 17.7789C3.90629 17.8884 3.9428 17.9614 3.97931 18.0344C4.01581 18.1075 4.05232 18.144 4.05232 18.217L5.73165 17.8154Z" fill="#EC6985"/>
<path d="M5.98714 17.3045L3.97925 14.968L4.38083 14.2744L7.41092 14.9315L7.00935 15.5887L6.38872 15.4426L5.91413 16.2458L6.31571 16.7204L5.98714 17.3045ZM5.87762 15.2966L4.89193 15.0776L5.58556 15.8077L5.87762 15.2966Z" fill="#EC6985"/>
<path d="M9.12683 12.668L6.9364 10.7331L8.25066 9.23633L8.65224 9.6014L7.84908 10.5506L8.21415 10.8792L8.9808 10.0395L9.38238 10.4046L8.61573 11.2442L9.19985 11.7553L10.003 10.8061L10.4411 11.1712L9.12683 12.668Z" fill="#EC6985"/>
<path d="M13.6901 9.09028L13.179 9.52837L12.7409 9.01727L11.4997 10.076L11.9378 10.5871L11.4267 11.0252L10.6235 10.1125L10.7696 9.96646C10.6965 9.6744 10.5505 9.34584 10.3315 8.98077C10.1124 8.61569 9.85688 8.25062 9.56482 7.92205L11.0981 6.57129L12.6679 8.36014L12.887 8.1776L13.6901 9.09028ZM12.1203 8.83473L10.9156 7.48397L10.441 7.92205C10.66 8.21411 10.8426 8.46966 10.9886 8.76172C11.1346 9.05378 11.2442 9.30933 11.3172 9.56488L12.1203 8.83473Z" fill="#EC6985"/>
<path d="M15.5156 5.91418C15.5886 6.0237 15.6251 6.16973 15.6616 6.27925C15.6981 6.42528 15.6616 6.5348 15.6251 6.64432C15.5886 6.79035 15.5156 6.89987 15.406 7.00939C15.333 7.11891 15.187 7.22844 15.041 7.30145L14.0553 7.92207L12.4855 5.47609L13.1061 5.07451L13.6902 5.98719L14.0553 5.76815C14.2013 5.65863 14.3473 5.58561 14.4569 5.5491C14.6029 5.5126 14.7124 5.47609 14.8584 5.47609C14.968 5.47609 15.114 5.5491 15.187 5.62212C15.3695 5.69513 15.4426 5.80465 15.5156 5.91418ZM14.8949 6.35226C14.8584 6.31575 14.8219 6.27925 14.8219 6.24274C14.7854 6.20624 14.7489 6.20623 14.7124 6.16973C14.6759 6.16973 14.6029 6.16973 14.5299 6.16973C14.4569 6.16973 14.3838 6.20623 14.3108 6.27925L14.0188 6.46178L14.4204 7.08241L14.7124 6.89987C14.8219 6.82685 14.9315 6.71733 14.968 6.64432C14.968 6.5348 14.968 6.46178 14.8949 6.35226ZM16.8298 6.20623L16.2092 6.60782L14.6394 4.16183L15.26 3.76025L16.8298 6.20623Z" fill="#EC6985"/>
<path d="M22.4154 4.56337L21.7948 4.78241L21.5758 4.12528L20.0425 4.67289L20.2615 5.33002L19.6409 5.54906L19.2393 4.38083L19.4218 4.30782C19.4583 3.97925 19.4218 3.61418 19.3853 3.2126C19.3123 2.81102 19.2028 2.37294 19.0568 1.93485L20.9916 1.24121L21.7948 3.46815L22.0504 3.35863L22.4154 4.56337ZM21.0281 3.76021L20.4075 2.08088L19.8234 2.29992C19.9329 2.62849 19.9694 2.95705 20.0059 3.28562C20.0425 3.61418 20.0425 3.86973 20.0059 4.12528L21.0281 3.76021Z" fill="#EC6985"/>
<path d="M25.6281 3.17618L24.8979 3.32221L24.4233 1.02225L23.6932 1.16828C23.7297 1.2778 23.7297 1.38733 23.7297 1.49685C23.7297 1.60637 23.7662 1.67938 23.7662 1.7889C23.8027 2.04445 23.8392 2.2635 23.8392 2.44603C23.8392 2.62857 23.8392 2.7746 23.8392 2.92063C23.8027 3.06665 23.8027 3.17617 23.7662 3.24919C23.7297 3.3222 23.6932 3.39522 23.6567 3.43172C23.6202 3.50474 23.5472 3.57775 23.4742 3.61426C23.4011 3.65077 23.2916 3.68728 23.2186 3.72378C23.1456 3.72378 23.1091 3.76029 23.0361 3.76029C22.9631 3.76029 22.9265 3.76029 22.89 3.76029L22.7805 3.10316H22.817H22.8535H22.89C22.9265 3.10316 22.9631 3.06665 22.9996 3.06665C23.0361 3.03015 23.0726 3.03015 23.1091 2.99364C23.1821 2.88412 23.2186 2.73809 23.2186 2.55555C23.2186 2.37302 23.1821 2.08096 23.1456 1.7524C23.1091 1.60637 23.1091 1.46034 23.0726 1.31431C23.0361 1.20479 22.9996 1.02225 22.9631 0.766704L25.0805 0.328613L25.6281 3.17618Z" fill="#EC6985"/>
<path d="M29.1693 2.84756L28.4391 2.88407L28.3661 1.82536L28.0741 1.86187L27.4169 2.99359L26.5408 3.0666L27.3074 1.78885C27.1249 1.71584 26.9789 1.64283 26.8693 1.4968C26.7598 1.35077 26.6868 1.20474 26.6868 0.985693C26.6868 0.839664 26.6868 0.693639 26.7598 0.584117C26.8328 0.474596 26.9058 0.365073 26.9789 0.292059C27.0519 0.219044 27.1614 0.182534 27.3074 0.146027C27.4169 0.109519 27.563 0.0730133 27.7455 0.0730133L28.9137 0L29.1693 2.84756ZM28.3296 1.27775L28.2566 0.511098H28.0376C27.928 0.511098 27.8185 0.511101 27.782 0.547608C27.709 0.547608 27.6725 0.584114 27.5995 0.620621C27.563 0.657128 27.5265 0.693639 27.49 0.766653C27.4534 0.80316 27.4535 0.876175 27.4535 0.949189C27.4535 1.0222 27.49 1.05871 27.49 1.13173C27.5265 1.16823 27.563 1.24124 27.5995 1.24124C27.636 1.27775 27.709 1.31426 27.782 1.31426C27.855 1.31426 27.928 1.31426 28.0376 1.31426L28.3296 1.27775Z" fill="#EC6985"/>
<path d="M35.2294 3.32216L34.5358 3.21263L34.7913 1.27775L34.0977 2.44598L33.5866 2.37297L33.258 1.05871L32.966 2.99359L32.3088 2.88407L32.7104 0L33.5501 0.109523L33.9882 1.64282L34.8278 0.292059L35.6675 0.401581L35.2294 3.32216Z" fill="#EC6985"/>
<path d="M36.1786 3.50484L37.9309 0.98584L38.6976 1.20489L38.8436 4.27149L38.1135 4.05245V3.43182L37.2373 3.17627L36.9087 3.68738L36.1786 3.50484ZM38.077 2.88421L38.0404 1.86202L37.4928 2.70168L38.077 2.88421Z" fill="#EC6985"/>
<path d="M42.4579 5.80433L41.7643 5.51228L42.5674 3.75993L41.5817 4.67261L41.1071 4.45356L41.1436 3.1028L40.3405 4.89165L39.7198 4.5996L40.9246 1.93457L41.6912 2.26313V3.86945L42.8595 2.81074L43.6261 3.13931L42.4579 5.80433Z" fill="#EC6985"/>
<path d="M8.67852 38.8458C8.7749 39.1671 8.99175 39.3277 9.32908 39.3277C9.55396 39.3277 9.81901 39.2314 10.1242 39.0386C10.4455 38.8458 10.7748 38.5406 11.1121 38.123C11.4494 37.6893 11.7867 37.1271 12.1241 36.4364C12.4775 35.7296 12.8068 34.8702 13.112 33.8582C13.4653 32.6856 13.7545 31.6415 13.9794 30.7259C14.2043 29.7942 14.3729 28.9831 14.4854 28.2923C14.6139 27.6016 14.6942 27.0233 14.7263 26.5575C14.7745 26.0917 14.7906 25.7383 14.7745 25.4973C14.7584 25.1921 14.7986 24.9673 14.895 24.8227C14.9913 24.6781 15.1038 24.6058 15.2323 24.6058C15.3608 24.6058 15.4813 24.6781 15.5937 24.8227C15.7222 24.9673 15.8106 25.1841 15.8588 25.4733C15.8909 25.7303 15.9712 26.0837 16.0997 26.5334C16.2282 26.9671 16.3728 27.4731 16.5334 28.0514C16.7101 28.6136 16.8948 29.224 17.0876 29.8826C17.2964 30.5251 17.4972 31.1757 17.69 31.8343C17.963 31.1596 18.2361 30.493 18.5092 29.8344C18.7983 29.1758 19.0634 28.5734 19.3043 28.0273C19.5613 27.4651 19.7782 26.9832 19.9549 26.5816C20.1476 26.164 20.2842 25.8668 20.3645 25.6901C20.509 25.3849 20.6375 25.1279 20.75 24.9191C20.8785 24.6942 20.9909 24.5095 21.0873 24.3649C21.1837 24.2043 21.272 24.0758 21.3524 23.9794C21.4487 23.8669 21.5371 23.7545 21.6174 23.6421C21.778 23.4332 21.9306 23.377 22.0752 23.4734C22.2198 23.5698 22.2278 23.9151 22.0993 24.5095C22.019 24.911 21.9467 25.4251 21.8824 26.0515C21.8343 26.678 21.8102 27.4008 21.8102 28.2201C21.8102 29.4409 21.8824 30.7982 22.027 32.2921C22.1876 33.7859 22.4607 35.3039 22.8462 36.846C23.039 37.6009 23.2719 38.2515 23.545 38.7976C23.8341 39.3438 24.1313 39.7936 24.4365 40.147C24.7577 40.5003 25.0629 40.7413 25.3521 40.8698C25.6573 41.0144 25.9143 41.0545 26.1231 40.9903C26.4123 40.8939 26.597 40.8859 26.6773 40.9662C26.7576 41.0626 26.7496 41.183 26.6532 41.3276C26.5568 41.4722 26.3882 41.6087 26.1472 41.7372C25.9063 41.8818 25.6091 41.9541 25.2557 41.9541C24.9987 41.9541 24.7658 41.9219 24.557 41.8577C23.7377 41.5846 23.0711 40.9019 22.5571 39.8096C22.0591 38.7334 21.6817 37.352 21.4246 35.6653C21.2479 34.6052 21.1275 33.5691 21.0632 32.5571C21.015 31.5291 20.9909 30.5813 20.9909 29.7139C20.9909 28.4771 21.0231 27.4731 21.0873 26.7021C21.1516 25.915 21.1917 25.5054 21.2078 25.4733C21.1917 25.5054 21.1194 25.658 20.9909 25.9311C20.8785 26.1881 20.7339 26.5254 20.5572 26.943C20.3805 27.3446 20.1797 27.7944 19.9549 28.2923C19.73 28.7903 19.5051 29.2963 19.2802 29.8103C19.0553 30.3243 18.8304 30.8223 18.6056 31.3042C18.3967 31.77 18.212 32.1796 18.0514 32.533L17.9309 32.774L17.955 32.7981C18.1959 33.6976 18.3807 34.565 18.5092 35.4003C18.6537 36.2356 18.726 37.0066 18.726 37.7134C18.726 38.4202 18.6537 39.0145 18.5092 39.4964C18.3646 39.9783 18.1478 40.3076 17.8586 40.4843C17.6016 40.6288 17.3446 40.6851 17.0876 40.6529C16.8466 40.6208 16.6298 40.5084 16.437 40.3156C16.2443 40.1229 16.0917 39.8498 15.9792 39.4964C15.8668 39.143 15.8106 38.7173 15.8106 38.2194C15.8106 37.9302 15.8347 37.6009 15.8829 37.2315C15.9471 36.846 16.0595 36.3721 16.2202 35.8099C16.3969 35.2477 16.6057 34.6293 16.8466 33.9546C16.6699 33.2318 16.4852 32.4929 16.2925 31.7379C16.1158 30.9669 15.9471 30.2681 15.7865 29.6416C15.6098 28.9027 15.4331 28.1879 15.2564 27.4972C15.1439 28.1076 14.9994 28.7823 14.8227 29.5212C14.6781 30.1476 14.4934 30.8785 14.2685 31.7138C14.0436 32.5491 13.7705 33.4406 13.4493 34.3883C13.1601 35.2557 12.8549 36.0589 12.5337 36.7978C12.2285 37.5206 11.8992 38.1551 11.5458 38.7013C11.1924 39.2314 10.8149 39.649 10.4133 39.9542C10.0278 40.2594 9.61822 40.412 9.18451 40.412C8.78293 40.412 8.50986 40.2996 8.36529 40.0747C8.22072 39.8498 8.14844 39.6088 8.14844 39.3518C8.14844 39.2073 8.1645 39.0707 8.19663 38.9422C8.24482 38.8137 8.29301 38.7173 8.3412 38.6531C8.38938 38.5888 8.44561 38.5728 8.50986 38.6049C8.57411 38.621 8.63033 38.7013 8.67852 38.8458ZM16.9189 39.8819C17.2241 40.0747 17.441 40.0265 17.5695 39.7373C17.698 39.4643 17.7622 39.0788 17.7622 38.5808C17.7622 38.3077 17.7381 38.0186 17.69 37.7134C17.6578 37.3921 17.6096 37.0869 17.5454 36.7978L17.1117 34.9666C16.9029 35.6412 16.7422 36.2757 16.6298 36.8701C16.5173 37.4644 16.4611 37.9945 16.4611 38.4603C16.4611 39.2153 16.6137 39.6892 16.9189 39.8819Z" fill="#444441"/>
<path d="M31.094 33.3522C31.1743 33.1916 31.2948 33.039 31.4554 32.8944C31.616 32.7499 31.7767 32.6374 31.9373 32.5571C32.0979 32.4768 32.2264 32.4366 32.3228 32.4366C32.4192 32.4366 32.4353 32.5089 32.371 32.6535C32.2746 32.8784 32.1943 33.296 32.1301 33.9064C32.0819 34.5008 32.0578 35.1352 32.0578 35.8099C32.0578 36.4203 32.0819 36.9745 32.1301 37.4724C32.1943 37.9704 32.2907 38.3077 32.4192 38.4844C32.5798 38.6932 32.7244 38.8057 32.8529 38.8217C32.9975 38.8378 33.1099 38.7254 33.1902 38.4844C33.2063 38.4202 33.2304 38.4041 33.2625 38.4362C33.3107 38.4684 33.3348 38.5246 33.3348 38.6049C33.3509 38.6691 33.3348 38.7495 33.2866 38.8458C33.2545 38.9422 33.1822 39.0225 33.0697 39.0868C32.9573 39.151 32.8288 39.1912 32.6842 39.2073C32.5557 39.2394 32.4112 39.2314 32.2505 39.1832C32.106 39.151 31.9453 39.0788 31.7686 38.9663C31.608 38.8378 31.4393 38.6611 31.2626 38.4362C31.0378 38.1471 30.8771 37.7375 30.7807 37.2074C30.7004 36.6773 30.6683 36.1392 30.6844 35.593C30.3631 36.2838 29.9455 36.9263 29.4314 37.5206C28.9174 38.0989 28.3793 38.5005 27.8171 38.7254C27.544 38.8217 27.3111 38.8699 27.1183 38.8699C26.6043 38.8699 26.2429 38.621 26.0341 38.123C25.8413 37.609 25.7771 36.9664 25.8413 36.1954C25.8574 35.8902 25.9377 35.4806 26.0823 34.9666C26.2429 34.4526 26.4517 33.9305 26.7087 33.4004C26.9818 32.8703 27.3111 32.3643 27.6966 31.8825C28.0821 31.4006 28.5319 31.0311 29.0459 30.7741C29.3833 30.5974 29.7206 30.5091 30.0579 30.5091C30.347 30.5091 30.596 30.5653 30.8048 30.6777C31.0297 30.7902 31.2064 30.9428 31.3349 31.1355C31.4634 31.3122 31.5357 31.521 31.5518 31.762C31.5678 31.9869 31.5116 32.2117 31.3831 32.4366C31.1422 32.8543 30.9735 33.0551 30.8771 33.039C30.7807 33.0229 30.7968 32.8061 30.9253 32.3884C31.0217 32.0351 31.0137 31.7539 30.9012 31.5451C30.7888 31.3363 30.596 31.2319 30.3229 31.2319C30.082 31.2319 29.7848 31.3443 29.4314 31.5692C29.0941 31.778 28.7327 32.1234 28.3472 32.6053C27.8813 33.2157 27.544 33.8663 27.3352 34.557C27.1264 35.2477 27.022 35.8741 27.022 36.4364C27.022 36.9664 27.0943 37.3841 27.2388 37.6893C27.3995 37.9945 27.6163 38.0828 27.8894 37.9543C28.1303 37.8419 28.3954 37.6572 28.6845 37.4002C28.9736 37.1271 29.2467 36.8299 29.5037 36.5086C29.7768 36.1713 30.0258 35.8179 30.2507 35.4485C30.4916 35.079 30.6763 34.7256 30.8048 34.3883C30.8691 34.0028 30.9574 33.6815 31.0699 33.4245C31.0699 33.3924 31.0779 33.3763 31.094 33.3763V33.3522Z" fill="#444441"/>
<path d="M39.9358 31.1355C39.9358 31.2319 39.9519 31.4247 39.984 31.7138C40.0161 32.0029 40.0563 32.3403 40.1045 32.7258C40.1527 33.1113 40.2009 33.5129 40.249 33.9305C40.2972 34.3481 40.3454 34.7337 40.3936 35.0871C40.4418 35.4244 40.482 35.6975 40.5141 35.9063C40.5623 36.1151 40.5944 36.2034 40.6105 36.1713C40.6747 36.0107 40.8113 35.7216 41.0201 35.3039C41.2289 34.8702 41.4377 34.3963 41.6465 33.8823C41.8714 33.3522 42.0722 32.8221 42.2489 32.2921C42.4256 31.762 42.5139 31.3122 42.5139 30.9428C42.6103 30.7179 42.7228 30.5653 42.8513 30.485C42.9798 30.4046 43.0922 30.3805 43.1886 30.4127C43.301 30.4287 43.3894 30.493 43.4536 30.6054C43.5179 30.7018 43.55 30.8303 43.55 30.9909C43.55 31.2801 43.542 31.7138 43.5259 32.2921C43.5099 32.8543 43.4938 33.4647 43.4777 34.1233C43.4777 34.7819 43.4938 35.4404 43.5259 36.099C43.5581 36.7416 43.6223 37.2797 43.7187 37.7134C43.799 38.0025 43.8954 38.2354 44.0078 38.4121C44.1203 38.5728 44.2648 38.6611 44.4415 38.6772C44.5379 38.6772 44.57 38.7013 44.5379 38.7495C44.5058 38.7976 44.4335 38.8458 44.3211 38.894C44.2247 38.9422 44.0962 38.9824 43.9355 39.0145C43.791 39.0306 43.6384 39.0065 43.4777 38.9422C43.2368 38.8619 43.0521 38.6852 42.9236 38.4121C42.8111 38.1391 42.7067 37.8499 42.6103 37.5447C42.5782 37.4002 42.5461 37.2556 42.5139 37.111C42.4979 36.9504 42.4738 36.8058 42.4417 36.6773C42.4417 36.597 42.4336 36.5247 42.4176 36.4605C42.4176 36.3962 42.4176 36.34 42.4176 36.2918C42.4176 36.2115 42.4095 36.0749 42.3935 35.8822C42.3774 35.6894 42.3613 35.4886 42.3453 35.2798C42.3292 35.0549 42.3132 34.8541 42.2971 34.6774C42.2971 34.4847 42.3051 34.3481 42.3212 34.2678C42.3212 34.2196 42.3132 34.1875 42.2971 34.1715C42.281 34.1393 42.273 34.1313 42.273 34.1474C42.1606 34.4847 41.9758 34.9264 41.7188 35.4726C41.4618 36.0187 41.2048 36.5488 40.9478 37.0628C40.6908 37.5608 40.4659 37.9865 40.2731 38.3398C40.0964 38.6772 40.0242 38.8298 40.0563 38.7976C39.9117 38.9101 39.7993 38.9663 39.719 38.9663C39.6868 38.9663 39.6627 38.9663 39.6467 38.9663C39.6306 38.9663 39.6226 38.9422 39.6226 38.894C39.6226 38.878 39.6386 38.7896 39.6708 38.629C39.7029 38.4684 39.719 38.2274 39.719 37.9061C39.719 37.7776 39.7109 37.6491 39.6949 37.5206C39.6949 37.3921 39.6949 37.2476 39.6949 37.0869C39.6788 37.0066 39.6386 36.8379 39.5744 36.5809C39.5262 36.3079 39.47 36.0107 39.4057 35.6894C39.3575 35.3682 39.3093 35.0549 39.2612 34.7497C39.213 34.4445 39.1889 34.2116 39.1889 34.051C39.1567 34.2277 39.1086 34.4285 39.0443 34.6533C38.9801 34.8622 38.9158 35.0871 38.8515 35.328C38.7873 35.5529 38.715 35.7778 38.6347 36.0027C38.5704 36.2115 38.5142 36.3882 38.466 36.5327C38.2893 37.0468 38.0564 37.5608 37.7673 38.0748C37.4942 38.5888 37.1569 38.9824 36.7553 39.2554C36.2895 39.5446 35.8477 39.6892 35.4301 39.6892C34.9161 39.6892 34.4984 39.4964 34.1772 39.1109C33.8559 38.7254 33.7435 38.2113 33.8398 37.5688C33.9041 37.1512 34.0326 36.8138 34.2254 36.5568C34.4342 36.2838 34.6591 36.083 34.9 35.9545C35.141 35.8099 35.3739 35.7296 35.5988 35.7135C35.8397 35.6814 36.0244 35.6894 36.1529 35.7376C36.4742 35.8501 36.6188 35.9625 36.5866 36.0749C36.5545 36.1874 36.426 36.2275 36.2011 36.1954C36.0887 36.1633 35.9521 36.1954 35.7915 36.2918C35.6309 36.3882 35.4783 36.5327 35.3337 36.7255C35.2052 36.9183 35.1008 37.1592 35.0205 37.4483C34.9562 37.7214 34.9562 38.0346 35.0205 38.388C35.1169 38.7896 35.3257 38.9904 35.6469 38.9904C36.0646 38.9904 36.4983 38.7173 36.9481 38.1712C37.1408 37.9302 37.3336 37.5929 37.5263 37.1592C37.7191 36.7255 37.8958 36.2516 38.0564 35.7376C38.2171 35.2236 38.3616 34.7015 38.4901 34.1715C38.6186 33.6253 38.723 33.1193 38.8034 32.6535C38.8837 32.1877 38.9319 31.7861 38.9479 31.4487C38.964 31.1114 38.9479 30.8865 38.8997 30.7741C38.8194 30.6295 38.8194 30.5331 38.8997 30.485C38.9961 30.4207 39.1166 30.4127 39.2612 30.4609C39.4057 30.493 39.5503 30.5653 39.6949 30.6777C39.8394 30.7902 39.9197 30.9428 39.9358 31.1355Z" fill="#444441"/>
<path d="M50.6183 34.9666C50.2167 35.5449 49.8231 36.0669 49.4376 36.5327C49.1163 36.9343 48.771 37.3198 48.4015 37.6893C48.0321 38.0427 47.7189 38.2595 47.4618 38.3398C47.1727 38.4202 46.9478 38.4603 46.7872 38.4603C46.241 38.4603 45.9599 38.0346 45.9439 37.1833C45.9439 36.9905 45.968 36.7094 46.0162 36.34C46.0804 35.9705 46.1527 35.5689 46.233 35.1352C46.3294 34.7015 46.4177 34.2518 46.4981 33.7859C46.5944 33.304 46.6747 32.8623 46.739 32.4607C46.8193 32.0431 46.8675 31.6817 46.8836 31.3765C46.9157 31.0713 46.9077 30.8624 46.8595 30.75C46.8273 30.6697 46.7631 30.6054 46.6667 30.5572C46.5864 30.5091 46.4177 30.4368 46.1607 30.3404C45.9358 30.244 45.8716 30.1717 45.968 30.1235C46.0804 30.0593 46.3053 30.0513 46.6426 30.0994C46.8514 30.1316 47.0522 30.1878 47.245 30.2681C47.4377 30.3324 47.5984 30.4448 47.7269 30.6054C47.8715 30.75 47.9678 30.9508 48.016 31.2078C48.0642 31.4487 48.0642 31.77 48.016 32.1716C47.9839 32.4447 47.9277 32.7659 47.8474 33.1354C47.767 33.4888 47.6787 33.8663 47.5823 34.2678C47.502 34.6694 47.4137 35.071 47.3173 35.4726C47.2209 35.8581 47.1406 36.2195 47.0763 36.5568C47.0281 36.8781 46.996 37.1431 46.9799 37.352C46.9799 37.5608 47.0121 37.6813 47.0763 37.7134C47.1727 37.7616 47.3735 37.6491 47.6787 37.3761C47.9839 37.103 48.3132 36.7737 48.6666 36.3882C49.036 35.9866 49.3814 35.577 49.7027 35.1593C50.04 34.7417 50.2809 34.4124 50.4255 34.1715C50.6183 33.8663 50.7548 33.5851 50.8351 33.3281C50.9154 33.0711 50.9797 32.8302 51.0279 32.6053C51.0761 32.3643 51.1242 32.1395 51.1724 31.9306C51.2367 31.7058 51.3572 31.4728 51.5339 31.2319C51.6624 31.0552 51.815 30.9428 51.9917 30.8946C52.1683 30.8464 52.3209 30.8464 52.4495 30.8946C52.594 30.9428 52.6904 31.0311 52.7386 31.1596C52.7868 31.2721 52.7547 31.4086 52.6422 31.5692C52.5458 31.6977 52.4495 31.9708 52.3531 32.3884C52.2728 32.79 52.1924 33.2639 52.1121 33.81C52.0479 34.3562 51.9917 34.9345 51.9435 35.5449C51.8953 36.1553 51.8631 36.7175 51.8471 37.2315C51.815 37.617 51.7668 38.0909 51.7025 38.6531C51.6543 39.1992 51.5499 39.7534 51.3893 40.3156C51.7587 40.4281 52.1041 40.5646 52.4254 40.7252C52.7466 40.8859 52.9795 41.0545 53.1241 41.2312C53.2205 41.3597 53.2606 41.4722 53.2446 41.5685C53.2446 41.6649 53.2125 41.7372 53.1482 41.7854C53.0839 41.8336 52.9956 41.8496 52.8832 41.8336C52.7868 41.8175 52.6904 41.7533 52.594 41.6408C52.4495 41.4963 52.2647 41.3437 52.0398 41.183C51.831 41.0224 51.566 40.8859 51.2447 40.7734C51.1001 41.2071 50.9235 41.6167 50.7146 42.0022C50.5058 42.3878 50.2488 42.7171 49.9436 42.9901C49.526 43.3596 48.9959 43.6568 48.3533 43.8816C47.7269 44.1065 47.1245 44.219 46.5462 44.219C46.1286 44.219 45.7511 44.1467 45.4138 44.0021C45.0925 43.8736 44.8596 43.6487 44.715 43.3275C44.5383 42.958 44.5544 42.5725 44.7632 42.1709C44.972 41.7854 45.3174 41.432 45.7993 41.1107C46.2973 40.7895 46.8996 40.5325 47.6064 40.3397C48.3132 40.147 49.0923 40.0586 49.9436 40.0747C50.0239 40.0747 50.1042 40.0747 50.1845 40.0747C50.2809 40.0907 50.3773 40.1068 50.4737 40.1229C50.554 39.6249 50.6102 39.1109 50.6423 38.5808C50.6745 38.0346 50.6905 37.5287 50.6905 37.0628C50.6905 36.7737 50.6825 36.5006 50.6664 36.2436C50.6664 35.9866 50.6584 35.7617 50.6423 35.5689C50.6263 35.3441 50.6183 35.1433 50.6183 34.9666ZM49.1726 40.5566C48.6585 40.6048 48.1847 40.7092 47.751 40.8698C47.3333 41.0465 46.9639 41.2473 46.6426 41.4722C46.3374 41.697 46.0965 41.938 45.9198 42.195C45.7591 42.452 45.6788 42.6849 45.6788 42.8938C45.6788 43.2953 45.9439 43.5443 46.474 43.6407C47.0201 43.7371 47.502 43.713 47.9196 43.5684C48.3373 43.4238 48.6987 43.223 49.0039 42.966C49.3091 42.7251 49.5581 42.452 49.7508 42.1468C49.9436 41.8577 50.0801 41.6087 50.1605 41.3999C50.2408 41.175 50.3211 40.8939 50.4014 40.5566C50.0319 40.5084 49.6223 40.5084 49.1726 40.5566Z" fill="#444441"/>
<path d="M28.1018 20.2921C27.9928 20.1909 27.9616 20.1286 28.0083 20.1052C28.0551 20.0818 28.1291 20.1013 28.2303 20.1636C28.277 20.1948 28.3588 20.1753 28.4756 20.1052C28.5925 20.0351 28.7093 19.9417 28.8261 19.8248C28.9507 19.7002 29.0597 19.56 29.1532 19.4043C29.2467 19.2485 29.2934 19.0966 29.2934 18.9487C29.2934 18.8163 29.2506 18.7033 29.1649 18.6099C29.0792 18.5164 28.9585 18.5086 28.8027 18.5865C28.6548 18.6566 28.4912 18.7734 28.3121 18.937C28.1407 19.1005 27.9655 19.2913 27.7864 19.5094C27.6072 19.7197 27.4476 19.9183 27.3074 20.1052C27.1438 20.3155 26.9881 20.518 26.8401 20.7127C26.6921 20.9074 26.5325 21.0865 26.3611 21.2501C26.5636 21.3591 26.7583 21.4993 26.9452 21.6706C27.1322 21.8342 27.2957 22.0289 27.4359 22.2547C27.6072 22.5351 27.7319 22.8466 27.8097 23.1893C27.8876 23.532 27.9538 23.8513 28.0083 24.1473C28.0706 24.4432 28.1407 24.6925 28.2186 24.8949C28.2965 25.0974 28.425 25.1987 28.6041 25.1987C28.721 25.1987 28.83 25.1597 28.9312 25.0819C29.0403 25.0118 29.1337 24.9222 29.2116 24.8132C29.2895 24.6963 29.3518 24.5717 29.3985 24.4393C29.4453 24.2991 29.4686 24.1629 29.4686 24.0305C29.4686 23.8358 29.418 23.6878 29.3168 23.5865C29.2389 23.5086 29.1999 23.4502 29.1999 23.4113C29.2077 23.3724 29.235 23.3568 29.2817 23.3646C29.3284 23.3724 29.3907 23.3996 29.4686 23.4463C29.5465 23.4931 29.6205 23.5671 29.6906 23.6683C29.7918 23.8163 29.8425 23.9915 29.8425 24.194C29.8425 24.342 29.8113 24.4939 29.749 24.6496C29.6945 24.7976 29.6088 24.93 29.492 25.0468C29.3752 25.1636 29.2272 25.2571 29.0481 25.3272C28.8767 25.4051 28.6742 25.4362 28.4406 25.4206C28.2303 25.4129 28.059 25.3467 27.9266 25.2221C27.7942 25.1052 27.6812 24.9534 27.5878 24.7664C27.5021 24.5717 27.432 24.3576 27.3775 24.1239C27.323 23.8903 27.2685 23.6566 27.2139 23.423C27.1672 23.1815 27.1166 22.9518 27.0621 22.7337C27.0153 22.5157 26.9491 22.3287 26.8635 22.173C26.6843 21.8459 26.4585 21.5889 26.1859 21.4019C26.0691 21.4954 25.9445 21.5811 25.8121 21.6589C25.6797 21.7368 25.5356 21.803 25.3798 21.8575C25.3487 21.8731 25.3253 21.8809 25.3097 21.8809C25.2474 22.2859 25.1812 22.6792 25.1111 23.0608C25.041 23.4424 24.9787 23.7851 24.9242 24.0889C24.8775 24.3926 24.8385 24.6418 24.8074 24.8365C24.7762 25.039 24.7723 25.1636 24.7957 25.2104C24.8346 25.3038 24.823 25.3545 24.7607 25.3622C24.7061 25.3778 24.636 25.3622 24.5504 25.3155C24.4725 25.2766 24.3985 25.2143 24.3284 25.1286C24.2661 25.0429 24.2466 24.9495 24.27 24.8482C24.2856 24.7937 24.3089 24.6769 24.3401 24.4977C24.379 24.3108 24.418 24.0889 24.4569 23.8319C24.5036 23.5748 24.5504 23.2867 24.5971 22.9674C24.6516 22.6481 24.7022 22.3171 24.749 21.9744C24.5231 21.9822 24.3401 21.9471 24.1999 21.8692C24.0597 21.7836 23.9896 21.6784 23.9896 21.5538C23.9896 21.437 24.0519 21.3202 24.1765 21.2033C24.3557 21.0398 24.5893 20.9463 24.8775 20.923C24.9164 20.627 24.9437 20.3427 24.9593 20.0702C24.9826 19.7976 24.9943 19.5561 24.9943 19.3459C24.9943 18.6527 24.8892 18.1387 24.6789 17.8038C24.4686 17.4689 24.0987 17.3092 23.5691 17.3248C23.3198 17.3326 23.0901 17.4183 22.8798 17.5818C22.6773 17.7454 22.5021 17.9479 22.3541 18.1893C22.2139 18.423 22.101 18.6761 22.0153 18.9487C21.9374 19.2212 21.8985 19.4744 21.8985 19.708C21.8985 19.9183 21.9296 20.0974 21.992 20.2454C22.062 20.3934 22.175 20.4868 22.3307 20.5258C22.5021 20.5725 22.6578 20.5413 22.798 20.4323C22.946 20.3155 23.0628 20.1714 23.1485 20.0001C23.2342 19.8287 23.2887 19.6574 23.3121 19.486C23.3354 19.3147 23.3159 19.1901 23.2536 19.1122C23.1991 19.0499 23.1835 19.0032 23.2069 18.972C23.2303 18.9409 23.2692 18.9331 23.3237 18.9487C23.386 18.9564 23.4522 18.9837 23.5223 19.0304C23.6002 19.0772 23.6586 19.1473 23.6976 19.2407C23.7521 19.3653 23.7677 19.5055 23.7443 19.6613C23.7287 19.8093 23.6742 19.9572 23.5807 20.1052C23.4951 20.2532 23.3744 20.3856 23.2186 20.5024C23.0706 20.6192 22.8954 20.701 22.6929 20.7477C22.5138 20.7945 22.3463 20.7906 22.1906 20.736C22.0348 20.6815 21.8985 20.592 21.7817 20.4674C21.6648 20.335 21.5714 20.1753 21.5013 19.9884C21.439 19.8015 21.4078 19.5912 21.4078 19.3575C21.4078 19.2485 21.4156 19.1434 21.4312 19.0421C21.4468 18.9331 21.4701 18.8201 21.5013 18.7033C21.5636 18.4619 21.661 18.2399 21.7934 18.0374C21.9258 17.8349 22.0854 17.6636 22.2723 17.5234C22.467 17.3754 22.689 17.2664 22.9382 17.1963C23.1874 17.1184 23.46 17.0912 23.756 17.1145C24.418 17.1613 24.8775 17.4105 25.1345 17.8622C25.3993 18.3061 25.5278 18.9136 25.52 19.6846C25.5122 19.8793 25.5005 20.0818 25.485 20.2921C25.4772 20.5024 25.4616 20.7166 25.4382 20.9346C25.5161 20.9502 25.594 20.9658 25.6719 20.9814C25.7498 20.997 25.8276 21.0203 25.9055 21.0515C26.0691 20.849 26.256 20.6075 26.4663 20.3272C26.6766 20.039 26.8985 19.7586 27.1322 19.486C27.3658 19.2135 27.6072 18.9681 27.8565 18.7501C28.1057 18.532 28.351 18.3879 28.5925 18.3178C28.7404 18.2789 28.8767 18.2711 29.0013 18.2944C29.1337 18.31 29.2506 18.3529 29.3518 18.423C29.453 18.493 29.5309 18.5826 29.5854 18.6916C29.6478 18.8007 29.6789 18.9253 29.6789 19.0655C29.6789 19.3069 29.5971 19.5483 29.4336 19.7898C29.2778 20.0312 29.1143 20.1987 28.9429 20.2921C28.7794 20.3778 28.6275 20.4206 28.4873 20.4206C28.4016 20.4206 28.3238 20.4089 28.2537 20.3856C28.1914 20.3622 28.1407 20.3311 28.1018 20.2921ZM24.8658 21.1099C24.6399 21.141 24.4686 21.2228 24.3518 21.3552C24.235 21.4876 24.2272 21.5927 24.3284 21.6706C24.4374 21.7407 24.5893 21.768 24.784 21.7524L24.8658 21.1099ZM25.3565 21.5889L25.5434 21.4603C25.6135 21.398 25.6952 21.3124 25.7887 21.2033C25.6641 21.1566 25.5395 21.1216 25.4149 21.0982L25.3565 21.5889Z" fill="#EC6985"/>
<path d="M31.2049 21.7407C31.1348 21.8498 31.0686 22.0289 31.0063 22.2781C30.9518 22.5195 30.9323 22.8389 30.9479 23.2361C30.9557 23.3685 30.9713 23.5125 30.9946 23.6683C31.0258 23.8241 31.0725 23.972 31.1348 24.1122C31.1971 24.2446 31.2789 24.3615 31.3801 24.4627C31.4814 24.5639 31.6021 24.6263 31.7423 24.6496C31.9526 24.6808 32.1434 24.6496 32.3147 24.5562C32.4939 24.4549 32.6535 24.3147 32.7937 24.1356C32.9339 23.9565 33.0507 23.7501 33.1442 23.5164C33.2454 23.275 33.3155 23.0297 33.3545 22.7804C33.37 22.6792 33.3817 22.5819 33.3895 22.4884C33.3973 22.3871 33.4012 22.2937 33.4012 22.208C33.4012 21.9043 33.3622 21.6434 33.2844 21.4253C33.2143 21.2072 33.1247 21.0476 33.0157 20.9463C32.9066 20.8373 32.7548 20.7828 32.5601 20.7828C32.3965 20.7828 32.2407 20.8334 32.0928 20.9346C31.9526 21.0281 31.8747 21.1644 31.8591 21.3435C31.8435 21.4915 31.8669 21.6239 31.9292 21.7407C31.9915 21.8498 32.0655 21.9432 32.1512 22.0211C32.2446 22.099 32.342 22.1613 32.4432 22.208C32.5445 22.247 32.634 22.2664 32.7119 22.2664C32.7898 22.2664 32.8287 22.2859 32.8287 22.3248C32.8365 22.3638 32.8132 22.4066 32.7587 22.4533C32.7119 22.4923 32.634 22.5273 32.525 22.5585C32.4238 22.5819 32.303 22.578 32.1629 22.5468C31.9604 22.5079 31.7812 22.3988 31.6255 22.2197C31.4697 22.0328 31.3918 21.8108 31.3918 21.5538C31.3918 21.398 31.4191 21.2501 31.4736 21.1099C31.5437 20.923 31.6683 20.7828 31.8474 20.6893C32.0266 20.5881 32.2291 20.5374 32.4549 20.5374C32.6029 20.5374 32.747 20.5608 32.8872 20.6075C33.0351 20.6465 33.1753 20.7127 33.3077 20.8061C33.5336 20.9619 33.7049 21.18 33.8217 21.4603C33.9464 21.7329 34.0087 22.0406 34.0087 22.3833C34.0087 22.6558 33.9697 22.9323 33.8918 23.2127C33.814 23.5009 33.701 23.7618 33.5531 23.9954C33.4051 24.2291 33.2298 24.4277 33.0273 24.5912C32.8326 24.747 32.6146 24.856 32.3731 24.9183C32.1395 24.9884 31.8981 25.0001 31.6488 24.9534C31.423 24.9144 31.2283 24.8365 31.0647 24.7197C30.909 24.5951 30.7766 24.4471 30.6675 24.2758C30.5663 24.0967 30.4923 23.9058 30.4456 23.7034C30.3988 23.4931 30.3755 23.2789 30.3755 23.0608C30.3755 22.6247 30.4611 22.2158 30.6325 21.8342C30.6714 21.7563 30.7337 21.6901 30.8194 21.6356C30.9051 21.5811 30.9868 21.546 31.0647 21.5304C31.1426 21.5149 31.201 21.5227 31.24 21.5538C31.2789 21.585 31.2672 21.6473 31.2049 21.7407Z" fill="#EC6985"/>
<path d="M34.7067 19.7431C34.7846 19.7586 34.8585 19.7859 34.9286 19.8248C34.9987 19.8638 35.061 19.93 35.1156 20.0234C35.1701 20.1169 35.2168 20.2493 35.2557 20.4206C35.3025 20.5842 35.3414 20.7984 35.3726 21.0632C35.3881 21.1722 35.3881 21.3124 35.3726 21.4837C35.3648 21.6473 35.3492 21.8381 35.3258 22.0561C35.4349 21.7836 35.5517 21.5343 35.6763 21.3085C35.8009 21.0826 35.9372 20.9035 36.0852 20.7711C36.3188 20.5764 36.5486 20.479 36.7744 20.479C37.0392 20.479 37.2651 20.6036 37.452 20.8529C37.6467 21.1021 37.7402 21.4759 37.7324 21.9744C37.7246 22.3871 37.6623 22.7571 37.5455 23.0842C37.4287 23.4113 37.2846 23.6878 37.1132 23.9136C36.9419 24.1395 36.7589 24.3108 36.5642 24.4277C36.3695 24.5367 36.1903 24.5834 36.0268 24.5678C35.8632 24.5523 35.7464 24.4861 35.6763 24.3692C35.6062 24.2446 35.5712 24.1005 35.5712 23.937C35.5712 23.7812 35.5984 23.6255 35.6529 23.4697C35.7075 23.3062 35.7776 23.166 35.8632 23.0491C35.9567 22.9245 36.0268 22.8856 36.0735 22.9323C36.1202 22.9713 36.0813 23.1114 35.9567 23.3529C35.9255 23.4152 35.9022 23.4931 35.8866 23.5865C35.871 23.6722 35.8632 23.7579 35.8632 23.8435C35.8632 23.9682 35.8827 24.0772 35.9216 24.1706C35.9684 24.2563 36.0501 24.2914 36.167 24.2758C36.2838 24.2602 36.3889 24.1901 36.4824 24.0655C36.5758 23.9331 36.6576 23.7696 36.7277 23.5748C36.8056 23.3801 36.8679 23.1699 36.9146 22.944C36.9691 22.7181 37.0081 22.5001 37.0315 22.2898C37.0626 22.0795 37.0782 21.8926 37.0782 21.729C37.086 21.5577 37.0782 21.4331 37.0548 21.3552C36.9614 21.0125 36.8173 20.8412 36.6226 20.8412C36.4902 20.8412 36.3344 20.9308 36.1553 21.1099C35.9839 21.289 35.8126 21.5655 35.6413 21.9393C35.4777 22.3054 35.3181 22.7298 35.1623 23.2127C35.1 23.641 35.0299 24.0811 34.952 24.5328C34.8741 24.9767 34.804 25.3934 34.7417 25.7828C34.6794 26.1722 34.6288 26.5071 34.5899 26.7875C34.5509 27.0679 34.5392 27.2509 34.5548 27.3365C34.5704 27.4378 34.5509 27.5001 34.4964 27.5235C34.4497 27.5546 34.3913 27.5546 34.3212 27.5235C34.2511 27.4923 34.1849 27.4339 34.1226 27.3482C34.0603 27.2703 34.0291 27.173 34.0291 27.0562C34.0213 26.9393 34.0486 26.7213 34.1109 26.402C34.1732 26.0826 34.2472 25.7166 34.3328 25.3038C34.4185 24.8911 34.5042 24.4588 34.5899 24.0071C34.6833 23.5554 34.7534 23.1387 34.8001 22.7571C34.8235 22.5702 34.8352 22.3716 34.8352 22.1613C34.8352 21.9199 34.8196 21.6745 34.7885 21.4253C34.7651 21.1761 34.7261 20.9502 34.6716 20.7477C34.6249 20.5374 34.5704 20.3661 34.5081 20.2337C34.4458 20.1013 34.3796 20.0234 34.3095 20.0001C34.2238 19.9767 34.181 19.9455 34.181 19.9066C34.181 19.8677 34.2043 19.8365 34.2511 19.8131C34.3056 19.782 34.3718 19.7586 34.4497 19.7431C34.5353 19.7275 34.621 19.7275 34.7067 19.7431Z" fill="#EC6985"/>
<path d="M41.0753 20.9814C41.0753 21.0281 41.0831 21.1216 41.0986 21.2618C41.1142 21.4019 41.1337 21.5655 41.157 21.7524C41.1804 21.9393 41.2038 22.134 41.2271 22.3365C41.2505 22.539 41.2739 22.7259 41.2972 22.8973C41.3206 23.0608 41.3401 23.1932 41.3556 23.2945C41.379 23.3957 41.3946 23.4386 41.4024 23.423C41.4335 23.3451 41.4997 23.2049 41.601 23.0024C41.7022 22.7921 41.8035 22.5624 41.9047 22.3132C42.0137 22.0561 42.1111 21.7991 42.1968 21.5421C42.2824 21.2851 42.3253 21.067 42.3253 20.8879C42.372 20.7789 42.4265 20.7049 42.4888 20.666C42.5511 20.627 42.6056 20.6153 42.6524 20.6309C42.7069 20.6387 42.7497 20.6698 42.7809 20.7244C42.812 20.7711 42.8276 20.8334 42.8276 20.9113C42.8276 21.0515 42.8237 21.2618 42.8159 21.5421C42.8081 21.8147 42.8004 22.1107 42.7926 22.43C42.7926 22.7493 42.8004 23.0686 42.8159 23.3879C42.8315 23.6995 42.8627 23.9604 42.9094 24.1706C42.9483 24.3108 42.9951 24.4238 43.0496 24.5094C43.1041 24.5873 43.1742 24.6301 43.2599 24.6379C43.3066 24.6379 43.3222 24.6496 43.3066 24.673C43.291 24.6963 43.256 24.7197 43.2014 24.7431C43.1547 24.7664 43.0924 24.7859 43.0145 24.8015C42.9444 24.8093 42.8704 24.7976 42.7926 24.7664C42.6757 24.7275 42.5862 24.6418 42.5239 24.5094C42.4694 24.377 42.4187 24.2368 42.372 24.0889C42.3564 24.0188 42.3408 23.9487 42.3253 23.8786C42.3175 23.8007 42.3058 23.7306 42.2902 23.6683C42.2902 23.6294 42.2863 23.5943 42.2785 23.5632C42.2785 23.532 42.2785 23.5048 42.2785 23.4814C42.2785 23.4424 42.2746 23.3762 42.2669 23.2828C42.2591 23.1893 42.2513 23.092 42.2435 22.9907C42.2357 22.8817 42.2279 22.7843 42.2201 22.6987C42.2201 22.6052 42.224 22.539 42.2318 22.5001C42.2318 22.4767 42.2279 22.4611 42.2201 22.4533C42.2123 22.4378 42.2084 22.4339 42.2084 22.4417C42.1539 22.6052 42.0644 22.8194 41.9398 23.0842C41.8151 23.349 41.6905 23.606 41.5659 23.8552C41.4413 24.0967 41.3323 24.303 41.2388 24.4744C41.1531 24.6379 41.1181 24.7119 41.1337 24.6963C41.0636 24.7509 41.0091 24.7781 40.9701 24.7781C40.9545 24.7781 40.9429 24.7781 40.9351 24.7781C40.9273 24.7781 40.9234 24.7664 40.9234 24.7431C40.9234 24.7353 40.9312 24.6925 40.9468 24.6146C40.9623 24.5367 40.9701 24.4199 40.9701 24.2641C40.9701 24.2018 40.9662 24.1395 40.9584 24.0772C40.9584 24.0149 40.9584 23.9448 40.9584 23.8669C40.9507 23.828 40.9312 23.7462 40.9 23.6216C40.8767 23.4892 40.8494 23.3451 40.8183 23.1893C40.7949 23.0336 40.7715 22.8817 40.7482 22.7337C40.7248 22.5857 40.7131 22.4728 40.7131 22.3949C40.6975 22.4806 40.6742 22.578 40.643 22.687C40.6119 22.7882 40.5807 22.8973 40.5496 23.0141C40.5184 23.1231 40.4834 23.2322 40.4444 23.3412C40.4133 23.4424 40.386 23.5281 40.3626 23.5982C40.277 23.8474 40.164 24.0967 40.0239 24.3459C39.8915 24.5951 39.7279 24.7859 39.5332 24.9183C39.3073 25.0585 39.0932 25.1286 38.8907 25.1286C38.6415 25.1286 38.439 25.0351 38.2832 24.8482C38.1274 24.6613 38.0729 24.4121 38.1196 24.1005C38.1508 23.8981 38.2131 23.7345 38.3066 23.6099C38.4078 23.4775 38.5168 23.3801 38.6337 23.3178C38.7505 23.2477 38.8634 23.2088 38.9725 23.201C39.0893 23.1854 39.1788 23.1893 39.2411 23.2127C39.3969 23.2672 39.467 23.3217 39.4514 23.3762C39.4358 23.4308 39.3735 23.4502 39.2645 23.4347C39.21 23.4191 39.1438 23.4347 39.0659 23.4814C38.988 23.5281 38.914 23.5982 38.8439 23.6917C38.7816 23.7851 38.731 23.902 38.6921 24.0421C38.6609 24.1745 38.6609 24.3264 38.6921 24.4977C38.7388 24.6925 38.8401 24.7898 38.9958 24.7898C39.1983 24.7898 39.4086 24.6574 39.6267 24.3926C39.7201 24.2758 39.8136 24.1122 39.907 23.902C40.0005 23.6917 40.0862 23.4619 40.164 23.2127C40.2419 22.9635 40.312 22.7104 40.3743 22.4533C40.4366 22.1885 40.4873 21.9432 40.5262 21.7174C40.5651 21.4915 40.5885 21.2968 40.5963 21.1332C40.6041 20.9697 40.5963 20.8607 40.5729 20.8061C40.534 20.736 40.534 20.6893 40.5729 20.666C40.6197 20.6348 40.6781 20.6309 40.7482 20.6543C40.8183 20.6698 40.8883 20.7049 40.9584 20.7594C41.0285 20.8139 41.0675 20.8879 41.0753 20.9814Z" fill="#EC6985"/>
<path d="M44.257 21.437C44.1479 21.3747 44.109 21.3241 44.1401 21.2851C44.1791 21.2384 44.2414 21.215 44.3271 21.215C44.4205 21.215 44.5218 21.2462 44.6308 21.3085C44.7398 21.363 44.8177 21.4526 44.8644 21.5772C44.9034 21.6706 44.9151 21.8069 44.8995 21.9861C44.8917 22.1652 44.8683 22.3638 44.8294 22.5819C44.7982 22.7999 44.7593 23.0258 44.7126 23.2594C44.6658 23.4931 44.6269 23.7111 44.5957 23.9136C44.5646 24.1083 44.5412 24.2758 44.5257 24.416C44.5179 24.5562 44.5373 24.6457 44.5841 24.6847C44.6619 24.747 44.771 24.7314 44.9112 24.6379C45.0591 24.5367 45.211 24.4043 45.3668 24.2407C45.5303 24.0772 45.6861 23.902 45.8341 23.715C45.982 23.5281 46.0911 23.3762 46.1612 23.2594C46.2546 23.1114 46.3325 22.9362 46.3948 22.7337C46.4571 22.5234 46.5077 22.3209 46.5467 22.1262C46.5934 21.9237 46.6246 21.7446 46.6401 21.5889C46.6557 21.4253 46.6596 21.3163 46.6518 21.2618C46.6363 21.1605 46.6479 21.0943 46.6869 21.0632C46.7258 21.032 46.7725 21.0281 46.8271 21.0515C46.8894 21.0748 46.9517 21.1177 47.014 21.18C47.0763 21.2423 47.1269 21.3163 47.1659 21.4019C47.197 21.4798 47.1931 21.6395 47.1542 21.8809C47.123 22.1146 47.0763 22.3833 47.014 22.687C46.9517 22.9829 46.8933 23.2906 46.8387 23.6099C46.7842 23.9214 46.757 24.194 46.757 24.4277C46.757 24.5834 46.7725 24.7119 46.8037 24.8132C46.8426 24.9144 46.9049 24.9767 46.9906 25.0001C47.0373 25.0079 47.049 25.0235 47.0257 25.0468C47.0101 25.0702 46.975 25.0858 46.9205 25.0935C46.866 25.1091 46.7998 25.113 46.7219 25.1052C46.644 25.1052 46.5662 25.0819 46.4883 25.0351C46.3792 24.9728 46.3091 24.8638 46.278 24.708C46.2468 24.5523 46.2313 24.3926 46.2313 24.2291C46.2313 24.1434 46.2313 24.0616 46.2313 23.9837C46.2391 23.8981 46.2468 23.8241 46.2546 23.7618C46.2624 23.6839 46.2741 23.6138 46.2897 23.5515C46.1339 23.7773 45.982 23.9876 45.8341 24.1823C45.7017 24.3459 45.5615 24.5016 45.4135 24.6496C45.2655 24.7976 45.1292 24.8949 45.0046 24.9417C44.8722 24.9884 44.7437 25.0118 44.6191 25.0118C44.4478 25.0118 44.3037 24.9611 44.1869 24.8599C44.07 24.7587 44.0038 24.6068 43.9883 24.4043C43.9805 24.3108 43.9883 24.1784 44.0116 24.0071C44.0428 23.828 44.0739 23.6333 44.1051 23.423C44.144 23.2127 44.183 22.9985 44.2219 22.7804C44.2609 22.5546 44.2881 22.3482 44.3037 22.1613C44.3271 21.9744 44.3348 21.8147 44.3271 21.6823C44.3271 21.5499 44.3037 21.4681 44.257 21.437Z" fill="#EC6985"/>
<path d="M50.6242 20.9814C50.6242 21.0281 50.632 21.1216 50.6475 21.2618C50.6631 21.4019 50.6826 21.5655 50.706 21.7524C50.7293 21.9393 50.7527 22.134 50.776 22.3365C50.7994 22.539 50.8228 22.7259 50.8461 22.8973C50.8695 23.0608 50.889 23.1932 50.9046 23.2945C50.9279 23.3957 50.9435 23.4386 50.9513 23.423C50.9824 23.3451 51.0486 23.2049 51.1499 23.0024C51.2511 22.7921 51.3524 22.5624 51.4536 22.3132C51.5627 22.0561 51.66 21.7991 51.7457 21.5421C51.8313 21.2851 51.8742 21.067 51.8742 20.8879C51.9209 20.7789 51.9754 20.7049 52.0377 20.666C52.1 20.627 52.1546 20.6153 52.2013 20.6309C52.2558 20.6387 52.2986 20.6698 52.3298 20.7244C52.3609 20.7711 52.3765 20.8334 52.3765 20.9113C52.3765 21.0515 52.3726 21.2618 52.3648 21.5421C52.3571 21.8147 52.3493 22.1107 52.3415 22.43C52.3415 22.7493 52.3493 23.0686 52.3648 23.3879C52.3804 23.6995 52.4116 23.9604 52.4583 24.1706C52.4972 24.3108 52.544 24.4238 52.5985 24.5094C52.653 24.5873 52.7231 24.6301 52.8088 24.6379C52.8555 24.6379 52.8711 24.6496 52.8555 24.673C52.8399 24.6963 52.8049 24.7197 52.7504 24.7431C52.7036 24.7664 52.6413 24.7859 52.5634 24.8015C52.4933 24.8093 52.4194 24.7976 52.3415 24.7664C52.2247 24.7275 52.1351 24.6418 52.0728 24.5094C52.0183 24.377 51.9676 24.2368 51.9209 24.0889C51.9053 24.0188 51.8898 23.9487 51.8742 23.8786C51.8664 23.8007 51.8547 23.7306 51.8391 23.6683C51.8391 23.6294 51.8352 23.5943 51.8275 23.5632C51.8275 23.532 51.8275 23.5048 51.8275 23.4814C51.8275 23.4424 51.8236 23.3762 51.8158 23.2828C51.808 23.1893 51.8002 23.092 51.7924 22.9907C51.7846 22.8817 51.7768 22.7843 51.769 22.6987C51.769 22.6052 51.7729 22.539 51.7807 22.5001C51.7807 22.4767 51.7768 22.4611 51.769 22.4533C51.7613 22.4378 51.7574 22.4339 51.7574 22.4417C51.7028 22.6052 51.6133 22.8194 51.4887 23.0842C51.3641 23.349 51.2394 23.606 51.1148 23.8552C50.9902 24.0967 50.8812 24.303 50.7877 24.4744C50.7021 24.6379 50.667 24.7119 50.6826 24.6963C50.6125 24.7509 50.558 24.7781 50.519 24.7781C50.5035 24.7781 50.4918 24.7781 50.484 24.7781C50.4762 24.7781 50.4723 24.7664 50.4723 24.7431C50.4723 24.7353 50.4801 24.6925 50.4957 24.6146C50.5112 24.5367 50.519 24.4199 50.519 24.2641C50.519 24.2018 50.5151 24.1395 50.5074 24.0772C50.5074 24.0149 50.5074 23.9448 50.5074 23.8669C50.4996 23.828 50.4801 23.7462 50.4489 23.6216C50.4256 23.4892 50.3983 23.3451 50.3672 23.1893C50.3438 23.0336 50.3204 22.8817 50.2971 22.7337C50.2737 22.5857 50.262 22.4728 50.262 22.3949C50.2465 22.4806 50.2231 22.578 50.1919 22.687C50.1608 22.7882 50.1296 22.8973 50.0985 23.0141C50.0673 23.1231 50.0323 23.2322 49.9933 23.3412C49.9622 23.4424 49.9349 23.5281 49.9116 23.5982C49.8259 23.8474 49.713 24.0967 49.5728 24.3459C49.4404 24.5951 49.2768 24.7859 49.0821 24.9183C48.8563 25.0585 48.6421 25.1286 48.4396 25.1286C48.1904 25.1286 47.9879 25.0351 47.8321 24.8482C47.6763 24.6613 47.6218 24.4121 47.6686 24.1005C47.6997 23.8981 47.762 23.7345 47.8555 23.6099C47.9567 23.4775 48.0658 23.3801 48.1826 23.3178C48.2994 23.2477 48.4123 23.2088 48.5214 23.201C48.6382 23.1854 48.7277 23.1893 48.7901 23.2127C48.9458 23.2672 49.0159 23.3217 49.0003 23.3762C48.9848 23.4308 48.9225 23.4502 48.8134 23.4347C48.7589 23.4191 48.6927 23.4347 48.6148 23.4814C48.5369 23.5281 48.463 23.5982 48.3929 23.6917C48.3306 23.7851 48.2799 23.902 48.241 24.0421C48.2098 24.1745 48.2098 24.3264 48.241 24.4977C48.2877 24.6925 48.389 24.7898 48.5447 24.7898C48.7472 24.7898 48.9575 24.6574 49.1756 24.3926C49.269 24.2758 49.3625 24.1122 49.4559 23.902C49.5494 23.6917 49.6351 23.4619 49.713 23.2127C49.7908 22.9635 49.8609 22.7104 49.9232 22.4533C49.9855 22.1885 50.0362 21.9432 50.0751 21.7174C50.1141 21.4915 50.1374 21.2968 50.1452 21.1332C50.153 20.9697 50.1452 20.8607 50.1218 20.8061C50.0829 20.736 50.0829 20.6893 50.1218 20.666C50.1686 20.6348 50.227 20.6309 50.2971 20.6543C50.3672 20.6698 50.4373 20.7049 50.5074 20.7594C50.5774 20.8139 50.6164 20.8879 50.6242 20.9814Z" fill="#EC6985"/>
</svg>
