<svg width="20" height="20" viewBox="0 0 20 20" fill="none" xmlns="http://www.w3.org/2000/svg">
<path fill-rule="evenodd" clip-rule="evenodd" d="M2.0574 14.1926C2.11545 14.2508 2.18442 14.297 2.26035 14.3285C2.33629 14.36 2.41769 14.3762 2.4999 14.3762C2.58211 14.3762 2.66351 14.36 2.73944 14.3285C2.81537 14.297 2.88434 14.2508 2.9424 14.1926L9.9999 7.13385L17.0574 14.1926C17.1155 14.2507 17.1845 14.2968 17.2604 14.3283C17.3363 14.3597 17.4177 14.3759 17.4999 14.3759C17.5821 14.3759 17.6635 14.3597 17.7394 14.3283C17.8153 14.2968 17.8843 14.2507 17.9424 14.1926C18.0005 14.1345 18.0466 14.0655 18.0781 13.9896C18.1095 13.9137 18.1257 13.8323 18.1257 13.7501C18.1257 13.6679 18.1095 13.5865 18.0781 13.5106C18.0466 13.4347 18.0005 13.3657 17.9424 13.3076L10.4424 5.8076C10.3843 5.7494 10.3154 5.70322 10.2394 5.67171C10.1635 5.6402 10.0821 5.62399 9.9999 5.62399C9.91769 5.62399 9.83629 5.6402 9.76036 5.67171C9.68442 5.70322 9.61545 5.7494 9.5574 5.8076L2.0574 13.3076C1.99919 13.3657 1.95301 13.4346 1.92151 13.5106C1.89 13.5865 1.87378 13.6679 1.87378 13.7501C1.87378 13.8323 1.89 13.9137 1.92151 13.9896C1.95301 14.0656 1.99919 14.1345 2.0574 14.1926Z" fill="#B0A2A2"/>
</svg>
