<svg width="375" height="345" viewBox="0 0 375 345" fill="none" xmlns="http://www.w3.org/2000/svg">
<g style="mix-blend-mode:multiply" opacity="0.3">
<g style="mix-blend-mode:multiply" opacity="0.3">
<g style="mix-blend-mode:multiply" opacity="0.3">
<path d="M340.722 10.0692C330.292 11.8387 313.204 15.4177 305.397 23.3575C282.618 37.5691 265.378 61.0812 240.164 70.0841C221.629 76.7018 202.383 74.4173 182.883 70.2308C200.618 73.5385 218.104 74.6414 235.02 68.6017C261.196 59.2554 279.094 34.8464 302.742 20.0925C310.847 11.8499 328.586 8.13443 339.415 6.29742C345.836 5.20781 361.287 4.01857 375 5.51505V9.31548C361.791 7.87406 346.908 9.01971 340.722 10.0692Z" fill="#FBA7AF"/>
</g>
<g style="mix-blend-mode:multiply" opacity="0.3">
<path d="M28.0076 90.9556C48.5749 77.6002 69.1534 62.5539 93.1863 58.2527C110.191 55.2094 127.469 57.7925 144.73 61.5915C130.926 58.9844 117.143 57.6811 103.542 60.1154C80.3917 64.2585 60.5694 78.7519 40.7578 91.6166C30.6024 98.2109 19.813 104.569 8.55254 108.944H-5.42618C6.26389 104.402 17.4649 97.8015 28.0076 90.9556Z" fill="#FBA7AF"/>
</g>
</g>
<g style="mix-blend-mode:multiply" opacity="0.3">
<g style="mix-blend-mode:multiply" opacity="0.3">
<path d="M340.629 9.80027C330.17 11.5747 313.036 15.1633 305.208 23.1246C282.367 37.3749 265.08 60.9509 239.797 69.9782C221.212 76.614 201.914 74.3233 182.361 70.1254C200.144 73.4421 217.678 74.548 234.64 68.4919C260.887 59.1202 278.834 34.6449 302.545 19.8509C310.672 11.5858 328.46 7.86025 339.318 6.01826C345.757 4.92569 361.25 3.73322 375 5.23375V9.04455C361.755 7.59923 346.832 8.74797 340.629 9.80027Z" fill="#FBACB4"/>
</g>
<g style="mix-blend-mode:multiply" opacity="0.3">
<path d="M27.0654 90.9075C47.6886 77.5158 68.3231 62.4287 92.4213 58.1158C109.473 55.0642 126.797 57.6542 144.105 61.4636C130.264 58.8493 116.443 57.5426 102.805 59.9835C79.5919 64.1378 59.7157 78.6707 39.8503 91.5703C29.6673 98.1826 18.8486 104.558 7.55753 108.945H-6.45915C5.26263 104.391 16.494 97.772 27.0654 90.9075Z" fill="#FBACB4"/>
</g>
</g>
<g style="mix-blend-mode:multiply" opacity="0.3">
<g style="mix-blend-mode:multiply" opacity="0.3">
<path d="M340.536 9.53231C330.049 11.3115 312.868 14.9099 305.018 22.8928C282.116 37.1817 264.782 60.8216 239.431 69.8734C220.795 76.5272 201.445 74.2302 181.839 70.021C199.67 73.3466 217.252 74.4556 234.259 68.383C260.578 58.986 278.573 34.4442 302.349 19.6102C310.498 11.3228 328.334 7.58708 339.221 5.74011C345.678 4.64458 361.213 3.44883 375 4.95342V8.77458C361.719 7.32532 346.755 8.47716 340.536 9.53231Z" fill="#FBB1B8"/>
</g>
<g style="mix-blend-mode:multiply" opacity="0.3">
<path d="M26.1232 90.8584C46.8023 77.4304 67.4927 62.3024 91.6562 57.9778C108.754 54.9179 126.125 57.5151 143.48 61.3348C129.601 58.7134 115.743 57.4031 102.068 59.8506C78.7921 64.0162 58.862 78.5884 38.9427 91.5229C28.7321 98.1532 17.8842 104.546 6.56242 108.944H-7.49223C4.26135 104.378 15.5232 97.7416 26.1232 90.8584Z" fill="#FBB1B8"/>
</g>
</g>
<g style="mix-blend-mode:multiply" opacity="0.3">
<g style="mix-blend-mode:multiply" opacity="0.3">
<path d="M340.443 9.26339C329.927 11.0474 312.7 14.6555 304.829 22.66C281.865 36.9875 264.484 60.6913 239.064 69.7675C220.379 76.4393 200.975 74.1361 181.317 69.9155C199.196 73.2502 216.825 74.3621 233.879 68.2731C260.269 58.8507 278.312 34.2426 302.153 19.3685C310.324 11.0587 328.208 7.31288 339.124 5.46092C345.599 4.36244 361.175 3.16347 375 4.67216V8.50362C361.683 7.05042 346.679 8.20539 340.443 9.26339Z" fill="#FCB7BD"/>
</g>
<g style="mix-blend-mode:multiply" opacity="0.3">
<path d="M25.179 90.8093C45.9141 77.345 66.6603 62.1762 90.8892 57.8398C108.033 54.7717 125.451 57.3758 142.854 61.2059C128.937 58.5774 115.041 57.2636 101.329 59.7177C77.9903 63.8945 58.0064 78.5062 38.0332 91.4757C27.795 98.1238 16.9177 104.534 5.5654 108.944H-8.5273C3.25806 104.366 14.5504 97.711 25.179 90.8093Z" fill="#FCB7BD"/>
</g>
</g>
<g style="mix-blend-mode:multiply" opacity="0.3">
<g style="mix-blend-mode:multiply" opacity="0.3">
<path d="M340.35 8.99447C329.806 10.7833 312.532 14.4011 304.64 22.4272C281.614 36.7933 264.186 60.561 238.698 69.6618C219.962 76.3515 200.506 74.0421 180.795 69.8101C198.722 73.1538 216.399 74.2686 233.498 68.1632C259.959 58.7154 278.052 34.041 301.956 19.1269C310.149 10.7946 328.082 7.03868 339.028 5.18174C345.519 4.08029 361.138 2.87812 375 4.39087V8.2326C361.648 6.77551 346.603 7.93362 340.35 8.99447Z" fill="#FCBCC2"/>
</g>
<g style="mix-blend-mode:multiply" opacity="0.3">
<path d="M24.2368 90.7602C45.0278 77.2596 65.8299 62.0498 90.1241 57.7019C107.314 54.6255 124.779 57.2367 142.229 61.077C128.274 58.4415 114.341 57.1241 100.592 59.5848C77.1905 63.773 57.1527 78.4239 37.1256 91.4284C26.8599 98.0944 15.9532 104.522 4.57037 108.944H-9.56029C2.25679 104.353 13.5795 97.6805 24.2368 90.7602Z" fill="#FCBCC2"/>
</g>
</g>
<g style="mix-blend-mode:multiply" opacity="0.3">
<g style="mix-blend-mode:multiply" opacity="0.3">
<path d="M340.256 8.72555C329.684 10.5192 312.364 14.1468 304.451 22.1944C281.363 36.5992 263.888 60.4307 238.331 69.5559C219.545 76.2636 200.037 73.9481 180.273 69.7047C198.248 73.0574 215.972 74.1752 233.118 68.0534C259.65 58.5802 277.791 33.8395 301.76 18.8852C309.975 10.5305 327.956 6.76451 338.931 4.90258C345.44 3.79818 361.101 2.59277 375 4.10957V7.96166C361.612 6.50063 346.526 7.66185 340.256 8.72555Z" fill="#FCC1C7"/>
</g>
<g style="mix-blend-mode:multiply" opacity="0.3">
<path d="M23.2936 90.7111C44.1404 77.1743 64.9986 61.9236 89.3581 57.5639C106.594 54.4793 124.106 57.0974 141.603 60.9481C127.611 58.3055 113.64 56.9845 99.854 59.4519C76.3896 63.6513 56.298 78.3416 36.2171 91.3811C25.9237 98.0651 14.9878 104.51 3.57425 108.944H-10.5944C1.25447 104.34 12.6077 97.6501 23.2936 90.7111Z" fill="#FCC1C7"/>
</g>
</g>
<g style="mix-blend-mode:multiply" opacity="0.3">
<g style="mix-blend-mode:multiply" opacity="0.3">
<path d="M340.163 8.45664C329.563 10.2551 312.196 13.8924 304.262 21.9616C281.112 36.405 263.591 60.3004 237.965 69.4501C219.128 76.1758 199.568 73.8541 179.751 69.5993C197.774 72.961 215.546 74.0818 232.738 67.9436C259.341 58.4449 277.531 33.6379 301.564 18.6435C309.8 10.2665 327.829 6.49042 338.834 4.62345C345.361 3.51609 361.064 2.30741 375 3.82827V7.69072C361.576 6.2258 346.45 7.3901 340.163 8.45664Z" fill="#FCC6CB"/>
</g>
<g style="mix-blend-mode:multiply" opacity="0.3">
<path d="M22.3505 90.663C43.2532 77.0898 64.1673 61.7983 88.5921 57.4269C105.874 54.334 123.434 56.9592 140.977 60.8202C126.947 58.1705 112.939 56.846 99.1161 59.32C75.5888 63.5306 55.4433 78.2603 35.3086 91.3348C24.9877 98.0367 14.0223 104.499 2.57826 108.945H-11.6284C0.252228 104.329 11.6359 97.6206 22.3505 90.663Z" fill="#FCC6CB"/>
</g>
</g>
<g style="mix-blend-mode:multiply" opacity="0.3">
<g style="mix-blend-mode:multiply" opacity="0.3">
<path d="M340.07 8.18872C329.441 9.99197 312.028 13.639 304.073 21.7298C280.861 36.2118 263.293 60.1712 237.599 69.3453C218.711 76.089 199.099 73.761 179.229 69.4948C197.3 72.8655 215.12 73.9894 232.357 67.8347C259.032 58.3107 277.27 33.4373 301.367 18.4029C309.626 10.0034 327.703 6.21721 338.738 4.34525C345.282 3.23488 361.026 2.02306 375 3.54797V7.42075C361.54 5.95188 346.374 7.11932 340.07 8.18872Z" fill="#FDCBD0"/>
</g>
<g style="mix-blend-mode:multiply" opacity="0.3">
<path d="M21.4073 90.614C42.3659 77.0045 63.3359 61.672 87.826 57.289C105.154 54.1877 122.761 56.82 140.351 60.6913C126.284 58.0345 112.239 56.7065 98.3782 59.1871C74.788 63.409 54.5886 78.1781 34.4 91.2875C24.0515 98.0073 13.0569 104.486 1.58221 108.944H-12.6624C-0.749985 104.316 10.664 97.5901 21.4073 90.614Z" fill="#FDCBD0"/>
</g>
</g>
<g style="mix-blend-mode:multiply" opacity="0.3">
<g style="mix-blend-mode:multiply" opacity="0.3">
<path d="M339.977 7.91983C329.32 9.72785 311.86 13.3846 303.884 21.497C280.61 36.0176 262.995 60.0409 237.232 69.2395C218.295 76.0011 198.63 73.6669 178.707 69.3894C196.826 72.769 214.693 73.8959 231.977 67.7249C258.722 58.1754 277.009 33.2357 301.171 18.1612C309.452 9.73931 327.577 5.94301 338.641 4.06607C345.202 2.95274 360.989 1.73769 375 3.26671V7.14976C361.504 5.677 346.297 6.84753 339.977 7.91983Z" fill="#FDD0D5"/>
</g>
<g style="mix-blend-mode:multiply" opacity="0.3">
<path d="M20.4641 90.5649C41.4786 76.9191 62.5045 61.5457 87.0599 57.151C104.435 54.0415 122.088 56.6808 139.725 60.5624C125.62 57.8985 111.538 56.567 97.6403 59.0542C73.9871 63.2874 53.7339 78.0959 33.4915 91.2402C23.1154 97.9779 12.0915 104.474 0.586166 108.944H-13.6965C-1.75227 104.304 9.69223 97.5596 20.4641 90.5649Z" fill="#FDD0D5"/>
</g>
</g>
<g style="mix-blend-mode:multiply" opacity="0.3">
<g style="mix-blend-mode:multiply" opacity="0.3">
<path d="M339.884 7.65089C329.198 9.46374 311.692 13.1302 303.694 21.2642C280.359 35.8234 262.697 59.9106 236.866 69.1337C217.878 75.9133 198.161 73.5729 178.184 69.284C196.353 72.6726 214.267 73.8025 231.596 67.6151C258.413 58.0402 276.749 33.0342 300.974 17.9195C309.277 9.47521 327.451 5.66886 338.544 3.78694C345.123 2.67064 360.952 1.45233 375 2.9854V6.87882C361.468 5.40212 346.221 6.57574 339.884 7.65089Z" fill="#FDD6D9"/>
</g>
<g style="mix-blend-mode:multiply" opacity="0.3">
<path d="M19.5219 90.5158C40.5923 76.8337 61.6741 61.4195 86.2949 57.0131C103.716 53.8953 121.416 56.5415 139.1 60.4335C124.958 57.7626 110.838 56.4275 96.9034 58.9213C73.1873 63.1657 52.8802 78.0136 32.584 91.1929C22.1802 97.9486 11.127 104.462 -0.408936 108.944H-14.7296C-2.75359 104.291 8.72136 97.5291 19.5219 90.5158Z" fill="#FDD6D9"/>
</g>
</g>
<g style="mix-blend-mode:multiply" opacity="0.3">
<g style="mix-blend-mode:multiply" opacity="0.3">
<path d="M339.791 7.383C329.077 9.20067 311.524 12.8769 303.505 21.0324C280.108 35.6303 262.399 59.7813 236.499 69.0288C217.461 75.8264 197.692 73.4799 177.662 69.1796C195.879 72.5772 213.841 73.71 231.216 67.5062C258.104 57.9059 276.488 32.8336 300.778 17.6788C309.103 9.21211 327.325 5.39569 338.448 3.50878C345.044 2.38953 360.915 1.16792 375 2.7051V6.60889C361.432 5.12824 346.145 6.305 339.791 7.383Z" fill="#FDDBDE"/>
</g>
<g style="mix-blend-mode:multiply" opacity="0.3">
<path d="M18.5787 90.4677C39.705 76.7493 60.8427 61.2942 85.5288 56.8761C102.996 53.75 120.743 56.4034 138.474 60.3056C124.294 57.6276 110.137 56.289 96.1654 58.7894C72.3865 63.0451 52.0255 77.9323 31.6754 91.1466C21.2441 97.9201 10.1615 104.451 -1.405 108.945H-15.7636C-3.75589 104.28 7.74948 97.4996 18.5787 90.4677Z" fill="#FDDBDE"/>
</g>
</g>
<g style="mix-blend-mode:multiply" opacity="0.3">
<g style="mix-blend-mode:multiply" opacity="0.3">
<path d="M339.697 7.11408C328.955 8.93657 311.357 12.6225 303.316 20.7996C279.857 35.4361 262.101 59.6511 236.133 68.9231C217.044 75.7387 197.223 73.3858 177.14 69.0742C195.405 72.4808 213.414 73.6166 230.836 67.3963C257.794 57.7706 276.227 32.632 300.582 17.4371C308.929 8.94806 327.199 5.12149 338.351 3.22959C344.965 2.10739 360.877 0.88258 375 2.42381V6.33786C361.396 4.85338 346.068 6.03324 339.697 7.11408Z" fill="#FEE0E3"/>
</g>
<g style="mix-blend-mode:multiply" opacity="0.3">
<path d="M17.6355 90.4176C38.8177 76.6629 60.0114 61.1669 84.7627 56.7371C102.276 53.6028 120.07 56.2631 137.848 60.1757C123.631 57.4906 109.436 56.1485 95.4275 58.6555C71.5856 62.9225 51.1708 77.8491 30.7669 91.0983C20.3079 97.8898 9.19608 104.438 -2.40103 108.944H-16.7977C-4.75818 104.266 6.77762 97.4681 17.6355 90.4176Z" fill="#FEE0E3"/>
</g>
</g>
<g style="mix-blend-mode:multiply" opacity="0.3">
<g style="mix-blend-mode:multiply" opacity="0.3">
<path d="M339.604 6.84516C328.834 8.67246 311.189 12.3681 303.127 20.5668C279.606 35.2419 261.803 59.5207 235.766 68.8172C216.627 75.6508 196.754 73.2918 176.618 68.9688C194.931 72.3844 212.988 73.5232 230.455 67.2865C257.485 57.6354 275.967 32.4304 300.385 17.1954C308.754 8.68398 327.073 4.84732 338.254 2.95044C344.885 1.82527 360.84 0.597227 375 2.14252V6.06693C361.36 4.5785 345.992 5.76146 339.604 6.84516Z" fill="#FEE5E7"/>
</g>
<g style="mix-blend-mode:multiply" opacity="0.3">
<path d="M16.6924 90.3695C37.9305 76.5785 59.1801 61.0417 83.9967 56.6002C101.556 53.4576 119.397 56.1249 137.222 60.0478C122.967 57.3556 108.735 56.0099 94.6897 58.5236C70.7849 62.8018 50.3161 77.7678 29.8584 91.052C19.3719 97.8614 8.23065 104.427 -3.39703 108.944H-17.8316C-5.76035 104.255 5.80585 97.4386 16.6924 90.3695Z" fill="#FEE5E7"/>
</g>
</g>
<g style="mix-blend-mode:multiply" opacity="0.3">
<g style="mix-blend-mode:multiply" opacity="0.3">
<path d="M339.511 6.57623C328.712 8.4083 311.021 12.1137 302.938 20.334C279.355 35.0477 261.505 59.3905 235.4 68.7114C216.211 75.563 196.284 73.1977 176.096 68.8633C194.457 72.2879 212.561 73.4298 230.075 67.1767C257.176 57.5002 275.706 32.2288 300.189 16.9538C308.58 8.41993 326.947 4.5732 338.157 2.67128C344.806 1.54315 360.803 0.311853 375 1.86125V5.79596C361.324 4.30359 345.915 5.48968 339.511 6.57623Z" fill="#FEEAEC"/>
</g>
<g style="mix-blend-mode:multiply" opacity="0.3">
<path d="M15.7492 90.3203C37.0432 76.4931 58.3487 60.9154 83.2306 56.4622C100.836 53.3113 118.724 55.9857 136.596 59.919C122.304 57.2196 108.034 55.8704 93.9518 58.3907C69.984 62.6801 49.4614 77.6856 28.9498 91.0047C18.4357 97.8321 7.2652 104.415 -4.3931 108.944H-18.8657C-6.76268 104.242 4.83406 97.4081 15.7492 90.3203Z" fill="#FEEAEC"/>
</g>
</g>
<g style="mix-blend-mode:multiply" opacity="0.3">
<g style="mix-blend-mode:multiply" opacity="0.3">
<path d="M339.418 6.30731C328.591 8.1442 310.853 11.8593 302.749 20.1012C279.104 34.8535 261.207 59.2602 235.034 68.6055C215.794 75.4751 195.815 73.1037 175.574 68.7579C193.983 72.1915 212.135 73.3363 229.694 67.0668C256.867 57.365 275.446 32.0273 299.993 16.7121C308.406 8.15582 326.82 4.299 338.061 2.39209C344.727 1.26101 360.765 0.0265095 375 1.57996V5.525C361.289 4.02869 345.839 5.21792 339.418 6.30731Z" fill="#FEEFF1"/>
</g>
<g style="mix-blend-mode:multiply" opacity="0.3">
<path d="M14.807 90.2713C36.1569 76.4077 57.5183 60.7891 82.4656 56.3242C100.117 53.1651 118.052 55.8465 135.971 59.7901C121.641 57.0837 107.334 55.7309 93.2148 58.2578C69.1842 62.5585 48.6077 77.6033 28.0423 90.9574C17.5006 97.8027 6.3007 104.403 -5.38823 108.944H-19.8988C-7.76398 104.23 3.86317 97.3777 14.807 90.2713Z" fill="#FEEFF1"/>
</g>
</g>
<g style="mix-blend-mode:multiply" opacity="0.3">
<g style="mix-blend-mode:multiply" opacity="0.3">
<path d="M339.325 6.03936C328.469 7.88107 310.685 11.6059 302.56 19.8694C278.853 34.6604 260.91 59.1309 234.667 68.5008C215.377 75.3883 195.346 73.0106 175.052 68.6535C193.509 72.096 211.709 73.2439 229.314 66.9579C256.557 57.2307 275.185 31.8267 299.796 16.4714C308.231 7.89277 326.694 4.0258 337.964 2.11391C344.648 0.979871 360.728 -0.257866 375 1.29964V5.25501C361.253 3.75486 345.763 4.94712 339.325 6.03936Z" fill="#FFF5F6"/>
</g>
<g style="mix-blend-mode:multiply" opacity="0.3">
<path d="M13.8638 90.2232C35.2695 76.3234 56.687 60.6638 81.6995 56.1872C99.3977 53.0199 117.38 55.7083 135.345 59.6621C120.978 56.9487 106.633 55.5924 92.4769 58.1259C68.3834 62.4379 47.753 77.5221 27.1337 90.9111C16.5644 97.7743 5.33522 104.392 -6.38426 108.945H-20.9328C-8.76627 104.218 2.89133 97.3481 13.8638 90.2232Z" fill="#FFF5F6"/>
</g>
</g>
<g style="mix-blend-mode:multiply" opacity="0.3">
<g style="mix-blend-mode:multiply" opacity="0.3">
<path d="M339.232 5.77047C328.348 7.617 310.517 11.3515 302.37 19.6365C278.601 34.4662 260.612 59.0006 234.301 68.3949C214.96 75.3004 194.877 72.9166 174.53 68.548C193.035 71.9996 211.282 73.1504 228.934 66.8481C256.248 57.0954 274.924 31.6251 299.6 16.2298C308.057 7.62866 326.568 3.75163 337.867 1.83475C344.568 0.697754 360.691 -0.543219 375 1.01834V4.98408C361.217 3.47999 345.686 4.67537 339.232 5.77047Z" fill="#FFFAFA"/>
</g>
<g style="mix-blend-mode:multiply" opacity="0.3">
<path d="M12.9196 90.174C34.3813 76.238 55.8545 60.5375 80.9324 56.0493C98.6768 52.8736 116.706 55.569 134.718 59.5333C120.313 56.8127 105.931 55.4528 91.738 57.9929C67.5816 62.3162 46.8973 77.4398 26.2242 90.8638C15.6273 97.7449 4.36879 104.38 -7.38133 108.945H-21.9678C-9.76947 104.205 1.91849 97.3176 12.9196 90.174Z" fill="#FFFAFA"/>
</g>
</g>
<g style="mix-blend-mode:multiply" opacity="0.3">
<g style="mix-blend-mode:multiply" opacity="0.3">
<path d="M339.138 5.50157C328.226 7.35287 310.349 11.0972 302.181 19.4038C278.35 34.272 260.314 58.8703 233.934 68.2891C214.543 75.2126 194.408 72.8225 174.008 68.4426C192.561 71.9031 210.856 73.057 228.553 66.7382C255.939 56.9602 274.664 31.4235 299.404 15.988C307.883 7.3646 326.442 3.47745 337.771 1.55559C344.489 0.415637 360.654 -0.828571 375 0.737042V4.71311C361.181 3.20507 345.61 4.40358 339.138 5.50157Z" fill="white"/>
</g>
<g style="mix-blend-mode:multiply" opacity="0.3">
<path d="M11.9784 90.125C33.496 76.1526 55.0252 60.4113 80.1684 55.9113C97.959 52.7274 116.035 55.4299 134.094 59.4044C119.652 56.6768 105.232 55.3133 91.0021 57.86C66.7828 62.1945 46.0446 77.3575 25.3177 90.8165C14.6932 97.7155 3.40538 104.367 -8.37535 108.944H-22.9999C-10.7697 104.193 0.948654 97.2872 11.9784 90.125Z" fill="white"/>
</g>
</g>
</g>
<path d="M0 109C11.5233 104.551 22.5645 98.0859 32.9569 91.3802C53.231 78.2984 73.516 63.5605 97.2062 59.3475C143.769 51.0667 192.407 85.3113 237.016 69.4842C262.819 60.3294 280.462 36.4205 303.772 21.969C311.762 13.8951 329.248 10.2558 339.922 8.45638C346.252 7.38917 361.483 6.22426 375 7.69002V109H0Z" fill="url(#paint0_linear)"/>
<path d="M17 109C28.0009 104.726 38.5416 98.514 48.4628 92.0712C67.8178 79.5025 87.1832 65.3424 109.799 61.2946C154.252 53.3386 200.685 86.2403 243.272 71.0338C267.905 62.2381 284.748 39.2667 307.001 25.3819C314.628 17.6247 331.322 14.1281 341.512 12.3992C347.556 11.3739 362.096 10.2547 375 11.6629V109H17Z" fill="url(#paint1_linear)"/>
<rect y="109" width="375" height="236" fill="#FFFBFB"/>
<defs>
<linearGradient id="paint0_linear" x1="375" y1="104897" x2="-260637" y2="104897" gradientUnits="userSpaceOnUse">
<stop stop-color="white"/>
<stop offset="0.8475" stop-color="#FFEDEF"/>
</linearGradient>
<linearGradient id="paint1_linear" x1="375" y1="101201" x2="-237583" y2="101201" gradientUnits="userSpaceOnUse">
<stop stop-color="#FFFAFA"/>
<stop offset="0.8475" stop-color="#FFE0E3"/>
</linearGradient>
</defs>
</svg>
