<svg width="21" height="21" viewBox="0 0 21 21" fill="none" xmlns="http://www.w3.org/2000/svg">
<path d="M12.5664 9.99988L20.6664 1.89988C20.8485 1.68733 20.9436 1.41391 20.9328 1.13427C20.922 0.854628 20.806 0.589363 20.6082 0.39148C20.4103 0.193597 20.145 0.0776719 19.8654 0.0668706C19.5857 0.0560693 19.3123 0.151188 19.0998 0.333217L10.9998 8.43322L2.89975 0.322106C2.6872 0.140076 2.41378 0.044959 2.13414 0.0557603C1.8545 0.0665616 1.58923 0.182486 1.39135 0.380369C1.19347 0.578252 1.07754 0.843517 1.06674 1.12316C1.05594 1.4028 1.15106 1.67622 1.33309 1.88877L9.43309 9.99988L1.32198 18.0999C1.20566 18.1995 1.1112 18.3221 1.0445 18.4599C0.977811 18.5978 0.940332 18.7479 0.934422 18.9009C0.928511 19.054 0.954296 19.2065 1.01016 19.3491C1.06602 19.4917 1.15075 19.6212 1.25903 19.7295C1.36731 19.8378 1.49681 19.9225 1.63939 19.9784C1.78198 20.0342 1.93457 20.06 2.08759 20.0541C2.24061 20.0482 2.39076 20.0107 2.52861 19.944C2.66646 19.8773 2.78903 19.7829 2.88864 19.6666L10.9998 11.5666L19.0998 19.6666C19.3123 19.8486 19.5857 19.9437 19.8654 19.9329C20.145 19.9221 20.4103 19.8062 20.6082 19.6083C20.806 19.4104 20.922 19.1451 20.9328 18.8655C20.9436 18.5859 20.8485 18.3124 20.6664 18.0999L12.5664 9.99988Z" fill="#B0A2A2"/>
</svg>
