<svg width="191" height="126" viewBox="0 0 191 126" fill="none" xmlns="http://www.w3.org/2000/svg">
<path d="M134.279 49.5336C134.78 50.0417 135.015 50.7682 134.986 51.7133C134.978 52.6508 134.71 53.6673 134.181 54.7625C132.805 57.616 130.483 59.8711 127.215 61.5279C124.984 62.6547 122.768 63.3447 120.568 63.5979C118.389 63.8437 116.571 63.6156 115.116 62.9136C114.064 62.4062 113.295 61.6801 112.809 60.7353C112.117 59.407 112.192 57.8709 113.033 56.1271C113.707 54.7292 114.684 53.4773 115.964 52.3713C115.066 51.6541 114.14 50.9768 113.187 50.3392C110.742 52.0558 108.077 53.3283 105.19 54.1567C102.896 54.8263 100.627 55.0913 98.3855 54.9515C96.33 54.8306 94.5384 54.4017 93.0108 53.665C90.9067 52.6502 89.8007 51.3708 89.6928 49.8266C89.6553 49.2045 89.7651 48.6269 90.0222 48.0937C90.6269 46.8399 91.98 45.8759 94.0814 45.2019C95.7343 44.6845 97.3875 44.4427 99.041 44.4763C99.0552 43.968 99.1909 43.4473 99.4481 42.914C99.9346 41.9052 100.752 41.0026 101.9 40.2062C103.126 39.3586 104.556 38.7693 106.19 38.4382C107.767 38.1152 109.39 38.0455 111.06 38.2291C112.665 38.3994 114.102 38.7904 115.37 39.402C116.855 40.1179 117.837 41.0092 118.318 42.0757C118.716 42.9431 118.624 43.9821 118.04 45.1926C117.262 46.8067 115.81 48.3982 113.686 49.9671C114.633 50.6191 115.551 51.293 116.441 51.9887C117.233 51.3405 118.137 50.7551 119.153 50.2325C123.017 48.188 126.322 47.3393 129.068 47.6865C129.333 47.7257 129.491 47.8021 129.543 47.9159C129.639 48.0863 129.468 48.146 129.03 48.095C128.313 47.9979 127.249 48.1061 125.836 48.4197C123.781 48.8497 121.864 49.6035 120.083 50.6808C119.061 51.2894 118.166 51.9856 117.397 52.7694C117.541 52.8747 117.683 52.9872 117.82 53.1069C118.205 53.452 118.702 53.9316 119.311 54.5454C119.537 54.8142 119.579 55.0211 119.438 55.1662C119.368 55.2388 119.265 55.2689 119.128 55.2565C118.985 55.2228 118.862 55.1458 118.76 55.0256C118.68 54.898 118.185 54.3755 117.278 53.4581L116.995 53.2153C116.263 54.0344 115.664 54.9267 115.198 55.8923C114.197 57.9675 114.153 59.6427 115.066 60.9178C115.489 61.5128 116.061 61.9841 116.782 62.3317C119.246 63.5202 122.525 63.112 126.619 61.1071C129.944 59.4781 132.278 57.2729 133.619 54.4915C134.099 53.4971 134.351 52.5882 134.375 51.7649C134.42 50.9342 134.229 50.3179 133.801 49.9161C133.576 49.6832 133.312 49.4937 133.009 49.3477C131.568 48.6527 129.524 49.0791 126.877 50.6268C125.458 51.47 124.494 52.4176 123.987 53.4697C123.681 54.1038 123.649 54.5944 123.89 54.9417C124.043 55.1398 124.235 55.2945 124.465 55.4057C125.417 55.8645 126.623 55.6469 128.084 54.753C128.482 54.5183 128.721 54.4648 128.801 54.5925C128.947 54.7693 128.846 54.9782 128.499 55.2194C127.953 55.6136 127.231 55.8958 126.332 56.0661C125.311 56.2667 124.462 56.2037 123.785 55.877C123.41 55.6963 123.117 55.4393 122.905 55.106C122.451 54.4255 122.471 53.5736 122.965 52.5504C123.417 51.6136 124.117 50.8236 125.067 50.1803C126.364 49.2959 127.794 48.7245 129.358 48.466C130.921 48.2075 132.236 48.3355 133.303 48.8498C133.677 49.0305 134.003 49.2584 134.279 49.5336ZM117.445 41.8413C117.079 41.274 116.471 40.7854 115.621 40.3753C114.626 39.8957 113.43 39.5764 112.032 39.4175C110.656 39.2511 109.382 39.2585 108.211 39.4398C106.591 39.7063 105.1 40.2929 103.739 41.1997C102.385 42.0921 101.457 43.0571 100.957 44.0947C100.874 44.2677 100.805 44.4475 100.75 44.6344C103.59 45.0447 106.527 46.0082 109.561 47.5249C110.392 47.0551 111.081 46.4727 111.629 45.7779C111.791 45.5895 111.948 45.5229 112.099 45.578C112.156 45.6058 112.19 45.6661 112.198 45.7591C112.185 45.8594 112.123 45.9891 112.01 46.1482C111.576 46.7913 110.979 47.3651 110.221 47.8697C111.072 48.3156 111.999 48.8605 113.003 49.5045C115.235 47.9699 116.709 46.4604 117.425 44.976C117.988 43.8086 117.995 42.7638 117.445 41.8413ZM112.46 49.8558C111.522 49.2609 110.569 48.7128 109.603 48.2113C108.929 48.5787 108.185 48.8506 107.371 49.0268C105.488 49.4329 103.667 49.212 101.909 48.3641C100.367 47.6204 99.4286 46.5639 99.0942 45.1947C98.5357 45.1741 97.9885 45.1855 97.4524 45.2289C95.9728 45.3502 94.6426 45.659 93.4617 46.1553C92.1527 46.6964 91.3106 47.3561 90.9352 48.1343C90.7615 48.4946 90.7025 48.8747 90.7583 49.2747C90.8938 50.246 91.7038 51.0896 93.1882 51.8055C94.9031 52.6326 97.0999 53.1236 99.7785 53.2786C102.472 53.4405 104.833 53.2028 106.864 52.5656C108.709 51.981 110.574 51.0778 112.46 49.8558ZM108.868 47.8568C105.958 46.4886 103.212 45.644 100.631 45.3231C100.582 46.4187 101.214 47.2827 102.525 47.9152C103.952 48.6033 105.475 48.7783 107.095 48.4403C107.715 48.2955 108.306 48.101 108.868 47.8568Z" fill="#9F3E4B"/>
<path d="M142.49 57.5798C142.766 57.4274 142.833 57.3252 142.69 57.2733C142.564 57.2057 142.38 57.2247 142.137 57.33C141.637 57.4443 141.101 57.7176 140.529 58.15C139.958 58.5664 139.367 59.0783 138.758 59.6858C138.166 60.2777 137.572 60.9175 136.977 61.6054C136.382 62.2772 135.812 62.9178 135.267 63.527C134.722 64.1202 134.22 64.6425 133.759 65.094C133.299 65.5455 132.914 65.839 132.607 65.9745C132.218 66.1399 131.832 66.1853 131.45 66.1107C131.068 66.0522 130.72 65.9065 130.406 65.6738C130.108 65.4415 129.868 65.1467 129.686 64.7896C129.488 64.432 129.403 64.0455 129.43 63.6301C129.455 63.3106 129.528 62.9685 129.65 62.6038C129.772 62.239 130.047 61.8784 130.473 61.522C130.684 61.3838 130.911 61.278 131.154 61.2047C131.396 61.1313 131.612 61.1133 131.803 61.1506C132.011 61.1723 132.176 61.2729 132.299 61.4524C132.423 61.6158 132.479 61.8815 132.469 62.2493C132.462 62.5052 132.359 62.7585 132.16 63.0091C131.978 63.2442 131.702 63.3566 131.335 63.3465C131.159 63.3416 130.997 63.3852 130.851 63.4772C130.72 63.5696 130.605 63.6945 130.504 63.8518C130.37 64.0722 130.347 64.3276 130.435 64.6182C130.539 64.9091 130.708 65.1539 130.943 65.3524C131.194 65.5354 131.504 65.624 131.872 65.6182C132.24 65.6123 132.638 65.4072 133.066 65.0028C133.559 64.5203 134.086 63.9666 134.648 63.3418C135.21 62.7011 135.78 62.0605 136.358 61.4202C136.952 60.7644 137.545 60.1405 138.138 59.5486C138.747 58.9412 139.337 58.4212 139.91 57.9889C140.482 57.5405 141.035 57.2196 141.569 57.0262C142.119 56.8173 142.632 56.7914 143.107 56.9486C143.156 56.918 143.229 56.904 143.325 56.9066C143.421 56.8933 143.517 56.8959 143.613 56.9145C143.708 56.9172 143.78 56.9352 143.827 56.9685C143.89 57.0022 143.905 57.0507 143.871 57.1137C143.62 57.507 143.254 58.0171 142.773 58.644C142.307 59.2714 141.741 60.0561 141.075 60.9981C139.891 62.7261 139.24 63.9647 139.124 64.7138C139.031 65.1914 139.16 65.435 139.512 65.4447C139.704 65.45 139.97 65.3613 140.311 65.1787C140.669 64.9964 141.011 64.7738 141.338 64.5107C142.515 63.6308 143.564 62.7314 144.486 61.8125C144.602 61.6556 144.74 61.5794 144.9 61.5838C145.028 61.5874 145.099 61.6453 145.112 61.7577C145.14 61.8865 145.089 62.0132 144.957 62.1376C144.279 62.9352 143.287 63.7962 141.981 64.7205C141.277 65.2933 140.617 65.7073 140.002 65.9624C139.386 66.2176 138.896 66.3161 138.529 66.2579C137.668 66.1222 137.25 65.6144 137.275 64.7348C137.277 64.6548 137.279 64.5748 137.281 64.4949C137.3 64.3993 137.318 64.3118 137.336 64.2323C137.533 63.5014 138.318 62.2986 139.693 60.6239C139.941 60.3266 140.222 59.9982 140.536 59.6388C140.866 59.2797 141.237 58.8818 141.65 58.445C141.864 58.2268 142.02 58.0631 142.119 57.9538C142.235 57.8289 142.358 57.7043 142.49 57.5798Z" fill="#9F3E4B"/>
<path d="M156.31 60.0276C156.398 60.0606 155.859 60.768 154.695 62.15C152.897 64.0698 151.586 65.0475 150.764 65.083C149.909 65.1241 149.393 64.6975 149.214 63.803C148.775 64.338 148.274 64.8029 147.711 65.1977C147.05 65.6754 146.493 65.9228 146.041 65.9398C145.171 65.9838 144.653 65.5493 144.487 64.6362C144.461 64.4945 144.451 64.35 144.457 64.2026C144.459 63.4055 144.98 62.0669 146.021 60.1868C147.504 57.5113 148.337 56.0998 148.522 55.9525C148.633 55.8509 148.776 55.7844 148.949 55.753C149.151 55.7001 149.263 55.7367 149.286 55.8626C149.312 56.0043 149.11 56.5531 148.682 57.5089C147.996 59.0155 147.586 59.9356 147.451 60.269C146.932 61.5338 146.625 62.3051 146.529 62.5827C146.323 63.238 146.238 63.7983 146.273 64.2634C146.304 64.7943 146.493 65.0284 146.84 64.9655C146.966 64.9427 147.1 64.8776 147.243 64.7703C148.406 64.0066 149.688 62.2454 151.09 59.4868C151.759 58.0646 152.477 56.6009 153.245 55.0956C153.356 54.9941 153.499 54.9276 153.672 54.8962C153.874 54.8433 153.986 54.8798 154.009 55.0058C154.035 55.1475 153.833 55.6962 153.405 56.652C152.716 58.1429 152.306 59.063 152.174 59.4121C151.37 61.3466 150.988 62.6924 151.028 63.4495C151.035 63.936 151.212 64.1479 151.558 64.0851C152.156 63.9765 153.14 63.1233 154.509 61.5253C155.645 60.0832 156.094 59.4651 155.855 59.6711C155.904 59.581 155.983 59.5259 156.094 59.5059C156.283 59.4716 156.391 59.5332 156.42 59.6906C156.437 59.7851 156.4 59.8974 156.31 60.0276Z" fill="#9F3E4B"/>
<path d="M167.775 49.3947C167.695 49.8718 167.571 50.5014 167.402 51.2835C167.234 52.0656 167.045 53.0331 166.837 54.1862C166.461 56.2789 166.376 57.7008 166.581 58.452C166.695 58.9281 166.911 59.0926 167.231 58.9454C167.406 58.8651 167.605 58.6675 167.83 58.3525C168.07 58.0309 168.285 57.6763 168.476 57.2887C168.835 56.613 169.157 55.9539 169.442 55.3116C169.742 54.6627 169.999 54.0337 170.211 53.4249C170.275 53.2193 170.373 53.0864 170.503 53.0262C170.62 52.9727 170.701 52.9968 170.748 53.0985C170.831 53.2014 170.841 53.3378 170.778 53.5076C170.48 54.5432 169.936 55.7714 169.145 57.1921C168.739 58.031 168.309 58.7044 167.856 59.2125C167.418 59.7138 167.021 60.0197 166.667 60.13C165.835 60.3896 165.257 60.1097 164.933 59.2903C164.866 59.1449 164.817 58.9823 164.787 58.8024C164.685 58.1977 164.784 57.2451 165.083 55.9447C164.846 56.1948 164.585 56.4119 164.3 56.596C164.015 56.7801 163.721 56.9067 163.418 56.9757C163.213 57.1051 163.04 57.2464 162.899 57.3993C162.766 57.5311 162.658 57.6779 162.574 57.8399C162.483 57.9873 162.399 58.1493 162.322 58.3258C162.259 58.4956 162.185 58.6793 162.1 58.877C161.915 59.5082 161.748 60.0434 161.598 60.4824C161.455 60.9002 161.311 61.2571 161.166 61.5531C161.035 61.8424 160.905 62.096 160.776 62.3138C160.641 62.517 160.495 62.7164 160.338 62.9118C160.078 63.2256 159.767 63.4304 159.406 63.5261C159.066 63.6298 158.718 63.6401 158.363 63.557C158.008 63.474 157.684 63.3061 157.391 63.0533C157.084 62.8072 156.855 62.4812 156.703 62.0754C156.598 61.7714 156.527 61.4254 156.49 61.0376C156.431 60.642 156.506 60.1934 156.715 59.6918C156.844 59.474 156.994 59.282 157.164 59.1156C157.334 58.9493 157.512 58.8405 157.7 58.7892C157.888 58.738 158.07 58.7689 158.245 58.8819C158.428 58.9737 158.586 59.1828 158.719 59.5093C158.818 59.763 158.834 60.0463 158.767 60.3592C158.707 60.6508 158.517 60.8702 158.198 61.0174C158.038 61.091 157.92 61.1982 157.844 61.3389C157.768 61.4796 157.719 61.6428 157.699 61.8282C157.691 62.0785 157.787 62.325 157.987 62.5677C158.18 62.7959 158.418 62.9503 158.702 63.031C158.979 63.0972 159.267 63.0528 159.565 62.8977C159.872 62.7214 160.127 62.3573 160.331 61.8055C160.442 61.4726 160.536 61.2 160.615 60.9877C160.701 60.7543 160.776 60.5347 160.84 60.3292C160.919 60.1169 161.001 59.8941 161.087 59.6606C161.173 59.4271 161.276 59.1333 161.395 58.7792C161.426 58.6943 161.48 58.5815 161.556 58.4407C161.625 58.2855 161.702 58.1268 161.786 57.9649C161.884 57.7962 161.983 57.6276 162.081 57.4589C162.194 57.2836 162.3 57.1295 162.397 56.9966C161.928 56.8956 161.55 56.6114 161.265 56.144C161.074 55.8444 160.948 55.5325 160.887 55.2083C160.84 54.8775 160.834 54.5194 160.868 54.1339C160.961 53.6858 161.092 53.2641 161.263 52.8687C161.447 52.4665 161.688 52.0913 161.986 51.7429C162.645 51.0696 163.327 50.6763 164.032 50.563C164.873 50.4755 165.522 50.7755 165.979 51.4632L166.2 51.9428C166.216 51.9004 166.228 51.8507 166.237 51.7937C166.26 51.73 166.284 51.6663 166.307 51.6026C166.417 51.3055 166.492 51.086 166.533 50.9441C166.581 50.781 166.644 50.6112 166.721 50.4347C166.722 50.3989 166.735 50.3313 166.76 50.2319C166.799 50.1258 166.838 50.0196 166.877 49.9135C166.916 49.8074 166.948 49.7225 166.971 49.6588C167.009 49.5885 167.025 49.5639 167.017 49.5851C167.047 49.536 167.106 49.4913 167.193 49.4512C167.288 49.3898 167.375 49.3496 167.454 49.3307C167.548 49.3051 167.624 49.2968 167.681 49.3058C167.752 49.3081 167.784 49.3377 167.775 49.3947ZM165.745 53.0772C165.74 52.7621 165.71 52.4855 165.653 52.2474C165.611 52.0026 165.522 51.7707 165.386 51.5515C165.257 51.3111 165.094 51.1484 164.897 51.0633C164.699 50.9782 164.503 50.9361 164.31 50.937C163.785 51.0204 163.32 51.3491 162.915 51.9231C162.749 52.1755 162.616 52.5363 162.515 53.0056C162.414 53.4748 162.37 53.9531 162.383 54.4403C162.403 54.9063 162.501 55.3283 162.675 55.7061C162.863 56.0773 163.161 56.2837 163.568 56.3255C164.286 56.2412 164.877 55.6874 165.339 54.6642L165.745 53.0772Z" fill="#9F3E4B"/>
<path d="M39.5847 39.7575L38.9163 38.4147L39.5847 39.7575ZM9.00005 88.021L4.10381 71.407L20.9401 75.4737L9.00005 88.021ZM138.5 74.9997L138.5 73.4997L138.5 74.9997ZM11.4456 73.2637C12.4521 70.2267 13.6569 67.07 15.1329 63.9185L17.8497 65.1908C16.4335 68.2148 15.2707 71.2584 14.2933 74.2075L11.4456 73.2637ZM20.0917 55.1222C21.9451 52.384 24.0778 49.7424 26.544 47.2905L28.6591 49.418C26.3441 51.7196 24.3328 54.2086 22.5761 56.8038L20.0917 55.1222ZM34.4797 40.9244C35.8821 40.0288 37.3594 39.1896 38.9163 38.4147L40.2531 41.1004C38.7922 41.8275 37.4076 42.6142 36.0945 43.4528L34.4797 40.9244ZM38.9163 38.4147C40.5233 37.6148 42.3306 36.9493 44.2761 36.4447L45.0294 39.3486C43.2637 39.8066 41.6546 40.4028 40.2531 41.1004L38.9163 38.4147ZM55.4719 35.4115C59.0763 35.6326 62.8135 36.3826 66.4532 37.7948L65.368 40.5916C62.0388 39.2999 58.6082 38.6095 55.2882 38.4059L55.4719 35.4115ZM76.1415 43.5383C77.5414 44.7222 78.8808 46.0494 80.1415 47.5295L77.8578 49.4748C76.7035 48.1198 75.48 46.9079 74.2043 45.829L76.1415 43.5383ZM80.1415 47.5295C81.2888 48.8763 82.5289 50.2193 83.8597 51.5451L81.7423 53.6704C80.3541 52.2874 79.0585 50.8844 77.8578 49.4748L80.1415 47.5295ZM92.1943 58.6652C95.044 60.7526 98.1481 62.7155 101.496 64.4876L100.092 67.1391C96.6129 65.2972 93.3856 63.2565 90.4215 61.0854L92.1943 58.6652ZM111.538 68.9113C114.883 70.1069 118.41 71.1061 122.111 71.8637L121.51 74.8028C117.667 74.0163 114.004 72.9785 110.528 71.7363L111.538 68.9113ZM132.999 73.3209C134.799 73.4387 136.633 73.4997 138.5 73.4997L138.5 76.4997C136.567 76.4997 134.668 76.4366 132.803 76.3145L132.999 73.3209ZM138.5 73.4997C140.304 73.4997 142.073 73.4414 143.805 73.3243L144.008 76.3175C142.205 76.4394 140.368 76.4997 138.5 76.4997L138.5 73.4997ZM154.245 71.7861C157.795 70.9435 161.098 69.7885 164.11 68.3165L165.428 71.0119C162.195 72.5916 158.679 73.8171 154.937 74.7051L154.245 71.7861ZM172.688 62.5351C175.204 60.2277 177.344 57.5413 179.054 54.4594L181.678 55.915C179.808 59.2837 177.465 62.2241 174.716 64.746L172.688 62.5351ZM182.675 44.7709C183.043 43.1272 183.322 41.4051 183.508 39.6028L186.492 39.9105C186.295 41.8241 185.997 43.6622 185.603 45.4252L182.675 44.7709Z" fill="#B0A2A2"/>
<circle cx="185" cy="44.9998" r="6" fill="#C6EAAA"/>
</svg>
