<svg width="70" height="70" viewBox="0 0 70 70" fill="none" xmlns="http://www.w3.org/2000/svg">
<g clip-path="url(#clip0)">
<path d="M29.5586 3.11175C29.7909 3.11182 30.0172 3.038 30.2047 2.90095C30.3923 2.76391 30.5314 2.57075 30.6019 2.34942C30.6724 2.12809 30.6706 1.89007 30.5969 1.66979C30.5232 1.44951 30.3813 1.2584 30.1918 1.1241C30.0022 0.989797 29.7749 0.919273 29.5426 0.922729C29.3104 0.926185 29.0852 1.00344 28.8998 1.14332C28.7143 1.2832 28.5782 1.47845 28.5111 1.70083C28.4439 1.9232 28.4493 2.16117 28.5263 2.3803C28.6017 2.59393 28.7415 2.77895 28.9263 2.90993C29.1112 3.04091 29.332 3.11141 29.5586 3.11175V3.11175Z" fill="#B0A2A2"/>
<path d="M18.5938 30.6249C18.8837 30.6245 19.1617 30.5091 19.3667 30.3041C19.5717 30.099 19.6871 29.8211 19.6875 29.5311V17.4999C19.689 15.0217 20.2911 12.5809 21.4421 10.3863C22.5931 8.1917 24.2587 6.3087 26.2965 4.89849C26.5351 4.73351 26.6983 4.4805 26.7504 4.19513C26.8024 3.90976 26.739 3.61541 26.574 3.37681C26.4086 3.13868 26.1556 2.97587 25.8703 2.9241C25.585 2.87232 25.2909 2.93581 25.0523 3.10064C22.7638 4.68649 20.8836 6.79206 19.5658 9.24478C18.8994 10.4883 18.3866 11.8082 18.0387 13.1754C17.6807 14.589 17.4997 16.0416 17.5 17.4999V29.5311C17.5004 29.8211 17.6158 30.099 17.8208 30.3041C18.0258 30.5091 18.3038 30.6245 18.5938 30.6249V30.6249Z" fill="#B0A2A2"/>
<path d="M33.9049 2.22579C34.2672 2.19981 34.6364 2.18751 35 2.18751C37.011 2.18725 39.0023 2.58315 40.8602 3.35259C42.7181 4.12202 44.4062 5.24992 45.8282 6.67187C47.2501 8.09382 48.378 9.78196 49.1475 11.6399C49.9169 13.4978 50.3128 15.4891 50.3125 17.5V29.5313C50.3125 29.8213 50.4278 30.0995 50.6329 30.3047C50.838 30.5098 51.1162 30.625 51.4063 30.625C51.6964 30.625 51.9746 30.5098 52.1797 30.3047C52.3848 30.0995 52.5 29.8213 52.5 29.5313V17.5C52.5018 15.2014 52.0504 12.9249 51.1716 10.8009C50.2928 8.67691 49.0038 6.74701 47.3784 5.12163C45.753 3.49624 43.8231 2.20727 41.6991 1.32845C39.5751 0.449631 37.2987 -0.00179257 35 5.34943e-06C34.5844 5.34943e-06 34.1647 0.0150444 33.7504 0.0437553C33.4615 0.0647365 33.1926 0.1994 33.0027 0.418246C32.8128 0.637092 32.7174 0.922279 32.7373 1.21133C32.7581 1.50053 32.8926 1.76972 33.1115 1.95989C33.3303 2.15005 33.6157 2.24567 33.9049 2.22579V2.22579Z" fill="#B0A2A2"/>
<path d="M40.4688 24.0625C41.0728 24.0625 41.5625 23.5728 41.5625 22.9688C41.5625 22.3647 41.0728 21.875 40.4688 21.875C39.8647 21.875 39.375 22.3647 39.375 22.9688C39.375 23.5728 39.8647 24.0625 40.4688 24.0625Z" fill="#B0A2A2"/>
<path d="M29.5312 24.0625C30.1353 24.0625 30.625 23.5728 30.625 22.9688C30.625 22.3647 30.1353 21.875 29.5312 21.875C28.9272 21.875 28.4375 22.3647 28.4375 22.9688C28.4375 23.5728 28.9272 24.0625 29.5312 24.0625Z" fill="#B0A2A2"/>
<path d="M55.3524 46.8039L49.2324 33.6751C49.228 33.6659 49.2238 33.6569 49.2188 33.6477C48.7673 32.7372 48.0697 31.9714 47.2052 31.4371C46.3406 30.9029 45.3437 30.6215 44.3274 30.625H40.4688C40.1787 30.625 39.9005 30.5098 39.6954 30.3046C39.4902 30.0995 39.375 29.8213 39.375 29.5312C39.375 29.2412 39.4902 28.963 39.6954 28.7579C39.9005 28.5527 40.1787 28.4375 40.4688 28.4375H41.5625C42.7224 28.4362 43.8345 27.9748 44.6547 27.1547C45.4748 26.3345 45.9362 25.2224 45.9375 24.0625V16.4062C45.9375 16.1162 45.8223 15.838 45.6171 15.6329C45.412 15.4277 45.1338 15.3125 44.8438 15.3125C37.0132 15.3125 32.0322 12.4079 30.625 11.4673V6.5625C30.625 6.27242 30.5098 5.99422 30.3046 5.7891C30.0995 5.58398 29.8213 5.46875 29.5312 5.46875C29.2412 5.46875 28.963 5.58398 28.7579 5.7891C28.5527 5.99422 28.4375 6.27242 28.4375 6.5625V11.6895C27.7283 12.6875 26.0996 14.7109 24.6671 15.4273C24.4853 15.5182 24.3325 15.658 24.2257 15.8309C24.1189 16.0038 24.0624 16.203 24.0625 16.4062V24.0625C24.0638 25.2224 24.5252 26.3345 25.3453 27.1547C26.1655 27.9748 27.2776 28.4362 28.4375 28.4375H29.5312C29.8213 28.4375 30.0995 28.5527 30.3046 28.7579C30.5098 28.963 30.625 29.2412 30.625 29.5312C30.625 29.8213 30.5098 30.0995 30.3046 30.3046C30.0995 30.5098 29.8213 30.625 29.5312 30.625H25.6726C25.5519 30.625 25.432 30.6298 25.3128 30.6374C25.1203 30.6076 24.9233 30.6312 24.7434 30.7058C23.8976 30.8486 23.0976 31.1896 22.4089 31.701C21.7202 32.2124 21.1625 32.8796 20.7812 33.648C20.7728 33.6649 20.7647 33.682 20.7572 33.6994L16.6876 43.0191C16.5285 43.1945 16.4312 43.4172 16.4108 43.6532L13.2163 50.9687C13.1561 51.1068 13.125 51.2557 13.125 51.4062V54.6875C13.1266 56.1374 13.7033 57.5275 14.7286 58.5527C15.7538 59.5779 17.1438 60.1546 18.5938 60.1562H18.6545C18.4433 61.9613 18.7994 63.7873 19.6733 65.3807C20.5472 66.9741 21.8956 68.2559 23.5312 69.048C25.1668 69.8402 27.0085 70.1034 28.8005 69.8011C30.5925 69.4989 32.2459 68.6461 33.5312 67.3613L35.5875 65.3051C35.689 65.2035 35.7696 65.0829 35.8246 64.9502C35.8795 64.8175 35.9078 64.6753 35.9078 64.5317C35.9078 64.388 35.8795 64.2458 35.8246 64.1131C35.7696 63.9804 35.689 63.8598 35.5875 63.7582C35.4859 63.6567 35.3653 63.5761 35.2326 63.5211C35.0999 63.4662 34.9577 63.4379 34.8141 63.4379C34.6704 63.4379 34.5282 63.4662 34.3955 63.5211C34.2628 63.5761 34.1422 63.6567 34.0406 63.7582L31.9844 65.8145C31.0053 66.7944 29.7412 67.4392 28.3731 67.6566C27.0051 67.874 25.6033 67.6528 24.3687 67.0246C23.1341 66.3965 22.13 65.3937 21.5003 64.1599C20.8706 62.926 20.6476 61.5246 20.8633 60.1562H28.9844C30.2897 60.1562 31.5416 59.6377 32.4647 58.7147C33.3877 57.7916 33.9062 56.5397 33.9062 55.2344C33.9062 53.929 33.3877 52.6771 32.4647 51.7541C31.5416 50.8311 30.2897 50.3125 28.9844 50.3125H28.9238L30.414 48.8223C31.2113 48.0221 32.2026 47.4427 33.291 47.1406C33.3272 47.1326 33.363 47.1227 33.3982 47.111C33.9392 46.9709 34.4957 46.9001 35.0545 46.9003C35.9168 46.8978 36.7709 47.0664 37.5675 47.3964C38.3641 47.7263 39.0873 48.2109 39.6953 48.8223C40.4291 49.5586 40.9782 50.4582 41.2977 51.4475C41.6172 52.4367 41.6979 53.4875 41.5334 54.514C41.4872 54.8005 41.5567 55.0935 41.7267 55.3287C41.8966 55.5639 42.153 55.722 42.4394 55.7681C42.7259 55.8143 43.0189 55.7448 43.2541 55.5748C43.4893 55.4049 43.6474 55.1485 43.6935 54.8621C43.7175 54.7135 43.7367 54.5646 43.7529 54.4157C44.8946 53.9625 45.927 53.2718 46.7817 52.3895C50.145 48.9214 50.145 43.2783 46.7817 39.8102C45.9871 38.9813 45.0331 38.3218 43.9769 37.8712C42.9208 37.4207 41.7844 37.1884 40.6362 37.1884C39.488 37.1884 38.3517 37.4207 37.2955 37.8712C36.2394 38.3218 35.2853 38.9813 34.4907 39.8102C33.0581 41.2886 32.1788 43.2155 32.0009 45.2665C30.8242 45.7023 29.7558 46.3877 28.869 47.2756L25.8303 50.3125H22.4396L25.0675 44.1808C25.1773 43.915 25.178 43.6166 25.0694 43.3503C24.9608 43.084 24.7517 42.8711 24.4873 42.7579C24.2229 42.6446 23.9246 42.6401 23.6569 42.7452C23.3892 42.8503 23.1736 43.0566 23.0569 43.3195L22.517 44.5792L19.0066 43.1747L22.75 34.6035C23.059 33.9942 23.5511 33.497 24.1572 33.1816C24.7998 38.3187 28.5828 42.1617 28.7582 42.3371C28.8598 42.4387 28.9804 42.5193 29.1131 42.5743C29.2458 42.6292 29.388 42.6575 29.5317 42.6575C29.6753 42.6575 29.8175 42.6292 29.9502 42.5743C30.0829 42.5193 30.2035 42.4387 30.3051 42.3371C30.4066 42.2356 30.4872 42.115 30.5422 41.9823C30.5971 41.8496 30.6254 41.7074 30.6254 41.5637C30.6254 41.4201 30.5971 41.2779 30.5422 41.1452C30.4872 41.0125 30.4066 40.8919 30.3051 40.7903C30.2676 40.7529 26.8301 37.263 26.3166 32.8137H29.5312C30.4015 32.8137 31.2361 32.468 31.8514 31.8527C32.4668 31.2373 32.8125 30.4027 32.8125 29.5325C32.8125 28.6622 32.4668 27.8276 31.8514 27.2123C31.2361 26.5969 30.4015 26.2512 29.5312 26.2512H28.4375C27.8575 26.2505 27.3016 26.0199 26.8915 25.6098C26.4814 25.1997 26.2507 24.6437 26.25 24.0637V17.0373C27.6974 16.1027 29.0302 14.5303 29.7891 13.539C31.707 14.7558 36.4908 17.2502 43.75 17.4826V24.0625C43.7493 24.6425 43.5186 25.1984 43.1085 25.6085C42.6985 26.0186 42.1425 26.2493 41.5625 26.25H40.4688C39.5985 26.25 38.7639 26.5957 38.1486 27.2111C37.5332 27.8264 37.1875 28.661 37.1875 29.5312C37.1875 30.4015 37.5332 31.2361 38.1486 31.8514C38.7639 32.4668 39.5985 32.8125 40.4688 32.8125H44.3274C44.9348 32.8104 45.5307 32.9779 46.0481 33.2962C46.5655 33.6144 46.9838 34.0707 47.2559 34.6138L53.3697 47.7285C53.7138 48.461 53.847 49.2749 53.7542 50.0789C53.6615 50.8829 53.3465 51.6451 52.8447 52.28L47.2168 59.4426C46.3681 60.522 45.1669 61.2686 43.8234 61.5519C42.4798 61.8352 41.0794 61.6371 39.8672 60.9923L41.6965 58.6407C41.8746 58.4118 41.9545 58.1214 41.9185 57.8336C41.8825 57.5457 41.7337 57.284 41.5047 57.1059C41.2758 56.9277 40.9854 56.8479 40.6976 56.8838C40.4097 56.9198 40.148 57.0686 39.9699 57.2976L37.4177 60.5788C37.2413 60.8057 37.1613 61.0929 37.195 61.3784C37.2286 61.6638 37.3733 61.9245 37.5977 62.1041C39.0155 63.2456 40.7813 63.8674 42.6016 63.8662C42.9155 63.8661 43.2291 63.8478 43.541 63.8116C44.3692 63.7165 45.1777 63.4934 45.9375 63.1504V68.9062C45.9375 69.1963 46.0527 69.4745 46.2579 69.6796C46.463 69.8848 46.7412 70 47.0312 70C47.3213 70 47.5995 69.8848 47.8046 69.6796C48.0098 69.4745 48.125 69.1963 48.125 68.9062V62.3438C48.1251 62.1566 48.077 61.9727 47.9853 61.8096C48.3309 61.4988 48.6492 61.1589 48.9368 60.7938L54.5645 53.6312C55.3173 52.6789 55.7898 51.5355 55.929 50.3296C56.0682 49.1236 55.8685 47.9027 55.3524 46.8039V46.8039ZM36.0598 41.3325C36.6505 40.7139 37.3606 40.2214 38.147 39.8849C38.9335 39.5485 39.78 39.375 40.6353 39.375C41.4907 39.375 42.3372 39.5485 43.1237 39.8849C43.9101 40.2214 44.6201 40.7139 45.2108 41.3325C46.4377 42.6163 47.1224 44.3236 47.1224 46.0993C47.1224 47.875 46.4377 49.5823 45.2108 50.8661C44.7623 51.3276 44.2478 51.7201 43.6842 52.0308C43.3252 49.854 42.1558 47.8936 40.4111 46.5434C38.6663 45.1932 36.4752 44.5531 34.278 44.7517C34.527 43.463 35.1462 42.2749 36.0598 41.3325ZM21.6553 46.5902L20.0601 50.3125H18.5938C18.3037 50.3125 18.0255 50.4277 17.8204 50.6329C17.6152 50.838 17.5 51.1162 17.5 51.4062C17.5 51.6963 17.6152 51.9745 17.8204 52.1796C18.0255 52.3848 18.3037 52.5 18.5938 52.5H20.7754H20.7807H20.7844H28.9844C29.7096 52.5 30.4051 52.7881 30.9179 53.3009C31.4307 53.8137 31.7188 54.5092 31.7188 55.2344C31.7188 55.9596 31.4307 56.6551 30.9179 57.1679C30.4051 57.6807 29.7096 57.9688 28.9844 57.9688H18.5938C17.7238 57.9678 16.8898 57.6218 16.2746 57.0066C15.6595 56.3915 15.3135 55.5574 15.3125 54.6875V51.6346L18.1308 45.1804L21.6553 46.5902Z" fill="#B0A2A2"/>
</g>
<defs>
<clipPath id="clip0">
<rect width="70" height="70" fill="white"/>
</clipPath>
</defs>
</svg>
