<svg width="72" height="72" viewBox="0 0 72 72" fill="none" xmlns="http://www.w3.org/2000/svg">
<path d="M24.75 19.125C25.3713 19.125 25.875 18.6213 25.875 18C25.875 17.3787 25.3713 16.875 24.75 16.875C24.1287 16.875 23.625 17.3787 23.625 18C23.625 18.6213 24.1287 19.125 24.75 19.125Z" fill="url(#paint0_linear)"/>
<path d="M15.75 19.125C16.3713 19.125 16.875 18.6213 16.875 18C16.875 17.3787 16.3713 16.875 15.75 16.875C15.1287 16.875 14.625 17.3787 14.625 18C14.625 18.6213 15.1287 19.125 15.75 19.125Z" fill="url(#paint1_linear)"/>
<path d="M25.875 23.625H23.625C23.625 24.8659 22.6159 25.875 21.375 25.875H16.875V28.125H21.375C23.8568 28.125 25.875 26.1068 25.875 23.625Z" fill="url(#paint2_linear)"/>
<path d="M23.625 59.625H25.875V61.875H23.625V59.625Z" fill="url(#paint3_linear)"/>
<path d="M19.125 59.625H21.375V61.875H19.125V59.625Z" fill="url(#paint4_linear)"/>
<path d="M49.5 28.125C50.1213 28.125 50.625 27.6213 50.625 27C50.625 26.3787 50.1213 25.875 49.5 25.875C48.8787 25.875 48.375 26.3787 48.375 27C48.375 27.6213 48.8787 28.125 49.5 28.125Z" fill="url(#paint5_linear)"/>
<path d="M70.875 36.09V35.91C70.875 34.2743 70.3957 32.6914 69.4879 31.329L69.192 30.8846C68.8208 30.3277 68.625 29.6809 68.625 29.0126V23.625C68.625 17.4217 63.5783 12.375 57.375 12.375H48.375C44.0325 12.375 40.5 15.9086 40.5 20.25C40.5 22.1108 42.0143 23.625 43.875 23.625V25.1944C43.875 25.4171 43.8097 25.6331 43.686 25.8188L42.2246 28.0114C41.832 28.5986 41.625 29.2826 41.625 29.9891C41.625 31.3492 42.381 32.5733 43.5983 33.1819L43.875 33.3203V36C43.875 39.1016 46.3984 41.625 49.5 41.625H52.875V44.2687C46.0192 47.3332 41.625 54.0529 41.625 61.6162V61.875H38.7158L37.7527 60.9131C36.9776 60.1369 35.9606 59.7038 34.875 59.6475V59.625C37.3568 59.625 39.375 57.6068 39.375 55.125V52.875V45.2261C39.375 38.8406 34.3901 33.4249 28.0282 32.895L25.5836 32.6914L25.3778 32.0737C27.963 31.0545 29.8778 28.7077 30.2861 25.8761H30.375C32.8568 25.8761 34.875 23.8579 34.875 21.3761C34.875 20.3906 34.5476 19.4861 34.0088 18.7448C34.533 17.4353 34.8278 16.0335 34.8604 14.6261H37.125C38.3659 14.6261 39.375 13.617 39.375 12.3761V11.2511C39.375 9.39038 37.8607 7.87612 36 7.87612H34.7951C34.2472 4.0635 30.9611 1.125 27 1.125H13.5C9.1575 1.125 5.625 4.65863 5.625 9V13.5V14.3595V14.625H5.63963C5.67225 16.0324 5.967 17.4341 6.49125 18.7436C5.95237 19.485 5.625 20.3895 5.625 21.375C5.625 23.8568 7.64325 25.875 10.125 25.875H10.215C10.6234 28.7066 12.5381 31.0534 15.1234 32.0726L14.9175 32.6903L12.4729 32.8939C6.10987 33.4249 1.125 38.8406 1.125 45.2261V52.875V55.125C1.125 57.6068 3.14325 59.625 5.625 59.625V64.125C5.625 65.3659 6.63412 66.375 7.875 66.375H25.875C25.875 68.8568 27.8932 70.875 30.375 70.875H49.5C57.5798 70.875 64.3433 65.1656 65.9869 57.5696L67.6046 56.5976C69.6217 55.3894 70.875 53.1776 70.875 50.8241C70.875 49.7846 70.6286 48.7429 70.164 47.8125L69.1673 45.8201C68.8129 45.1102 68.625 44.3149 68.625 43.5218C68.625 42.5036 68.9231 41.5181 69.4879 40.6721C70.3957 39.3086 70.875 37.7258 70.875 36.09ZM49.5 39.375C48.0353 39.375 46.7977 38.4311 46.332 37.125H48.1095C50.0895 37.125 51.8704 36.0236 52.7558 34.2529L50.7431 33.246C50.2414 34.2506 49.2323 34.875 48.1095 34.875H46.125V33.3203C46.125 32.4608 45.648 31.6901 44.8808 31.3076L44.604 31.1692C44.1551 30.9443 43.875 30.492 43.875 29.9891C43.875 29.7292 43.9515 29.4761 44.0966 29.259L45.558 27.0675C45.9292 26.5106 46.125 25.8638 46.125 25.1944V23.625H54C54.9562 23.625 55.8158 23.2211 56.43 22.581C57.0262 23.202 57.375 24.0278 57.375 24.9086V26.7626C57.375 27.8764 57.7024 28.9552 58.32 29.8822L58.878 30.7192C59.3674 31.4527 59.625 32.3066 59.625 33.1875C59.625 34.0684 59.3674 34.9223 58.878 35.6546L58.5 36.2216C57.7643 37.3241 57.375 38.61 57.375 39.9375C57.375 41.265 57.7643 42.5498 58.5 43.6534L58.6485 43.875H55.125V39.375H49.5ZM37.125 55.125C37.125 56.3659 36.1159 57.375 34.875 57.375H33.75C33.1301 57.375 32.625 56.871 32.625 56.25V51.75C32.625 51.129 33.1301 50.625 33.75 50.625H34.875C36.1159 50.625 37.125 51.6341 37.125 52.875V55.125ZM37.125 45.2261V49.0005C36.4601 48.6135 35.6985 48.375 34.875 48.375V41.625C34.875 40.3841 33.8659 39.375 32.625 39.375H27.2014L27.8989 35.1439C33.0761 35.6063 37.125 40.0219 37.125 45.2261ZM15.5273 34.8975L18.1732 36.2205L15.4215 38.421L14.85 34.9538L15.5273 34.8975ZM24.9727 34.8975L25.65 34.9538L25.0785 38.421L22.3268 36.2205L24.9727 34.8975ZM17.8324 39.375L20.25 37.4411L22.6676 39.375H17.8324ZM16.875 41.625H19.125V46.125H16.875V41.625ZM21.375 41.625H23.625V46.125H21.375V41.625ZM30.375 23.625V19.125C31.6159 19.125 32.625 20.1341 32.625 21.375C32.625 22.6159 31.6159 23.625 30.375 23.625ZM32.1637 17.2507C31.6147 17.0111 31.0117 16.875 30.375 16.875V14.625H32.6104C32.5845 15.5149 32.4338 16.4002 32.1637 17.2507ZM36 10.125C36.6199 10.125 37.125 10.629 37.125 11.25V12.375H19.125V11.25C19.125 10.629 19.6301 10.125 20.25 10.125H36ZM7.875 9C7.875 5.89838 10.3984 3.375 13.5 3.375H27C29.7169 3.375 31.9894 5.31112 32.5114 7.875H20.25C18.3892 7.875 16.875 9.38925 16.875 11.25V12.375H7.875V9ZM10.125 14.625V16.875C9.48825 16.875 8.88525 17.0111 8.33625 17.2507C8.06625 16.4002 7.9155 15.5149 7.88963 14.625H10.125ZM7.875 21.375C7.875 20.1341 8.88412 19.125 10.125 19.125V23.625C8.88412 23.625 7.875 22.6159 7.875 21.375ZM12.375 24.75V14.625H28.125V24.75C28.125 27.8516 25.6016 30.375 22.5 30.375H18C14.8984 30.375 12.375 27.8516 12.375 24.75ZM18 32.625H22.5C22.7284 32.625 22.9534 32.6104 23.1772 32.5901L23.3741 33.1796L20.25 34.7422L17.1259 33.1796L17.3228 32.5901C17.5466 32.6104 17.7716 32.625 18 32.625ZM12.6011 35.1439L13.2986 39.375H7.875C6.63412 39.375 5.625 40.3841 5.625 41.625V48.375C4.8015 48.375 4.03988 48.6135 3.375 49.0005V45.2261C3.375 40.0219 7.42387 35.6063 12.6011 35.1439ZM3.375 55.125V52.875C3.375 51.6341 4.38412 50.625 5.625 50.625H6.75C7.36987 50.625 7.875 51.129 7.875 51.75V56.25C7.875 56.871 7.36987 57.375 6.75 57.375H5.625C4.38412 57.375 3.375 56.3659 3.375 55.125ZM26.5005 64.125H7.875V59.418C9.18112 58.9523 10.125 57.7147 10.125 56.25V51.75C10.125 50.2853 9.18112 49.0477 7.875 48.582V41.625H14.625V48.375H25.875V41.625H32.625V48.582C31.3189 49.0477 30.375 50.2853 30.375 51.75V56.25C30.375 57.7147 31.3189 58.9523 32.625 59.418V60.1234C31.8746 60.5115 31.2379 61.1077 30.8104 61.875H30.375C28.7167 61.875 27.2812 62.7863 26.5005 64.125ZM30.375 68.625C29.1341 68.625 28.125 67.6159 28.125 66.375C28.125 65.1341 29.1341 64.125 30.375 64.125H32.1952L32.7274 63.0608C33.093 62.3284 33.8276 61.875 34.6455 61.875C35.2091 61.875 35.7626 62.1045 36.162 62.5039L37.7842 64.125H46.6155C49.1287 64.125 51.3844 63.0225 52.9436 61.2844L57.735 66.0758C55.3871 67.6823 52.5521 68.625 49.5 68.625H30.375ZM59.4911 64.6504L54.2306 59.3899C54.7976 58.2503 55.125 56.9711 55.125 55.6155C55.125 53.5736 56.1398 51.6769 57.8419 50.5417L58.0016 50.4349L56.7506 48.5651L56.5931 48.6709C54.2644 50.2223 52.875 52.8176 52.875 55.6155C52.875 59.067 50.067 61.875 46.6155 61.875H43.875V61.6174C43.875 54.7909 47.9284 48.7339 54.2205 46.125H60.3641C62.7255 48.0353 64.125 50.9524 64.125 54C64.125 58.1996 62.3351 61.9807 59.4911 64.6504ZM68.625 36.09C68.625 37.2803 68.2763 38.4323 67.6159 39.4234C66.8036 40.6395 66.375 42.057 66.375 43.5218C66.375 44.6636 66.645 45.8055 67.1546 46.827L68.1514 48.8194C68.4607 49.4381 68.625 50.1322 68.625 50.8241C68.625 52.3912 67.7903 53.8639 66.447 54.6694L66.3367 54.7357C66.348 54.4894 66.375 54.2486 66.375 54C66.375 50.2043 64.5896 46.5817 61.6027 44.2507L60.3731 42.4058C59.8826 41.6722 59.625 40.8184 59.625 39.9375C59.625 39.0566 59.8826 38.2027 60.372 37.4704L60.75 36.9034C61.4857 35.8009 61.875 34.515 61.875 33.1875C61.875 31.86 61.4857 30.5753 60.75 29.4716L60.192 28.6346C59.8208 28.0777 59.625 27.4309 59.625 26.7626V24.9086C59.625 23.1255 58.779 21.4695 57.3592 20.4097C57.3615 20.3558 57.375 20.3051 57.375 20.25C57.375 18.3892 55.8607 16.875 54 16.875H52.875V19.125H54C54.6199 19.125 55.125 19.629 55.125 20.25C55.125 20.871 54.6199 21.375 54 21.375H43.875C43.2551 21.375 42.75 20.871 42.75 20.25C42.75 17.1484 45.2734 14.625 48.375 14.625H57.375C62.3374 14.625 66.375 18.6626 66.375 23.625V29.0126C66.375 30.1264 66.7024 31.2052 67.32 32.1322L67.6159 32.5766C68.2763 33.5677 68.625 34.7197 68.625 35.91V36.09Z" fill="url(#paint6_linear)"/>
<defs>
<linearGradient id="paint0_linear" x1="24.642" y1="16.875" x2="25.9244" y2="16.9274" gradientUnits="userSpaceOnUse">
<stop stop-color="#F2B5C9"/>
<stop offset="1" stop-color="#EF95B2"/>
</linearGradient>
<linearGradient id="paint1_linear" x1="15.642" y1="16.875" x2="16.9244" y2="16.9274" gradientUnits="userSpaceOnUse">
<stop stop-color="#F2B5C9"/>
<stop offset="1" stop-color="#EF95B2"/>
</linearGradient>
<linearGradient id="paint2_linear" x1="20.943" y1="23.625" x2="26.0469" y2="24.0423" gradientUnits="userSpaceOnUse">
<stop stop-color="#F2B5C9"/>
<stop offset="1" stop-color="#EF95B2"/>
</linearGradient>
<linearGradient id="paint3_linear" x1="24.642" y1="59.625" x2="25.9244" y2="59.6774" gradientUnits="userSpaceOnUse">
<stop stop-color="#F2B5C9"/>
<stop offset="1" stop-color="#EF95B2"/>
</linearGradient>
<linearGradient id="paint4_linear" x1="20.142" y1="59.625" x2="21.4244" y2="59.6774" gradientUnits="userSpaceOnUse">
<stop stop-color="#F2B5C9"/>
<stop offset="1" stop-color="#EF95B2"/>
</linearGradient>
<linearGradient id="paint5_linear" x1="49.392" y1="25.875" x2="50.6744" y2="25.9274" gradientUnits="userSpaceOnUse">
<stop stop-color="#F2B5C9"/>
<stop offset="1" stop-color="#EF95B2"/>
</linearGradient>
<linearGradient id="paint6_linear" x1="32.652" y1="1.12502" x2="72.4052" y2="2.74997" gradientUnits="userSpaceOnUse">
<stop stop-color="#F2B5C9"/>
<stop offset="1" stop-color="#EF95B2"/>
</linearGradient>
</defs>
</svg>
