<svg width="58" height="56" viewBox="0 0 58 56" fill="none" xmlns="http://www.w3.org/2000/svg">
<g opacity="0.4">
<path fill-rule="evenodd" clip-rule="evenodd" d="M0.513672 44.8486L2.17945 43.3003C2.2425 43.3698 2.30575 43.441 2.36973 43.5086C5.07523 46.4244 8.32871 48.7786 11.9443 50.4366C15.5599 52.0946 19.4668 53.0239 23.4417 53.1715C27.4166 53.3191 31.3816 52.6821 35.1103 51.2968C38.8389 49.9115 42.258 47.805 45.1723 45.0979C48.0866 42.3908 50.4389 39.1359 52.0948 35.5194C53.7508 31.9028 54.6779 27.9955 54.8233 24.0205C54.9686 20.0455 54.3293 16.0808 52.9419 12.353C51.5545 8.62515 49.4462 5.20722 46.7374 2.29447C46.6744 2.22686 46.6093 2.15924 46.5453 2.08981L48.2109 0.543213C48.276 0.610821 48.34 0.67862 48.4041 0.747869C54.2572 7.07715 57.3606 15.4697 57.0335 24.0843C56.7064 32.6989 52.9754 40.832 46.6592 46.6992C40.343 52.5664 31.9574 55.6885 23.3421 55.3806C14.7268 55.0728 6.58539 51.36 0.704119 45.0569C0.639955 44.9874 0.576907 44.918 0.513672 44.8486ZM20.8929 28.6933L7.14183 41.4674C6.98859 41.612 6.88397 41.8006 6.84238 42.0071C6.8008 42.2136 6.82432 42.428 6.90968 42.6206C6.97114 42.7475 7.05839 42.8602 7.16588 42.9515C10.9982 46.2853 15.7105 48.4437 20.7381 49.1679C20.8769 49.1898 21.0188 49.1825 21.1546 49.1464C21.2888 49.1063 21.4131 49.0384 21.5193 48.9472C21.6282 48.8573 21.7173 48.7458 21.781 48.6197C21.8413 48.4934 21.874 48.3556 21.877 48.2157L22.5684 29.4603C22.5783 29.2635 22.529 29.0683 22.427 28.8998C22.3508 28.772 22.2467 28.663 22.1225 28.581C21.9983 28.4991 21.8573 28.4462 21.7098 28.4264C21.5623 28.4065 21.4123 28.4202 21.2709 28.4664C21.1294 28.5126 21.0002 28.5902 20.8929 28.6933ZM6.36862 40.6345C6.1478 40.8373 5.97249 41.0845 5.85417 41.36C5.73585 41.6355 5.67723 41.933 5.68218 42.2328C5.68714 42.5326 5.75556 42.8279 5.88292 43.0993C6.01028 43.3707 6.19371 43.6121 6.42111 43.8075C10.4176 47.2841 15.3316 49.535 20.5744 50.2908C20.871 50.3344 21.1735 50.3156 21.4624 50.2355C21.8981 50.1146 22.2837 49.8575 22.5628 49.5018C22.8418 49.146 22.9997 48.7103 23.0134 48.2583L23.7048 29.5029C23.7222 29.0799 23.6135 28.6612 23.3925 28.3C23.2266 28.0312 23.0031 27.8025 22.7381 27.6304C22.4731 27.4584 22.1733 27.3474 21.8602 27.3053C21.5471 27.2633 21.2285 27.2913 20.9276 27.3873C20.6266 27.4833 20.3507 27.6449 20.1198 27.8605L6.36862 40.6345ZM30.3312 26.5755L43.1053 40.3266C43.1985 40.4312 43.3132 40.5144 43.4415 40.5705C43.5716 40.625 43.7117 40.6511 43.8527 40.647C43.9926 40.6455 44.1308 40.6152 44.2585 40.5579C44.3855 40.4974 44.4983 40.4107 44.5895 40.3035C47.924 36.4713 50.0824 31.7586 50.8056 26.7305C50.8293 26.592 50.8218 26.45 50.7836 26.3148C50.7455 26.1796 50.6776 26.0547 50.5851 25.949C50.4951 25.8402 50.3836 25.7512 50.2576 25.6875C50.1313 25.627 49.9936 25.5943 49.8536 25.5915L31.0991 24.9008C30.9021 24.8906 30.7065 24.9396 30.5376 25.0415C30.3698 25.1475 30.2364 25.3 30.1534 25.4803C30.0705 25.6607 30.0417 25.8612 30.0704 26.0577C30.1042 26.2523 30.195 26.4325 30.3312 26.5755ZM42.2723 41.1008C42.4751 41.3215 42.7225 41.4968 42.9979 41.615C43.2734 41.7333 43.5708 41.7918 43.8705 41.7868C44.1702 41.7817 44.4655 41.7132 44.7368 41.5858C45.0081 41.4583 45.2494 41.2748 45.4446 41.0474C48.9211 37.0508 51.1719 32.1369 51.9278 26.8941C51.9732 26.5975 51.9544 26.2947 51.8725 26.006C51.7907 25.7174 51.6478 25.4497 51.4534 25.2212C51.2646 24.9897 51.0282 24.8016 50.7602 24.6696C50.4906 24.5378 50.1961 24.465 49.8962 24.456L31.1408 23.7637C30.7183 23.7467 30.3003 23.8557 29.94 24.0769C29.5796 24.2981 29.2932 24.6215 29.1171 25.0059C28.941 25.3903 28.8832 25.8184 28.9511 26.2358C29.019 26.6531 29.2095 27.0409 29.4984 27.3497L42.2723 41.1008ZM28.6111 28.1736C28.3255 27.8618 27.9529 27.643 27.5415 27.5456C27.1301 27.4482 26.6989 27.4766 26.3038 27.6272C25.9064 27.771 25.5614 28.031 25.3137 28.3734C25.066 28.7159 24.927 29.1249 24.9148 29.5474L24.2234 48.3028C24.2107 48.6025 24.2616 48.9014 24.3729 49.1799C24.4842 49.4584 24.6532 49.7101 24.8689 49.9185C25.0846 50.1269 25.3421 50.2871 25.6242 50.3887C25.9064 50.4903 26.2069 50.5309 26.5059 50.5078C31.7902 50.1403 36.8567 48.2577 41.0988 45.0853C41.3397 44.907 41.5402 44.6797 41.687 44.4184C41.8338 44.157 41.9237 43.8676 41.9506 43.569C41.9776 43.2705 41.9411 42.9697 41.8435 42.6862C41.7459 42.4028 41.5894 42.1433 41.3843 41.9247L28.6111 28.1736ZM40.5515 42.6988L27.7783 28.9477C27.645 28.8006 27.4708 28.6968 27.278 28.6498C27.0852 28.6027 26.8827 28.6146 26.6967 28.6838C26.5107 28.7529 26.3497 28.8763 26.2345 29.0378C26.1193 29.1994 26.0551 29.3919 26.0503 29.5903L25.3598 48.3438C25.3524 48.4833 25.3745 48.6228 25.4247 48.7531C25.4794 48.8828 25.5596 49.0001 25.6605 49.0983C25.7614 49.1964 25.8809 49.2733 26.0121 49.3244C26.1442 49.3716 26.285 49.3899 26.4248 49.3778C31.4926 49.0267 36.3515 47.2211 40.4189 44.1778C40.5323 44.0941 40.6274 43.9881 40.6984 43.8663C40.7643 43.7429 40.804 43.6071 40.8149 43.4676C40.8295 43.3278 40.8143 43.1866 40.7704 43.0531C40.7236 42.9207 40.649 42.7999 40.5515 42.6988ZM29.9548 18.9356C29.6371 19.2275 29.4136 19.6074 29.3127 20.0269C29.2118 20.4464 29.2382 20.8864 29.3885 21.2908C29.5387 21.6953 29.8061 22.0458 30.1564 22.2977C30.5067 22.5495 30.9241 22.6913 31.3553 22.7049L50.6055 23.4131C51.0649 23.4285 51.5175 23.299 51.8992 23.0428C52.2809 22.7866 52.5723 22.4168 52.7322 21.9858C52.8359 21.6983 52.8777 21.3921 52.855 21.0872C52.4776 15.6661 50.5458 10.4686 47.2909 6.11698C47.1092 5.87127 46.8775 5.66684 46.6112 5.51708C46.3448 5.36732 46.0497 5.27564 45.7454 5.24808C45.4411 5.22052 45.1343 5.25771 44.8454 5.35719C44.5564 5.45667 44.2918 5.61616 44.069 5.82523L29.9548 18.9356ZM44.8431 6.65804L30.7281 19.7684C30.5748 19.9073 30.4667 20.0888 30.4176 20.2897C30.3686 20.4906 30.3809 20.7016 30.4529 20.8955C30.5249 21.0893 30.6534 21.2571 30.8217 21.3773C30.99 21.4974 31.1905 21.5643 31.3972 21.5694L50.6472 22.2777C50.7934 22.2861 50.9397 22.2623 51.0757 22.2078C51.2116 22.1534 51.3339 22.0697 51.4339 21.9627C51.5384 21.86 51.6187 21.7354 51.6689 21.5978C51.719 21.4602 51.7379 21.3131 51.724 21.1673C51.3619 15.9634 49.5077 10.9742 46.3833 6.7969C46.299 6.67699 46.1887 6.57759 46.0607 6.5061C45.9327 6.43462 45.7902 6.3929 45.6438 6.38398C45.498 6.36883 45.3507 6.38459 45.2114 6.43025C45.0743 6.48002 44.9489 6.55757 44.8431 6.65804Z" fill="#3E3A39"/>
<path fill-rule="evenodd" clip-rule="evenodd" d="M27.5462 42.9698C27.4941 42.7185 27.4263 42.4706 27.3432 42.2277C26.9215 41.0228 27.1412 41.7044 27.135 40.7222C27.139 39.4357 27.4508 38.1689 28.0444 37.0276C28.1097 37.2856 28.1461 37.55 28.153 37.8161C28.3047 38.8105 28.2782 39.8241 28.0746 40.8093C28.024 41.087 27.6227 42.8791 27.5462 42.9698ZM30.8251 44.4131L29.8757 42.2954L29.7608 41.2667C29.7061 40.9093 29.6291 40.5557 29.5303 40.2079C29.353 39.6668 29.1341 39.1402 28.8756 38.6329C28.715 37.9444 28.5976 37.2467 28.524 36.5436C28.4225 36.193 28.4947 36.3158 28.6664 36.024L28.7669 36.5241C28.8132 36.7287 28.8542 36.8603 28.9111 37.0543C29.0381 37.4289 29.2051 37.7887 29.4093 38.1275C30.027 39.0791 30.4361 40.1508 30.6097 41.272C30.7664 42.4412 30.7263 42.8007 30.8214 43.881C30.848 44.0573 30.8493 44.2365 30.8251 44.4131ZM26.2461 38.8251L26.6403 39.7771C26.7141 39.5138 26.7177 39.1613 26.7792 38.8678L26.8885 38.3998C27.0042 37.8445 27.2827 37.2412 27.3138 36.9973C27.3656 36.5864 27.6076 35.7126 27.7036 35.12C27.8784 34.1837 27.9544 33.2318 27.9305 32.2797C27.2265 33.0676 26.7317 34.0197 26.4918 35.0487C26.2728 35.8161 26.1241 36.6017 26.0477 37.396C26.0335 37.517 26.0174 37.5205 25.9988 37.6309C25.9872 37.6985 25.9782 37.784 25.9686 37.8677C25.9587 37.9548 25.956 38.0118 25.9498 38.1026C25.9328 38.3322 26.0735 38.4514 26.2461 38.8251ZM28.241 35.3228C28.4657 34.3085 28.5768 33.2723 28.5721 32.2334C28.5632 32.1266 28.5444 32.1142 28.5391 31.9967C28.4972 31.2662 28.3913 30.5409 28.2224 29.829C28.1404 29.4571 27.6067 28.0958 27.1724 27.9177C26.9758 28.0939 27.2302 28.6314 27.3157 28.8521C27.4393 29.1556 27.5459 29.4657 27.6351 29.7811C27.7673 30.3881 27.8624 31.0026 27.9199 31.6211C27.6903 31.8525 27.4589 32.0019 27.2107 32.2831C26.6699 32.9049 26.2691 33.6357 26.0353 34.4258C25.888 34.905 25.7656 35.3915 25.6686 35.8834L25.4603 37.3285C25.3297 37.2003 25.4213 37.2412 25.3056 37.2625C25.1695 37.5652 25.4461 37.9477 25.4284 38.3464C25.4204 38.5243 25.3831 39.2468 25.626 39.3518C25.7638 39.3126 25.7344 39.2326 25.8341 39.0974L26.069 39.7363C26.1321 39.9368 26.1844 40.1405 26.2257 40.3466C26.3307 40.74 26.3653 41.1422 26.4881 41.5657L26.8183 42.5248C26.861 42.6708 26.8628 42.6618 26.7915 42.8115L25.9738 44.6212C25.5342 45.5756 25.252 46.5949 25.1383 47.6396C25.1019 48.0026 24.9488 48.5721 25.221 48.8496C25.3907 48.6636 25.4976 48.4289 25.5263 48.1788C25.6956 47.2933 25.937 46.4231 26.2479 45.5769C26.4143 45.1676 26.852 43.9647 27.023 43.6407C27.109 44.0286 27.1508 44.4251 27.1475 44.8224C27.157 45.4193 27.1207 46.016 27.039 46.6074C27.0233 46.7033 27.0025 46.7983 26.9767 46.892C26.9579 46.9828 26.9517 47.0719 26.9331 47.1787C26.8984 47.3815 26.8717 47.5186 26.8289 47.7535C26.651 48.7286 26.2702 49.695 26.1464 50.6719C26.1127 50.9407 26.1652 51.2361 26.409 50.8179C26.5918 50.45 26.741 50.0664 26.8548 49.6718C27.2019 48.729 27.4499 47.7528 27.595 46.7587L27.6921 45.867C27.7428 45.4848 27.7639 45.0993 27.7552 44.7138C27.8051 44.2262 28.2882 42.548 28.4092 42.0837C28.6162 41.3273 28.7615 40.5554 28.8435 39.7755C29.1333 40.6392 29.2794 41.5445 29.2759 42.4555C29.3113 43.7904 29.2162 45.1255 28.992 46.4419L28.678 47.7711C28.5452 48.2248 28.3746 48.6665 28.1681 49.0917C28.0293 49.3817 27.4314 50.1916 27.4135 50.3678C27.6592 50.567 28.0721 50.0403 28.249 49.8302C28.818 49.0624 29.215 48.1811 29.413 47.2463C29.4913 46.9436 29.5599 46.6679 29.6123 46.3599C29.7223 45.7806 29.8031 45.1962 29.8543 44.6088C29.8504 44.328 29.8671 44.0473 29.9041 43.7689C30.3136 44.6372 30.6511 45.5378 30.9131 46.4614C31.1647 47.3322 31.1351 48.2601 30.8285 49.1131C30.7655 49.3338 30.5742 49.7128 30.7921 49.8659C31.1205 49.7163 31.4069 48.9708 31.4943 48.7162C31.6415 48.2239 31.6892 47.7072 31.6347 47.1963C31.5872 46.5686 31.4445 45.9517 31.2112 45.3669C31.1383 45.1873 31.1473 45.2601 31.173 45.0768C31.2335 44.6622 31.2433 44.2511 31.2628 43.8455C31.2708 43.6906 31.2468 43.6674 31.2522 43.5285C31.3198 42.4146 31.2297 41.2966 30.9844 40.2079C30.4942 38.2912 29.6034 37.6701 29.2688 36.4901C29.2127 36.2908 29.1602 36.0988 29.0926 35.8781C28.9824 35.5222 28.9689 35.6129 29.2395 35.2783C29.9006 34.4614 30.8285 33.2869 30.713 32.2868C30.6612 31.8276 30.8686 30.8204 30.389 30.5197C30.2806 30.9364 30.2403 31.3678 30.2698 31.7973L30.2022 32.4522C30.0556 33.1574 29.721 33.8098 29.234 34.3404C29.0552 34.5629 28.9049 34.748 28.7179 34.9722C28.5598 35.1906 28.3893 35.3997 28.2073 35.5987L28.241 35.3228Z" fill="#3E3A39"/>
<path fill-rule="evenodd" clip-rule="evenodd" d="M43.1119 20.3596C42.998 20.363 42.8493 20.331 42.7184 20.3275C41.3023 20.3706 39.8982 20.0547 38.637 19.4093C38.8853 19.3504 39.139 19.317 39.3942 19.3096C39.6664 19.2846 39.8862 19.242 40.1577 19.2223C40.9132 19.1638 41.6732 19.2166 42.4134 19.379L44.6485 19.8951L43.1119 20.3596ZM46.1043 16.6169C45.7812 16.77 45.3692 16.9659 45.0472 17.1135C44.4074 17.5037 43.6699 17.7042 42.9205 17.6919C42.1807 17.7965 41.4623 18.0182 40.7921 18.3485C40.6222 18.4305 40.4557 18.4926 40.2565 18.5941C39.8979 18.7738 38.6494 18.8077 38.1449 18.9447C37.7881 19.0426 37.9625 18.9109 37.6706 18.7935C38.4127 18.6781 39.1267 18.4252 39.7759 18.0478C40.7408 17.4124 41.8345 16.9985 42.9783 16.8359C43.6777 16.7398 44.3822 16.6851 45.088 16.6721C45.2639 16.6709 45.4395 16.659 45.6139 16.6366C45.7753 16.6035 45.9409 16.5969 46.1043 16.6169ZM39.5374 20.4254C39.2319 20.3067 38.9185 20.2092 38.5996 20.1335C38.1138 20.0748 37.103 19.7741 36.2791 19.6779C36.1313 19.6602 35.9773 19.63 35.8066 19.6085C35.1831 19.5233 34.5532 19.4948 33.9246 19.5232C35.243 20.5772 36.8474 21.2114 38.5302 21.3436C40.3578 21.5838 39.4698 21.6177 40.9078 21.0198C41.0728 20.9636 41.2335 20.8952 41.3883 20.8152C41.0863 20.7457 40.7801 20.6958 40.4717 20.6656C40.155 20.6075 39.8428 20.5272 39.5374 20.4254ZM32.273 16.9427C32.1387 17.0869 32.2116 16.9783 32.2171 17.1028C32.635 17.1623 33.0566 17.1908 33.4787 17.1882C33.9169 17.1893 34.3505 17.277 34.7547 17.4462C35.2101 17.6516 35.6348 17.9193 36.0165 18.2417C36.3359 18.5016 37.006 18.9928 37.2622 19.258C37.0954 19.2495 36.9303 19.2195 36.7711 19.1689L34.8358 18.9021C34.3618 18.8806 33.8869 18.8882 33.4138 18.9251C32.3835 18.9643 30.1099 19.3985 29.5654 20.2865C29.7025 20.4359 29.8609 20.3525 30.0272 20.3044C30.7746 20.0076 31.5483 19.7817 32.3381 19.6299C32.6467 19.6132 32.9537 19.5733 33.2564 19.5106C33.4613 19.7691 33.6846 20.0124 33.9246 20.2386C34.9599 21.0688 36.2017 21.6016 37.5168 21.7798C37.9914 21.8701 38.4705 21.9348 38.9521 21.9736C38.87 22.1088 38.8987 22.0075 38.9101 22.1428C39.0009 22.1777 39.0979 22.1931 39.195 22.1879C39.2921 22.1826 39.387 22.157 39.4734 22.1125C40.0954 21.9079 40.8624 22.1712 41.019 21.8171C40.9541 21.7192 40.8553 21.7014 40.7503 21.6391C41.1465 21.4453 41.5684 21.3092 42.0032 21.235C42.6444 21.1161 43.2747 20.9447 43.8879 20.7226C44.1734 20.6264 44.2259 20.5642 44.4938 20.6834C44.9056 20.8667 45.2713 21.0412 45.6825 21.2209C46.2741 21.4934 46.8797 21.7346 47.4968 21.9434C47.9923 22.0903 48.4975 22.2027 49.0086 22.2798L49.32 22.3277C49.5737 22.3563 50.2935 22.4808 50.4982 22.2459C50.2953 21.9666 49.5185 21.8615 49.2105 21.7921C48.6981 21.6746 48.3786 21.5768 47.907 21.4434L45.2812 20.4272C45.5195 20.3786 45.7615 20.3506 46.0047 20.3436C46.3885 20.3027 46.7749 20.2919 47.1604 20.3115C48.4078 20.4022 49.642 20.6247 50.8426 20.9752C51.1371 21.0767 51.4414 21.114 51.7537 21.1995C51.9078 21.2421 52.0648 21.2731 52.2235 21.2921C52.2991 21.3181 52.3795 21.3264 52.4587 21.3165C52.538 21.3066 52.6139 21.2787 52.6808 21.235C52.26 20.9286 51.7828 20.7085 51.2767 20.5874C51.1316 20.5427 51.0516 20.5037 50.9146 20.4627C50.8025 20.4288 50.6939 20.4041 50.5756 20.3649C49.8867 20.1416 49.1809 19.9744 48.465 19.8648L47.051 19.7313C46.8148 19.7346 46.5785 19.7233 46.3436 19.6976C46.1896 19.6673 46.0972 19.6352 45.9779 19.6121C45.8622 19.5908 45.7537 19.5747 45.6389 19.5516C44.7046 19.3719 43.741 18.9981 42.8261 18.8255L41.4097 18.612C41.6353 18.5251 41.8689 18.4607 42.1072 18.4197C42.3573 18.3716 42.5227 18.3271 42.7666 18.2987L43.4552 18.2132C44.1537 18.1866 44.7686 18.1438 45.4538 18.1724L46.7894 18.2719C47.4654 18.3513 48.1365 18.4684 48.7996 18.6226L50.1253 19.0213C50.7127 19.2547 51.2671 19.564 51.7741 19.9414C51.9085 20.0321 51.9414 20.0837 52.0961 19.9859C52.0285 19.4858 51.0223 18.8664 50.6111 18.6546C50.066 18.3858 49.4923 18.1792 48.9009 18.0388L46.9424 17.6669C46.8785 17.658 46.7965 17.6474 46.7334 17.6403C46.3312 17.5959 45.8507 17.6172 45.4636 17.5424C45.9592 17.2928 46.4718 17.0787 46.9977 16.9017C47.4953 16.7044 48.0112 16.5566 48.5379 16.4604C49.2999 16.3041 50.0905 16.3652 50.8195 16.6366C50.9385 16.6784 51.0597 16.7141 51.1825 16.7434C51.8248 16.8591 51.4359 16.4622 50.9377 16.2076C50.7444 16.1113 50.5456 16.0263 50.3424 15.9532C49.5479 15.7558 48.7169 15.7589 47.9239 15.9621C47.7299 16.0048 47.5146 16.0742 47.3144 16.1365C47.0563 16.2165 46.9835 16.3215 46.7041 16.2752C46.3046 16.2231 45.9021 16.197 45.4992 16.197C44.2802 16.1407 43.0588 16.2315 41.8616 16.4675C40.5784 16.9359 39.336 17.5091 38.1468 18.1812C37.2755 18.4981 37.2863 18.5034 36.9384 18.224C36.262 17.5839 35.4539 17.0992 34.5706 16.8039C34.2736 16.7118 33.9591 16.6904 33.6524 16.7416C33.3836 16.7344 32.4706 16.7291 32.273 16.9427Z" fill="#3E3A39"/>
<path fill-rule="evenodd" clip-rule="evenodd" d="M40.8707 34.999C40.4619 34.749 40.0397 34.5214 39.6061 34.3173C39.1613 33.9227 38.7552 33.4865 38.3934 33.0147C37.7514 32.2432 37.2736 31.3488 36.9893 30.3862C38.4891 31.4028 39.7084 32.7812 40.5343 34.3939C40.6064 34.5149 40.8725 34.862 40.8707 34.999ZM37.443 30.0605C37.7847 30.3364 38.0881 30.5571 38.4165 30.8097C38.5561 30.9117 38.7155 30.9833 38.8845 31.0198L39.8696 31.3952C40.5603 31.735 41.2051 32.1607 41.7889 32.6623C41.9186 32.8097 42.0919 32.912 42.2837 32.9542C42.6831 33.0947 43.9502 33.6376 44.2215 33.6839L42.3948 32.0483C41.3332 31.1126 40.0414 30.4769 38.6523 30.2065C38.3318 30.1235 38.0196 30.0109 37.7199 29.8701C37.2909 29.6708 36.9091 29.3433 36.7757 29.2954C36.7072 29.6868 36.9501 29.6636 37.443 30.0605ZM37.08 32.9934L37.9458 33.3582C37.9174 33.2604 37.2918 32.4487 37.0844 32.0804C36.9492 31.8402 36.846 31.6498 36.7392 31.4344C36.6831 31.3223 36.66 31.2227 36.604 31.1106L35.0574 28.813C34.6022 28.2189 34.1092 27.6549 33.5814 27.1242C33.5623 27.4215 33.5902 27.72 33.6641 28.0086C33.7282 28.3162 33.8174 28.6179 33.931 28.9109C34.5025 30.2421 35.2736 31.4783 36.2179 32.577C36.3994 32.8279 36.7053 32.8456 37.08 32.9934ZM32.0001 25.1843C31.6727 24.9979 31.3264 24.847 30.967 24.7341C30.7731 24.6809 30.6235 24.6149 30.4491 24.5812C30.2658 24.5454 30.0826 24.4797 29.917 24.663C30.4026 25.0179 30.9316 25.3092 31.4911 25.5297C32.06 25.8407 32.5887 26.2201 33.0652 26.6597C33.1452 26.8233 33.1026 26.6579 33.0742 26.8573C33.0401 27.1534 33.0389 27.4524 33.0705 27.7488C33.3617 29.4858 34.1587 31.0983 35.3618 32.3847L35.3377 32.415C35.0441 32.7496 35.6643 32.7602 36.047 33.1697C36.2864 33.424 36.6707 33.8155 36.943 33.7925C36.9991 33.5664 36.9395 33.65 36.9047 33.4472C37.6125 33.7625 38.2858 34.1502 38.9138 34.604C39.8259 35.1645 40.0173 34.9296 40.2771 35.5862C40.5929 36.3853 40.9383 37.4478 41.3164 38.1738C41.4952 38.5323 41.694 38.8805 41.9118 39.2167C41.9571 39.2861 43.097 40.9964 43.355 40.7631C43.4706 40.5229 42.918 39.7809 42.7489 39.5176C42.4803 39.0993 42.2445 38.6614 42.03 38.2521L40.9497 35.7874C42.5049 37.0253 43.7676 38.5913 44.6478 40.3735C44.6478 40.3735 45.6373 42.1032 45.6355 41.4928C45.5515 41.1691 45.4318 40.8557 45.2787 40.5585C45.0963 40.1563 44.8641 39.7043 44.6469 39.3216C44.0298 38.1602 43.2475 37.0944 42.3245 36.1575C41.6466 35.4189 40.6463 33.0432 39.4985 31.7956C40.3921 32.2713 41.2144 32.8704 41.9411 33.5753L42.4954 34.1253C42.8094 34.4225 43.79 35.6361 44.0419 35.9831C44.7113 36.8685 45.2479 37.8469 45.6346 38.8873C45.8456 39.5049 45.8037 40.0833 46.0315 40.3343C46.0964 40.2845 46.1474 40.219 46.1796 40.1439C46.2119 40.0688 46.2243 39.9866 46.2157 39.9053C46.2417 39.5063 46.2005 39.1057 46.0938 38.7203C45.7278 37.5375 45.1501 36.431 44.3888 35.4546C43.9863 34.8928 43.5391 34.3643 43.0516 33.8743L44.0758 34.2694C44.653 34.5061 45.2136 34.7813 45.754 35.0933C47.5522 36.1806 47.6038 37.5884 47.9579 37.574C48.2613 37.503 47.8912 36.6576 47.8004 36.444C47.2273 35.3936 46.3143 34.569 45.2111 34.1056C44.8018 33.9277 44.994 33.9383 44.7138 33.6376C43.608 32.2704 42.2555 31.1229 40.7265 30.2545C40.3641 30.0689 39.9808 29.9273 39.5848 29.8328C39.4425 29.8007 39.3552 29.7651 39.2209 29.7296C38.4117 29.5984 37.636 29.31 36.9377 28.8806C36.5461 28.6617 36.6485 28.5728 36.6111 28.2222C36.5579 27.7059 36.4721 27.1936 36.354 26.6882C36.2268 26.1046 35.935 25.5697 35.513 25.147C35.1911 24.7825 34.8179 24.4666 34.4052 24.2092C34.2549 24.1309 34.1749 24.0864 34.0626 24.2324L34.528 24.7929C34.9364 25.107 35.2717 25.5059 35.5109 25.9622C35.7501 26.4185 35.8875 26.9212 35.9136 27.4357L36.1056 29.3043L35.53 28.4713C34.6095 27.1293 33.4042 26.007 32.0001 25.1843Z" fill="#3E3A39"/>
<path fill-rule="evenodd" clip-rule="evenodd" d="M13.8142 42.5374C13.834 42.3663 13.8821 42.1997 13.9565 42.0444C14.0154 41.879 14.0722 41.7454 14.1389 41.5515C14.2538 41.224 14.4015 40.9339 14.5145 40.594C15.1976 39.7012 15.7818 38.7369 16.2568 37.7181C16.739 36.2232 17.1305 36.346 17.7277 35.3263C17.7655 35.242 17.8322 35.174 17.9157 35.1346C17.9993 35.0951 18.0941 35.0868 18.1832 35.111C17.7524 35.6596 17.4386 36.2907 17.2613 36.9654C16.9908 38.3394 16.3695 39.62 15.4578 40.683C15.1917 41.0157 14.9336 41.2719 14.655 41.5994L13.8142 42.5374ZM12.4956 39.2273L13.9682 38.3285C14.5237 37.9871 15.0491 37.5989 15.5387 37.1682C16.0848 36.6081 16.5889 36.0086 17.0468 35.3744C16.584 35.4696 16.1406 35.6423 15.7353 35.8851C14.762 36.4364 13.8823 37.1386 13.129 37.9655L12.8274 38.5902C12.6952 38.7906 12.584 39.0041 12.4956 39.2273ZM14.0936 36.3052C14.4896 36.079 14.9114 35.6911 15.6526 35.2818C15.9365 35.1252 16.1927 35.0416 16.4267 34.9117C16.6678 34.7746 16.9668 34.5308 17.2125 34.3884C18.342 33.687 19.389 32.8608 20.334 31.9254C19.7241 31.94 19.1211 32.058 18.5506 32.2742C17.2101 32.8477 15.967 33.6264 14.866 34.5824C14.6916 34.7107 14.6862 34.7551 14.624 34.9758C14.4703 35.4278 14.2933 35.8715 14.0936 36.3052ZM15.035 33.7229C14.8482 33.3063 14.5901 34.0521 14.3543 34.3422C14.1577 34.5842 13.5953 34.9953 13.6728 35.2925C13.7765 35.3189 13.8865 35.3042 13.9797 35.2515C13.8491 35.6489 13.6641 36.0262 13.4299 36.3728C13.1931 36.7376 12.945 37.0775 12.7419 37.4565C12.6184 37.6878 12.3381 38.4174 12.1218 38.535C10.9639 38.9403 9.83199 39.4164 8.73244 39.9604C8.29289 40.2203 6.7625 41.1777 6.65206 41.6885C6.94765 41.829 7.6684 41.2685 7.92644 41.1047C8.33457 40.8424 8.75695 40.6029 9.19166 40.3875C9.3892 40.2897 11.4785 39.3501 11.6859 39.302C11.539 39.4443 11.3593 39.7076 11.2124 39.8733C10.2772 40.9151 9.17733 41.7965 7.95669 42.4822C7.56961 42.726 5.92168 43.5856 5.8291 43.9504C5.96086 44.0072 5.98747 43.993 6.14237 43.9433C6.88218 43.6564 7.59829 43.3118 8.28414 42.9128C9.15529 42.4312 9.97283 41.8586 10.723 41.2043C10.9214 41.0194 11.1448 40.7932 11.3504 40.6224C11.9482 40.2054 12.5701 39.8239 13.2127 39.4799C14.0794 39.015 14.9018 38.4717 15.6695 37.8569C15.2336 38.6841 14.6807 39.4442 14.0278 40.1135C12.4484 41.8873 10.4613 43.2505 8.23787 44.0856C8.02065 44.1319 7.22156 44.2013 7.14958 44.3952C7.24033 44.6106 7.69227 44.5678 7.87741 44.5678C10.0224 44.1394 11.9871 43.071 13.5126 41.5034C13.5197 41.6083 13.525 41.5016 13.5082 41.6031L12.8256 43.2402C12.4725 44.0927 11.918 44.8468 11.2097 45.4382C10.8886 45.7388 10.0538 45.9648 9.85718 46.3101C10.029 46.5148 10.1741 46.4204 10.3868 46.3706C10.5783 46.3215 10.7655 46.2565 10.9464 46.1765C11.769 45.7933 12.4528 45.1648 12.9039 44.3774C13.0224 44.1798 13.1246 44.0126 13.2145 43.8329C13.6061 43.0445 13.3675 43.4788 14.0608 42.8346C14.6568 42.2811 15.0636 41.9019 15.626 41.2969C16.6344 40.2862 17.3529 39.0232 17.7063 37.6399C17.8079 37.0963 17.9662 36.5648 18.1787 36.0542C18.3356 35.6889 18.5294 35.3406 18.7571 35.0148C19.0313 34.9684 19.3079 34.9369 19.5855 34.9206C20.4302 34.8606 21.2489 34.6028 21.9755 34.1678C22.2835 33.8813 23.37 32.931 23.3067 32.5074C23.2703 32.2671 22.9552 32.6445 22.8397 32.7529C22.6447 32.9344 22.4764 33.0467 22.3011 33.2103C21.7355 33.8169 20.9624 34.1885 20.1355 34.2514C19.8337 34.319 18.6335 34.3921 18.128 34.4739C19.4204 33.648 20.5754 32.6248 21.5511 31.4414C23.2489 29.1813 23.0826 27.505 22.498 28.6421C22.3422 28.9446 22.2221 29.2524 22.0841 29.5496C21.7543 30.1803 21.3562 30.773 20.897 31.3169C20.6087 31.5837 20.7877 31.3862 20.0821 31.3827L19.3701 31.4611C17.7553 31.8316 16.2627 32.6104 15.035 33.7229Z" fill="#3E3A39"/>
<path fill-rule="evenodd" clip-rule="evenodd" d="M16.6451 45.6019C16.8459 45.2824 17.0078 44.9401 17.1273 44.5821C17.1807 44.3811 17.2047 44.2494 17.2455 44.0607C17.3929 43.2128 17.4771 42.355 17.4974 41.4945C17.5065 41.4062 17.5229 41.3187 17.5464 41.233C17.5634 41.135 17.5554 41.0674 17.565 40.9714C17.6106 40.4508 17.7012 39.9352 17.8356 39.4302C18.08 38.5172 18.5941 37.6991 19.3108 37.0829C19.8624 36.6332 20.4861 36.28 21.1555 36.0383C21.1198 36.1788 20.9482 36.5187 20.8796 36.6807C20.4775 37.6399 20.0867 38.8358 19.7522 39.8432C19.3002 41.2028 18.995 42.235 18.4789 43.607L17.9298 44.8794C17.5781 45.2363 17.1328 45.4867 16.6451 45.6019ZM22.2019 35.4475L22.1912 35.4189L22.1813 35.3887C22.1227 35.168 22.4652 34.8121 22.5934 34.659C23.0455 34.1234 23.2838 34.287 23.3258 34.0379C23.4209 33.4685 22.2714 34.1981 21.6797 35.1288C21.3824 35.5969 21.118 35.5222 20.5815 35.7411C20.3163 35.8378 20.0582 35.9531 19.8092 36.0862C19.2921 36.3901 18.8171 36.7605 18.3962 37.1879C17.7704 37.8694 17.3422 38.7087 17.1575 39.6154C17.0929 39.8823 17.0427 40.1526 17.0072 40.425C17.0248 40.7098 16.9745 40.9947 16.8603 41.2562C16.7102 41.5121 16.5853 41.7821 16.4875 42.0622C15.9793 43.111 15.2272 44.0227 14.2941 44.721C14.0645 44.9346 13.7469 45.1873 13.4835 45.4293C13.2297 45.6681 12.9886 45.92 12.761 46.1839C12.5469 46.4252 12.3504 46.6816 12.1729 46.951C12.0421 47.1467 11.7396 47.5008 11.9183 47.7251C12.1897 47.6877 12.9657 46.764 13.1471 46.5415C13.3824 46.2863 13.6351 46.0478 13.9036 45.8278C13.996 45.7426 14.0219 45.7621 14.0886 45.6998L15.6342 44.3082C16.111 43.81 16.5129 43.2453 16.8275 42.6317C16.8736 42.7616 16.8585 42.6727 16.8569 42.8132C16.8551 42.8568 16.8503 42.9002 16.8426 42.9431C16.8296 43.0292 16.8219 43.116 16.8195 43.203C16.7883 43.5721 16.7366 43.9393 16.6646 44.3028C16.5607 44.8727 16.3167 45.4078 15.9544 45.8599C15.5616 46.0318 15.1925 46.2538 14.8565 46.5202C14.4132 46.9065 14.0136 47.3404 13.665 47.814C13.5156 48.0294 13.229 48.3212 13.4372 48.5613C13.8361 48.2597 14.2069 47.9226 14.5451 47.5541C15.1285 46.9943 15.816 46.5543 16.5686 46.2587C16.8193 46.1303 17.0872 46.0386 17.364 45.9864C16.9749 46.653 16.4854 47.2556 15.9127 47.773C15.4376 48.2144 14.7025 48.4156 14.2079 48.8302C14.3377 48.9654 14.3599 48.9601 14.5015 48.9441C14.7989 48.882 15.0856 48.7765 15.3522 48.6308C16.363 48.1632 17.201 47.3893 17.7475 46.4188C18.0206 45.9828 18.2431 45.5485 18.4718 45.1037C18.8428 44.3829 19.4657 42.6301 19.5725 42.4449C19.5774 42.6008 19.5691 42.7568 19.5475 42.9112C19.5386 43.0712 19.5441 43.1995 19.5271 43.3561C19.4959 43.6639 19.479 43.9345 19.4605 44.2477L19.3438 45.1623C19.315 45.4611 19.2701 45.7582 19.2095 46.0522C19.0825 46.6736 18.8755 47.276 18.5937 47.8443C18.31 48.3432 17.9373 48.7859 17.4939 49.1505L17.1967 49.4762C17.1362 49.5545 17.0588 49.6008 17.2066 49.6737C17.2705 49.7058 17.2625 49.6916 17.3363 49.6719C17.6265 49.5595 17.8939 49.3955 18.1257 49.1879C19.221 48.1558 19.877 46.7417 19.9577 45.2389C19.9855 45.0666 20.0414 44.9001 20.1232 44.746C20.2879 44.2851 20.8778 42.4557 20.9979 42.2598C21.0069 42.3542 21.0034 42.274 20.997 42.356L20.9766 42.7795C20.9108 43.3382 21.087 44.6444 21.0994 45.2815C21.1169 45.6055 21.1089 45.9304 21.0754 46.2532C20.7818 48.4243 19.165 49.5456 19.0805 50.1471C19.229 50.22 19.3607 50.1327 19.5031 50.0012C20.0902 49.4935 20.5997 48.9023 21.0149 48.2465C21.3569 47.6853 21.5742 47.057 21.6519 46.4044C21.6652 46.2889 21.7001 46.1981 21.7099 46.0932C21.7383 45.8843 21.7427 45.6729 21.7232 45.463C21.7056 45.3584 21.6963 45.2525 21.6955 45.1463C21.5629 44.1168 21.5275 43.077 21.5896 42.0409L21.8692 40.8148C21.9112 40.6089 21.9426 40.4011 21.9634 40.192C22.0892 39.978 22.2374 39.7781 22.4057 39.5957C22.7809 39.3364 23.1236 39.0329 23.4262 38.6916C23.2634 38.4657 23.0311 38.6027 22.8159 38.7113C21.8794 39.2397 21.1603 40.0826 20.7862 41.0906C20.545 41.609 20.3454 42.1458 20.1892 42.6958C20.1863 42.101 20.2146 41.5064 20.2737 40.9145C20.3514 40.3174 20.4619 39.725 20.6047 39.1401C20.9584 37.9213 21.4222 36.7371 21.9902 35.6022L22.2019 35.4475Z" fill="#3E3A39"/>
<path fill-rule="evenodd" clip-rule="evenodd" d="M46.1995 12.4475C45.7489 12.5333 45.3181 12.7016 44.9288 12.9439C43.6351 13.718 42.6731 14.9691 41.1525 15.8731C40.2162 16.4477 39.1121 16.6863 38.0221 16.5494C37.4051 16.4544 36.8042 16.2748 36.2362 16.0156C36.4294 15.9249 36.6714 15.8555 36.869 15.77C37.0665 15.6845 37.2595 15.6045 37.4838 15.5012C39.258 14.7005 42.885 12.7001 44.3824 12.1877C44.6984 12.0809 44.6868 12.0382 44.992 12.0577C45.4223 12.0763 45.8395 12.211 46.1995 12.4475ZM41.5235 10.1179C40.973 10.8805 40.2529 11.505 39.42 11.942C39.1128 12.1664 38.7915 12.3709 38.4582 12.5543C37.5017 12.7056 36.6884 12.3745 36.481 12.6077C36.6439 12.9813 37.4937 13.1094 37.7543 13.1309C38.4281 13.1549 39.1003 13.0517 39.7358 12.8266C40.1933 12.6762 40.6389 12.4917 41.0689 12.2748C41.2838 12.1553 41.5061 12.0495 41.7344 11.958L40.7343 12.8442C40.3802 13.1683 39.9975 13.4596 39.5908 13.7146C39.3497 13.8711 39.1024 14.0705 38.8469 14.2023C37.8817 14.7347 36.8796 15.1974 35.8483 15.5867C35.5093 15.7059 35.4435 15.7824 35.1099 15.6792C34.9336 15.8963 35.2593 15.7789 34.6818 15.907C34.3549 15.9914 34.0141 16.0072 33.6808 15.9533C33.5259 15.9017 33.5811 15.8286 33.4218 15.8518C33.1202 15.8946 33.0623 16.3305 34.2441 16.3768C34.9763 16.4071 35.4213 16.1491 35.6713 16.2648C36.2831 16.5801 36.9234 16.8369 37.5835 17.0318C37.9528 17.1166 38.3302 17.1608 38.7091 17.1635C39.94 17.1643 41.1347 16.7469 42.0974 15.9799C42.3057 15.8305 42.4773 15.6774 42.69 15.4941C42.8894 15.3233 43.0113 15.3749 43.2462 15.2894C43.6101 15.1595 43.9741 14.962 44.363 14.8625C44.7354 14.7651 45.1173 14.7084 45.5019 14.6934C46.6026 14.6524 47.753 14.8606 48.8351 14.809C49.0284 14.8132 49.2218 14.8025 49.4135 14.777C49.7818 14.711 50.8584 14.6844 51.0633 14.3303C50.9182 14.1202 50.2214 14.2039 49.9599 14.2164C49.1376 14.2554 48.3449 14.1826 47.5181 14.1523C46.3244 13.9615 45.1025 14.0567 43.9527 14.43C44.5258 13.7853 45.2382 13.2795 46.0359 12.9511C46.906 12.702 46.5091 12.6575 47.1961 12.88C47.5612 12.9916 47.938 13.0603 48.319 13.0847C49.0333 13.1394 49.7513 13.056 50.434 12.839C51.009 12.501 49.5799 12.5454 49.4428 12.5418C48.6434 12.572 47.8455 12.4494 47.0921 12.1806C46.7006 12.0388 46.3171 11.876 45.9433 11.6929C46.9928 11.3381 48.1269 11.3195 49.1875 11.6395L49.966 11.846C50.0093 11.8589 50.0537 11.8672 50.0987 11.871C50.1911 11.8673 50.1476 11.8886 50.2285 11.821L50.1377 11.6627C49.5286 11.262 48.8329 11.012 48.1082 10.933C46.034 10.9274 43.9944 11.4642 42.1918 12.4902L41.9363 12.5667C42.5863 11.9512 43.2702 11.3724 43.9848 10.8333C44.477 10.4398 45.0097 10.0998 45.5739 9.819C46.2871 9.40816 47.1132 9.23662 47.9311 9.32949C48.1224 9.33313 48.5503 9.37398 48.6953 9.24952C48.5878 8.96305 48.0094 8.89363 47.7628 8.86156C47.084 8.76169 46.3909 8.84903 45.7581 9.11427C45.0453 9.40995 44.3715 9.79188 43.7515 10.2514C43.4267 10.4595 43.0829 10.6364 42.7248 10.7799C42.0772 11.1485 41.4025 11.4674 40.7066 11.7339C42.1384 10.6786 42.8974 8.90783 44.6102 8.20477C45.1137 8.00769 45.6388 7.87091 46.1745 7.79729C46.3285 7.77069 46.5118 7.75994 46.6755 7.73862C46.8643 7.71548 47.01 7.68707 47.2023 7.65682C47.3501 7.63367 47.5974 7.6247 47.6819 7.47691C47.6291 7.41379 47.5612 7.36496 47.4846 7.33482C47.4079 7.30467 47.325 7.29417 47.2433 7.30434C46.797 7.25938 46.347 7.26595 45.9022 7.32386L44.9778 7.48403C43.5605 7.9439 42.3422 8.87288 41.5235 10.1179Z" fill="#3E3A39"/>
<path fill-rule="evenodd" clip-rule="evenodd" d="M35.0048 44.5289C34.9318 44.2993 34.9139 44.1409 34.8188 43.8987C34.1684 42.2402 31.926 40.562 31.2444 38.85C31.0808 38.4502 30.9672 38.0318 30.9062 37.6042L30.8645 36.6824C30.9271 36.1682 31.0407 35.6615 31.2035 35.1698C31.2853 34.9473 31.337 34.7765 31.4294 34.5842C31.5295 34.7872 31.6149 34.9972 31.6849 35.2124C32.2258 36.5881 33.1745 38.2539 33.8116 39.5762C34.0224 40.0139 34.2243 40.4161 34.4379 40.8343C34.6471 41.2436 34.8231 41.6671 35.0119 42.0924C35.2263 42.4769 35.3553 42.903 35.3901 43.3418C35.3802 43.7666 35.2463 44.1793 35.0048 44.5289ZM31.7791 33.4329C31.6136 33.3403 31.5958 33.5734 31.4988 32.7103C31.4836 32.5708 31.4759 32.4306 31.4757 32.2903C31.4742 32.22 31.479 32.1498 31.4899 32.0803C31.5266 31.9023 31.5282 32.0109 31.5861 31.8739C31.6858 31.6408 31.3387 31.2581 31.143 32.0146C31.0311 32.5815 31.0512 33.1667 31.2016 33.7247C31.2738 34.045 31.1794 33.9898 30.9204 34.554C30.416 35.4886 30.2024 36.5528 30.3073 37.6097C30.4121 38.6667 30.8305 39.6681 31.5087 40.4855C31.692 40.7311 32.0408 41.0354 32.1048 41.3522C32.1844 41.6456 32.2899 41.9314 32.4199 42.2063C32.5301 42.4812 32.6158 42.7653 32.6761 43.0553L32.7865 44.349C32.792 44.6999 32.7672 45.0506 32.7125 45.3972L32.6637 46.4454C32.6038 47.3048 32.6786 48.1682 32.8853 49.0045C33.0178 49.4975 33.2242 49.5811 33.2616 49.0169L33.227 48.1486C33.1548 46.6661 33.4387 45.1891 33.3684 43.9486C33.3515 43.6653 33.3155 43.3835 33.2607 43.1051C33.1727 42.6264 33.0934 42.5551 33.0311 42.2723C33.7898 42.9671 34.3471 43.8536 34.6444 44.8385C34.7565 45.1855 34.7546 45.0734 34.5545 45.6482C34.3116 46.3457 34.2644 48.7128 34.7867 48.928C34.9496 48.7483 34.9175 47.9866 34.9068 47.7641C34.863 46.9813 34.9837 46.1981 35.261 45.4648C35.3272 45.2694 35.4075 45.0791 35.5012 44.8953C35.584 44.712 35.6587 44.4931 35.762 44.3134C35.8837 44.6693 35.9617 45.0386 35.9942 45.4132C36.1117 46.1247 36.0505 46.8543 35.8163 47.5363C35.7602 47.7356 35.729 47.8621 35.6873 48.056C35.6259 48.3424 35.5315 48.4458 35.6169 48.5792C36.0219 48.4208 36.2852 47.5115 36.4026 47.0843C36.4498 46.9134 36.5041 46.7158 36.5343 46.5629C36.5922 45.6751 36.4989 44.7839 36.2584 43.9273C36.0115 43.0152 35.692 42.1243 35.3028 41.2632C35.1827 40.9908 34.8811 40.4339 34.8188 40.2043C35.3002 40.6599 35.8642 41.4251 36.3164 41.943C37.2074 42.9139 37.8289 44.1012 38.119 45.3867C38.2107 45.9756 37.998 46.8904 38.2205 47.0541C38.3021 46.9978 38.3701 46.924 38.4195 46.8381C38.4689 46.7522 38.4985 46.6563 38.5061 46.5575C38.6467 45.7452 38.5961 44.9114 38.3582 44.1221C38.1204 43.3329 37.7019 42.6099 37.1358 42.0106C36.972 41.7881 35.9167 39.4817 35.6507 38.987C35.7157 39.0404 35.9453 39.327 36.0565 39.448C37.1225 40.3324 38.0964 41.3221 38.9635 42.4022C39.4277 43.2499 39.6902 44.1932 39.7305 45.1589C39.747 45.4718 39.8269 45.7781 39.9654 46.0592C40.0492 45.9599 40.1101 45.8435 40.1439 45.718C40.1777 45.5926 40.1836 45.4612 40.1611 45.3332C40.2512 44.3896 40.0961 43.4387 39.7109 42.5726C39.3257 41.7065 38.7235 40.9545 37.9625 40.3894C36.8091 39.6287 35.874 38.5804 35.2494 37.348C35.1648 37.2164 34.995 37.0562 34.946 36.96C34.8302 36.4965 34.8144 36.0136 34.8997 35.5435C34.9095 35.4669 34.9042 35.4367 34.9114 35.3602C34.9246 35.2053 35.0083 35.0293 34.8722 34.8228C34.5873 34.9314 34.5483 35.1876 34.4647 35.4225C34.2205 36.5069 34.3496 37.6419 34.8312 38.6436C34.9274 38.8909 35.0119 39.0619 35.1284 39.3127C35.2579 39.5169 35.3526 39.7412 35.4086 39.9765C34.0159 38.5572 32.9237 36.8715 32.1974 35.0203C32.0745 34.7534 31.9838 34.5114 31.8806 34.2231C31.7436 33.844 31.6778 33.7959 31.7791 33.4329Z" fill="#3E3A39"/>
<path fill-rule="evenodd" clip-rule="evenodd" d="M38.7076 28.1119C38.2755 27.5718 37.9325 26.9662 37.6915 26.3179L37.7946 26.3429C37.8205 26.3517 37.8551 26.3713 37.8721 26.3784C37.9388 26.4087 37.953 26.4158 38.0295 26.4461L40.2309 27.2789C40.6232 27.4285 41.1127 27.5921 41.5034 27.7042C43.2261 28.2057 44.9136 28.8211 46.5547 29.5462C46.8996 29.896 47.1379 30.3367 47.2418 30.8168C47.0523 30.7315 46.9045 30.596 46.7363 30.5142C46.3183 30.3414 45.8818 30.2173 45.4355 30.1441C45.1516 30.0836 43.274 29.9502 42.8684 29.9306L42.3443 29.8682C42.259 29.8472 42.172 29.8336 42.0844 29.8274C41.74 29.7815 41.3996 29.7089 41.0665 29.6102C40.1418 29.372 39.3162 28.8476 38.7076 28.1119ZM35.9519 24.4867C35.7871 24.3105 36.0124 24.316 35.7748 24.1734C35.6689 24.1095 35.5282 24.1148 35.4998 24.2608C35.4695 24.4155 35.7 24.7642 35.8192 24.9352C36.2125 25.3213 36.633 25.6787 37.0774 26.0047L37.5918 27.368C37.8388 27.8659 38.1479 28.3305 38.5119 28.7506C39.4131 29.702 40.6265 30.2977 41.9304 30.4288C42.8532 30.5411 42.5125 30.3827 43.0249 30.6692C43.5054 30.9378 44.0243 31.0695 44.4941 31.3738C45.1697 31.8578 45.7769 32.4307 46.2994 33.077C46.7649 33.663 47.2805 34.2073 47.8406 34.7036C48.128 34.9491 49.0499 35.7464 49.3684 35.5614C49.3666 35.4296 49.3799 35.4546 49.2715 35.337C48.9147 34.9527 48.5721 34.691 48.2143 34.3404C47.2697 33.1957 46.2402 32.1237 45.1346 31.1336C44.85 30.9272 44.4664 30.7688 44.2814 30.6247C44.8202 30.6154 45.3583 30.6668 45.8856 30.7778C46.4484 30.8962 46.9841 31.1189 47.465 31.4343C47.9731 32.508 48.7898 33.4058 49.8107 34.013C49.9744 34.1037 50.0731 34.1589 50.195 34.0505C50.1416 33.762 49.1539 32.8563 48.8771 32.5573C48.3337 31.8138 47.8996 30.9964 47.5878 30.1299L47.8005 30.1904C48.4159 30.5659 48.9722 31.0307 49.4512 31.5695C49.8302 31.9788 50.1025 32.7958 50.4932 33.2585C50.7618 32.9666 50.397 32.3687 50.2565 32.0696C49.5087 30.6503 48.2649 29.5557 46.7621 28.9944C46.3194 28.7631 45.8623 28.5604 45.3936 28.3876L44.0839 27.8715L44.9114 27.9231C45.3598 27.9357 45.7868 27.998 46.2211 28.0477C46.9461 28.0998 47.6637 28.2262 48.3629 28.425C48.6539 28.5092 48.9403 28.609 49.2206 28.724C50.2448 29.1777 50.4371 29.6867 51.2236 30.3293C51.4506 30.2598 51.2245 29.8843 51.1454 29.7562C50.6189 28.8926 49.7942 28.2519 48.8274 27.9551C47.9616 27.6242 47.1199 27.6348 46.3547 27.3217C45.6819 27.0458 44.9833 26.8375 44.3054 26.6134C44.1637 26.5815 44.0269 26.5306 43.8987 26.4621C44.0706 26.4583 44.2425 26.4679 44.413 26.4906L45.4123 26.4639C46.2423 26.375 47.0778 26.3481 47.9118 26.3837C49.0134 26.5357 50.0418 27.0221 50.858 27.7773C51.0315 27.9125 51.6106 28.3912 51.802 28.361C51.8563 28.2577 51.7779 28.1119 51.6952 28.0032C51.6026 27.8822 51.455 27.7416 51.3491 27.626C50.4377 26.5614 49.1458 25.8958 47.7498 25.7717C46.5004 25.7272 45.9266 25.8819 44.8286 25.905C44.3365 25.9336 43.8428 25.899 43.3595 25.8019C43.0916 25.7432 42.903 25.6791 42.6317 25.6204C41.9607 25.4708 41.748 25.5741 41.1936 24.992C40.8849 24.67 40.7062 24.2305 40.3244 24.0293C40.1321 24.2092 40.2541 24.4315 40.3574 24.6309C40.8632 25.5555 41.6841 26.2679 42.6708 26.6383L44.2743 27.2699C43.9621 27.3249 43.6418 27.3147 43.3338 27.2397C43.1709 27.2024 42.6637 27.1936 42.4439 27.1721C41.8351 27.0978 41.2334 26.9741 40.6448 26.802C40.3457 26.7023 40.0352 26.5866 39.7336 26.5031C39.1209 26.3241 38.5232 26.0974 37.9459 25.825C36.985 25.3837 37.3631 25.4691 37.122 25.275C37.0169 25.1896 37.0551 25.4121 36.6816 25.138C36.4149 24.9486 36.1702 24.7302 35.9519 24.4867Z" fill="#3E3A39"/>
<path fill-rule="evenodd" clip-rule="evenodd" d="M45.24 44.0498L45.71 43.6137C45.7402 43.5106 45.8638 43.4375 45.9538 43.3147C46.2082 42.9677 46.0205 42.852 45.6983 43.0248C45.1556 43.3183 42.0509 45.8543 41.4967 46.3454C41.2289 46.584 40.8061 46.8065 40.7002 47.2708C40.8968 47.5004 41.0483 47.3686 41.2573 47.2158C41.4512 47.0732 41.632 46.9328 41.8401 46.7762L45.24 44.0498Z" fill="#3E3A39"/>
<path fill-rule="evenodd" clip-rule="evenodd" d="M3.50781 42.0676C3.57687 42.0783 3.64752 42.0714 3.71316 42.0474C3.77881 42.0234 3.83729 41.9832 3.8832 41.9305C3.89309 41.9168 3.8999 41.9011 3.90311 41.8845C3.90632 41.8679 3.90589 41.8508 3.90183 41.8343C3.89778 41.8179 3.89019 41.8025 3.87961 41.7893C3.86904 41.7761 3.85572 41.7654 3.84057 41.7578L3.50781 42.0676Z" fill="#3E3A39"/>
<path fill-rule="evenodd" clip-rule="evenodd" d="M27.0535 26.3621C27.4097 26.7459 27.7988 27.0979 28.2163 27.414C28.5598 27.5652 28.5323 27.2359 28.3962 27.0242C27.7041 26.1187 26.9316 25.2776 26.088 24.5114C25.91 24.3654 25.7855 24.2426 25.5932 24.3691C25.4828 24.6111 25.7516 24.8352 25.9207 25.0648C26.2737 25.5181 26.6519 25.9512 27.0535 26.3621Z" fill="#3E3A39"/>
<path fill-rule="evenodd" clip-rule="evenodd" d="M52.2692 24.3905C52.1196 24.8193 53.0523 25.4209 52.948 26.3055C52.8454 26.7702 52.8077 27.2468 52.836 27.7219C52.8628 27.85 52.9792 28.0565 53.135 27.8608C53.2669 27.5621 53.3616 27.2483 53.4171 26.9265C53.5573 26.6159 53.6068 26.272 53.5601 25.9345C53.5133 25.5969 53.3721 25.2795 53.1527 25.0187C53.0244 24.8428 52.8784 24.6806 52.7168 24.5347C52.5379 24.378 52.4454 24.3032 52.2692 24.3905Z" fill="#3E3A39"/>
<path fill-rule="evenodd" clip-rule="evenodd" d="M46.468 4.01368C45.7988 3.75035 44.7532 4.24513 45.1386 4.53689C45.418 4.747 45.8976 4.22017 46.7304 4.87329C46.9697 5.06008 47.0685 5.19712 47.3435 5.12077C47.5055 4.70601 46.8079 4.1489 46.468 4.01368Z" fill="#3E3A39"/>
<path fill-rule="evenodd" clip-rule="evenodd" d="M13.3845 49.9048C13.563 49.9631 13.747 50.0031 13.9336 50.0241C14.2432 50.0489 14.2441 50.0455 14.3099 49.7606C14.1355 49.5241 14.0527 49.5365 13.8231 49.435C13.3528 49.2169 12.8686 49.0303 12.3737 48.8762C12.1317 49.0845 12.0934 49.1004 12.3113 49.3353C12.6347 49.5837 12.9975 49.7762 13.3845 49.9048Z" fill="#3E3A39"/>
<path fill-rule="evenodd" clip-rule="evenodd" d="M45.2822 3.26277C45.4557 3.31434 45.5811 3.22195 45.5527 3.01001L45.2822 3.26277Z" fill="#3E3A39"/>
<path fill-rule="evenodd" clip-rule="evenodd" d="M46.6224 42.7651L47.1937 42.2348C47.2659 42.0478 47.49 41.9056 47.3807 41.7044C47.1021 41.1901 46.6918 41.8468 46.4544 42.1796C46.2016 42.5302 46.1357 42.8238 46.6224 42.7651Z" fill="#3E3A39"/>
<path fill-rule="evenodd" clip-rule="evenodd" d="M53.0397 29.2117C53.0157 29.144 52.9684 29.087 52.9064 29.0508C52.8443 29.0146 52.7714 29.0017 52.7007 29.0141C52.3341 29.0497 52.3599 29.9822 52.3847 30.0979C52.4578 30.452 52.8483 30.347 52.9329 29.959C53.0002 29.7155 53.0361 29.4643 53.0397 29.2117Z" fill="#3E3A39"/>
<path fill-rule="evenodd" clip-rule="evenodd" d="M15.8536 51.117C16.7932 51.6171 17.1768 51.044 16.6926 50.7859C16.4598 50.6859 16.2152 50.6159 15.9647 50.5778C15.6292 50.5546 15.4486 50.9016 15.8536 51.117Z" fill="#3E3A39"/>
<path fill-rule="evenodd" clip-rule="evenodd" d="M27.9831 22.5148C27.9741 22.4447 27.945 22.3787 27.8994 22.3248C27.8538 22.2708 27.7936 22.2311 27.726 22.2105C27.5562 22.1441 27.3679 22.1418 27.1965 22.204C27.0251 22.2662 26.8822 22.3886 26.7944 22.5485C26.6824 23.0717 27.3114 22.7923 27.6788 22.7336C27.7441 22.7265 27.8064 22.7026 27.8598 22.6642C27.9131 22.6259 27.9556 22.5744 27.9831 22.5148Z" fill="#3E3A39"/>
<path fill-rule="evenodd" clip-rule="evenodd" d="M26.8369 23.6558C26.8601 23.8071 26.8156 23.9245 27.023 24.0205C27.3619 24.179 28.2419 24.0118 27.9287 23.6735C27.7835 23.5315 27.5894 23.4504 27.3863 23.4471C27.1832 23.4438 26.9866 23.5185 26.8369 23.6558Z" fill="#3E3A39"/>
<path fill-rule="evenodd" clip-rule="evenodd" d="M26.7723 20.8899C26.1646 21.0091 25.8859 21.6248 26.1832 21.8366C26.3807 21.9773 26.6477 21.6569 26.798 21.4665C27.0054 21.203 27.0393 21.1248 26.7723 20.8899Z" fill="#3E3A39"/>
<path fill-rule="evenodd" clip-rule="evenodd" d="M25.2837 25.8267C25.2658 25.7721 25.2315 25.7242 25.1855 25.6897C25.1395 25.6552 25.084 25.6357 25.0265 25.6337C24.969 25.6318 24.9123 25.6475 24.8641 25.6789C24.8159 25.7102 24.7784 25.7556 24.7568 25.8089C24.7011 26.0182 24.7203 26.2404 24.8112 26.437C25.2152 27.092 25.4856 26.2894 25.2837 25.8267Z" fill="#3E3A39"/>
<path fill-rule="evenodd" clip-rule="evenodd" d="M22.8756 26.3888C23.1692 26.7037 23.7192 26.024 23.51 25.7996C23.1843 25.449 22.6077 26.1021 22.8756 26.3888Z" fill="#3E3A39"/>
<path fill-rule="evenodd" clip-rule="evenodd" d="M48.5568 5.71682L48.376 5.52295C48.2087 5.5417 48.0549 5.62377 47.9463 5.75235C47.9466 5.81317 47.961 5.87309 47.9884 5.92742C48.0157 5.98176 48.0552 6.02906 48.1038 6.06562C48.4063 6.02826 48.513 5.957 48.5568 5.71682Z" fill="#3E3A39"/>
<path fill-rule="evenodd" clip-rule="evenodd" d="M2.76224 44.418C2.86252 44.5281 2.9401 44.6569 2.99054 44.797C3.04098 44.9371 3.06331 45.0857 3.05622 45.2345C3.04912 45.3832 3.01275 45.5291 2.94922 45.6637C2.88568 45.7984 2.7962 45.9192 2.68592 46.0193C2.57563 46.1193 2.4467 46.1966 2.3065 46.2468C2.16629 46.2969 2.01757 46.319 1.86885 46.3116C1.72013 46.3042 1.57433 46.2675 1.43979 46.2037C1.30526 46.1399 1.1846 46.0501 1.08479 45.9396C0.552578 45.3173 0.199438 44.562 0.0630918 43.7546C-0.0732544 42.9471 0.0123353 42.1178 0.310681 41.3552C1.08043 39.4261 13.8857 27.5615 25.9594 16.3713C26.4285 15.9388 26.957 15.4475 31.4069 11.3135C38.0814 5.11325 41.7198 2.17167 43.874 0.933033C46.6964 -0.689933 47.581 0.0931147 48.5579 1.1056C48.7659 1.32246 48.8791 1.61307 48.8728 1.91344C48.8665 2.2138 48.7411 2.49934 48.5242 2.70726C48.3074 2.91518 48.0168 3.02846 47.7164 3.02214C47.416 3.01582 47.1305 2.89042 46.9226 2.67356C46.6245 2.36394 46.3396 2.13248 45.0077 2.89768C40.6899 5.88247 36.6552 9.25721 32.9543 12.9794C32.0414 13.8282 30.7315 15.0366 27.5015 18.0316C15.6109 29.0492 3.0006 40.736 2.416 42.1988C2.26599 42.5651 2.21897 42.9655 2.28 43.3566C2.34102 43.7478 2.50777 44.1148 2.76224 44.418Z" fill="#3E3A39"/>
</g>
</svg>
