<svg width="72" height="72" viewBox="0 0 72 72" fill="none" xmlns="http://www.w3.org/2000/svg">
<path d="M63.0007 6.75002H43.446L41.5132 2.87214C41.4194 2.68427 41.2748 2.52643 41.0958 2.41648C40.9169 2.30653 40.7107 2.24887 40.5007 2.25002H31.5007C31.2917 2.24992 31.0867 2.30808 30.9089 2.41797C30.731 2.52786 30.5873 2.68513 30.4939 2.87214L28.5555 6.75002H9.00073C7.21107 6.7518 5.49522 7.46354 4.22974 8.72902C2.96425 9.9945 2.25252 11.7104 2.25073 13.5V41.625C2.2659 43.7251 3.11327 45.7335 4.60702 47.2097C6.10077 48.686 8.11899 49.5096 10.2191 49.5H61.8757C63.9309 49.3967 65.8744 48.5338 67.3295 47.0788C68.7845 45.6237 69.6474 43.6802 69.7507 41.625V13.5C69.803 12.5999 69.6643 11.6989 69.3436 10.8563C69.0229 10.0136 68.5275 9.24838 67.8899 8.61084C67.2524 7.9733 66.4871 7.47789 65.6445 7.15718C64.8018 6.83646 63.9008 6.6977 63.0007 6.75002ZM32.196 4.50002H39.8055L40.9305 6.75002H31.071L32.196 4.50002ZM67.5007 41.625C67.4093 43.0869 66.7873 44.4651 65.7516 45.5009C64.7159 46.5366 63.3376 47.1586 61.8757 47.25H10.2191C9.47211 47.2642 8.7298 47.1292 8.0357 46.8527C7.34161 46.5762 6.70971 46.1639 6.17708 45.64C5.64445 45.1161 5.22181 44.491 4.93394 43.8016C4.64608 43.1121 4.4988 42.3721 4.50073 41.625V13.5C4.50073 12.3065 4.97484 11.1619 5.81875 10.318C6.66267 9.47412 7.80726 9.00002 9.00073 9.00002H63.0007C63.6057 8.94366 64.2157 9.02136 64.7873 9.22758C65.3589 9.4338 65.878 9.76347 66.3076 10.1931C66.7373 10.6228 67.067 11.1419 67.2732 11.7134C67.4794 12.285 67.5571 12.895 67.5007 13.5V41.625Z" fill="url(#paint0_linear)"/>
<path d="M61.7895 12.6213C61.3643 12.1816 60.8538 11.8332 60.2894 11.5974C59.725 11.3617 59.1184 11.2434 58.5068 11.2499H13.5C12.9109 11.2395 12.3258 11.3495 11.7807 11.5733C11.2356 11.7971 10.7419 12.1298 10.3301 12.5512C9.91816 12.9726 9.59671 13.4737 9.3854 14.0237C9.1741 14.5738 9.0774 15.1612 9.10125 15.7499L9 40.4999C8.99987 41.0989 9.11932 41.6919 9.35135 42.2441C9.58338 42.7963 9.92333 43.2967 10.3513 43.7158C10.7792 44.1349 11.2865 44.4644 11.8434 44.6849C12.4003 44.9054 12.9956 45.0125 13.5945 44.9999H58.5C59.6935 44.9999 60.8381 44.5258 61.682 43.6819C62.5259 42.838 63 41.6934 63 40.4999V15.7938C63.0246 15.2105 62.9299 14.6283 62.7217 14.0828C62.5136 13.5373 62.1964 13.04 61.7895 12.6213ZM60.75 40.4999C60.75 41.0967 60.5129 41.669 60.091 42.0909C59.669 42.5129 59.0967 42.7499 58.5 42.7499H13.5945C13.292 42.7594 12.9906 42.7084 12.7081 42.5998C12.4256 42.4913 12.1676 42.3274 11.9492 42.1178C11.7309 41.9083 11.5565 41.6572 11.4365 41.3794C11.3164 41.1016 11.253 40.8026 11.25 40.4999L11.3501 15.7016C11.3325 15.4123 11.3756 15.1225 11.4767 14.8508C11.5778 14.5792 11.7347 14.3317 11.9372 14.1244C12.1397 13.917 12.3834 13.7543 12.6525 13.6468C12.9217 13.5392 13.2104 13.4892 13.5 13.4999H58.5068C58.8152 13.4947 59.1216 13.5524 59.407 13.6694C59.6925 13.7864 59.9512 13.9603 60.1672 14.1806C60.3669 14.3882 60.5217 14.6346 60.6219 14.9046C60.7222 15.1746 60.7658 15.4624 60.75 15.7499V40.4999Z" fill="url(#paint1_linear)"/>
<path d="M14.625 63H7.875V65.25H14.625V63Z" fill="url(#paint2_linear)"/>
<path d="M60.75 63H51.75V65.25H60.75V63Z" fill="url(#paint3_linear)"/>
<path d="M65.2208 65.529L69.6825 53.2598C69.7444 53.0898 69.7644 52.9074 69.7407 52.7281C69.7171 52.5487 69.6506 52.3777 69.5468 52.2296C69.443 52.0814 69.3051 51.9605 69.1446 51.877C68.9841 51.7935 68.8059 51.75 68.625 51.75H3.37503C3.21827 51.7494 3.0631 51.7815 2.91948 51.8443C2.77586 51.9071 2.64695 51.9993 2.54103 52.1148C2.43511 52.2304 2.35451 52.3668 2.30439 52.5154C2.25428 52.6639 2.23576 52.8213 2.25003 52.9774L3.38628 65.4098C3.74178 67.8938 6.64316 69.75 9.00003 69.75H22.5C24.8569 69.75 27.7583 67.8938 28.125 65.3524L28.6875 59.1885L30.4043 65.4806C30.8037 68.1559 32.4743 69.75 34.875 69.75H60.75C63.1373 69.75 64.8 68.175 65.2208 65.529ZM25.8863 65.0903C25.7097 66.3323 23.8287 67.5 22.5 67.5H9.00003C7.67141 67.5 5.79041 66.3323 5.62503 65.1476L5.01641 58.5H26.4848L25.8863 65.0903ZM26.6884 56.25H4.81166L4.61253 54H26.8988L26.6884 56.25ZM30.2119 56.25L29.5977 54H67.0185L66.2007 56.25H30.2119ZM32.6138 65.0903C32.607 65.0441 30.825 58.5 30.825 58.5H65.3828C65.3828 58.5 63.0203 65.0138 63.0113 65.0903C62.7829 66.6889 62.0224 67.5 60.75 67.5H34.875C33.6027 67.5 32.8422 66.6889 32.6138 65.0903Z" fill="url(#paint4_linear)"/>
<path d="M43.6859 30.8758C43.5203 30.6275 43.2629 30.4552 42.9702 30.3968C42.6776 30.3384 42.3737 30.3985 42.1255 30.5641C41.8773 30.7297 41.705 30.9872 41.6465 31.2798C41.5881 31.5724 41.6483 31.8763 41.8139 32.1245L42.8973 33.7501H37.5906L37.9203 33.4205C38.1252 33.2083 38.2386 32.9242 38.236 32.6292C38.2335 32.3342 38.1151 32.0521 37.9066 31.8435C37.698 31.6349 37.4158 31.5166 37.1208 31.514C36.8259 31.5114 36.5417 31.6248 36.3295 31.8298L34.0795 34.0798C33.8686 34.2907 33.7501 34.5768 33.7501 34.8751C33.7501 35.1735 33.8686 35.4596 34.0795 35.6705L36.3295 37.9205C36.5417 38.1255 36.8259 38.2388 37.1208 38.2363C37.4158 38.2337 37.698 38.1154 37.9066 37.9068C38.1151 37.6982 38.2335 37.4161 38.236 37.1211C38.2386 36.8261 38.1252 36.542 37.9203 36.3298L37.5906 36.0001H44.9999C45.2036 36.0002 45.4034 35.9449 45.5781 35.8403C45.7529 35.7356 45.8959 35.5855 45.992 35.4059C46.0881 35.2263 46.1336 35.024 46.1237 34.8206C46.1138 34.6171 46.0489 34.4202 45.9359 34.2508L43.6859 30.8758Z" fill="url(#paint5_linear)"/>
<path d="M34.686 23.1244L35.9235 21.2636L38.5616 25.875H37.125C36.8266 25.875 36.5405 25.9935 36.3295 26.2045C36.1185 26.4155 36 26.7016 36 27C36 27.2984 36.1185 27.5845 36.3295 27.7955C36.5405 28.0065 36.8266 28.125 37.125 28.125H40.5C40.7362 28.1251 40.9665 28.0508 41.1581 27.9127C41.3497 27.7745 41.493 27.5796 41.5676 27.3555L42.6926 23.9805C42.7869 23.6971 42.7647 23.3878 42.631 23.1207C42.4972 22.8536 42.2628 22.6505 41.9794 22.5563C41.6959 22.462 41.3866 22.4842 41.1195 22.6179C40.8524 22.7517 40.6494 22.9861 40.5551 23.2695L40.2266 24.2573L36.9765 18.5625C36.8809 18.3967 36.7445 18.258 36.5804 18.1595C36.4162 18.0611 36.2296 18.0062 36.0383 18C35.8456 17.9849 35.6524 18.0236 35.4804 18.1118C35.3084 18.2 35.1642 18.3342 35.064 18.4995L32.814 21.8745C32.732 21.9974 32.675 22.1353 32.6463 22.2802C32.6176 22.4252 32.6177 22.5743 32.6467 22.7192C32.6756 22.8641 32.7328 23.0019 32.815 23.1247C32.8972 23.2475 33.0027 23.3529 33.1256 23.4349C33.2486 23.5169 33.3864 23.5739 33.5314 23.6026C33.6763 23.6313 33.8255 23.6312 33.9704 23.6022C34.1153 23.5733 34.253 23.5161 34.3758 23.4339C34.4986 23.3517 34.604 23.2462 34.686 23.1233V23.1244Z" fill="url(#paint6_linear)"/>
<path d="M32.5676 26.6445C32.493 26.4204 32.3497 26.2255 32.1581 26.0874C31.9665 25.9492 31.7362 25.8749 31.5 25.875H28.125C27.8267 25.875 27.5405 25.9935 27.3295 26.2045C27.1186 26.4155 27 26.7016 27 27C27 27.2984 27.1186 27.5845 27.3295 27.7955C27.5405 28.0065 27.8267 28.125 28.125 28.125H29.5617L26.0235 34.3125C25.9247 34.4837 25.8727 34.6779 25.8728 34.8756C25.8729 35.0732 25.9251 35.2674 26.0241 35.4385C26.1231 35.6096 26.2654 35.7515 26.4367 35.8501C26.6081 35.9487 26.8024 36.0004 27 36H30.375C30.6734 36 30.9595 35.8815 31.1705 35.6705C31.3815 35.4595 31.5 35.1734 31.5 34.875C31.5 34.5766 31.3815 34.2905 31.1705 34.0795C30.9595 33.8685 30.6734 33.75 30.375 33.75H28.9384L31.2289 29.7428L31.5574 30.7305C31.6517 31.014 31.8547 31.2483 32.1218 31.3821C32.3889 31.5159 32.6982 31.538 32.9816 31.4438C33.2651 31.3495 33.4995 31.1464 33.6332 30.8793C33.767 30.6122 33.7892 30.303 33.6949 30.0195L32.5676 26.6445Z" fill="url(#paint7_linear)"/>
<defs>
<linearGradient id="paint0_linear" x1="32.7656" y1="2.25001" x2="71.1758" y2="4.4933" gradientUnits="userSpaceOnUse">
<stop stop-color="#F2B5C9"/>
<stop offset="1" stop-color="#EF95B2"/>
</linearGradient>
<linearGradient id="paint1_linear" x1="33.4097" y1="11.2493" x2="64.1087" y2="13.2571" gradientUnits="userSpaceOnUse">
<stop stop-color="#F2B5C9"/>
<stop offset="1" stop-color="#EF95B2"/>
</linearGradient>
<linearGradient id="paint2_linear" x1="10.926" y1="63" x2="14.7224" y2="63.4655" gradientUnits="userSpaceOnUse">
<stop stop-color="#F2B5C9"/>
<stop offset="1" stop-color="#EF95B2"/>
</linearGradient>
<linearGradient id="paint3_linear" x1="55.818" y1="63" x2="60.8222" y2="63.8182" gradientUnits="userSpaceOnUse">
<stop stop-color="#F2B5C9"/>
<stop offset="1" stop-color="#EF95B2"/>
</linearGradient>
<linearGradient id="paint4_linear" x1="32.7576" y1="51.75" x2="70.4108" y2="57.5221" gradientUnits="userSpaceOnUse">
<stop stop-color="#F2B5C9"/>
<stop offset="1" stop-color="#EF95B2"/>
</linearGradient>
<linearGradient id="paint5_linear" x1="39.3436" y1="30.375" x2="46.3792" y2="30.8277" gradientUnits="userSpaceOnUse">
<stop stop-color="#F2B5C9"/>
<stop offset="1" stop-color="#EF95B2"/>
</linearGradient>
<linearGradient id="paint6_linear" x1="37.2015" y1="17.9968" x2="42.9724" y2="18.2327" gradientUnits="userSpaceOnUse">
<stop stop-color="#F2B5C9"/>
<stop offset="1" stop-color="#EF95B2"/>
</linearGradient>
<linearGradient id="paint7_linear" x1="29.4344" y1="25.875" x2="33.9283" y2="26.018" gradientUnits="userSpaceOnUse">
<stop stop-color="#F2B5C9"/>
<stop offset="1" stop-color="#EF95B2"/>
</linearGradient>
</defs>
</svg>
