<svg width="51" height="75" viewBox="0 0 51 75" fill="none" xmlns="http://www.w3.org/2000/svg">
<g opacity="0.4">
<path fill-rule="evenodd" clip-rule="evenodd" d="M35.342 29.4991C35.3564 29.5195 35.3715 29.5399 35.3871 29.5595C35.4379 29.625 35.4928 29.6873 35.5516 29.7458C35.7651 29.9522 36.0182 30.1133 36.2956 30.2192C36.573 30.3252 36.869 30.3739 37.1658 30.3624C37.1713 30.37 37.1769 30.3775 37.1827 30.3846C37.2232 30.437 37.2671 30.4867 37.3141 30.5335C37.5238 30.7315 37.7772 30.8774 38.0538 30.9592C38.3304 31.0411 38.6223 31.0567 38.9061 31.0048L38.9091 31.0043C44.1968 36.2938 48.0159 40.2508 51 43.5273V42.6857C48.1175 39.5413 44.472 35.7696 39.5391 30.831C40.329 30.4996 40.9574 29.8715 41.2889 29.0816C45.1547 32.9431 48.3053 36.015 51 38.5508V37.7702C48.3422 35.2597 45.2426 32.2313 41.4619 28.4516L41.4623 28.4485C41.5144 28.1648 41.4989 27.8729 41.417 27.5963C41.3352 27.3197 41.1894 27.0663 40.9913 26.8565C40.9445 26.8095 40.8947 26.7655 40.8421 26.7249C40.835 26.7192 40.8277 26.7138 40.8204 26.708C40.8317 26.4113 40.7828 26.1153 40.6768 25.8379C40.5708 25.5605 40.4098 25.3074 40.2035 25.0938C40.1448 25.0352 40.0825 24.9803 40.017 24.9294C39.9973 24.9138 39.9772 24.8987 39.9568 24.884C40.1782 24.2335 40.2792 23.548 40.2549 22.8612C40.1857 20.8776 39.097 19.0758 37.8086 17.787C37.5768 17.5553 36.2898 16.275 34.6667 14.6599C30.2428 10.2578 23.0191 3.07054 21.6138 1.59367C20.6344 0.564974 19.92 0.127494 19.3954 0.0287989C19.1514 -0.0286729 18.8949 0.000429906 18.6699 0.111127C18.4449 0.221824 18.2654 0.407239 18.162 0.635672C18.0571 0.819939 18.0034 1.02892 18.0066 1.24092C18.0097 1.45292 18.0695 1.66023 18.1798 1.84132C18.4062 2.22066 18.6865 2.56509 19.012 2.86382C19.0707 2.9225 19.527 3.36663 20.2021 4.02367C23.2287 6.97026 30.9021 14.4408 31.3927 15.2334C31.4607 15.323 31.5089 15.426 31.5341 15.5355C31.5592 15.6451 31.5608 15.7588 31.5387 15.8691C31.5235 15.9195 31.4938 15.9643 31.4534 15.998C31.4129 16.0292 31.3639 16.0472 31.3129 16.0496C31.1945 16.0422 31.0789 16.0103 30.9736 15.9558C30.8682 15.9013 30.7754 15.8254 30.701 15.7331L20.6651 5.69702C20.1928 5.22489 20.1319 5.16352 20.077 5.10844C18.0704 3.09011 17.1908 2.20541 16.3673 3.02875C15.5828 3.81339 16.0232 4.46957 16.1241 4.59808C16.1331 4.61117 16.1434 4.62336 16.1547 4.6345L28.3158 16.7956C29.3444 17.8239 28.8576 18.312 28.8231 18.3444H28.8227L28.8215 18.3458L28.8211 18.3463H28.8209L28.8169 18.3502L28.8151 18.3516L28.8122 18.3547L28.8095 18.3574L28.8078 18.3591L28.804 18.3631L28.8038 18.3636L28.8035 18.364L28.8022 18.3649L28.802 18.3653C28.77 18.3996 28.2818 18.8864 27.2533 17.8581L15.0925 5.69702C15.0812 5.68576 15.069 5.67549 15.056 5.66634C14.9271 5.56545 14.2709 5.12533 13.4865 5.90952C12.6629 6.73331 13.5474 7.61264 15.5659 9.619C15.6213 9.67454 15.6824 9.73499 16.1547 10.2076L26.1904 20.2432C26.2829 20.3176 26.3588 20.4105 26.4134 20.5159C26.4679 20.6213 26.5 20.7369 26.5074 20.8554C26.5045 20.9063 26.4866 20.9552 26.4558 20.9959C26.422 21.0362 26.3771 21.0657 26.3266 21.0808C26.2164 21.1029 26.1028 21.1013 25.9932 21.0762C25.8836 21.0511 25.7807 21.0029 25.6911 20.9349C24.8985 20.4446 17.428 12.7709 14.4814 9.74432C13.8244 9.06948 13.38 8.61293 13.3213 8.55425C13.0227 8.22869 12.6782 7.94835 12.2988 7.72204C12.1178 7.61165 11.9105 7.55178 11.6985 7.54865C11.4865 7.54552 11.2776 7.59924 11.0934 7.70423C10.865 7.80757 10.6795 7.98708 10.5688 8.21204C10.4582 8.437 10.4291 8.69343 10.4866 8.93746C10.585 9.46249 11.0227 10.1765 12.0514 11.1558C13.528 12.5615 20.7158 19.7853 25.1174 24.2092C26.7325 25.8323 28.0129 27.1189 28.2449 27.3509C29.5333 28.6392 31.3355 29.728 33.3185 29.7973C34.0055 29.8215 34.6912 29.7205 35.342 29.4991ZM39.7387 25.4362C39.7603 25.4548 39.7814 25.4748 39.8021 25.4957C39.967 25.671 40.0923 25.8796 40.1697 26.1074C40.247 26.3353 40.2745 26.5771 40.2504 26.8165C40.2488 26.8292 40.248 26.842 40.2479 26.8548C40.244 26.9055 40.2384 26.9566 40.2311 27.0081C40.1023 27.694 39.7694 28.325 39.276 28.8184C38.7825 29.3118 38.1515 29.6447 37.4656 29.7733C37.4143 29.7809 37.3632 29.7862 37.3125 29.7902C37.2998 29.7902 37.2871 29.7911 37.2745 29.7929C37.035 29.8169 36.7931 29.7893 36.5652 29.7119C36.3373 29.6345 36.1286 29.5092 35.9533 29.3443C35.9326 29.3239 35.9128 29.3025 35.8937 29.2812C37.5694 28.4658 38.9233 27.1119 39.7387 25.4362ZM37.7375 27.2798C36.2665 28.7508 34.752 29.2799 33.3392 29.231C31.5191 29.1674 29.8489 28.1516 28.6464 26.9495C27.7846 26.0874 26.7817 25.0796 25.5175 23.8091C21.1126 19.382 13.9195 12.1526 12.442 10.7464C11.5111 9.86036 11.1223 9.25221 11.0436 8.83253C11.0166 8.70574 11.0344 8.57353 11.0937 8.45831C11.1531 8.34309 11.2505 8.25195 11.3695 8.20035C11.4726 8.14486 11.5886 8.1178 11.7056 8.12195C11.8227 8.12609 11.9365 8.16129 12.0354 8.22393C12.3628 8.4255 12.6604 8.6718 12.9197 8.95568C13.0911 9.1273 13.4889 9.53583 14.0766 10.1396C17.0379 13.1813 24.5457 20.8932 25.3913 21.4169C25.5508 21.5296 25.7331 21.606 25.9253 21.641C26.1175 21.6759 26.315 21.6685 26.504 21.6191C26.659 21.5701 26.7962 21.4766 26.8983 21.3502C27.0006 21.221 27.0612 21.0638 27.0722 20.8994C27.0732 20.6989 27.0308 20.5006 26.9479 20.318C26.865 20.1354 26.7436 19.973 26.592 19.8417L16.5564 9.80569C16.4975 9.74701 16.283 9.53451 15.9658 9.21931C14.2276 7.49083 13.4656 6.73377 13.8881 6.3114C14.3358 5.86331 14.6408 6.06111 14.6953 6.10336L26.8517 18.2595C28.2576 19.6657 29.1207 18.8504 29.2127 18.7552C29.3081 18.6632 30.1232 17.7999 28.7173 16.3942L16.5609 4.23753C16.5188 4.18281 16.3213 3.87785 16.769 3.43017C17.1913 3.00785 17.9488 3.76982 19.6769 5.50809C19.9922 5.82548 20.2045 6.03976 20.2636 6.0989L30.2993 16.1345C30.4305 16.2861 30.593 16.4074 30.7755 16.4903C30.9581 16.5732 31.1564 16.6156 31.3569 16.6146C31.5214 16.6037 31.6786 16.5429 31.8077 16.4404C31.9343 16.3383 32.0279 16.2011 32.0769 16.046C32.1261 15.8571 32.1335 15.6597 32.0985 15.4675C32.0635 15.2754 31.987 15.0933 31.8744 14.9338C31.3509 14.0878 23.6393 6.58035 20.5973 3.61869C19.9936 3.03144 19.5848 2.63352 19.4136 2.46194C19.1296 2.20274 18.8833 1.90511 18.6817 1.57769C18.619 1.47877 18.5838 1.36496 18.5796 1.24793C18.5754 1.1309 18.6024 1.01486 18.6579 0.911726C18.7094 0.792759 18.8005 0.695295 18.9158 0.635894C19.031 0.576493 19.1632 0.558815 19.29 0.585867C19.7097 0.664531 20.3179 1.05353 21.2041 1.98444C22.6105 3.46177 29.8396 10.6548 34.2668 15.0596C35.5371 16.3239 36.5452 17.3268 37.407 18.1888C38.6095 19.3914 39.6251 21.0616 39.6885 22.8813C39.7376 24.2945 39.2084 25.8087 37.7375 27.2798ZM40.8852 28.4681C40.8809 28.4832 40.8778 28.4987 40.8759 28.5143C40.7582 28.9731 40.5193 29.3918 40.1844 29.7267C39.8494 30.0616 39.4306 30.3003 38.9718 30.4179C38.9563 30.4201 38.9409 30.4234 38.9259 30.4277C38.8925 30.4344 38.8592 30.4398 38.826 30.4446C38.5003 30.502 38.1647 30.439 37.882 30.2673C38.5609 30.0788 39.1794 29.718 39.6776 29.2199C40.1758 28.7217 40.5366 28.1031 40.725 27.4243C40.8968 27.707 40.9598 28.0427 40.9022 28.3685C40.8975 28.4014 40.8919 28.4348 40.8852 28.4681Z" fill="#3E3A39"/>
<path fill-rule="evenodd" clip-rule="evenodd" d="M42.0335 32.2319C43.6733 33.8715 45.1093 35.4092 46.665 37.1123C46.9406 37.4142 47.3321 37.8192 47.5759 38.1406C47.6169 38.1928 47.6548 38.2475 47.6893 38.3042C47.7406 38.3909 47.7558 38.4145 47.7189 38.4825C47.5206 38.4971 47.0691 38.0201 46.892 37.8383C45.0657 35.9689 43.271 33.9644 41.4063 32.1372C40.8645 31.6068 40.3693 31.1836 39.8627 30.6959L39.6947 30.4727C39.6931 30.4701 39.69 30.4638 39.6871 30.4598C39.8261 30.3287 40.0774 30.5288 40.2582 30.6568C40.8829 31.1434 41.4759 31.6696 42.0335 32.2319Z" fill="#3E3A39"/>
<path fill-rule="evenodd" clip-rule="evenodd" d="M34.8978 27.2305C34.9831 27.4937 34.0607 27.9658 33.9119 28.0405C33.1386 28.4295 31.9943 28.1734 31.2379 27.8427C29.5743 27.1153 27.8525 25.4465 26.5504 24.0292C26.4201 23.8874 25.9204 23.3921 25.9162 23.173C26.0156 23.1365 26.0654 23.1863 26.2041 23.2948C26.2999 23.3694 26.3879 23.4468 26.4812 23.5304C26.9789 23.9776 27.6151 24.6409 28.1577 25.1468C29.3558 26.2636 31.0352 27.6666 32.6485 27.8734C33.9489 28.0396 34.4777 27.2429 34.8978 27.2305Z" fill="#3E3A39"/>
<path fill-rule="evenodd" clip-rule="evenodd" d="M51 41.8866C50.8591 41.707 50.7624 41.5514 50.7757 41.4732C50.8208 41.4598 50.8989 41.4923 51 41.5585V41.8866Z" fill="#3E3A39"/>
<path fill-rule="evenodd" clip-rule="evenodd" d="M36.5447 18.0716C36.7712 18.2975 37.3545 18.8274 37.377 19.0755C37.2138 19.1928 36.9255 18.8927 36.751 18.7394C35.9852 18.0676 35.3297 17.491 34.6035 16.7651C34.4553 16.6166 34.0629 16.2801 34.1391 16.0796C34.3283 16.0244 34.5777 16.2952 34.736 16.4347C34.9309 16.6072 35.1394 16.7895 35.331 16.9594C35.7311 17.3137 36.1662 17.6929 36.5447 18.0716Z" fill="#3E3A39"/>
<path fill-rule="evenodd" clip-rule="evenodd" d="M30.374 25.7213C30.2678 25.8485 30.1435 25.8214 29.9419 25.7396C29.0996 25.2785 28.3576 24.6542 27.7593 23.9031C27.6442 23.7666 27.5172 23.6337 27.668 23.5034C27.9574 23.5501 29.1326 24.8015 29.7296 25.2395C29.9128 25.3732 30.3104 25.5511 30.374 25.7213Z" fill="#3E3A39"/>
<path fill-rule="evenodd" clip-rule="evenodd" d="M41.9928 30.7963C42.2075 31.011 43.1595 31.921 43.0464 32.1041C42.9512 32.1829 42.8703 32.126 42.7678 32.0499C42.3973 31.7747 41.5529 30.8612 40.8138 30.2925C40.6984 30.2036 40.2741 29.9604 40.3429 29.8098C40.4812 29.5061 41.7958 30.5993 41.9928 30.7963Z" fill="#3E3A39"/>
<path fill-rule="evenodd" clip-rule="evenodd" d="M36.0351 29.7922C36.2162 29.7007 36.868 29.5508 37.4365 29.285C38.1283 28.9609 38.2661 28.5363 38.4377 28.5764C38.6769 28.6319 38.3319 29.4126 37.1082 29.8411C36.7769 29.9622 36.4275 30.0264 36.0748 30.031C35.9155 30.015 35.847 29.8869 36.0351 29.7922Z" fill="#3E3A39"/>
<path fill-rule="evenodd" clip-rule="evenodd" d="M28.428 19.9071C28.5761 19.8413 29.0346 20.1338 29.3185 20.0827C29.4773 20.0402 29.627 19.9689 29.7602 19.8724C30.3263 19.5665 29.8577 20.6206 29.0715 20.4601C28.9148 20.4264 28.7652 20.3653 28.6296 20.2796C28.5267 20.2183 28.2177 20.0004 28.428 19.9071Z" fill="#3E3A39"/>
<path fill-rule="evenodd" clip-rule="evenodd" d="M20.7682 2.81245L20.8729 2.70752C21.0501 2.76271 21.2113 2.85983 21.3429 2.99062C21.4745 3.12142 21.5726 3.28204 21.6289 3.45884C21.476 3.64157 21.3833 3.58021 21.113 3.32104C20.9426 3.19657 20.8208 3.0168 20.7682 2.81245Z" fill="#3E3A39"/>
<path fill-rule="evenodd" clip-rule="evenodd" d="M38.2046 19.6868L38.4693 19.9513C38.504 20.0527 38.5843 20.1145 38.5027 20.2172C38.4146 20.327 38.3364 20.3007 38.2417 20.2354C38.1416 20.1648 38.0517 20.0809 37.9743 19.986C37.8549 19.842 37.8956 19.8629 37.858 19.7339C38.0481 19.5206 38.0143 19.6188 38.2046 19.6868Z" fill="#3E3A39"/>
<path fill-rule="evenodd" clip-rule="evenodd" d="M43.5637 32.8334C43.1372 32.4067 43.5929 32.2679 43.9349 32.66C44.0383 32.7783 44.1594 32.9633 43.9816 33.0557C43.864 33.1167 43.6702 32.9397 43.5637 32.8334Z" fill="#3E3A39"/>
<path fill-rule="evenodd" clip-rule="evenodd" d="M38.9728 28.2074C38.7689 28.0038 39.1762 27.7544 39.3024 27.6348C39.3893 27.5525 39.4342 27.4943 39.5118 27.6548C39.6014 27.8402 39.3782 28.1176 39.1926 28.2363C39.0997 28.2954 39.055 28.2896 38.9728 28.2074Z" fill="#3E3A39"/>
<path fill-rule="evenodd" clip-rule="evenodd" d="M31.1097 25.9993C31.2404 26.13 31.3385 26.2469 31.2144 26.3715C31.0846 26.5017 30.9621 26.3959 30.8376 26.2714C30.717 26.1505 30.6105 26.0256 30.7374 25.8971C30.8628 25.7704 30.9846 25.874 31.1097 25.9993Z" fill="#3E3A39"/>
<path fill-rule="evenodd" clip-rule="evenodd" d="M35.8858 26.4356C36.1646 26.3284 36.4084 26.7365 35.9605 26.965C35.8474 27.0228 35.5846 26.981 35.754 26.6934L35.7905 26.5943C35.7985 26.5374 35.7776 26.4769 35.8858 26.4356Z" fill="#3E3A39"/>
<path fill-rule="evenodd" clip-rule="evenodd" d="M50.013 40.8894C49.622 40.7467 49.504 40.3763 49.7883 40.323C49.8968 40.3025 50.0617 40.4728 50.1279 40.5675C50.24 40.7271 50.1461 40.8036 50.013 40.8894Z" fill="#3E3A39"/>
<path fill-rule="evenodd" clip-rule="evenodd" d="M29.7069 20.9591C30.1753 20.7071 30.3181 21.0681 30.0736 21.2139C29.959 21.2805 29.8257 21.3078 29.694 21.2917C29.6612 21.2772 29.6334 21.2532 29.6144 21.2228C29.5954 21.1923 29.586 21.1569 29.5874 21.121C29.5888 21.0852 29.6009 21.0505 29.6222 21.0217C29.6435 20.9928 29.673 20.971 29.7069 20.9591Z" fill="#3E3A39"/>
<path fill-rule="evenodd" clip-rule="evenodd" d="M22.5345 4.01678L22.6824 4.16437C22.6939 4.53202 22.3074 4.50981 22.2529 4.19151C22.2726 4.13445 22.3114 4.08593 22.3627 4.05411C22.414 4.02228 22.4747 4.0091 22.5345 4.01678Z" fill="#3E3A39"/>
<path fill-rule="evenodd" clip-rule="evenodd" d="M2.15565 18.3343C0.116882 20.373 -0.433041 23.5005 0.326015 26.909C1.07533 30.2726 3.1039 33.9185 6.23432 37.0491C9.3647 40.1793 13.0106 42.2079 16.3746 42.9574C18.2443 43.4262 20.2045 43.3936 22.0575 42.8627L22.069 42.8774C22.12 42.9429 22.1749 43.0053 22.2335 43.0641C22.4472 43.2703 22.7003 43.4313 22.9777 43.5373C23.2551 43.6432 23.551 43.692 23.8478 43.6807C23.8533 43.6882 23.8589 43.6953 23.8647 43.7025C23.9053 43.755 23.9492 43.8048 23.996 43.8519C24.2057 44.0499 24.4592 44.1957 24.7357 44.2775C25.0123 44.3593 25.3043 44.3748 25.588 44.3227L25.5911 44.3222C41.3865 60.1229 44.0879 64.0462 50.521 73.3897L51 74.0854V73.0873L50.9869 73.0682C44.5609 63.7346 41.8429 59.7882 26.221 44.1493C27.0112 43.818 27.6396 43.1896 27.9709 42.3995C39.9477 54.3636 45.0668 58.759 51 63.0477V62.348C45.1938 58.1233 40.0286 53.6505 28.1438 41.7695L28.1443 41.7664C28.1963 41.4827 28.1807 41.1907 28.0989 40.9142C28.017 40.6376 27.8712 40.3842 27.6732 40.1744C27.6262 40.1276 27.5764 40.0836 27.5241 40.0428C27.517 40.0375 27.5096 40.0317 27.5023 40.0264C27.5137 39.7296 27.4649 39.4336 27.3589 39.1562C27.2529 38.8788 27.0919 38.6257 26.8855 38.4122C26.8268 38.3534 26.7645 38.2983 26.699 38.2472L26.6843 38.2357C27.2151 36.3828 27.2477 34.4227 26.7787 32.5533C26.0297 29.1892 24.0009 25.5429 20.8705 22.4127C17.7401 19.2826 14.0942 17.2536 10.7304 16.5045C7.32193 15.7456 4.19442 16.2955 2.15565 18.3343V18.3343ZM51 70.5218C49.2873 67.8806 48.4066 66.1614 48.0214 65.0687C47.8191 64.6113 47.7391 64.1091 47.7893 63.6115C47.806 63.4658 47.877 63.3319 47.9881 63.2363C48.0993 63.1407 48.2423 63.0905 48.3888 63.0958C48.7146 63.1172 49.023 63.2505 49.2617 63.4732C49.8189 63.9315 50.3991 64.361 51 64.7602V65.2194C50.3112 64.7647 49.6462 64.275 49.0074 63.7523C48.8406 63.5924 48.6242 63.494 48.3939 63.4736C48.3345 63.4738 48.2772 63.4963 48.2336 63.5368C48.19 63.5772 48.1632 63.6326 48.1585 63.6919C48.1253 64.1208 48.2005 64.5511 48.3771 64.9434C49.0774 66.6589 49.9565 68.2957 51 69.8269L51 70.5218V70.5218ZM3.16682 19.3452C4.95107 17.5612 7.73337 17.1229 10.7893 17.8568C13.8133 18.5832 17.1117 20.4602 19.9673 23.3161C22.823 26.1715 24.7002 29.4697 25.4266 32.4941C26.1604 35.5501 25.7222 38.3321 23.938 40.1166C22.1537 41.9007 19.3716 42.339 16.3155 41.605C13.2913 40.8786 9.99311 39.0017 7.13742 36.1458C4.28178 33.2903 2.40462 29.9917 1.67838 26.9677C0.944408 23.9118 1.38253 21.1297 3.16682 19.3452ZM2.04539 26.8788C1.34233 23.9509 1.74976 21.2978 3.43464 19.6129C5.11932 17.9284 7.77251 17.5207 10.7004 18.224C13.6599 18.9344 16.8934 20.7772 19.6998 23.5837C22.5058 26.3898 24.3488 29.6236 25.0594 32.583C25.7625 35.5109 25.355 38.1641 23.6701 39.8486C21.9854 41.5334 19.3321 41.9411 16.4046 41.2378C13.4449 40.527 10.2114 38.6842 7.40505 35.8782C4.59898 33.072 2.75624 29.8383 2.04539 26.8788ZM27.5674 41.7864C27.5629 41.8014 27.5597 41.8167 27.5579 41.8322C27.44 42.291 27.2011 42.7098 26.8662 43.0447C26.5312 43.3797 26.1124 43.6185 25.6536 43.7363C25.6381 43.7381 25.6228 43.7412 25.6078 43.7456C25.5744 43.7523 25.5413 43.758 25.5082 43.7625C25.1823 43.8204 24.8466 43.7573 24.5639 43.5851C25.2428 43.3969 25.8614 43.0362 26.3596 42.5381C26.8578 42.04 27.2186 41.4214 27.4069 40.7426C27.5787 41.0252 27.6417 41.3607 27.5841 41.6864C27.5794 41.7197 27.5739 41.7531 27.5674 41.7864ZM23.9944 43.1081C23.9817 43.1081 23.969 43.109 23.9564 43.1108C23.7169 43.1348 23.4751 43.1072 23.2472 43.0298C23.0192 42.9524 22.8106 42.8271 22.6352 42.6622L22.6287 42.656C23.4979 42.3093 24.2874 41.7893 24.9491 41.1276C25.6108 40.466 26.1308 39.6765 26.4776 38.8074L26.484 38.8136C26.6489 38.989 26.7742 39.1977 26.8515 39.4256C26.9289 39.6535 26.9564 39.8954 26.9323 40.1349C26.9306 40.1475 26.9298 40.1603 26.9299 40.1731C26.9259 40.2238 26.9204 40.2749 26.913 40.326C26.7845 41.012 26.4516 41.6431 25.9582 42.1367C25.4647 42.6302 24.8336 42.9631 24.1476 43.0917C24.0963 43.0988 24.0452 43.1046 23.9944 43.1081ZM0.879948 26.785C0.162861 23.565 0.665257 20.6278 2.55708 18.7357C4.44917 16.8437 7.38662 16.3413 10.6064 17.0584C13.8704 17.7852 17.416 19.7614 20.4688 22.8146C23.5219 25.8674 25.498 29.4128 26.225 32.6768C26.9421 35.8968 26.4395 38.834 24.5475 40.7261C22.6556 42.6182 19.7182 43.1206 16.4984 42.4035C13.2342 41.6766 9.68878 39.7005 6.63598 36.6472C3.5829 33.5944 1.60682 30.049 0.879948 26.785V26.785Z" fill="#3E3A39"/>
<path fill-rule="evenodd" clip-rule="evenodd" d="M29.1411 45.7143C30.5072 47.0769 32.0726 48.7436 33.3736 50.1911C33.6579 50.5071 34.505 51.3447 34.5605 51.647C34.4636 51.703 34.4216 51.6697 34.242 51.5274C34.0069 51.3295 33.7835 51.1181 33.5729 50.8944C31.7082 48.9854 29.948 47.048 28.0383 45.1439C27.8507 44.9567 27.6329 44.7522 27.4328 44.5682C27.0971 44.3033 26.7888 44.0054 26.5124 43.6791C26.5121 43.6782 26.4635 43.6648 26.5353 43.6142C26.8347 43.403 28.9839 45.5578 29.1411 45.7143Z" fill="#3E3A39"/>
<path fill-rule="evenodd" clip-rule="evenodd" d="M20.8117 26.0282C21.8226 27.0387 22.8233 29.0504 23.3321 30.2814C23.716 31.2101 24.3679 32.8585 24.2693 33.8735C24.2584 33.9864 24.2066 34.3287 24.0241 34.3616C23.9887 34.3536 24.0281 34.423 23.9805 34.3296C23.9763 34.3095 23.9737 34.2892 23.9728 34.2687C23.9802 34.2238 23.9905 34.1794 24.0034 34.1358C24.1081 33.7152 23.8125 32.6554 23.6731 32.2495C23.4279 31.514 23.1456 30.7913 22.8271 30.0844C22.4314 29.2225 21.3647 27.0529 20.7034 26.3003C20.4985 26.0669 20.3718 25.8748 20.2862 25.7753C20.388 25.689 20.4198 25.7206 20.5436 25.805C20.6389 25.872 20.7286 25.9466 20.8117 26.0282Z" fill="#3E3A39"/>
<path fill-rule="evenodd" clip-rule="evenodd" d="M17.602 22.5127C17.7539 22.6553 17.8971 22.8071 18.0308 22.967C18.1041 23.0586 18.1457 23.103 18.1377 23.2008C18.0623 23.2248 18.1344 23.2235 18.0503 23.2031C17.8049 23.0647 17.5741 22.9018 17.3617 22.7167C16.6327 22.1264 15.8472 21.6095 15.0166 21.1736C14.5069 20.8953 13.9779 20.6637 13.4582 20.4285C13.1594 20.2934 12.058 19.8746 11.8853 19.6345C11.9845 19.5345 12.1218 19.5954 12.2283 19.6208C12.5952 19.724 12.9564 19.8465 13.3104 19.988C14.7278 20.5272 16.5121 21.423 17.602 22.5127Z" fill="#3E3A39"/>
<path fill-rule="evenodd" clip-rule="evenodd" d="M38.3818 55.2385C39.5585 56.38 40.6518 57.6045 41.6532 58.9026C41.7972 59.0884 42.3074 59.6828 42.2067 59.8691C41.955 59.8206 41.2304 58.9115 41.0059 58.6545L38.6397 55.9965C38.2267 55.6061 37.8653 55.1646 37.564 54.6828C37.6503 54.6343 37.6705 54.6499 37.7686 54.713C37.987 54.8711 38.1922 55.0468 38.3818 55.2385Z" fill="#3E3A39"/>
<path fill-rule="evenodd" clip-rule="evenodd" d="M51 68.6424C50.8448 68.3965 50.7115 68.1782 50.631 68.0395C50.5588 67.9151 50.4934 67.8035 50.4256 67.6786C50.369 67.5734 50.3217 67.4635 50.2842 67.35C50.3698 67.2562 50.4283 67.2273 50.5328 67.2651C50.7023 67.4718 50.8583 67.6892 51 67.9159V68.6424Z" fill="#3E3A39"/>
<path fill-rule="evenodd" clip-rule="evenodd" d="M28.9033 44.0824L29.5379 44.7626C29.6724 44.9164 29.9638 45.1707 29.8078 45.3432C29.5457 45.3116 28.7953 44.5119 28.5274 44.2603C28.3193 44.0647 28.1133 43.8771 27.8912 43.6948C27.6948 43.5334 27.1546 43.2035 27.1412 43.0084C27.4113 42.7123 28.7588 43.9379 28.9033 44.0824Z" fill="#3E3A39"/>
<path fill-rule="evenodd" clip-rule="evenodd" d="M25.2499 41.7515C25.4628 41.9582 25.0685 42.3557 24.9078 42.4899C24.6864 42.6747 24.438 42.8245 24.1711 42.934C23.8206 43.0822 23.4504 43.1791 23.0722 43.2216C22.9568 43.2265 22.8048 43.2559 22.7168 43.1061C22.8815 42.8349 23.8337 42.806 24.6299 42.2543C24.8311 42.1147 25.0859 41.7999 25.2499 41.7515Z" fill="#3E3A39"/>
<path fill-rule="evenodd" clip-rule="evenodd" d="M23.9874 35.11C24.0825 35.0651 24.1206 35.0771 24.2081 35.1847C24.2621 35.2557 24.3071 35.333 24.3422 35.415C24.4897 35.7787 24.2542 36.2197 23.9852 35.5621C23.9203 35.4039 23.8069 35.1949 23.9874 35.11Z" fill="#3E3A39"/>
<path fill-rule="evenodd" clip-rule="evenodd" d="M30.3936 46.0375C30.2974 45.9636 30.2237 45.8643 30.1809 45.7507C30.2811 45.5827 30.3474 45.588 30.5027 45.6641C30.8157 45.8165 31.0302 46.2193 30.7495 46.2531C30.6441 46.266 30.4803 46.1242 30.3936 46.0375Z" fill="#3E3A39"/>
<path fill-rule="evenodd" clip-rule="evenodd" d="M26.0506 40.8961C26.1362 40.8437 26.142 40.7045 26.256 40.7649C26.3373 40.8076 26.3418 40.925 26.3363 40.9744C26.3127 41.1824 26.0033 41.5078 25.8605 41.4567C25.5651 41.3509 25.8101 41.0935 25.9359 40.9655C26.0188 40.881 26.0259 40.9112 26.0506 40.8961Z" fill="#3E3A39"/>
<path fill-rule="evenodd" clip-rule="evenodd" d="M49.8166 66.2371C49.9798 66.162 50.084 66.346 50.1745 66.4967C50.2445 66.6136 50.3939 66.8328 50.1725 66.8866C49.9236 66.9475 49.5872 66.3425 49.8166 66.2371Z" fill="#3E3A39"/>
<path fill-rule="evenodd" clip-rule="evenodd" d="M19.0037 24.1631C18.8823 24.0418 18.7425 23.9142 18.8788 23.7781C19.0121 23.6447 19.1362 23.755 19.258 23.8759C19.3722 23.9897 19.4781 24.1151 19.3727 24.2382C19.2467 24.3854 19.1289 24.288 19.0037 24.1631Z" fill="#3E3A39"/>
<path fill-rule="evenodd" clip-rule="evenodd" d="M36.597 53.9405C36.4866 53.8299 36.3703 53.7129 36.4863 53.5849C36.6064 53.452 36.7149 53.524 36.8346 53.6378C36.9478 53.7454 37.046 53.8659 36.9482 53.9837C36.8344 54.121 36.7144 54.0579 36.597 53.9405Z" fill="#3E3A39"/>
</g>
</svg>
