<svg width="1920" height="2040" viewBox="0 0 1920 2040" fill="none" xmlns="http://www.w3.org/2000/svg">
<path d="M0 0C0 0 393 229.15 958 229.15C1523 229.15 1920 0 1920 0V1943.5C1920 1943.5 1629.71 2039.83 1442 2040C1252.74 2040.17 1147.69 1962.34 958.5 1956.91C742.434 1950.7 572.908 2067.33 360.5 2026C274.521 2009.27 223.885 1942.98 136.5 1938.5C60.5103 1934.6 0 1987.87 0 1987.87V0Z" fill="url(#paint0_linear)"/>
<path d="M826.989 224.111C827.06 226.341 826.673 228.563 825.853 230.639C825.032 232.714 823.796 234.6 822.22 236.181C820.644 237.761 818.761 239.002 816.687 239.828C814.613 240.653 812.392 241.046 810.161 240.982C806.648 241.114 803.176 240.186 800.199 238.318C797.221 236.45 794.875 233.728 793.466 230.508C792.058 227.287 791.652 223.717 792.302 220.263C792.951 216.809 794.627 213.63 797.109 211.141C799.591 208.653 802.766 206.969 806.219 206.31C809.672 205.651 813.244 206.047 816.469 207.447C819.693 208.847 822.422 211.185 824.298 214.157C826.175 217.13 827.113 220.598 826.989 224.111Z" fill="#FFBAE4"/>
<path d="M809.086 235.568C807.534 235.601 805.992 235.318 804.553 234.736C803.114 234.154 801.808 233.286 800.715 232.184C799.623 231.082 798.765 229.769 798.195 228.325C797.626 226.882 797.355 225.337 797.401 223.786C797.446 222.235 797.807 220.709 798.461 219.301C799.114 217.894 800.047 216.634 801.203 215.598C802.359 214.562 803.713 213.772 805.184 213.275C806.655 212.779 808.211 212.587 809.758 212.71C811.322 212.522 812.908 212.685 814.401 213.187C815.893 213.689 817.255 214.517 818.387 215.612C819.519 216.707 820.392 218.041 820.943 219.516C821.494 220.992 821.709 222.571 821.572 224.14C821.573 231.638 817.147 235.689 809.086 235.568Z" fill="#FFA4DC"/>
<defs>
<linearGradient id="paint0_linear" x1="960" y1="0" x2="960" y2="1330" gradientUnits="userSpaceOnUse">
<stop stop-color="#FFFAFA"/>
<stop offset="1" stop-color="white"/>
</linearGradient>
</defs>
</svg>
