<svg width="72" height="72" viewBox="0 0 72 72" fill="none" xmlns="http://www.w3.org/2000/svg">
<g clip-path="url(#clip0)">
<path d="M70.9452 69.8906H66.3425C67.1974 67.9943 67.8144 66.08 68.1798 64.1803C68.2898 63.6084 67.9153 63.0554 67.3432 62.9455C66.7711 62.836 66.2184 63.21 66.1084 63.782C65.7187 65.8082 65.0142 67.8601 64.0114 69.8905H59.518V68.2665C59.518 67.6839 59.0459 67.2119 58.4633 67.2119C57.8807 67.2119 57.4086 67.6839 57.4086 68.2665V69.8905H52.9153C51.3434 66.7084 50.514 63.4974 50.4484 60.3367C50.4128 58.6232 50.603 56.8952 51.0125 55.1654H65.9138C66.2785 56.7061 66.4695 58.2449 66.4809 59.772C66.4853 60.3518 66.9566 60.8188 67.5354 60.8188H67.5435C68.1261 60.8144 68.5946 60.3387 68.5903 59.7562C68.5786 58.187 68.3958 56.6097 68.0476 55.0333C68.372 54.8535 68.5918 54.5078 68.5918 54.1106C68.5918 53.528 68.1197 53.0559 67.5371 53.0559H67.5229C67.1352 51.8043 66.6442 50.5557 66.0474 49.3147C65.6522 48.4932 64.8402 47.9401 63.936 47.8556V46.2094C63.936 44.9334 62.9085 43.8945 61.6375 43.8728V5.33657C61.6375 2.394 59.2437 0.000140625 56.3011 0.000140625L16.7595 0C13.8169 0 11.4229 2.39385 11.4229 5.33643V7.54142H8.10659C6.78669 7.54142 5.71302 8.61523 5.71302 9.935V13.0705C5.39451 13.2521 5.17921 13.5941 5.17921 13.987C5.17921 14.3799 5.39436 14.7219 5.71302 14.9034V41.1178C3.88729 43.7697 2.81671 46.9799 2.81671 50.4358V53.3423H2.12695C1.54434 53.3423 1.07226 53.8144 1.07226 54.397C1.07226 54.9796 1.54434 55.4517 2.12695 55.4517H2.81671V61.1387C2.81671 61.7213 3.28879 62.1934 3.8714 62.1934C4.45401 62.1934 4.92608 61.7213 4.92608 61.1387V55.4517H33.6537V69.8908H24.5089V64.0785C24.5089 63.0385 23.6628 62.1925 22.623 62.1925H15.957C14.917 62.1925 14.0711 63.0387 14.0711 64.0785V69.8908H4.92608V65.3558C4.92608 64.7731 4.45401 64.3011 3.8714 64.3011C3.28879 64.3011 2.81671 64.7731 2.81671 65.3558V69.8908H1.05469C0.472077 69.8908 0 70.3628 0 70.9454C0 71.5281 0.472077 72.0001 1.05469 72.0001H70.9452C71.5278 72.0001 71.9999 71.5281 71.9999 70.9454C71.9999 70.3628 71.5278 69.8906 70.9452 69.8906ZM16.1803 64.3018H22.3995V69.8905H16.1803V64.3018ZM55.5468 43.8708H55.3291C54.0396 43.8708 52.9904 44.92 52.9904 46.2096V47.8557C52.0861 47.9404 51.2742 48.4935 50.879 49.315C50.2807 50.5595 49.7907 51.8069 49.404 53.0562H49.3894C48.8068 53.0562 48.3347 53.5282 48.3347 54.1108C48.3347 54.5085 48.5549 54.8546 48.88 55.0342C48.7223 55.7518 48.5995 56.4698 48.5113 57.1881H44.4585C44.4574 53.4545 44.4582 28.3726 44.4585 20.5283C44.777 20.3467 44.9922 20.0047 44.9922 19.6119C44.9922 19.2192 44.777 18.877 44.4585 18.6956V15.5601C44.4585 14.2402 43.3846 13.1666 42.0648 13.1666H38.92V10.3836C38.92 9.33495 39.773 8.48178 40.8217 8.48178H53.645C54.6936 8.48178 55.5468 9.33495 55.5468 10.3836V43.8708ZM33.3811 20.6666H42.3489V28.1778H33.3811V20.6666ZM33.3811 30.2872H42.3489V37.8418H33.3811V30.2872ZM42.0645 15.2758C42.2213 15.2758 42.3489 15.4033 42.3489 15.56V18.5571H33.3811V15.56C33.3811 15.4033 33.5086 15.2758 33.6653 15.2758H42.0645ZM31.2717 27.9811H18.936V26.5345H31.2717V27.9811ZM16.79 18.5159H14.4146C13.832 18.5159 13.3599 18.988 13.3599 19.5706C13.3599 20.1532 13.832 20.6253 14.4146 20.6253H16.79V28.1799H7.82225V20.6253H10.1977C10.7803 20.6253 11.2524 20.1532 11.2524 19.5706C11.2524 18.988 10.7803 18.5159 10.1977 18.5159H7.82225V15.0416H16.79V18.5159ZM16.79 30.2893V34.152C13.3314 34.6807 10.2241 36.2898 7.82225 38.6217V30.2893H16.79ZM18.8994 30.0905H31.2534C31.2536 30.3042 31.2489 39.7467 31.2718 39.1432C28.266 35.9556 24.0066 33.9626 19.2899 33.9626C19.1594 33.9626 19.0293 33.9645 18.8995 33.9675V30.0905H18.8994ZM33.3811 39.9512H42.3489V49.7025H35.7458C35.6207 46.8607 34.773 44.2033 33.3811 41.9109V39.9512ZM36.4527 55.4516C37.0354 55.4516 37.5074 54.9795 37.5074 54.3969C37.5074 53.8143 37.0354 53.3422 36.4527 53.3422H35.7631V51.8118H42.349V57.188H35.7631V55.4514H36.4527V55.4516ZM35.7631 59.2975H48.3524C48.3386 59.7893 48.3412 60.281 48.3601 60.7727H35.7633V59.2975H35.7631ZM48.5408 62.882C48.8526 65.223 49.5335 67.5613 50.5844 69.8906H44.4584V62.882H48.5408ZM64.1465 50.229C64.5984 51.1688 64.9837 52.112 65.3051 53.0562H51.6222C51.9437 52.1121 52.328 51.1693 52.78 50.2292C52.8608 50.0611 53.0382 49.9524 53.2317 49.9524H63.695C63.8885 49.9524 64.0657 50.061 64.1465 50.229ZM61.8268 46.2096V47.8431H55.0997V46.2096C55.0997 46.0831 55.2025 45.9802 55.3291 45.9802H61.5976C61.7239 45.9802 61.8268 46.083 61.8268 46.2096ZM13.5323 5.33643C13.5323 3.5571 14.9801 2.10937 16.7595 2.10937L56.3012 2.10951C58.0805 2.10951 59.5283 3.55724 59.5283 5.33657V43.8707H57.6561V10.3836C57.6561 8.1717 55.8567 6.37241 53.645 6.37241H40.8217C38.6099 6.37241 36.8106 8.17184 36.8106 10.3836V13.1664H33.6657C32.3458 13.1664 31.2721 14.2402 31.2721 15.56V18.6955C30.9536 18.877 30.7383 19.219 30.7383 19.6119C30.7383 20.0049 30.9535 20.3468 31.2721 20.5284V24.4252H18.9364C18.9164 16.9814 18.9668 27.8922 18.8997 14.9034C19.2182 14.7219 19.4335 14.3799 19.4335 13.987C19.4335 13.5941 19.2183 13.2521 18.8997 13.0705V9.935C18.8997 8.61509 17.8259 7.54142 16.5061 7.54142H13.5323V5.33643ZM8.10659 9.65079H16.5058C16.6625 9.65079 16.79 9.77834 16.79 9.935V12.9321H7.82225V9.935C7.82225 9.77834 7.94994 9.65079 8.10659 9.65079ZM4.92608 53.3422V50.4356C4.92608 42.5155 11.3696 36.0718 19.2901 36.0718C27.2102 36.0718 33.6539 42.5154 33.6539 50.4356V53.3422H4.92608ZM35.7631 62.882H42.349V69.8906H35.7631V62.882Z" fill="url(#paint0_linear)"/>
<path d="M19.2898 41.2732C18.2909 41.2732 17.3586 41.994 16.6644 43.3031C16.1635 44.2476 15.8401 45.4076 15.8401 46.2586C15.8401 48.1609 17.3877 49.7084 19.2898 49.7084C21.192 49.7084 22.7396 48.1609 22.7396 46.2586C22.7396 45.4076 22.416 44.2476 21.9152 43.3031C21.2211 41.994 20.2888 41.2732 19.2898 41.2732ZM19.2898 47.5989C18.5506 47.5989 17.9495 46.9976 17.9495 46.2585C17.9495 45.1131 18.8722 43.4478 19.2853 43.3823C19.7074 43.4477 20.6302 45.113 20.6302 46.2585C20.6303 46.9976 20.0289 47.5989 19.2898 47.5989Z" fill="url(#paint1_linear)"/>
</g>
<defs>
<linearGradient id="paint0_linear" x1="32.5439" y1="2.28106e-05" x2="73.5794" y2="1.67738" gradientUnits="userSpaceOnUse">
<stop stop-color="#F2B5C9"/>
<stop offset="1" stop-color="#EF95B2"/>
</linearGradient>
<linearGradient id="paint1_linear" x1="18.9587" y1="41.2732" x2="22.8931" y2="41.4047" gradientUnits="userSpaceOnUse">
<stop stop-color="#F2B5C9"/>
<stop offset="1" stop-color="#EF95B2"/>
</linearGradient>
<clipPath id="clip0">
<rect width="72" height="72" fill="white"/>
</clipPath>
</defs>
</svg>
