<svg width="1920" height="1330" viewBox="0 0 1920 1330" fill="none" xmlns="http://www.w3.org/2000/svg">
<path d="M0 0C0 0 393 229.15 958 229.15C1523 229.15 1920 0 1920 0V1233.5C1920 1233.5 1629.71 1329.83 1442 1330C1252.74 1330.17 1147.69 1252.34 958.5 1246.91C742.434 1240.7 572.908 1357.33 360.5 1316C274.521 1299.27 223.885 1232.98 136.5 1228.5C60.5103 1224.6 0 1277.87 0 1277.87V0Z" fill="url(#paint0_linear)"/>
<path d="M449.982 143.047C450.102 146.871 449.439 150.679 448.033 154.238C446.627 157.796 444.508 161.029 441.806 163.738C439.103 166.447 435.875 168.575 432.32 169.99C428.765 171.406 424.958 172.079 421.133 171.969C415.111 172.196 409.159 170.605 404.055 167.402C398.95 164.2 394.928 159.534 392.514 154.013C390.099 148.493 389.403 142.373 390.517 136.451C391.631 130.529 394.503 125.08 398.758 120.814C403.014 116.548 408.456 113.661 414.376 112.532C420.296 111.402 426.418 112.081 431.946 114.481C437.474 116.88 442.152 120.889 445.368 125.984C448.585 131.079 450.193 137.025 449.982 143.047Z" fill="#FFBAE4"/>
<path d="M419.291 162.689C416.63 162.745 413.986 162.259 411.52 161.261C409.053 160.264 406.815 158.775 404.941 156.886C403.067 154.997 401.598 152.747 400.621 150.272C399.644 147.797 399.18 145.15 399.259 142.49C399.337 139.831 399.955 137.216 401.076 134.802C402.196 132.389 403.796 130.229 405.777 128.453C407.758 126.678 410.08 125.323 412.601 124.472C415.122 123.621 417.79 123.292 420.443 123.504C423.123 123.18 425.842 123.459 428.401 124.32C430.96 125.181 433.295 126.601 435.235 128.478C437.176 130.356 438.673 132.642 439.617 135.171C440.561 137.7 440.93 140.408 440.695 143.097C440.696 155.951 433.109 162.896 419.291 162.689Z" fill="#FFA4DC"/>
<defs>
<linearGradient id="paint0_linear" x1="960" y1="0" x2="960" y2="1330" gradientUnits="userSpaceOnUse">
<stop stop-color="#FFFAFA"/>
<stop offset="1" stop-color="white"/>
</linearGradient>
</defs>
</svg>
