<svg width="80" height="80" viewBox="0 0 80 80" fill="none" xmlns="http://www.w3.org/2000/svg">
<path d="M57.5 43.75C59.1275 43.75 60.5025 42.7013 61.02 41.25H63.75V38.75H61.02C60.6425 37.6913 59.8088 36.8575 58.75 36.48V33.75H56.25V36.48C55.1913 36.8575 54.3575 37.6913 53.98 38.75H51.25V41.25H53.98C54.4975 42.7013 55.8725 43.75 57.5 43.75ZM57.5 38.75C58.1887 38.75 58.75 39.3113 58.75 40C58.75 40.6887 58.1887 41.25 57.5 41.25C56.8113 41.25 56.25 40.6887 56.25 40C56.25 39.3113 56.8113 38.75 57.5 38.75Z" fill="url(#paint0_linear)"/>
<path d="M47.5537 54.7487L48.09 56.09C48.7363 57.7063 50.2788 58.75 52.0188 58.75C54.3513 58.75 56.25 56.8513 56.25 54.5188V50C56.25 49.3113 56.8112 48.75 57.5 48.75C58.1888 48.75 58.75 49.3113 58.75 50V54.5188C58.75 56.8513 60.6487 58.75 62.9812 58.75C64.7212 58.75 66.2625 57.7063 66.91 56.09L67.4463 54.7487C69.97 48.44 71.25 41.7962 71.25 35C71.25 27.4187 65.0812 21.25 57.5 21.25C49.9187 21.25 43.75 27.4187 43.75 35C43.75 41.7962 45.03 48.44 47.5537 54.7487ZM57.5 23.75C63.7025 23.75 68.75 28.7975 68.75 35C68.75 41.4762 67.53 47.8088 65.1263 53.82L64.5888 55.1613C64.3238 55.8225 63.6937 56.25 62.9812 56.25C62.0275 56.25 61.25 55.4725 61.25 54.5188V50C61.25 47.9325 59.5675 46.25 57.5 46.25C55.4325 46.25 53.75 47.9325 53.75 50V54.5188C53.75 55.4725 52.9725 56.25 52.0188 56.25C51.3075 56.25 50.6762 55.8225 50.4112 55.1613L49.875 53.82C47.47 47.8088 46.25 41.4762 46.25 35C46.25 28.7975 51.2975 23.75 57.5 23.75Z" fill="url(#paint1_linear)"/>
<path d="M52.5 13.75H32.5125C32.51 13.715 32.5 13.68 32.5 13.645C32.5 10.19 30.6587 6.93875 27.6962 5.16C26.1587 4.2375 24.3988 3.75 22.605 3.75C20.5837 3.75 18.67 4.63 17.355 6.165L12.9912 11.2563C11.8687 12.5662 11.25 14.2388 11.25 15.965C11.25 15.9938 11.2575 16.0212 11.2575 16.0512C10.1337 15.3712 8.8475 15 7.5 15H6.25V18.1438C6.25 18.83 6.3375 19.5025 6.49125 20.155C6.005 20.0538 5.5075 20 5 20H3.75V23.1437C3.75 23.83 3.8375 24.5025 3.99125 25.155C3.505 25.0538 3.0075 25 2.5 25H1.25V28.1437C1.25 29.6712 1.645 31.135 2.37625 32.43C1.63875 34.8775 1.25 37.4188 1.25 40V47.5C1.25 61.975 13.025 73.75 27.5 73.75H52.5C66.975 73.75 78.75 61.975 78.75 47.5V40C78.75 25.525 66.975 13.75 52.5 13.75ZM76.25 40C76.25 53.0962 65.5963 63.75 52.5 63.75H41.25V16.25H52.5C65.5963 16.25 76.25 26.9037 76.25 40ZM13.7638 59.3388C12.1675 57.915 11.25 55.8963 11.25 53.75C11.25 49.6138 14.6138 46.25 18.75 46.25C22.8862 46.25 26.25 49.6138 26.25 53.75C26.25 53.775 26.2438 53.7987 26.2438 53.8225C25.835 53.7775 25.4212 53.75 25 53.75C20.6313 53.75 16.7425 56.2425 14.8825 60.085C14.5025 59.845 14.1287 59.5988 13.7638 59.3388ZM32.6962 56.8175C31.565 55.7525 30.2163 54.9225 28.7225 54.3962C28.735 54.1812 28.75 53.965 28.75 53.75C28.75 51.995 28.2925 50.3475 27.495 48.9125C27.9037 48.8063 28.3237 48.75 28.75 48.75C31.5075 48.75 33.75 50.9925 33.75 53.75C33.75 54.8775 33.3725 55.9487 32.6962 56.8175ZM25 56.25C29.3988 56.25 33.04 59.5163 33.65 63.75H27.5C23.76 63.75 20.2337 62.8575 17.0837 61.3112C18.505 58.2513 21.5537 56.25 25 56.25ZM36.1763 63.75C35.9712 61.91 35.325 60.2 34.3388 58.7362C35.5588 57.3712 36.25 55.615 36.25 53.75C36.25 49.6138 32.8862 46.25 28.75 46.25C27.7787 46.25 26.82 46.4412 25.9275 46.8037C24.1088 44.9238 21.5662 43.75 18.75 43.75C13.2362 43.75 8.75 48.2363 8.75 53.75C8.75 54.0312 8.7725 54.3075 8.79625 54.585C5.8875 50.8638 4.07625 46.2638 3.81375 41.25H38.75V63.75H36.1763ZM6.63 37.1475C6.49375 37.67 6.385 38.2025 6.32375 38.75H3.79875C3.8675 37.43 4.04 36.1237 4.325 34.8425L6.63 37.1475ZM17.5 31.25C19.0212 31.25 20.4713 31.6325 21.7663 32.36C21.1863 32.9838 20.6762 33.6712 20.2487 34.4137C19.3975 33.9937 18.4638 33.75 17.5 33.75C14.4825 33.75 11.9575 35.9012 11.3762 38.75H8.85C9.46 34.5163 13.1012 31.25 17.5 31.25ZM34.1075 27.92C33.8737 27.4525 33.75 26.9275 33.75 26.405C33.75 25.7338 33.9475 25.0825 34.32 24.525L35.2887 23.0713C35.9175 22.1275 36.25 21.03 36.25 19.895C36.25 18.5413 35.7687 17.2625 34.9287 16.25H38.75V32.945C37.7713 31.7338 36.5462 30.7338 35.1537 30.0113L34.1075 27.92ZM38.65 38.75H36.1237C35.5425 35.9012 33.0187 33.75 30 33.75C26.9813 33.75 24.4575 35.9012 23.8762 38.75H21.35C21.96 34.5163 25.6012 31.25 30 31.25C34.3988 31.25 38.04 34.5163 38.65 38.75ZM33.52 38.75H26.4812C26.9987 37.2988 28.3737 36.25 30.0012 36.25C31.6287 36.25 33.0025 37.2988 33.52 38.75ZM18.8237 38.75H13.98C14.4975 37.2988 15.8725 36.25 17.5 36.25C18.115 36.25 18.7113 36.4113 19.2475 36.6937C19.0437 37.355 18.9025 38.0438 18.8237 38.75ZM14.89 12.8825L19.2537 7.7925C20.0938 6.8125 21.315 6.25 22.605 6.25C23.945 6.25 25.26 6.615 26.4088 7.30375C28.6238 8.6325 30 11.0625 30 13.645C30 14.9125 30.63 16.09 31.685 16.7925L32.3137 17.2113C33.2125 17.8112 33.75 18.8138 33.75 19.895C33.75 20.5338 33.5625 21.1525 33.2087 21.6838L32.24 23.1375C31.5925 24.1087 31.25 25.2375 31.25 26.405C31.25 27.2688 31.45 28.13 31.8175 28.91C31.2238 28.8138 30.62 28.75 30 28.75C28.3237 28.75 26.7375 29.1287 25.3063 29.7887L23.75 28.2325V25.81C23.75 23.2938 21.8675 21.1613 19.37 20.8488L17.8988 20.665C15.5338 20.3687 13.75 18.3488 13.75 15.965C13.75 14.835 14.155 13.74 14.89 12.8825ZM21.2425 25.725L18.8175 23.3L19.0612 23.33C20.2787 23.4825 21.2 24.505 21.2425 25.725ZM8.75 17.6637C9.55 17.8787 10.2825 18.3 10.8837 18.9013L21.4637 29.4812C20.2025 29.0062 18.86 28.75 17.5 28.75C17.265 28.75 17.035 28.7712 16.8025 28.785L10.58 22.5625C9.4 21.3825 8.75 19.8125 8.75 18.1438V17.6637ZM6.25 22.6637C7.05 22.8787 7.7825 23.3 8.38375 23.9013L13.8513 29.3688C12.9062 29.6938 12.0138 30.1325 11.2013 30.6838L8.08 27.5625C6.9 26.3825 6.25 24.8125 6.25 23.1437V22.6637ZM3.75 27.6637C4.55 27.8787 5.2825 28.3 5.88375 28.9013L9.3025 32.32C8.655 33.01 8.0875 33.775 7.62875 34.6112L5.58 32.5625C4.4 31.3825 3.75 29.8125 3.75 28.1437V27.6637ZM52.5 71.25H27.5C15.9537 71.25 6.3175 62.965 4.195 52.03C6.095 55.6963 8.835 58.85 12.1575 61.255C12.225 61.3138 12.2838 61.38 12.3538 61.4375L12.3725 61.415C16.6525 64.4487 21.865 66.25 27.5 66.25H38.75H41.25H52.5C62.6375 66.25 71.4338 60.4638 75.805 52.03C73.6825 62.965 64.0462 71.25 52.5 71.25Z" fill="url(#paint2_linear)"/>
<path d="M21.25 51.25V48.75H19.2675C18.4737 48.75 17.695 48.4275 17.1337 47.8662L15.3662 49.6337C16.4075 50.6762 17.7937 51.25 19.2675 51.25H21.25Z" fill="url(#paint3_linear)"/>
<path d="M21.3545 13.0073L23.6284 11.9728L29.8813 25.7173L27.6074 26.7517L21.3545 13.0073Z" fill="url(#paint4_linear)"/>
<defs>
<linearGradient id="paint0_linear" x1="56.9" y1="33.75" x2="64.0175" y2="34.1137" gradientUnits="userSpaceOnUse">
<stop stop-color="#F2B5C9"/>
<stop offset="1" stop-color="#EF95B2"/>
</linearGradient>
<linearGradient id="paint1_linear" x1="56.18" y1="21.25" x2="71.8654" y2="21.7202" gradientUnits="userSpaceOnUse">
<stop stop-color="#F2B5C9"/>
<stop offset="1" stop-color="#EF95B2"/>
</linearGradient>
<linearGradient id="paint2_linear" x1="36.28" y1="3.75002" x2="80.4336" y2="5.74821" gradientUnits="userSpaceOnUse">
<stop stop-color="#F2B5C9"/>
<stop offset="1" stop-color="#EF95B2"/>
</linearGradient>
<linearGradient id="paint3_linear" x1="18.0257" y1="47.8662" x2="21.3678" y2="48.1038" gradientUnits="userSpaceOnUse">
<stop stop-color="#F2B5C9"/>
<stop offset="1" stop-color="#EF95B2"/>
</linearGradient>
<linearGradient id="paint4_linear" x1="22.3823" y1="12.5397" x2="23.6843" y2="11.958" gradientUnits="userSpaceOnUse">
<stop stop-color="#F2B5C9"/>
<stop offset="1" stop-color="#EF95B2"/>
</linearGradient>
</defs>
</svg>
