<svg width="80" height="80" viewBox="0 0 80 80" fill="none" xmlns="http://www.w3.org/2000/svg">
<path d="M26.3164 63.2261L28.6137 59.0933L30.42 60.0973L28.1227 64.2302L26.3164 63.2261Z" fill="url(#paint0_linear)"/>
<path d="M24.4475 72.4557L25.4279 72.1293L24.4485 72.4557L25.4374 75.4215L27.4007 74.7686L26.4117 71.8028C25.8179 70.0167 26 68.063 26.9128 66.4172L25.1065 65.4126C23.9117 67.565 23.6725 70.1191 24.4475 72.4557Z" fill="url(#paint1_linear)"/>
<path d="M51.6488 75.4215L52.6357 72.4558C53.4127 70.1202 53.1756 67.5656 51.9818 65.4126L48.4686 59.0931C48.238 58.6849 47.7622 58.4825 47.3086 58.6006C46.855 58.7182 46.5376 59.1264 46.5351 59.5951V65.2784C46.5351 65.4646 46.5265 65.6503 46.5114 65.8365C46.2939 65.0494 45.9836 64.2905 45.5875 63.5766L41.3735 55.9931C41.1449 55.5813 40.6666 55.3765 40.211 55.4945C39.7554 55.6131 39.437 56.0243 39.437 56.4951V63.3152C39.4335 65.1033 38.8537 66.8426 37.7836 68.275C37.4011 68.7896 37.0676 69.3391 36.7876 69.9158C36.6584 69.7094 36.5272 69.5026 36.3804 69.3103C35.513 68.1453 35.0418 66.7331 35.0372 65.2804V59.5951C35.0367 59.1243 34.7184 58.7136 34.2628 58.5956C33.8071 58.478 33.3293 58.6828 33.1008 59.0941L29.587 65.4157C28.3932 67.5676 28.1551 70.1217 28.9311 72.4568L29.9231 75.4226C30.0638 75.8439 30.4579 76.1279 30.9019 76.1284L40.5001 78L50.6684 76.1284C51.1135 76.1284 51.5085 75.8439 51.6488 75.4215ZM30.8903 71.8049C30.2984 70.0192 30.4801 68.0671 31.3913 66.4212L32.9686 63.5836V65.2784C32.9751 67.1776 33.5907 69.0248 34.7249 70.5485C35.2552 71.2504 35.6346 72.0541 35.84 72.9099C35.7845 73.2908 35.5132 75.0366 35.5001 75.4215C33.5875 75.2367 32.7669 74.9187 31.6456 74.0597L30.8903 71.8049ZM37.7836 75.4215C37.8693 73.7767 38.4516 70.8346 39.437 69.5152C40.7751 67.7245 41.4996 65.5504 41.5037 63.3152V60.4816L43.7772 64.5801C44.7409 66.3208 45.0456 68.3512 44.6359 70.2983C44.5335 70.7897 44.7989 71.2832 45.2651 71.4688C45.7308 71.6545 46.2631 71.4784 46.5265 71.0516L46.63 70.8719C46.692 70.7599 46.7611 70.652 46.8368 70.5485C47.9731 69.0263 48.5892 67.1781 48.5932 65.2784V63.5826L50.1755 66.4152C51.0877 68.0621 51.2689 70.0152 50.6755 71.8018L49.9232 74.0618C45.3205 75.5355 42.669 75.8749 37.7836 75.4215Z" fill="url(#paint2_linear)"/>
<path d="M50.9932 60.0968L52.8 59.0933L54.1865 61.5888L52.3802 62.5929L50.9932 60.0968Z" fill="url(#paint3_linear)"/>
<path d="M56.3117 65.4129L55.2204 63.4497L53.4141 64.4533L54.5054 66.4165C55.0963 67.4786 55.3884 68.681 55.3506 69.8954L57.4172 69.962C57.4672 68.3737 57.0847 66.8015 56.3117 65.4129Z" fill="url(#paint4_linear)"/>
<path d="M54.0176 74.7678L54.7068 72.7017L56.6665 73.3556L55.9768 75.4217L54.0176 74.7678Z" fill="url(#paint5_linear)"/>
<path d="M29.626 57.0667L30.6593 55L32.5075 55.9243L31.4747 57.991L29.626 57.0667Z" fill="url(#paint6_linear)"/>
<path d="M28.0274 33.1889L10.1944 28.3745C9.90812 28.2945 9.61165 28.2553 9.31465 28.2564C7.65402 28.2494 6.24688 29.4771 6.02883 31.1233C5.81078 32.7694 6.85002 34.321 8.45533 34.7464L25.9059 39.4571C25.9731 44.8632 29.615 49.5707 34.8316 50.9923L51.8268 55.579C54.9246 56.4189 58.2292 55.992 61.0118 54.3931C63.7944 52.7937 65.8272 50.1534 66.6613 47.0545L67.0904 45.4594C67.5357 43.8095 65.8004 42.0903 61.6257 40.0435C57.3087 38.0333 52.8171 36.4215 48.2069 35.2281C46.412 34.7415 32.4658 31.0825 28.0274 33.1889ZM9.03269 32.619C8.4462 32.459 8.10086 31.8537 8.26091 31.2672C8.42096 30.6807 9.02624 30.3349 9.61273 30.4949L26.6031 35.0815L26.3152 36.1433C26.218 36.5015 26.1455 36.8614 26.0816 37.2212L9.03269 32.619ZM52.3998 53.4505L35.4057 48.8639C32.4153 48.0513 29.9797 45.8815 28.8282 43.0044C31.1123 44.3165 33.5072 45.4256 35.9858 46.3176C36.1098 46.3638 36.2414 46.3875 36.3735 46.388C36.9052 46.388 37.3607 46.0078 37.4557 45.4846C37.5508 44.9615 37.2586 44.4454 36.7608 44.2585C32.5727 42.68 29.4345 41.0597 28.1541 39.8115C28.1418 39.7992 28.1241 39.796 28.1112 39.7841C28.0752 39.0355 28.1246 38.2852 28.2583 37.5478C30.8288 39.4087 33.6651 40.8722 36.6705 41.8889L37.1319 42.0608C37.4176 42.1677 37.7022 42.2724 37.9853 42.3744C39.8242 43.0442 41.7996 43.694 43.8609 44.2859C44.7014 44.5324 45.3271 44.7048 45.6209 44.7843C46.354 44.9819 47.0817 45.1694 47.803 45.3461C47.9706 45.388 48.1333 45.4266 48.3025 45.4658C48.889 45.6082 49.4706 45.7435 50.0469 45.8719L50.4384 45.9567C51.0899 46.1034 51.7322 46.2365 52.3655 46.3558C52.4106 46.3638 52.4546 46.3735 52.4986 46.3821C54.6523 46.7983 56.6787 47.1028 58.5031 47.2822L58.5606 47.2876C58.9247 47.3225 59.291 47.359 59.6374 47.3832C59.8464 47.3988 60.0376 47.4063 60.2379 47.4176H60.2959C60.8459 47.4482 61.3829 47.4691 61.8679 47.4691C62.6714 47.4767 63.4743 47.417 64.2681 47.2908C62.506 52.1095 57.3543 54.783 52.3998 53.4505ZM55.7184 44.7059C55.1593 44.6205 54.5916 44.5281 54.0068 44.4234L53.7033 44.3708C52.9535 44.2333 52.1877 44.0818 51.4041 43.9164L51.2097 43.8745C50.5109 43.7247 49.7982 43.5619 49.0812 43.3906L48.6038 43.2805C47.8084 43.0871 47.0055 42.8836 46.1972 42.6645C45.3889 42.4459 44.5924 42.2182 43.8061 41.984C43.6487 41.9373 43.4967 41.89 43.3421 41.8438C42.6358 41.6306 41.9392 41.4131 41.2609 41.1843L41.0638 41.1204C40.3071 40.8712 39.5713 40.6166 38.8564 40.3572L38.5541 40.2471C38.0041 40.0446 37.4702 39.84 36.9493 39.6343C36.83 39.5881 36.7092 39.5408 36.5927 39.4936C39.9273 40.0065 43.2298 40.7101 46.4845 41.6C49.7451 42.47 52.953 43.5265 56.0922 44.7644L55.7184 44.7059ZM64.9035 44.8675C64.0726 45.1866 63.1821 45.3224 62.2938 45.265C57.4591 42.7461 52.3456 40.8024 47.0586 39.4748C41.8248 37.9495 36.4278 37.0515 30.9818 36.8007C30.1859 36.4022 29.4845 35.8372 28.9248 35.1444C30.1451 34.3908 37.0186 34.4843 47.6328 37.3517C58.247 40.2197 64.2316 43.6038 64.9051 44.8675H64.9035Z" fill="url(#paint7_linear)"/>
<path d="M42.9571 46.318C42.2487 46.109 41.5548 45.8963 40.8748 45.681C40.2959 45.4968 39.6772 45.8169 39.4935 46.3958C39.3093 46.9748 39.6294 47.5935 40.2083 47.7772C40.9028 47.9974 41.6122 48.2144 42.3367 48.4287C42.4372 48.4577 42.5419 48.4732 42.6466 48.4738C43.1945 48.4748 43.6596 48.0726 43.7374 47.5301C43.8159 46.9882 43.4829 46.471 42.9571 46.318Z" fill="url(#paint8_linear)"/>
<path d="M49.2748 47.9528C48.582 47.7976 47.8747 47.6316 47.1588 47.4544C46.5739 47.3201 45.989 47.6794 45.8451 48.2621C45.7006 48.8443 46.0497 49.4351 46.6298 49.5893C47.3629 49.7708 48.0852 49.9405 48.7969 50.1C48.8758 50.1172 48.9564 50.1263 49.0375 50.1263C49.5982 50.1252 50.0681 49.7031 50.1288 49.1456C50.19 48.5887 49.8221 48.0747 49.2748 47.9528Z" fill="url(#paint9_linear)"/>
<path d="M45.0098 15.8498C45.0162 17.331 45.8712 18.6775 47.2096 19.3123V22.9993C47.2096 23.6067 47.7021 24.0992 48.3096 24.0992H52.7093C53.3167 24.0992 53.8092 23.6067 53.8092 22.9993V19.3144C55.4371 18.5464 56.313 16.7515 55.9172 14.9958C55.5208 13.2401 53.959 11.9952 52.1593 12H48.8595C46.7338 12 45.0098 13.7235 45.0098 15.8498ZM49.4095 21.8994V19.6995H51.6093V21.8994H49.4095ZM53.8092 15.8498C53.8092 16.7612 53.0707 17.4997 52.1593 17.4997H48.8595C47.9486 17.4997 47.2096 16.7612 47.2096 15.8498C47.2096 14.9383 47.9486 14.1999 48.8595 14.1999H52.1593C53.0707 14.1999 53.8092 14.9383 53.8092 15.8498Z" fill="url(#paint10_linear)"/>
<path d="M65.9289 26.2359C65.958 25.9453 65.8709 25.6553 65.6873 25.4287L62.2124 21.1654C62.0276 20.9398 61.7613 20.7964 61.4712 20.7674C61.1807 20.7336 60.889 20.8211 60.6651 21.008L56.4029 24.4829C55.9313 24.8663 55.8604 25.5592 56.2444 26.0302L59.7188 30.2935C59.903 30.5196 60.1694 30.663 60.4594 30.6931C60.4959 30.6952 60.5324 30.6952 60.569 30.6931C60.8225 30.6931 61.0679 30.6055 61.2645 30.4455L65.5278 26.9717C65.7533 26.7891 65.8978 26.5248 65.9289 26.2359ZM60.7295 28.0507L58.6398 25.4936L61.1963 23.4039L63.286 25.962L60.7295 28.0507Z" fill="url(#paint11_linear)"/>
<path d="M45.0104 21.8992C45.0104 19.4695 43.0409 17.4995 40.6106 17.4995C38.1809 17.4995 36.2109 19.4695 36.2109 21.8992C36.2109 24.3289 38.1809 26.2989 40.6106 26.2989C43.0409 26.2989 45.0104 24.3289 45.0104 21.8992ZM40.6106 24.0991C39.3958 24.0991 38.4108 23.1141 38.4108 21.8992C38.4108 20.6844 39.3958 19.6994 40.6106 19.6994C41.826 19.6994 42.8105 20.6844 42.8105 21.8992C42.8105 23.1141 41.826 24.0991 40.6106 24.0991Z" fill="url(#paint12_linear)"/>
<path d="M39.5107 28.499H41.7106V30.6989H39.5107V28.499Z" fill="url(#paint13_linear)"/>
<path d="M49.4102 26.2993H51.61V28.4992H49.4102V26.2993Z" fill="url(#paint14_linear)"/>
<path d="M49.4102 30.6987H51.61V33.9985H49.4102V30.6987Z" fill="url(#paint15_linear)"/>
<path d="M61.5088 31.7988H63.7086V33.9987H61.5088V31.7988Z" fill="url(#paint16_linear)"/>
<path d="M61.5088 36.1982H63.7086V38.3981H61.5088V36.1982Z" fill="url(#paint17_linear)"/>
<path d="M68.9058 29.2765C70.5514 27.6245 70.807 25.0428 69.5175 23.1002L69.0432 22.3896L67.2129 23.6088L67.6871 24.3215C68.3966 25.3908 68.2559 26.8119 67.3504 27.7212L68.9058 29.2765Z" fill="url(#paint18_linear)"/>
<rect x="11.8623" y="65.8096" width="77" height="4" transform="rotate(-45 11.8623 65.8096)" fill="url(#paint19_linear)"/>
<circle cx="40" cy="40" r="38.5" stroke="url(#paint20_linear)" stroke-width="3"/>
<defs>
<linearGradient id="paint0_linear" x1="28.1712" y1="59.0933" x2="30.5114" y2="59.1697" gradientUnits="userSpaceOnUse">
<stop stop-color="#F2B5C9"/>
<stop offset="1" stop-color="#EF95B2"/>
</linearGradient>
<linearGradient id="paint1_linear" x1="25.5371" y1="65.4126" x2="27.4781" y2="65.4396" gradientUnits="userSpaceOnUse">
<stop stop-color="#F2B5C9"/>
<stop offset="1" stop-color="#EF95B2"/>
</linearGradient>
<linearGradient id="paint2_linear" x1="39.603" y1="55.4614" x2="53.6208" y2="56.0869" gradientUnits="userSpaceOnUse">
<stop stop-color="#F2B5C9"/>
<stop offset="1" stop-color="#EF95B2"/>
</linearGradient>
<linearGradient id="paint3_linear" x1="52.4366" y1="59.0933" x2="54.2571" y2="59.1612" gradientUnits="userSpaceOnUse">
<stop stop-color="#F2B5C9"/>
<stop offset="1" stop-color="#EF95B2"/>
</linearGradient>
<linearGradient id="paint4_linear" x1="55.2255" y1="63.4497" x2="57.5118" y2="63.5072" gradientUnits="userSpaceOnUse">
<stop stop-color="#F2B5C9"/>
<stop offset="1" stop-color="#EF95B2"/>
</linearGradient>
<linearGradient id="paint5_linear" x1="55.2149" y1="72.7017" x2="56.7247" y2="72.7618" gradientUnits="userSpaceOnUse">
<stop stop-color="#F2B5C9"/>
<stop offset="1" stop-color="#EF95B2"/>
</linearGradient>
<linearGradient id="paint6_linear" x1="30.9284" y1="55" x2="32.5709" y2="55.0647" gradientUnits="userSpaceOnUse">
<stop stop-color="#F2B5C9"/>
<stop offset="1" stop-color="#EF95B2"/>
</linearGradient>
<linearGradient id="paint7_linear" x1="33.6436" y1="28.2564" x2="68.2771" y2="31.3771" gradientUnits="userSpaceOnUse">
<stop stop-color="#F2B5C9"/>
<stop offset="1" stop-color="#EF95B2"/>
</linearGradient>
<linearGradient id="paint8_linear" x1="41.3884" y1="45.6289" x2="43.8381" y2="45.7805" gradientUnits="userSpaceOnUse">
<stop stop-color="#F2B5C9"/>
<stop offset="1" stop-color="#EF95B2"/>
</linearGradient>
<linearGradient id="paint9_linear" x1="47.7665" y1="47.4263" x2="50.2239" y2="47.5871" gradientUnits="userSpaceOnUse">
<stop stop-color="#F2B5C9"/>
<stop offset="1" stop-color="#EF95B2"/>
</linearGradient>
<linearGradient id="paint10_linear" x1="49.9826" y1="12" x2="56.2548" y2="12.2331" gradientUnits="userSpaceOnUse">
<stop stop-color="#F2B5C9"/>
<stop offset="1" stop-color="#EF95B2"/>
</linearGradient>
<linearGradient id="paint11_linear" x1="60.4888" y1="20.7603" x2="66.1524" y2="20.9918" gradientUnits="userSpaceOnUse">
<stop stop-color="#F2B5C9"/>
<stop offset="1" stop-color="#EF95B2"/>
</linearGradient>
<linearGradient id="paint12_linear" x1="40.1883" y1="17.4995" x2="45.2034" y2="17.7045" gradientUnits="userSpaceOnUse">
<stop stop-color="#F2B5C9"/>
<stop offset="1" stop-color="#EF95B2"/>
</linearGradient>
<linearGradient id="paint13_linear" x1="40.5051" y1="28.499" x2="41.7589" y2="28.5503" gradientUnits="userSpaceOnUse">
<stop stop-color="#F2B5C9"/>
<stop offset="1" stop-color="#EF95B2"/>
</linearGradient>
<linearGradient id="paint14_linear" x1="50.4045" y1="26.2993" x2="51.6583" y2="26.3506" gradientUnits="userSpaceOnUse">
<stop stop-color="#F2B5C9"/>
<stop offset="1" stop-color="#EF95B2"/>
</linearGradient>
<linearGradient id="paint15_linear" x1="50.4045" y1="30.6987" x2="51.6594" y2="30.7329" gradientUnits="userSpaceOnUse">
<stop stop-color="#F2B5C9"/>
<stop offset="1" stop-color="#EF95B2"/>
</linearGradient>
<linearGradient id="paint16_linear" x1="62.5031" y1="31.7988" x2="63.7569" y2="31.8501" gradientUnits="userSpaceOnUse">
<stop stop-color="#F2B5C9"/>
<stop offset="1" stop-color="#EF95B2"/>
</linearGradient>
<linearGradient id="paint17_linear" x1="62.5031" y1="36.1982" x2="63.7569" y2="36.2495" gradientUnits="userSpaceOnUse">
<stop stop-color="#F2B5C9"/>
<stop offset="1" stop-color="#EF95B2"/>
</linearGradient>
<linearGradient id="paint18_linear" x1="68.6247" y1="22.3897" x2="70.4071" y2="22.4227" gradientUnits="userSpaceOnUse">
<stop stop-color="#F2B5C9"/>
<stop offset="1" stop-color="#EF95B2"/>
</linearGradient>
<linearGradient id="paint19_linear" x1="46.6663" y1="65.8096" x2="73.8155" y2="87.1722" gradientUnits="userSpaceOnUse">
<stop stop-color="#F2B5C9"/>
<stop offset="1" stop-color="#EF95B2"/>
</linearGradient>
<linearGradient id="paint20_linear" x1="36.16" y1="2.53451e-05" x2="81.7551" y2="1.86376" gradientUnits="userSpaceOnUse">
<stop stop-color="#F2B5C9"/>
<stop offset="1" stop-color="#EF95B2"/>
</linearGradient>
</defs>
</svg>
