<svg width="80" height="80" viewBox="0 0 80 80" fill="none" xmlns="http://www.w3.org/2000/svg">
<path d="M30.9317 31.0727C30.2578 30.335 29.2983 29.903 28.2994 29.8875C26.2902 29.8617 24.628 31.4636 24.5939 33.4712C24.583 34.1184 25.0988 34.6519 25.7458 34.6628C25.7527 34.663 25.7592 34.663 25.7661 34.663C26.4041 34.663 26.9266 34.1512 26.9373 33.5108C26.9494 32.7937 27.5388 32.2184 28.2627 32.2309C28.6241 32.2366 28.9573 32.3866 29.2012 32.6534C29.6378 33.1314 30.3792 33.1648 30.8569 32.7283C31.3347 32.2919 31.3683 31.5505 30.9317 31.0727Z" fill="url(#paint0_linear)"/>
<path d="M37.1667 34.8924C36.8075 34.0481 36.1083 33.3817 35.2478 33.064C33.5175 32.4257 31.5886 33.3128 30.9475 35.041C30.7224 35.6479 31.0319 36.3223 31.6386 36.5474C31.773 36.5973 31.9106 36.6209 32.046 36.6209C32.522 36.6209 32.9695 36.3287 33.1449 35.8562C33.3374 35.3371 33.9175 35.0715 34.4363 35.2629C34.697 35.3592 34.9008 35.5534 35.0097 35.8096C35.263 36.4051 35.9514 36.6829 36.5467 36.4295C37.1425 36.1762 37.4198 35.4881 37.1667 34.8924Z" fill="url(#paint1_linear)"/>
<path d="M44.7195 24.5133C44.2614 24.056 43.5193 24.0569 43.0623 24.5151L41.9576 25.6219C41.5004 26.08 41.5012 26.8221 41.9593 27.2791C42.1879 27.5074 42.4875 27.6214 42.787 27.6214C43.0873 27.6214 43.3876 27.5068 43.6165 27.2774L44.7212 26.1705C45.1784 25.7124 45.1776 24.9704 44.7195 24.5133Z" fill="url(#paint2_linear)"/>
<path d="M37.4291 39.6421H35.8672C35.2198 39.6421 34.6953 40.1668 34.6953 40.814C34.6953 41.4611 35.2198 41.9858 35.8672 41.9858H37.4291C38.0764 41.9858 38.6009 41.4611 38.6009 40.814C38.6009 40.1668 38.0764 39.6421 37.4291 39.6421Z" fill="url(#paint3_linear)"/>
<path d="M49.4038 39.6421H47.8418C47.1945 39.6421 46.6699 40.1668 46.6699 40.814C46.6699 41.4611 47.1946 41.9858 47.8418 41.9858H49.4038C50.051 41.9858 50.5757 41.4611 50.5757 40.814C50.5757 40.1668 50.051 39.6421 49.4038 39.6421Z" fill="url(#paint4_linear)"/>
<path d="M79.9623 60.772L79.6572 59.1249C79.4627 58.0724 78.5436 57.3085 77.4719 57.3085C77.3373 57.3085 77.2017 57.3208 77.0683 57.3453L70.8558 58.4866L73.6692 56.6058C74.4066 56.113 74.7792 55.2314 74.6185 54.3569C74.5738 54.1174 74.49 53.8875 74.3688 53.6724L73.5174 52.1647C73.2257 51.6468 72.7281 51.2619 72.1539 51.1094C71.8727 51.0344 71.5786 51.0177 71.2918 51.055C71.605 49.326 71.7666 47.5601 71.7666 45.7624C71.7666 44.9648 71.2869 44.2784 70.6018 43.9735C71.4971 41.8441 71.5582 39.4063 70.6732 37.1739C70.6014 36.9923 70.4949 36.8303 70.3569 36.6921C70.22 36.5553 70.0599 36.4495 69.8782 36.3765C68.8177 35.9542 67.7032 35.7401 66.5655 35.7401C66.4201 35.7401 66.2752 35.7439 66.1308 35.7507C65.9685 32.48 63.2615 29.8689 59.9568 29.8689C59.5216 29.8689 59.0973 29.9151 58.6874 30.0014C58.9721 28.2983 58.8045 26.5166 58.1412 24.8437C58.0699 24.6598 57.9629 24.4948 57.8174 24.347C57.6774 24.207 57.5132 24.0991 57.331 24.0267C56.1887 23.5717 54.9881 23.3411 53.7624 23.3411C51.9162 23.3411 50.1501 23.8602 48.6254 24.8251C48.0684 23.2116 47.1498 21.6967 45.8664 20.4103C45.4904 20.0338 44.9904 19.8263 44.4584 19.8263C43.9264 19.8263 43.4264 20.0338 43.05 20.4106L37.3761 26.0975C36.3261 25.1609 34.9444 24.6011 33.4447 24.6011C33.1044 24.6011 32.7608 24.6309 32.4235 24.6897C31.2011 24.9025 30.0763 25.5008 29.2139 26.377C28.1082 25.8434 26.8415 25.6614 25.6241 25.8733C25.3563 25.9198 25.0965 25.9855 24.8443 26.0655V21.6833C24.8443 18.6655 22.4188 16.206 19.4185 16.1541V13.6688C20.337 13.5099 21.0382 12.7094 21.0382 11.7463V6.11523C21.0382 5.03836 20.1621 4.16211 19.0851 4.16211H9.55527C8.47825 4.16211 7.60216 5.03836 7.60216 6.11523V11.7463C7.60216 12.7094 8.3034 13.5099 9.22184 13.6688V16.1538C6.22154 16.2055 3.79624 18.665 3.79624 21.683V55.8853C1.45656 57.9983 0 60.9466 0 64.2069C0 70.6203 5.62888 75.8381 12.5479 75.8381L59.452 75.8243C61.0529 75.8237 62.5585 75.1201 63.5826 73.8942C64.5801 72.7007 65.004 71.1506 64.7597 69.6218L74.128 71.3054C74.2577 71.3287 74.3905 71.3406 74.5222 71.3406C74.9894 71.3406 75.437 71.1971 75.8161 70.9262C76.3035 70.5781 76.6333 70.0392 76.7213 69.4481L76.975 67.7454C77.0116 67.5015 77.0075 67.2559 76.963 67.0151C76.8017 66.1445 76.1388 65.4537 75.2739 65.2556L71.9719 64.4981L78.1783 63.358C78.7636 63.2505 79.2714 62.9219 79.6083 62.4327C79.9445 61.9447 80.0702 61.355 79.9623 60.772ZM66.5655 38.0835C67.271 38.0835 67.9646 38.1953 68.6315 38.4154C69.2274 40.2301 69.0043 42.1874 68.0711 43.8043H64.9143L65.9216 42.7946C66.3788 42.3365 66.3779 41.5945 65.9196 41.1373C65.4613 40.6801 64.7193 40.6809 64.2624 41.1391L63.7294 41.6734C63.4796 40.8507 63.0433 40.1142 62.4699 39.5099C63.633 38.5863 65.0608 38.0835 66.5655 38.0835ZM59.9568 32.2123C62.0732 32.2123 63.7949 33.9392 63.7949 36.0618C63.7949 36.1012 63.793 36.1401 63.7919 36.1792C62.5566 36.5809 61.418 37.252 60.447 38.1634C60.2924 38.1048 60.1357 38.0504 59.9748 38.0059C59.632 36.154 58.384 34.6696 56.7354 33.9764C57.4196 32.9164 58.6068 32.2123 59.9568 32.2123ZM53.7623 25.6845C54.5582 25.6845 55.3404 25.8133 56.0942 26.068C56.6999 27.8692 56.5762 29.804 55.8043 31.48C55.1698 32.0579 54.6549 32.7657 54.3031 33.5614C54.0938 33.5736 53.8846 33.5967 53.6779 33.6326C52.7596 33.7925 51.9034 34.1909 51.1868 34.7687C50.9425 34.3218 50.6432 33.9095 50.3004 33.5382L52.9878 30.8448C53.4449 30.3867 53.444 29.6447 52.9857 29.1876C52.5276 28.7304 51.7856 28.7312 51.3284 29.1895L48.3912 32.1334C47.8323 31.8692 47.2283 31.6854 46.5934 31.5995C46.8676 30.2011 47.5462 28.8834 48.5959 27.8312C49.977 26.4469 51.8118 25.6845 53.7623 25.6845ZM44.7826 43.8043H43.7669C43.5958 43.369 43.1728 43.0604 42.6767 43.0604C42.1806 43.0604 41.7576 43.3691 41.5866 43.8043H40.3916C40.6691 43.3524 40.613 42.7537 40.2212 42.3627C39.7631 41.9056 39.0211 41.9063 38.5639 42.3645L37.4594 43.4713C37.3602 43.5707 37.2839 43.684 37.2278 43.8043H34.8427C33.9494 42.4335 33.4042 40.8156 33.3397 39.0749H51.9312C51.8667 40.8156 51.3215 42.4335 50.4282 43.8043H47.9462C47.8903 43.684 47.8137 43.5705 47.7147 43.4712L46.6103 42.3643C46.1529 41.9063 45.4112 41.9051 44.9531 42.3624C44.5611 42.7534 44.505 43.3523 44.7826 43.8043ZM42.0572 36.7312C42.4989 35.0942 43.9922 33.8862 45.7619 33.8862C47.5317 33.8862 49.025 35.0943 49.4667 36.7312H42.0572ZM44.4536 22.3217C45.5683 23.5264 46.3053 24.9567 46.6667 26.4601C46.0684 27.1103 45.5714 27.8287 45.1794 28.5933C45.0014 28.4842 44.7928 28.4203 44.5689 28.4203H43.0073C42.3601 28.4203 41.8355 28.945 41.8355 29.5922C41.8355 30.2393 42.3601 30.764 43.0073 30.764H44.3772C44.3001 31.0876 44.2403 31.4151 44.1969 31.7451C43.7315 31.8673 43.2872 32.0414 42.8712 32.2629C42.0901 30.915 40.7967 29.9104 39.2642 29.5075C39.2638 29.5042 39.2631 29.5009 39.2625 29.4976C39.1706 28.9673 39.0103 28.4642 38.7917 27.9965L44.4536 22.3217ZM23.2696 32.8961C23.2008 32.7039 23.1488 32.5067 23.1146 32.3089C22.7785 30.3712 24.0847 28.52 26.0258 28.182C26.2305 28.1464 26.4385 28.1283 26.6438 28.1283C27.4158 28.1283 28.1536 28.3745 28.7772 28.8403C29.0352 29.0331 29.3614 29.1111 29.6789 29.0561C29.9964 29.0009 30.2772 28.8176 30.4553 28.549C31.0055 27.7192 31.8472 27.1686 32.8253 26.9983C33.0305 26.9625 33.2389 26.9445 33.4447 26.9445C35.181 26.9445 36.6566 28.1867 36.9531 29.8984C36.9872 30.0945 37.0047 30.2989 37.005 30.5059C37.0061 31.1125 37.47 31.6181 38.0744 31.6712C39.3845 31.7864 40.4998 32.6109 41.0169 33.7725C40.3247 34.6032 39.8448 35.6176 39.6627 36.7312H32.9796C32.1486 36.7312 31.4357 37.2442 31.1383 37.9701C29.668 36.9687 27.9352 36.4292 26.1193 36.4292C24.9816 36.4292 23.8671 36.6434 22.8058 37.0659C22.6258 37.1378 22.4649 37.2439 22.3277 37.381C22.1887 37.5201 22.0819 37.6831 22.0119 37.8618C21.7423 38.542 21.5624 39.2412 21.4652 39.9448C21.0452 39.4667 20.7493 38.8721 20.6337 38.2049C20.358 36.6149 21.1904 35.0318 22.6571 34.355C23.2083 34.1006 23.4741 33.4675 23.2696 32.8961ZM26.763 43.4838L27.0827 43.8043H24.2682C23.6363 42.3384 23.5404 40.6698 24.0533 39.1048C24.7212 38.8843 25.4144 38.7728 26.1193 38.7728C27.885 38.7728 29.5461 39.4629 30.7963 40.7159C30.9625 40.8826 31.1174 41.0573 31.2628 41.2377C31.4614 42.1368 31.7666 42.9957 32.1597 43.8041H30.3936L28.4222 41.8282C27.9649 41.3702 27.2229 41.369 26.7651 41.8263C26.3068 42.2837 26.3058 43.0257 26.763 43.4838ZM21.7724 43.8043H17.5948C17.781 42.6691 18.4638 41.7015 19.4116 41.1309C19.9727 41.8826 20.7051 42.4904 21.5488 42.9021C21.6085 43.2062 21.6818 43.5076 21.7724 43.8043ZM9.9459 6.50585H18.6945V11.3557H9.9459V6.50585ZM17.0748 13.6994V16.1514H11.5657V13.6994H17.0748ZM6.14013 26.4355H13.7499C14.3973 26.4355 14.9218 25.9108 14.9218 25.2636C14.9218 24.6164 14.3973 24.0917 13.7499 24.0917H6.14013V21.683C6.14013 19.9252 7.56575 18.4952 9.31809 18.4952H19.3224C21.0749 18.4952 22.5005 19.9252 22.5005 21.683V24.0917H20.3124C19.6651 24.0917 19.1406 24.6164 19.1406 25.2636C19.1406 25.9108 19.6651 26.4355 20.3124 26.4355H22.5005V27.4756C21.1579 28.792 20.4605 30.7225 20.8049 32.7082C20.8055 32.7121 20.8063 32.7162 20.8069 32.7203C18.927 34.0101 17.9252 36.3032 18.3241 38.6053C18.3474 38.7396 18.3766 38.8718 18.4085 39.0026C17.8231 39.3254 17.2973 39.7423 16.8467 40.2301H6.14013V26.4355ZM6.13998 42.5737H15.4859C15.3615 42.9687 15.2737 43.3798 15.2309 43.8043H15.0334C13.9548 43.8043 13.0771 44.6826 13.0771 45.7621C13.0771 47.6229 13.2501 49.4496 13.5853 51.2368C13.2485 51.2097 12.9032 51.1952 12.552 51.1952C11.1348 51.1952 9.78449 51.42 8.75028 51.8285C7.16825 52.4532 6.73091 53.3402 6.63544 53.9539C6.46779 54.0374 6.3031 54.1255 6.13998 54.2157V42.5737ZM20.9791 56.9697C21.4012 57.3074 21.6591 57.5944 21.8087 57.8014C21.7946 57.8016 21.7799 57.8017 21.7651 57.8017C21.1018 57.8017 19.9101 57.5344 18.5549 56.7842C18.0504 56.5047 17.5856 56.1889 17.2106 55.8713C16.7734 55.5008 16.1323 55.5011 15.6954 55.8714C15.3204 56.1894 14.8557 56.505 14.3517 56.7839C12.9962 57.5344 11.8045 57.8017 11.1414 57.8017C11.1262 57.8017 11.1117 57.8016 11.0975 57.8014C11.2468 57.5944 11.5048 57.3072 11.927 56.9694C12.2959 56.6741 12.4514 56.186 12.3212 55.7317C12.1909 55.2774 11.8006 54.9457 11.331 54.8907C10.1875 54.7566 9.46434 54.4655 9.12575 54.2536C9.54996 53.9894 10.6225 53.5389 12.5525 53.5389C14.1509 53.5389 15.3192 53.875 15.8795 54.1897C16.2359 54.3897 16.6704 54.3897 17.0268 54.1899C17.5874 53.8752 18.7559 53.5391 20.3543 53.5391C22.2844 53.5391 23.3568 53.9897 23.7808 54.2538C23.4424 54.4658 22.7191 54.7567 21.5752 54.8908C21.1057 54.946 20.7152 55.2775 20.5851 55.7321C20.4545 56.1864 20.6099 56.6745 20.9791 56.9697ZM18.6349 71.2331L18.6752 71.4503C18.8146 72.2029 19.1085 72.8937 19.5191 73.4943H12.5479C6.92138 73.4943 2.34374 69.3281 2.34374 64.2069C2.34374 60.707 4.48248 57.6545 7.63185 56.0717C7.99356 56.3417 8.4445 56.5746 8.9795 56.7624C8.76731 57.1247 8.6195 57.5144 8.58465 57.9208C8.5384 58.4611 8.70372 58.9742 9.05059 59.3658C9.50887 59.8833 10.2123 60.1456 11.1414 60.1456C12.3795 60.1456 14.004 59.6555 15.4868 58.8345C15.8282 58.6456 16.151 58.4461 16.4532 58.2377C16.7552 58.4459 17.0781 58.6455 17.4196 58.8347C18.9024 59.6555 20.527 60.1455 21.7651 60.1456H21.7652C22.694 60.1456 23.3974 59.8833 23.8555 59.3659C24.2026 58.9744 24.368 58.4613 24.3216 57.9208C24.2868 57.5144 24.139 57.1247 23.9268 56.7624C24.4618 56.5744 24.9129 56.3416 25.2746 56.0717C27.7722 57.327 29.6333 59.5069 30.2969 62.1011L22.0087 65.2497C19.5826 66.1715 18.1637 68.6878 18.6349 71.2331ZM61.7838 72.3915C61.206 73.0834 60.3555 73.4803 59.4509 73.4806L58.2209 73.481L57.4524 69.3318C57.3345 68.6954 56.7234 68.2747 56.0867 68.3929C55.4504 68.5107 55.0299 69.1222 55.1478 69.7586L55.8374 73.4818L51.8053 73.4834L51.2857 70.6776C51.1678 70.0412 50.5565 69.6209 49.92 69.7387C49.2837 69.8565 48.8632 70.4679 48.9811 71.1043L49.4217 73.4843L40.0428 73.4879L39.3369 69.6773C39.2188 69.0409 38.6078 68.6206 37.9711 68.7386C37.3347 68.8564 36.9144 69.4679 37.0322 70.1043L37.6592 73.4889L23.9649 73.4942C23.9646 73.4942 23.9643 73.4942 23.964 73.4942C22.4996 73.4942 21.2446 72.4551 20.9793 71.0229L20.939 70.8057C20.6741 69.3751 21.4738 67.96 22.8405 67.4406L27.4463 65.6909L27.7894 67.5428C27.894 68.107 28.3865 68.5014 28.9402 68.5014C29.0111 68.5014 29.083 68.4948 29.1552 68.4815C29.7914 68.3636 30.2118 67.7522 30.0938 67.1158L29.673 64.845L36.5097 62.2478C37.1147 62.018 37.4189 61.3411 37.1891 60.7361C36.9592 60.1309 36.2816 59.8269 35.6775 60.0567L32.4961 61.2653C31.6036 58.1055 29.3108 55.466 26.2704 53.9538C26.1749 53.34 25.7376 52.453 24.1557 51.8283C23.1215 51.4199 21.7712 51.195 20.354 51.195C19.3787 51.195 18.4473 51.3027 17.6251 51.4988V50.791C17.6251 50.1438 17.1006 49.6191 16.4532 49.6191C16.1796 49.6191 15.9287 49.7135 15.7292 49.8707C15.5443 48.6483 15.4409 47.4068 15.4237 46.1477H53.5935C54.2409 46.1477 54.7654 45.623 54.7654 44.9758C54.7654 44.3287 54.2409 43.804 53.5935 43.804H53.114C53.8603 42.2671 54.2818 40.544 54.2818 38.7229C54.2818 37.689 53.4907 36.8373 52.4826 36.7406C52.9215 36.3267 53.4693 36.0476 54.0799 35.9412C54.2589 35.9101 54.4404 35.8943 54.6198 35.8943C56.1327 35.8943 57.4184 36.9767 57.6766 38.4676C57.7065 38.6402 57.7218 38.8184 57.722 38.9973C57.7227 39.6042 58.1868 40.1101 58.7913 40.1632C60.1918 40.2862 61.3376 41.3395 61.5777 42.7245C61.6415 43.0927 61.6335 43.4562 61.5696 43.804H60.3123C59.6649 43.804 59.1404 44.3287 59.1404 44.9758C59.1404 45.623 59.6649 46.1477 60.3123 46.1477H69.4203C69.3913 48.2974 69.1144 50.3972 68.598 52.4346L62.2471 56.1836C61.8587 54.8317 60.9559 53.685 59.712 52.9888C58.3168 52.208 56.6588 52.086 55.1635 52.6539L42.0837 57.623C41.4786 57.8528 41.1745 58.5297 41.4044 59.1347C41.6342 59.7399 42.3117 60.0436 42.9159 59.8141L44.639 59.1595L45.174 62.0481C45.2786 62.6123 45.7711 63.0069 46.325 63.0069C46.3958 63.0069 46.4676 63.0003 46.5398 62.987C47.1761 62.8692 47.5965 62.2578 47.4787 61.6214L46.8661 58.3136L55.9956 54.8453C56.8415 54.5241 57.7787 54.593 58.5673 55.0344C59.3545 55.4749 59.8998 56.2342 60.0635 57.1174L62.4343 69.9165C62.5977 70.7992 62.3607 71.7012 61.7838 72.3915ZM65.9651 63.2187C65.4183 63.3192 65.0176 63.7898 65.0052 64.3456C64.993 64.9014 65.373 65.3892 65.9147 65.5134L74.6397 67.5147L74.4217 68.977L64.3071 67.1594L62.726 58.6228L71.536 53.4222L72.2699 54.7217L64.839 59.6891C64.3769 59.998 64.1954 60.5889 64.4044 61.1039C64.6133 61.6189 65.1555 61.9164 65.7021 61.8159L77.3749 59.6717L77.6348 61.0748L65.9651 63.2187Z" fill="url(#paint5_linear)"/>
<defs>
<linearGradient id="paint0_linear" x1="27.5971" y1="29.8872" x2="31.3782" y2="30.1022" gradientUnits="userSpaceOnUse">
<stop stop-color="#F2B5C9"/>
<stop offset="1" stop-color="#EF95B2"/>
</linearGradient>
<linearGradient id="paint1_linear" x1="33.7607" y1="32.8569" x2="37.3892" y2="33.1086" gradientUnits="userSpaceOnUse">
<stop stop-color="#F2B5C9"/>
<stop offset="1" stop-color="#EF95B2"/>
</linearGradient>
<linearGradient id="paint2_linear" x1="43.1739" y1="24.1709" x2="45.1392" y2="24.2512" gradientUnits="userSpaceOnUse">
<stop stop-color="#F2B5C9"/>
<stop offset="1" stop-color="#EF95B2"/>
</linearGradient>
<linearGradient id="paint3_linear" x1="36.4606" y1="39.6421" x2="38.68" y2="39.7933" gradientUnits="userSpaceOnUse">
<stop stop-color="#F2B5C9"/>
<stop offset="1" stop-color="#EF95B2"/>
</linearGradient>
<linearGradient id="paint4_linear" x1="48.4353" y1="39.6421" x2="50.6548" y2="39.7933" gradientUnits="userSpaceOnUse">
<stop stop-color="#F2B5C9"/>
<stop offset="1" stop-color="#EF95B2"/>
</linearGradient>
<linearGradient id="paint5_linear" x1="36.16" y1="4.16213" x2="81.7363" y2="6.24146" gradientUnits="userSpaceOnUse">
<stop stop-color="#F2B5C9"/>
<stop offset="1" stop-color="#EF95B2"/>
</linearGradient>
</defs>
</svg>
