<svg width="80" height="80" viewBox="0 0 80 80" fill="none" xmlns="http://www.w3.org/2000/svg">
<path d="M73.9568 44.0785C71.696 42.2603 68.4441 42.4363 66.3927 44.4878L55.3857 55.4949C55.1107 53.32 53.5327 51.5063 51.3605 50.9619L36.5841 47.2599C33.5094 46.4894 30.2647 46.8641 27.4468 48.3142L18.3877 52.9763L17.5338 51.4974C17.2029 50.9241 16.6685 50.5141 16.0291 50.3427C15.3905 50.1719 14.7225 50.2596 14.1493 50.5903L5.18941 55.7632C4.00644 56.4461 3.59957 57.9644 4.28254 59.1475L15.5979 78.7461C15.9288 79.3194 16.463 79.7294 17.1022 79.9008C17.3157 79.958 17.5324 79.9863 17.7477 79.9863C18.1769 79.9863 18.6007 79.8736 18.9824 79.6533L27.9419 74.4805C29.125 73.7975 29.5321 72.2792 28.8489 71.096L19.9519 55.6858L28.8764 51.0928C31.0194 49.99 33.4868 49.7053 35.8244 50.2911L50.6008 53.9932C51.6033 54.2442 52.3033 55.1416 52.3033 56.1749C52.3033 57.415 51.2944 58.4239 50.0541 58.4239H48.3655H38.4402C37.5774 58.4239 36.8777 59.1236 36.8777 59.9864C36.8777 60.8492 37.5774 61.5489 38.4402 61.5489H48.3655H50.0541H51.3991C52.9157 61.5489 54.3415 60.9585 55.4138 59.886L68.6021 46.6977C69.5229 45.7766 70.983 45.6975 71.998 46.5138C72.5691 46.9728 72.9055 47.6289 72.9451 48.3605C72.9847 49.0922 72.7211 49.7805 72.203 50.2985L58.3046 64.1969C56.4094 66.0922 53.8896 67.136 51.2094 67.136H38.4599C37.5971 67.136 36.8974 67.8357 36.8974 68.6985C36.8974 69.5613 37.5971 70.261 38.4599 70.261H51.2094C54.7243 70.261 58.029 68.8921 60.5144 66.4068L74.4129 52.5083C75.55 51.371 76.1526 49.7975 76.0655 48.1916C75.979 46.5855 75.2102 45.0863 73.9568 44.0785ZM23.3205 73.54L19.4363 66.8124C19.0047 66.0653 18.0491 65.8089 17.3019 66.2405C16.5546 66.6721 16.2985 67.6275 16.73 68.3749L20.6143 75.1027L17.9808 76.6232L7.31269 58.1458L15.151 53.6203L25.8188 72.0975L23.3205 73.54Z" fill="url(#paint0_linear)"/>
<path d="M72.1875 5.29713C73.0503 5.29713 73.75 4.5976 73.75 3.73463V1.57666C73.75 0.713691 73.0503 0.0141602 72.1875 0.0141602C71.3247 0.0141602 70.625 0.713691 70.625 1.57666V3.73463C70.625 4.5976 71.3247 5.29713 72.1875 5.29713Z" fill="url(#paint1_linear)"/>
<path d="M72.1875 15.6389C73.0503 15.6389 73.75 14.9394 73.75 14.0764V11.9185C73.75 11.0555 73.0503 10.356 72.1875 10.356C71.3247 10.356 70.625 11.0555 70.625 11.9185V14.0764C70.625 14.9394 71.3247 15.6389 72.1875 15.6389Z" fill="url(#paint2_linear)"/>
<path d="M78.4374 6.26416H76.2793C75.4165 6.26416 74.7168 6.96369 74.7168 7.82666C74.7168 8.68963 75.4165 9.38916 76.2793 9.38916H78.4374C79.3002 9.38916 79.9999 8.68963 79.9999 7.82666C79.9999 6.96369 79.3002 6.26416 78.4374 6.26416Z" fill="url(#paint3_linear)"/>
<path d="M65.9375 9.38916H68.0956C68.9584 9.38916 69.6581 8.68963 69.6581 7.82666C69.6581 6.96369 68.9584 6.26416 68.0956 6.26416H65.9375C65.0747 6.26416 64.375 6.96369 64.375 7.82666C64.375 8.68963 65.0747 9.38916 65.9375 9.38916Z" fill="url(#paint4_linear)"/>
<path d="M7.8125 37.4846C8.67531 37.4846 9.375 36.7851 9.375 35.9221V33.7642C9.375 32.9012 8.67531 32.2017 7.8125 32.2017C6.94969 32.2017 6.25 32.9012 6.25 33.7642V35.9221C6.25 36.7851 6.94969 37.4846 7.8125 37.4846Z" fill="url(#paint5_linear)"/>
<path d="M7.8125 47.8266C8.67531 47.8266 9.375 47.1269 9.375 46.2641V44.106C9.375 43.2431 8.67531 42.5435 7.8125 42.5435C6.94969 42.5435 6.25 43.2431 6.25 44.106V46.2641C6.25 47.1269 6.94969 47.8266 7.8125 47.8266Z" fill="url(#paint6_linear)"/>
<path d="M11.9043 41.5767H14.0624C14.9252 41.5767 15.6249 40.877 15.6249 40.0142C15.6249 39.1512 14.9252 38.4517 14.0624 38.4517H11.9043C11.0415 38.4517 10.3418 39.1512 10.3418 40.0142C10.3418 40.877 11.0415 41.5767 11.9043 41.5767Z" fill="url(#paint7_linear)"/>
<path d="M5.28312 40.0142C5.28312 39.1512 4.58344 38.4517 3.72062 38.4517H1.5625C0.699688 38.4517 0 39.1512 0 40.0142C0 40.877 0.699688 41.5767 1.5625 41.5767H3.72062C4.58344 41.5767 5.28312 40.877 5.28312 40.0142Z" fill="url(#paint8_linear)"/>
<path d="M32.2109 67.1357C31.7984 67.1357 31.3969 67.3029 31.1064 67.5936C30.8142 67.8842 30.6484 68.2873 30.6484 68.6982C30.6484 69.1092 30.8142 69.5123 31.1064 69.8029C31.3969 70.0934 31.8 70.2607 32.2109 70.2607C32.622 70.2607 33.025 70.0936 33.3156 69.8029C33.6062 69.5123 33.7734 69.1092 33.7734 68.6982C33.7734 68.2873 33.6064 67.8842 33.3156 67.5936C33.025 67.3029 32.622 67.1357 32.2109 67.1357Z" fill="url(#paint9_linear)"/>
<path d="M13.8535 61.076C13.5629 61.3666 13.3955 61.7697 13.3955 62.1807C13.3955 62.5916 13.5627 62.9947 13.8535 63.2854C14.1439 63.5758 14.5471 63.7432 14.958 63.7432C15.3707 63.7432 15.7721 63.576 16.0627 63.2854C16.3549 62.9947 16.5205 62.5916 16.5205 62.1807C16.5205 61.7697 16.3549 61.3666 16.0627 61.076C15.7721 60.7855 15.3705 60.6182 14.958 60.6182C14.5472 60.6182 14.1441 60.7854 13.8535 61.076Z" fill="url(#paint10_linear)"/>
<path d="M17.7773 21.8978C17.7773 26.2288 19.0807 30.4625 21.5225 34.0636C23.9643 37.6647 27.4349 40.4714 31.4955 42.1287C35.5561 43.7861 40.0242 44.2198 44.3349 43.3749C48.6456 42.5299 52.6052 40.4444 55.713 37.3819C58.8209 34.3194 60.9373 30.4176 61.7948 26.1699C62.6522 21.9221 62.2122 17.5192 60.5302 13.5179C58.8483 9.51658 56 6.09661 52.3456 3.69045C48.6911 1.28428 44.3947 0 39.9996 0C34.1059 0 28.4536 2.30708 24.2861 6.41372C20.1186 10.5204 17.7773 16.0901 17.7773 21.8978ZM60.2894 21.8978C60.2894 25.8522 59.0994 29.7177 56.87 33.0057C54.6405 36.2936 51.4716 38.8563 47.7642 40.3695C44.0567 41.8828 39.9771 42.2788 36.0412 41.5073C32.1054 40.7358 28.4901 38.8316 25.6525 36.0355C22.8149 33.2393 20.8825 29.6768 20.0996 25.7984C19.3167 21.92 19.7185 17.8999 21.2542 14.2466C22.7899 10.5932 25.3905 7.47063 28.7271 5.27369C32.0638 3.07676 35.9866 1.90416 39.9996 1.90416C45.3808 1.90416 50.5416 4.01062 54.3467 7.76016C58.1517 11.5097 60.2894 16.5952 60.2894 21.8978Z" fill="url(#paint11_linear)"/>
<path d="M21.6426 21.8976C21.6426 25.4754 22.7192 28.9728 24.7364 31.9476C26.7535 34.9224 29.6206 37.241 32.975 38.6101C36.3294 39.9793 40.0204 40.3375 43.5814 39.6395C47.1424 38.9415 50.4134 37.2187 52.9808 34.6888C55.5481 32.1589 57.2965 28.9357 58.0048 25.4267C58.7132 21.9177 58.3496 18.2805 56.9602 14.9751C55.5707 11.6696 53.2178 8.84444 50.1989 6.85674C47.1801 4.86904 43.6308 3.80811 40.0001 3.80811C35.1314 3.80811 30.4621 5.71396 27.0194 9.1064C23.5767 12.4988 21.6426 17.1 21.6426 21.8976ZM50.3479 13.0528L52.2803 11.1486C54.7454 13.8591 56.2064 17.3123 56.4252 20.9455H53.5266V22.8497H56.4252C56.2101 26.4728 54.7598 29.9182 52.3092 32.6275L50.3769 30.7234L49.0049 32.0753L50.9373 33.9795C48.1817 36.4215 44.6659 37.8684 40.9662 38.0829V35.2267H39.0339V38.0829C35.3571 37.871 31.8607 36.4419 29.1112 34.0271L31.0435 32.1229L29.6716 30.771L27.7392 32.6751C25.2786 29.9532 23.8276 26.4894 23.6233 22.8497H26.4735V20.9455H23.6233C23.8383 17.3224 25.2886 13.877 27.7392 11.1677L29.6716 13.0718L31.0435 11.7199L29.1112 9.81572C31.8607 7.40092 35.3571 5.97177 39.0339 5.75987V8.5685H40.9662V5.75987C44.643 5.97177 48.1395 7.40092 50.889 9.81572L48.9566 11.7199L50.3479 13.0528Z" fill="url(#paint12_linear)"/>
<path d="M40.9656 10.4727H39.0332V21.8976C39.0325 22.0229 39.0569 22.1471 39.1049 22.2631C39.153 22.3791 39.2239 22.4846 39.3134 22.5736L45.1105 28.286L46.4825 26.9341L40.9656 21.5072V10.4727Z" fill="url(#paint13_linear)"/>
<defs>
<linearGradient id="paint0_linear" x1="36.5506" y1="42.8237" x2="77.4672" y2="46.0696" gradientUnits="userSpaceOnUse">
<stop stop-color="#F2B5C9"/>
<stop offset="1" stop-color="#EF95B2"/>
</linearGradient>
<linearGradient id="paint1_linear" x1="72.0375" y1="0.0141618" x2="73.8205" y2="0.0572729" gradientUnits="userSpaceOnUse">
<stop stop-color="#F2B5C9"/>
<stop offset="1" stop-color="#EF95B2"/>
</linearGradient>
<linearGradient id="paint2_linear" x1="72.0375" y1="10.356" x2="73.8205" y2="10.3991" gradientUnits="userSpaceOnUse">
<stop stop-color="#F2B5C9"/>
<stop offset="1" stop-color="#EF95B2"/>
</linearGradient>
<linearGradient id="paint3_linear" x1="77.1048" y1="6.26416" x2="80.1065" y2="6.4716" gradientUnits="userSpaceOnUse">
<stop stop-color="#F2B5C9"/>
<stop offset="1" stop-color="#EF95B2"/>
</linearGradient>
<linearGradient id="paint4_linear" x1="66.763" y1="6.26416" x2="69.7647" y2="6.4716" gradientUnits="userSpaceOnUse">
<stop stop-color="#F2B5C9"/>
<stop offset="1" stop-color="#EF95B2"/>
</linearGradient>
<linearGradient id="paint5_linear" x1="7.6625" y1="32.2017" x2="9.44549" y2="32.2448" gradientUnits="userSpaceOnUse">
<stop stop-color="#F2B5C9"/>
<stop offset="1" stop-color="#EF95B2"/>
</linearGradient>
<linearGradient id="paint6_linear" x1="7.6625" y1="42.5435" x2="9.44549" y2="42.5866" gradientUnits="userSpaceOnUse">
<stop stop-color="#F2B5C9"/>
<stop offset="1" stop-color="#EF95B2"/>
</linearGradient>
<linearGradient id="paint7_linear" x1="12.7298" y1="38.4517" x2="15.7315" y2="38.6591" gradientUnits="userSpaceOnUse">
<stop stop-color="#F2B5C9"/>
<stop offset="1" stop-color="#EF95B2"/>
</linearGradient>
<linearGradient id="paint8_linear" x1="2.38797" y1="38.4517" x2="5.38972" y2="38.6591" gradientUnits="userSpaceOnUse">
<stop stop-color="#F2B5C9"/>
<stop offset="1" stop-color="#EF95B2"/>
</linearGradient>
<linearGradient id="paint9_linear" x1="32.0609" y1="67.1357" x2="33.842" y2="67.2085" gradientUnits="userSpaceOnUse">
<stop stop-color="#F2B5C9"/>
<stop offset="1" stop-color="#EF95B2"/>
</linearGradient>
<linearGradient id="paint10_linear" x1="14.808" y1="60.6182" x2="16.5891" y2="60.691" gradientUnits="userSpaceOnUse">
<stop stop-color="#F2B5C9"/>
<stop offset="1" stop-color="#EF95B2"/>
</linearGradient>
<linearGradient id="paint11_linear" x1="37.8662" y1="1.3875e-05" x2="63.1956" y2="1.05071" gradientUnits="userSpaceOnUse">
<stop stop-color="#F2B5C9"/>
<stop offset="1" stop-color="#EF95B2"/>
</linearGradient>
<linearGradient id="paint12_linear" x1="38.2378" y1="3.80812" x2="59.162" y2="4.67609" gradientUnits="userSpaceOnUse">
<stop stop-color="#F2B5C9"/>
<stop offset="1" stop-color="#EF95B2"/>
</linearGradient>
<linearGradient id="paint13_linear" x1="42.4003" y1="10.4727" x2="46.6518" y2="10.5453" gradientUnits="userSpaceOnUse">
<stop stop-color="#F2B5C9"/>
<stop offset="1" stop-color="#EF95B2"/>
</linearGradient>
</defs>
</svg>
