<svg width="70" height="70" viewBox="0 0 70 70" fill="none" xmlns="http://www.w3.org/2000/svg">
<path d="M69.9785 36.2214C70.1193 40.6829 69.3457 45.126 67.7053 49.2774C66.0649 53.4288 63.5924 57.2008 60.4398 60.3614C57.2873 63.5219 53.5212 66.0041 49.3735 67.6554C45.2258 69.3067 40.7842 70.0921 36.3216 69.9634C29.2957 70.2288 22.3526 68.3724 16.3971 64.636C10.4415 60.8995 5.74956 55.4564 2.93242 49.0156C0.115275 42.5748 -0.696497 35.4348 0.603026 28.5262C1.90255 21.6175 5.25312 15.2604 10.2181 10.2829C15.183 5.30542 21.5322 1.93837 28.4385 0.620472C35.3448 -0.697426 42.4879 0.0949321 48.9374 2.89426C55.3868 5.69359 60.8435 10.3701 64.5965 16.3146C68.3496 22.2591 70.225 29.196 69.9785 36.2214Z" fill="#FFBAE4"/>
<path d="M34.1722 59.1369C31.0685 59.2019 27.9841 58.6353 25.1062 57.4715C22.2282 56.3077 19.6169 54.5711 17.4311 52.3671C15.2452 50.1631 13.5304 47.5377 12.3908 44.6506C11.2511 41.7634 10.7104 38.6747 10.8016 35.5722C10.8928 32.4697 11.6141 29.4181 12.9214 26.6029C14.2287 23.7876 16.0948 21.2676 18.4064 19.1957C20.7179 17.1239 23.4267 15.5436 26.368 14.5509C29.3094 13.5581 32.4218 13.1736 35.5163 13.4208C38.6436 13.0438 41.8157 13.3691 44.8013 14.3732C47.7869 15.3773 50.5108 17.0348 52.7745 19.2248C55.0382 21.4149 56.7846 24.0823 57.8864 27.0328C58.9883 29.9832 59.4179 33.1422 59.1438 36.2797C59.1456 51.2756 50.2935 59.3785 34.1722 59.1369Z" fill="#FFA4DC"/>
</svg>
