<svg width="164" height="35" viewBox="0 0 164 35" fill="none" xmlns="http://www.w3.org/2000/svg">
<path d="M155.284 24.3239C153.428 23.847 151.646 23.9937 149.975 24.5074C151.72 21.8291 152.5 18.7107 151.572 15.3354C150.124 9.94222 145.781 5.28286 140.881 2.64132C131.154 -2.60506 116.454 0.403354 111.962 11.263C109.252 17.8302 114.412 23.957 120.76 25.5346C126.366 26.9288 134.792 25.0577 134.458 17.8668C134.384 16.5828 132.38 16.5828 132.454 17.8668C132.862 26.0116 120.723 24.7642 116.454 21.2788C113.93 19.1876 112.519 15.8123 113.559 12.6571C114.487 9.75879 116.862 7.22732 119.35 5.50298C129.261 -1.43105 143.442 2.56794 148.676 13.3175C150.198 16.4727 150.495 19.7746 148.713 22.8564C147.191 25.4612 144.741 27.5158 142.18 29.02C136.834 32.1751 130.561 33.019 124.435 32.6888C117.79 32.2852 110.626 30.7076 104.686 27.6258C106.728 27.6258 108.695 27.0755 109.661 25.4246C110.44 24.1038 110.403 22.8931 109.475 21.6824C108.324 20.1048 106.468 19.848 104.649 19.7746C103.35 19.7012 103.35 21.6824 104.649 21.7558C105.726 21.7924 107.693 21.9025 108.102 23.1866C108.51 24.434 107.211 25.2411 106.134 25.4613C104.092 25.8281 101.939 25.4612 100.009 24.8009C99.8975 24.7642 99.749 24.7275 99.6377 24.7275C96.2595 22.7463 92.6587 21.0587 88.6495 22.0126C86.4964 22.5262 84.4175 23.957 84.0834 26.2317C83.7864 28.2495 84.7145 30.8177 86.2736 32.1752C89.9116 35.4037 95.3315 35.4404 98.9695 32.3586C99.9346 31.5148 98.524 30.1206 97.5588 30.9645C95.0345 33.0924 91.8049 33.2024 88.9464 31.6248C86.5335 30.3041 84.5289 26.4885 87.4616 24.5807C90.5056 22.6363 95.1459 24.2872 97.9672 25.9382C100.863 27.6258 103.535 29.4969 106.654 30.7443C118.422 35.4404 134.124 37.4215 145.001 29.5703C145.187 29.4602 145.335 29.3135 145.484 29.2034C145.558 29.1667 145.632 29.13 145.669 29.0934C148.713 26.7086 153.131 24.6541 156.695 27.259C158.365 28.4697 160.036 31.1112 157.586 32.5053C156.62 33.0557 155.358 33.2391 154.282 32.8722C153.613 32.6154 151.386 31.0011 152.797 30.1573C153.91 29.4969 152.908 27.8093 151.794 28.433C148.973 30.0839 150.941 33.5326 153.279 34.5599C155.915 35.7339 160.295 34.5232 160.852 31.368C161.446 28.0661 158.217 25.0577 155.284 24.3239Z" fill="#EC6985"/>
<path d="M161.632 19.4439C163.117 18.49 164.194 17.2793 163.971 15.7751C163.674 13.9774 161.001 13.9774 159.665 14.3076C158.848 14.5277 158.143 14.8946 157.512 15.4082C157.475 15.3715 157.475 15.2981 157.438 15.2614C156.955 14.491 156.175 14.2342 155.359 14.7111C152.871 16.1786 154.059 19.7741 153.354 22.012C153.02 23.076 154.468 23.6263 155.099 22.8926C156.25 22.3422 157.289 23.5162 158.403 23.6997C159.219 23.8464 160.222 23.7364 161.001 23.5162C162.226 23.186 163.674 22.0854 163.117 20.6546C162.894 20.1043 162.338 19.7007 161.632 19.4439ZM159.553 16.4722C159.925 16.2887 161.298 15.8118 161.707 16.1786C162.152 16.6189 161.15 17.2059 160.816 17.4627C159.962 18.1231 158.96 18.6367 157.92 19.0036C157.141 19.077 156.398 19.2604 155.656 19.5173C155.656 19.2971 155.656 19.077 155.656 18.8202C156.101 19.1871 156.881 19.1871 157.252 18.6367C157.846 17.7562 158.551 16.9124 159.553 16.4722ZM159.999 21.7552C158.96 21.902 158.328 21.5718 157.586 21.2049C157.809 21.1315 158.069 21.0582 158.328 20.9848C159.034 20.9114 159.739 20.9848 160.407 21.1682C161.669 21.5351 160.89 21.6085 159.999 21.7552Z" fill="#EC6985"/>
<path d="M78.1444 23.2595C74.1352 20.031 68.1956 22.269 64.2235 24.6537C64.1493 24.6537 64.0379 24.6904 63.9637 24.7271C62.0333 25.4241 59.8802 25.791 57.8385 25.3874C56.9104 25.204 55.574 24.5436 55.8339 23.4063C56.168 21.9021 58.0983 21.7553 59.3234 21.6819C60.6227 21.6086 60.6227 19.6274 59.3234 19.7008C57.5415 19.7742 55.7596 20.031 54.5717 21.5352C53.6065 22.7826 53.5323 24.03 54.3119 25.3874C55.2771 27.0384 57.1703 27.5887 59.1749 27.5887C54.7573 29.7533 50.0428 31.1841 45.1427 32.028C38.869 33.1286 32.2241 33.202 26.1732 31.0374C24.0943 30.3036 21.7928 29.1663 19.7882 27.6988C19.751 27.6621 19.751 27.6621 19.7139 27.6254C19.4541 27.4053 19.1571 27.2218 18.8972 27.0017C16.1502 24.7637 14.1084 21.8654 14.0342 18.4534C13.8857 12.62 19.0828 7.15351 23.8716 4.47528C29.0316 1.61362 35.1568 1.17335 40.6509 3.33794C46.5533 5.68597 53.755 12.5466 49.486 19.1872C47.37 22.4524 43.2123 23.9933 39.3887 24.0667C35.6394 24.14 31.3703 22.1222 31.593 17.8664C31.6673 16.5823 29.6627 16.5823 29.5884 17.8664C29.2915 23.9933 35.825 26.5615 41.0592 25.9378C46.6276 25.2774 52.233 21.6453 52.7899 15.7385C53.3096 10.0885 48.2981 5.06229 43.6207 2.5675C38.6091 -0.110721 32.5953 -0.771114 27.1384 0.953222C21.867 2.60418 17.1896 6.23631 14.3683 10.9691C11.6212 15.5184 11.3614 20.2878 14.0342 24.5069C12.4751 24.03 10.8046 23.8832 9.05981 24.2501C5.97866 24.9105 2.60054 27.9923 3.15737 31.3309C3.67708 34.4127 7.83478 35.6234 10.4705 34.6328C12.9205 33.7156 15.1107 30.1202 12.1781 28.3959C11.0644 27.7355 10.0621 29.4598 11.1758 30.1202C12.5864 30.964 10.3591 32.5783 9.69089 32.8351C8.61434 33.2387 7.35219 33.0185 6.38701 32.4682C3.89981 31.0741 5.57032 28.4325 7.27794 27.2218C10.6932 24.7637 14.8509 26.4881 17.8578 28.726C26.9899 36.3571 40.9107 35.6601 51.7876 32.5783C55.574 31.5143 59.1749 30.1202 62.553 28.139C66.0425 26.0845 69.6805 23.3329 74.0238 23.7732C76.1398 23.9933 78.3671 25.314 77.9216 27.7355C77.6618 29.0929 77.0307 30.3403 75.8799 31.1475C72.9844 33.1653 69.235 33.312 66.4509 30.964C65.4857 30.1569 64.0379 31.551 65.0402 32.3582C68.4555 35.2565 72.9844 35.3666 76.7337 32.9452C79.8149 30.8539 81.374 25.8644 78.1444 23.2595Z" fill="#EC6985"/>
<path d="M5.57001 23.7364C6.68368 23.553 7.72311 22.3422 8.8739 22.9293C9.50498 23.663 10.9527 23.1127 10.6186 22.0487C9.91332 19.8108 11.0641 16.2154 8.61404 14.7478C7.90872 14.3443 7.12915 14.4543 6.64656 15.1147C6.57232 15.2248 6.49807 15.2981 6.46095 15.4082C5.82987 14.9313 5.12455 14.5277 4.34498 14.3443C2.97145 13.9774 0.372895 14.0141 0.0387948 15.8118C-0.221061 17.316 0.855487 18.5634 2.34038 19.4806C1.67218 19.7374 1.07822 20.141 0.855487 20.728C0.298652 22.1588 1.74642 23.2961 2.97146 23.5896C3.78815 23.7731 4.75332 23.8831 5.57001 23.7364ZM2.22901 16.2887C2.45174 15.7751 3.75102 16.1787 4.12225 16.3254C5.27304 16.729 6.08973 17.6095 6.7208 18.6368C7.09203 19.1871 7.8716 19.1871 8.31706 18.8202C8.31706 19.0403 8.31706 19.2604 8.31706 19.4806C7.61174 19.2238 6.83217 19.0403 6.05261 18.967C5.01318 18.6001 4.01088 18.0864 3.15707 17.4261C2.86009 17.2426 2.0434 16.6923 2.22901 16.2887ZM4.01088 21.7552C3.3798 21.6452 1.93203 21.6819 3.60253 21.2049C4.27073 21.0215 4.93893 20.9481 5.64426 20.9848H5.68138C5.94124 21.0582 6.20109 21.1682 6.46095 21.2416C5.7185 21.5351 5.08743 21.902 4.01088 21.7552Z" fill="#EC6985"/>
<path d="M89.355 15.5919C89.1694 14.3812 88.2413 13.3172 87.0163 13.0971C86.3481 12.987 85.7912 13.1338 85.3086 13.4273C84.7518 10.9692 83.2669 8.47441 80.4827 9.24486C78.4039 9.83187 77.5872 12.4 77.4387 14.6013C75.9167 14.2344 74.3947 14.9315 74.2833 17.0227C74.172 19.8477 78.5524 22.2324 80.5941 23.3697C80.9653 23.5899 81.3366 23.5165 81.5964 23.333C81.8191 23.3697 82.0419 23.3697 82.2646 23.223C84.9374 21.7555 89.9489 19.3707 89.355 15.5919ZM87.3133 16.8393C87.1648 17.6097 86.2367 18.3068 85.4943 18.8204C85.4571 18.6737 85.3829 18.4902 85.2344 18.3802C84.8632 18.0133 84.1579 17.9766 83.8238 18.3802C83.4525 18.8571 83.0442 19.2974 82.6358 19.7376C82.376 17.9766 82.6358 16.2156 82.5987 14.4179C82.5987 13.1338 80.5941 13.1338 80.5941 14.4179C80.6312 15.9588 80.4456 17.463 80.557 19.0039C80.4085 18.7837 80.26 18.5269 80.0744 18.3068C79.3691 17.2428 77.6615 18.2334 78.3297 19.2974C78.441 19.4808 78.5524 19.6642 78.7009 19.8844C78.4781 19.7009 78.2183 19.5175 77.9956 19.3341C77.5501 18.9672 76.919 18.5269 76.6592 18.0133C76.2879 17.2795 76.1394 15.5552 77.6986 17.0227C78.4781 17.7565 79.5176 16.986 79.3691 16.0688C79.1835 14.8581 79.4433 13.2805 80.1115 12.2166C81.0767 10.6757 82.673 11.9598 83.1184 13.0971C83.4897 14.051 83.5268 15.0049 83.4897 15.9954C83.4525 16.986 84.8632 17.3162 85.3458 16.5091C85.9768 15.3351 87.6102 15.5185 87.3133 16.8393Z" fill="#EC6985"/>
</svg>
