<svg width="178" height="32" viewBox="0 0 178 32" fill="none" xmlns="http://www.w3.org/2000/svg">
<path d="M177.645 1.75806C176.436 -0.521972 171.84 -0.0968817 169.784 0.59872C168.293 1.1011 166.963 2.18314 165.753 3.14925C164.06 4.46317 162.609 6.4727 160.755 7.5161C160.553 7.63204 160.432 7.78661 160.352 7.94118C155.515 10.2985 150.435 12.1148 145.276 13.6219C145.961 13.0036 146.606 12.308 147.211 11.6124C148.783 9.91206 152.411 6.74321 150.234 4.23132C147.775 1.37162 143.704 3.80623 141.527 5.58388C139.793 7.01372 138.987 8.52085 138.06 10.4531C137.214 12.2307 136.206 14.0857 136.286 16.0952C132.941 16.9067 129.514 17.4477 126.128 17.4091C123.508 17.3705 120.848 16.9453 118.187 16.3657C121.009 15.8633 123.548 14.9358 126.128 13.2355C128.265 11.8443 132.82 9.25509 130.925 6.24081C129.031 3.1879 124.274 4.65641 121.855 6.16354C118.106 8.48222 115.647 11.4192 113.672 15.2063C111.778 14.704 109.883 14.163 108.069 13.7379C102.667 12.424 97.3062 10.9168 92.7914 7.63201C91.6627 6.82047 90.5744 8.6368 91.7031 9.44833C94.7666 11.6511 98.2333 13.0809 101.821 14.2016C101.257 15.5155 100.773 16.9067 101.055 18.3366C101.378 19.921 102.224 21.66 103.03 23.0898C104.522 25.7177 107.021 28.2682 110.407 28.1136C110.77 28.1136 111.173 27.9204 111.334 27.6113C111.536 27.2635 112.02 27.0702 112.261 26.7611C112.624 26.336 112.785 25.7949 112.866 25.2539C113.068 23.7468 112.181 22.2397 111.576 20.8871C110.891 19.4186 110.085 17.9887 108.956 16.7521C108.674 16.443 108.392 16.2111 108.109 15.9406C113.471 17.2931 119.074 19.1094 124.637 19.4572C124.677 19.5732 124.717 19.6891 124.758 19.805C127.136 23.5536 130.32 27.4953 134.19 29.8913C136.004 31.0506 137.859 32.1713 140.116 31.9781C141.769 31.8621 143.663 31.0893 144.349 29.5435C146.001 25.795 142.494 22.8193 139.552 21.1576C137.455 19.9983 135.198 19.6505 132.9 19.0708C132.82 19.0708 132.779 19.0322 132.699 19.0322C136.609 18.3752 140.438 17.2932 144.147 16.2111C144.429 16.2111 144.671 16.2111 144.953 16.2111C145.034 16.4044 145.155 16.5589 145.356 16.7135C147.412 18.1047 149.387 19.6505 151.685 20.6553C153.741 21.5441 155.958 21.9691 158.175 22.4715C161.4 23.2058 166.761 23.9014 167.688 19.6118C168.535 15.7087 163.294 14.704 160.432 13.9697C158.094 13.3901 155.797 13.2355 153.499 13.2355C156.039 12.308 158.497 11.2646 160.916 10.1053C160.997 10.1053 161.077 10.1439 161.158 10.1439C165.189 10.1825 169.623 10.2212 173.332 8.48222C175.589 7.36153 179.136 4.61775 177.645 1.75806ZM166.721 5.12011C168.898 3.34246 170.752 2.10587 173.735 2.29909C174.138 2.33773 174.541 2.37634 174.944 2.45363C174.944 2.53092 174.984 2.64688 174.984 2.72417C173.332 4.03809 171.115 4.26995 169.139 5.04284C167.89 5.54522 166.681 5.97028 165.431 6.31808C165.874 5.89299 166.277 5.46791 166.721 5.12011ZM148.218 7.09098C147.211 8.86862 145.397 10.5304 143.905 11.9602C143.542 12.308 143.18 12.6172 142.817 12.9263C143.18 12.5013 143.502 12.0375 143.865 11.5738C145.235 9.6802 147.009 7.47742 147.493 5.15875C147.533 5.15875 147.533 5.15879 147.573 5.19743C148.581 5.58388 148.662 6.31808 148.218 7.09098ZM141.527 8.48222C142.333 7.55475 143.421 6.66591 144.469 6.00896C144.671 5.89302 144.913 5.73845 145.155 5.62251C144.55 7.36152 142.978 9.21644 141.97 10.5303C140.962 11.9216 140.035 13.0422 138.786 14.0084C139.028 13.3514 139.31 12.7331 139.592 12.1148C140.197 10.8781 140.64 9.52562 141.527 8.48222ZM125.927 10.8395C124.919 11.5351 123.83 12.2307 122.742 12.8104C121.372 13.5446 119.92 13.9697 118.429 14.2402C118.671 14.0084 118.953 13.8151 119.235 13.5833C120.243 12.8877 121.251 12.1534 122.299 11.5351C123.306 10.9554 124.355 10.6849 125.443 10.2599C126.33 9.91206 127.096 9.52562 127.982 9.25511C127.862 9.37104 127.66 9.48697 127.458 9.68019C126.975 10.0666 126.451 10.4531 125.927 10.8395ZM120.041 10.1053C121.049 9.25509 122.097 8.44355 123.266 7.7866C123.951 7.40015 124.677 7.01372 125.483 6.78185C125.886 6.70456 126.289 6.62728 126.733 6.54999C127.539 6.31812 127.982 6.51132 128.144 7.05234C126.854 7.32285 125.806 7.90253 124.596 8.36627C123.186 8.90729 121.976 9.29373 120.727 10.1053C120.041 10.5304 119.356 10.9941 118.671 11.4578C119.074 10.9941 119.517 10.5304 120.041 10.1053ZM104.844 22.0078C103.998 20.5393 103.353 19.0708 103.272 17.5637C104.602 20.462 106.94 23.1285 108.714 25.7563C106.981 25.1766 105.691 23.5536 104.844 22.0078ZM108.553 19.8437C109.157 20.8484 109.682 21.9305 110.165 23.0126C110.407 23.5536 110.447 23.9787 110.407 24.3651C109.601 23.1285 108.795 21.9691 107.948 20.7712C107.061 19.4186 105.852 17.9501 105.126 16.4044C106.416 17.3318 107.626 18.3752 108.553 19.8437ZM132.699 26.1814C131.53 25.0993 130.361 23.7854 129.272 22.4329C133.183 25.1767 137.334 27.8045 142.091 28.6933C142.131 28.6933 142.212 28.6933 142.252 28.6933C140.922 32.1713 134.271 27.6499 132.699 26.1814ZM135.037 21.66C137.496 22.2397 141.567 23.94 142.333 26.6065C137.818 25.679 133.868 23.1285 130.119 20.462C131.731 20.8098 133.344 21.2349 135.037 21.66ZM160.231 20.7325C158.538 20.4234 156.845 19.9983 155.192 19.5732C152.733 18.9162 150.718 17.7569 148.702 16.4044C150.435 16.6362 152.128 16.984 153.942 17.4091C157.49 18.2206 161.36 18.723 164.584 20.4233C163.375 21.0803 161.279 20.9257 160.231 20.7325ZM155.031 15.1677C156.885 15.245 158.739 15.6314 160.553 16.0952C161.763 16.4043 165.108 17.0227 165.512 18.5298C162.166 16.7908 158.215 16.2497 154.507 15.3996C154.144 15.3223 153.781 15.245 153.418 15.1677C153.942 15.1291 154.507 15.1291 155.031 15.1677ZM170.107 7.32288C169.543 7.47746 169.019 7.55472 168.454 7.63201C169.22 7.28421 169.946 6.93641 170.752 6.66589C171.881 6.27945 172.969 6.00897 174.017 5.58388C173.775 5.73845 173.533 5.89303 173.453 5.97032C172.405 6.62728 171.276 7.01372 170.107 7.32288Z" fill="#EC6985"/>
<path d="M85.1728 7.63149C80.658 10.8776 75.2967 12.3848 69.8951 13.7374C68.0408 14.2011 66.1865 14.7034 64.2919 15.2058C62.357 11.4959 60.019 8.71357 56.4314 6.35625C53.9725 4.77183 49.0143 2.99417 47.0391 6.20166C45.2251 9.13865 49.4174 11.6119 51.5135 13.0031C54.2143 14.7807 56.8345 15.7855 59.7772 16.3265C57.1167 16.9062 54.4562 17.3313 51.836 17.3699C48.4096 17.4086 45.0236 16.8676 41.6778 16.056C41.7584 14.2784 40.9925 12.578 40.1863 10.9936C39.2188 8.98408 38.4529 7.28372 36.7196 5.77658C34.5428 3.92165 30.3102 1.25517 27.7707 4.2308C25.6745 6.66541 29.0203 9.71832 30.5924 11.4187C31.2777 12.1916 32.0033 12.9258 32.7289 13.6214C27.5691 12.1143 22.49 10.298 17.6527 7.94067C17.5721 7.78609 17.4512 7.63152 17.2496 7.51559C15.476 6.51083 14.1054 4.61723 12.493 3.34196C11.2837 2.37584 9.95345 1.25514 8.50227 0.675475C6.44644 -0.13606 1.60918 -0.638411 0.359556 1.71891C-1.09162 4.46267 2.17353 7.12912 4.3906 8.21116C8.17979 10.0661 12.7349 10.0661 16.8868 10.0275C16.9675 10.0275 17.0481 10.0274 17.1287 9.9888C19.5473 11.1481 22.0063 12.1916 24.5458 13.119C22.3691 13.0804 20.1923 13.2736 18.0155 13.776C15.0326 14.4716 9.55034 15.4764 10.3566 19.4954C11.2031 23.5917 16.3225 23.1666 19.4667 22.4324C21.7241 21.93 24.0621 21.5049 26.1986 20.5774C28.5366 19.5727 30.5924 17.9883 32.6482 16.5971C32.8498 16.4425 32.9707 16.2879 33.0513 16.0947C33.3335 16.0947 33.5754 16.0947 33.8576 16.0947C37.5661 17.1381 41.4359 18.2588 45.3057 18.9157C43.0886 19.534 40.8313 19.8045 38.7754 20.8866C35.7118 22.471 31.9226 25.6012 33.656 29.427C34.3413 30.9342 36.1149 31.6684 37.7274 31.8617C39.9444 32.0935 41.7181 31.0501 43.5321 29.9681C47.5228 27.5335 50.7879 23.5531 53.2469 19.6886C53.3275 19.5727 53.3678 19.4567 53.3678 19.3408C58.9307 18.993 64.5338 17.1767 69.8951 15.8242C69.6129 16.0947 69.3308 16.3265 69.0486 16.6357C67.9602 17.8723 67.154 19.3021 66.4284 20.7706C65.7834 22.0846 64.8966 23.6304 65.1385 25.1375C65.2191 25.6785 65.3803 26.2195 65.7431 26.6446C65.985 26.9538 66.509 27.147 66.6703 27.4948C66.8315 27.8426 67.2346 27.9972 67.5974 27.9972C70.9432 28.1518 73.4827 25.6012 74.9742 22.9734C75.7401 21.6208 76.4657 20.0364 76.8688 18.5679C77.2719 17.0221 76.7882 15.5536 76.1835 14.1238C79.7712 13.0031 83.2379 11.5732 86.3015 9.3705C87.3495 8.63625 86.3015 6.81996 85.1728 7.63149ZM50.6267 6.58811C51.2314 6.51082 51.836 6.58811 52.4407 6.78133C53.0856 6.97456 53.7306 7.24506 54.3353 7.59286C55.6252 8.28846 56.7942 9.17729 57.8826 10.1048C58.3663 10.5298 58.8097 10.955 59.2128 11.38C58.5679 10.955 57.8826 10.5298 57.2376 10.1048C56.1895 9.40915 55.1012 8.98406 53.9322 8.55897C52.5213 8.05659 51.2717 7.36098 49.7802 7.05183C49.8205 6.66538 50.143 6.47218 50.6267 6.58811ZM52.2794 11.0322C51.6345 10.6071 50.9895 10.1434 50.3848 9.67967C50.1833 9.5251 49.9817 9.37053 49.8608 9.25459C50.667 9.52511 51.4329 9.91155 52.2391 10.2207C53.3678 10.6458 54.4562 10.9163 55.5043 11.5346C56.4717 12.0756 57.3585 12.7326 58.2454 13.3509C58.6888 13.6601 59.0516 13.9306 59.3741 14.2011C57.8826 13.9306 56.4717 13.5055 55.1012 12.7712C54.174 12.2689 53.2066 11.6505 52.2794 11.0322ZM36.1149 8.21116C37.0421 9.25457 37.5258 10.4912 38.0901 11.7278C38.4529 12.4621 38.8157 13.1963 39.0979 13.9692C37.8483 13.0031 36.9212 11.8824 35.9134 10.4912C34.9459 9.13864 33.3738 7.32237 32.7289 5.58336C32.8901 5.66065 33.011 5.69929 33.132 5.77658C34.2203 6.47219 35.3087 7.32234 36.1149 8.21116ZM29.6653 7.09046C29.0203 5.93112 29.5846 5.42875 30.4312 5.31282C30.9149 7.59285 32.6482 9.71833 34.0188 11.5733C34.3816 12.0756 34.7041 12.5007 35.0669 12.9258C34.7847 12.694 34.5025 12.4621 34.2203 12.1916C32.6482 10.7231 30.673 8.9454 29.6653 7.09046ZM4.14874 2.29857C7.01078 2.144 8.78444 3.18738 10.8806 4.88774C11.4046 5.31283 11.8883 5.77656 12.4124 6.27893C11.2031 5.93113 9.99376 5.54471 8.74413 5.04233C6.72861 4.23079 4.51153 4.03754 2.81849 2.64634C2.97974 2.22125 3.42315 2.10535 4.14874 2.29857ZM4.47123 5.96981C4.26967 5.85387 4.06812 5.69929 3.82626 5.58336C4.87433 6.00845 6.00302 6.27893 7.13171 6.66538C7.93792 6.93589 8.66351 7.32234 9.3891 7.63149C8.986 7.55421 8.54258 7.47693 8.13948 7.39964C6.88985 7.12912 5.59992 6.66541 4.47123 5.96981ZM16.9675 16.2106C18.9024 15.6696 20.8776 15.2831 22.8528 15.1672C23.3768 15.1285 23.9412 15.1285 24.4652 15.1285C24.1024 15.2058 23.7396 15.2831 23.3365 15.399C19.628 16.2492 15.7178 16.7903 12.3318 18.5293C12.7349 17.0221 15.7582 16.5198 16.9675 16.2106ZM22.6916 19.5727C21.1194 19.9978 15.3954 21.7368 13.1783 20.5001C16.4031 18.7611 20.3535 18.2588 23.9412 17.4086C25.7148 16.9835 27.4482 16.6357 29.1815 16.4038C27.166 17.7177 25.1102 18.9157 22.6916 19.5727ZM42.8871 21.6595C44.5398 21.2344 46.1522 20.848 47.805 20.4615C44.0964 23.128 40.1057 25.6785 35.6312 26.606C36.3971 23.9008 40.3878 22.2392 42.8871 21.6595ZM45.2251 26.1809C44.0561 27.3016 42.6049 28.1904 41.1537 28.9633C39.7429 29.7362 36.518 30.5477 35.6715 28.6928C35.7118 28.6928 35.7521 28.6928 35.7925 28.6928C40.5491 27.8039 44.7011 25.2148 48.6112 22.4324C47.5631 23.7849 46.3941 25.0602 45.2251 26.1809ZM67.5168 23.5144C67.8393 22.3164 68.6858 20.9252 69.3308 19.8432C70.2176 18.336 71.4269 17.3313 72.7571 16.4038C72.0316 17.9496 70.8223 19.4567 69.9354 20.7706C69.0889 22.0073 68.2424 23.2052 67.4362 24.4419C67.4362 24.1714 67.4362 23.8622 67.5168 23.5144ZM69.2098 25.7944C70.9432 23.1666 73.2812 20.5001 74.6517 17.6018C74.5711 19.1089 73.9261 20.5388 73.0796 22.0459C72.1928 23.5531 70.9029 25.1761 69.2098 25.7944Z" fill="#EC6985"/>
</svg>
