<svg width="60" height="60" viewBox="0 0 60 60" fill="none" xmlns="http://www.w3.org/2000/svg">
<circle cx="30" cy="30" r="25" fill="url(#paint0_linear)"/>
<circle cx="30" cy="30" r="29.5" stroke="url(#paint1_linear)"/>
<g clip-path="url(#clip0)">
<path d="M26.5941 33.4091C23.9215 30.7366 23.3181 28.064 23.182 26.9933C23.1439 26.6972 23.2458 26.4003 23.4576 26.19L25.6204 24.0282C25.9385 23.7102 25.995 23.2147 25.7565 22.8333L22.313 17.4863C22.0492 17.064 21.5075 16.9116 21.0622 17.1344L15.5341 19.7379C15.174 19.9152 14.9622 20.2978 15.0031 20.6971C15.2927 23.4489 16.4924 30.2133 23.14 36.8613C29.7875 43.5094 36.551 44.7086 39.3042 44.9982C39.7035 45.0391 40.0861 44.8273 40.2634 44.4672L42.8669 38.9391C43.0889 38.4948 42.9375 37.9545 42.5169 37.6902L37.1699 34.2477C36.7887 34.009 36.2932 34.065 35.9751 34.3829L33.8133 36.5456C33.6029 36.7574 33.306 36.8593 33.01 36.8213C31.9392 36.6851 29.2666 36.0817 26.5941 33.4091Z" fill="white"/>
<path d="M37.2066 31.9656C36.6734 31.9656 36.2411 31.5333 36.2411 31C36.2366 27.0026 32.9971 23.7632 28.9997 23.7587C28.4665 23.7587 28.0342 23.3264 28.0342 22.7932C28.0342 22.2599 28.4665 21.8276 28.9997 21.8276C34.0632 21.8332 38.1665 25.9366 38.1721 31C38.1721 31.5333 37.7398 31.9656 37.2066 31.9656Z" fill="white"/>
<path d="M42.0342 31.9655C41.5009 31.9655 41.0687 31.5332 41.0687 31C41.0612 24.3376 35.6621 18.9385 28.9997 18.931C28.4665 18.931 28.0342 18.4988 28.0342 17.9655C28.0342 17.4323 28.4665 17 28.9997 17C36.7282 17.0085 42.9912 23.2715 42.9997 31C42.9997 31.2561 42.898 31.5016 42.7169 31.6827C42.5358 31.8638 42.2903 31.9655 42.0342 31.9655Z" fill="white"/>
</g>
<defs>
<linearGradient id="paint0_linear" x1="27.6" y1="5.00002" x2="56.0969" y2="6.16485" gradientUnits="userSpaceOnUse">
<stop stop-color="#F2B5C9"/>
<stop offset="1" stop-color="#EF95B2"/>
</linearGradient>
<linearGradient id="paint1_linear" x1="27.12" y1="1.90088e-05" x2="61.3163" y2="1.39782" gradientUnits="userSpaceOnUse">
<stop stop-color="#F2B5C9"/>
<stop offset="1" stop-color="#EF95B2"/>
</linearGradient>
<clipPath id="clip0">
<rect width="28" height="28" fill="white" transform="translate(15 17)"/>
</clipPath>
</defs>
</svg>
