<svg width="28" height="28" viewBox="0 0 28 28" fill="none" xmlns="http://www.w3.org/2000/svg">
<path d="M16.286 13.9229L27.626 2.58293C27.8808 2.28535 28.014 1.90257 27.9988 1.51107C27.9837 1.11958 27.8214 0.748204 27.5444 0.471168C27.2674 0.194132 26.896 0.0318363 26.5045 0.0167145C26.113 0.00159274 25.7302 0.134758 25.4326 0.3896L14.0926 11.7296L2.75262 0.374044C2.45504 0.119203 2.07226 -0.0139617 1.68076 0.00116011C1.28927 0.0162819 0.917895 0.178576 0.640859 0.455612C0.363823 0.732648 0.201528 1.10402 0.186406 1.49552C0.171284 1.88701 0.30445 2.2698 0.559291 2.56738L11.8993 13.9229L0.543735 25.2629C0.380897 25.4024 0.248643 25.574 0.155273 25.767C0.0619038 25.96 0.00943394 26.1702 0.00115917 26.3844C-0.0071156 26.5986 0.0289825 26.8123 0.107187 27.0119C0.185392 27.2115 0.304016 27.3928 0.455613 27.5444C0.607209 27.696 0.788505 27.8146 0.988121 27.8928C1.18774 27.971 1.40137 28.0071 1.6156 27.9988C1.82983 27.9906 2.04003 27.9381 2.23302 27.8447C2.42601 27.7514 2.59762 27.6191 2.73707 27.4563L14.0926 16.1163L25.4326 27.4563C25.7302 27.7111 26.113 27.8443 26.5045 27.8291C26.896 27.814 27.2674 27.6517 27.5444 27.3747C27.8214 27.0977 27.9837 26.7263 27.9988 26.3348C28.014 25.9433 27.8808 25.5605 27.626 25.2629L16.286 13.9229Z" fill="#9F3E4B"/>
</svg>
