<svg width="375" height="624" viewBox="0 0 375 624" fill="none" xmlns="http://www.w3.org/2000/svg">
<mask id="mask0" mask-type="alpha" maskUnits="userSpaceOnUse" x="0" y="0" width="375" height="624">
<rect width="375" height="624" fill="#F5F4F4"/>
</mask>
<g mask="url(#mask0)">
<rect width="375" height="624" fill="#F5F4F4"/>
<rect opacity="0.4" width="375" height="624" fill="#FFCEBD"/>
<path d="M63.9938 25.9813C64.0823 28.6052 63.596 31.2184 62.5647 33.6601C61.5334 36.1017 59.979 38.3202 57.9971 40.1791C56.0152 42.0379 53.6475 43.4978 51.04 44.469C48.4324 45.4402 45.64 45.9022 42.8345 45.8265C38.4175 45.9826 34.0526 44.8907 30.3084 42.6932C26.5643 40.4956 23.6146 37.2942 21.8435 33.5061C20.0725 29.7179 19.5621 25.5186 20.3791 21.4553C21.1961 17.392 23.3025 13.6531 26.4239 10.7256C29.5452 7.7981 33.5368 5.81778 37.8786 5.04266C42.2204 4.26755 46.7112 4.73357 50.7658 6.37999C54.8204 8.0264 58.2508 10.7769 60.6103 14.2731C62.9698 17.7693 64.1488 21.8493 63.9938 25.9813V25.9813Z" fill="#FFD6C8"/>
<path d="M41.4835 39.4581C39.5322 39.4963 37.5931 39.163 35.7839 38.4786C33.9746 37.7941 32.3329 36.7727 30.9587 35.4764C29.5845 34.1801 28.5065 32.636 27.79 30.9379C27.0735 29.2399 26.7336 27.4233 26.7909 25.5985C26.8483 23.7738 27.3017 21.979 28.1236 20.3233C28.9455 18.6675 30.1186 17.1853 31.5719 15.9668C33.0251 14.7482 34.728 13.8188 36.5772 13.2349C38.4263 12.651 40.383 12.4249 42.3285 12.5703C44.2945 12.3485 46.2887 12.5399 48.1657 13.1304C50.0427 13.7209 51.7552 14.6958 53.1783 15.9839C54.6014 17.272 55.6993 18.8408 56.392 20.5761C57.0848 22.3114 57.3548 24.1694 57.1825 26.0147C57.1837 34.8345 51.6185 39.6001 41.4835 39.4581Z" fill="#FFCEBD"/>
<path d="M88 120.016C87.6013 120.256 87.2735 120.583 87.0461 120.968C86.8187 121.353 86.6988 121.785 86.6972 122.223C84.005 123.262 81.0754 123.672 78.1695 123.416C77.9032 123.042 77.5338 122.74 77.0993 122.541C76.6647 122.342 76.1805 122.253 75.6961 122.282C74.669 121.127 73.5503 120.031 72.6321 118.806C71.5317 117.667 70.9487 116.182 71.0035 114.658C71.0583 113.135 71.7468 111.688 72.9266 110.619C73.4018 109.828 74.0684 109.149 74.8747 108.634C75.681 108.119 76.6053 107.783 77.5759 107.65C78.5464 107.517 79.5371 107.592 80.4711 107.869C81.4051 108.146 82.2573 108.617 82.9614 109.247C84.2457 110.161 85.4779 111.136 86.6529 112.167C86.7899 113.386 86.6797 114.688 87.9826 115.512C87.9877 117.014 87.9935 118.515 88 120.016Z" fill="#FFCEBD"/>
<path opacity="0.7" d="M325.886 535.594C325.439 535.502 324.978 535.47 324.52 535.501C323.882 535.119 323.293 534.678 322.762 534.186L322.764 534.189C322.274 533.719 321.749 533.276 321.195 532.864L321.157 532.83C320.699 532.326 320.153 531.893 319.675 531.406L319.712 531.436C319.486 531.272 319.305 531.065 319.182 530.831C319.058 530.597 318.996 530.342 319 530.084C319.004 529.826 319.073 529.572 319.203 529.341C319.333 529.11 319.521 528.907 319.751 528.748L319.697 528.785C320.16 528.263 320.691 527.79 321.28 527.378L321.237 527.42C322.007 526.543 323.502 526.836 324.269 525.956L324.304 525.936C324.874 525.528 325.366 525.044 325.934 524.635L325.897 524.676C326.656 524.162 327.523 523.785 328.448 523.567C329.373 523.348 330.338 523.292 331.288 523.403C332.237 523.513 333.152 523.787 333.982 524.209C334.811 524.632 335.537 525.194 336.119 525.864C337.141 526.729 337.791 527.879 337.958 529.119C338.124 530.359 337.797 531.611 337.033 532.662C335.983 534.342 334.226 535.591 332.141 536.14C330.056 536.688 327.809 536.492 325.886 535.594V535.594Z" fill="#FFCEBD"/>
<path opacity="0.7" d="M227.139 550.267C227.251 546.837 228.731 543.568 231.292 541.097C233.852 538.625 237.309 537.128 240.99 536.896C244.899 536.906 248.651 538.329 251.451 540.866C254.252 543.403 255.881 546.854 255.994 550.488C256.051 552.257 255.723 554.018 255.03 555.667C254.337 557.315 253.293 558.816 251.961 560.08C250.629 561.344 249.036 562.344 247.278 563.021C245.52 563.698 243.633 564.037 241.73 564.019C234.094 564.306 225.821 556.644 227.139 550.267Z" fill="#FFCEBD"/>
<path d="M333.916 69.8359C337.485 69.8359 337.491 75.0167 333.916 75.0167C330.347 75.0167 330.341 69.8359 333.916 69.8359Z" fill="#FFCEBD"/>
<path d="M204.158 93.9487C207.727 93.9487 207.733 99.1295 204.158 99.1295C200.589 99.1295 200.583 93.9487 204.158 93.9487Z" fill="#FFCEBD"/>
<path d="M192.456 73.6951C196.025 73.6951 196.031 78.8758 192.456 78.8758C188.887 78.8758 188.881 73.6951 192.456 73.6951Z" fill="#FFCEBD"/>
<path d="M194.177 91.5708C194.485 91.5808 194.777 91.7021 194.991 91.9092C195.205 92.1163 195.325 92.393 195.325 92.681C195.325 92.9689 195.205 93.2456 194.991 93.4527C194.777 93.6598 194.485 93.7812 194.177 93.7911C193.869 93.7812 193.577 93.6598 193.363 93.4527C193.149 93.2456 193.029 92.9689 193.029 92.681C193.029 92.393 193.149 92.1163 193.363 91.9092C193.577 91.7021 193.869 91.5808 194.177 91.5708V91.5708Z" fill="#FFCEBD"/>
<path d="M211.041 91.5708C211.349 91.5808 211.641 91.7021 211.856 91.9092C212.07 92.1163 212.189 92.393 212.189 92.681C212.189 92.9689 212.07 93.2456 211.856 93.4527C211.641 93.6598 211.349 93.7812 211.041 93.7911C210.733 93.7812 210.441 93.6598 210.227 93.4527C210.013 93.2456 209.893 92.9689 209.893 92.681C209.893 92.393 210.013 92.1163 210.227 91.9092C210.441 91.7021 210.733 91.5808 211.041 91.5708V91.5708Z" fill="#FFCEBD"/>
<path d="M196.93 57.4922C197.238 57.5022 197.53 57.6235 197.744 57.8306C197.958 58.0377 198.078 58.3144 198.078 58.6023C198.078 58.8903 197.958 59.167 197.744 59.3741C197.53 59.5812 197.238 59.7025 196.93 59.7125C196.622 59.7025 196.33 59.5812 196.116 59.3741C195.902 59.167 195.782 58.8903 195.782 58.6023C195.782 58.3144 195.902 58.0377 196.116 57.8306C196.33 57.6235 196.622 57.5022 196.93 57.4922Z" fill="#FFCEBD"/>
<path d="M334.95 61.6721C335.258 61.6821 335.55 61.8034 335.764 62.0105C335.978 62.2176 336.098 62.4943 336.098 62.7823C336.098 63.0702 335.978 63.3469 335.764 63.554C335.55 63.7611 335.258 63.8825 334.95 63.8924C334.642 63.8825 334.35 63.7611 334.135 63.554C333.921 63.3469 333.802 63.0702 333.802 62.7823C333.802 62.4943 333.921 62.2176 334.135 62.0105C334.35 61.8034 334.642 61.6821 334.95 61.6721Z" fill="#FFCEBD"/>
<path d="M326.345 66.1733C326.653 66.1833 326.945 66.3046 327.159 66.5117C327.373 66.7189 327.493 66.9956 327.493 67.2835C327.493 67.5715 327.373 67.8482 327.159 68.0553C326.945 68.2624 326.653 68.3837 326.345 68.3937C326.037 68.3837 325.745 68.2624 325.531 68.0553C325.317 67.8482 325.197 67.5715 325.197 67.2835C325.197 66.9956 325.317 66.7189 325.531 66.5117C325.745 66.3046 326.037 66.1833 326.345 66.1733V66.1733Z" fill="#FFCEBD"/>
<path d="M336.327 109.253C336.635 109.263 336.927 109.385 337.141 109.592C337.355 109.799 337.475 110.076 337.475 110.364C337.475 110.652 337.355 110.928 337.141 111.135C336.927 111.342 336.635 111.464 336.327 111.474C336.018 111.464 335.727 111.342 335.512 111.135C335.298 110.928 335.179 110.652 335.179 110.364C335.179 110.076 335.298 109.799 335.512 109.592C335.727 109.385 336.018 109.263 336.327 109.253V109.253Z" fill="#FFCEBD"/>
<path d="M196.587 107.002C196.895 107.012 197.187 107.134 197.401 107.341C197.616 107.548 197.735 107.825 197.735 108.113C197.735 108.401 197.616 108.677 197.401 108.884C197.187 109.091 196.895 109.213 196.587 109.223C196.279 109.213 195.987 109.091 195.773 108.884C195.559 108.677 195.439 108.401 195.439 108.113C195.439 107.825 195.559 107.548 195.773 107.341C195.987 107.134 196.279 107.012 196.587 107.002V107.002Z" fill="#FFCEBD"/>
</g>
</svg>
