<svg width="1920" height="457" viewBox="0 0 1920 457" fill="none" xmlns="http://www.w3.org/2000/svg">
<mask id="mask0" mask-type="alpha" maskUnits="userSpaceOnUse" x="0" y="0" width="1920" height="457">
<rect width="1920" height="457" fill="white"/>
</mask>
<g mask="url(#mask0)">
<rect opacity="0.4" width="1920" height="457" fill="#FFCEBD"/>
<path d="M1594.99 61.6483C1595.18 67.6404 1594.14 73.6078 1591.93 79.1835C1589.73 84.7593 1586.41 89.8253 1582.18 94.0702C1577.94 98.3151 1572.88 101.649 1567.31 103.867C1561.74 106.085 1555.78 107.139 1549.78 106.966C1540.35 107.323 1531.02 104.83 1523.02 99.8113C1515.02 94.793 1508.72 87.4824 1504.94 78.8319C1501.15 70.1814 1500.06 60.5919 1501.81 51.313C1503.56 42.0341 1508.06 33.496 1514.72 26.8108C1521.39 20.1256 1529.92 15.6034 1539.2 13.8333C1548.47 12.0633 1558.06 13.1275 1566.73 16.8872C1575.39 20.647 1582.72 26.9279 1587.76 34.9118C1592.8 42.8957 1595.32 52.2126 1594.99 61.6483Z" fill="#FFD6C8"/>
<path d="M1546.9 92.4258C1542.73 92.5131 1538.59 91.752 1534.72 90.189C1530.85 88.6259 1527.35 86.2935 1524.41 83.3333C1521.48 80.3732 1519.17 76.8471 1517.64 72.9694C1516.11 69.0917 1515.39 64.9434 1515.51 60.7764C1515.63 56.6095 1516.6 52.511 1518.35 48.7299C1520.11 44.9488 1522.62 41.5641 1525.72 38.7815C1528.83 35.9989 1532.46 33.8764 1536.41 32.543C1540.37 31.2097 1544.55 30.6933 1548.7 31.0253C1552.9 30.5189 1557.16 30.9559 1561.17 32.3044C1565.18 33.653 1568.84 35.8791 1571.88 38.8206C1574.92 41.762 1577.27 45.3445 1578.75 49.3072C1580.23 53.2699 1580.8 57.5128 1580.44 61.7267C1580.44 81.8674 1568.55 92.7502 1546.9 92.4258Z" fill="#FFCEBD"/>
<path opacity="0.7" d="M224.886 270.091C224.439 269.992 223.978 269.958 223.52 269.99C222.882 269.582 222.293 269.111 221.762 268.585L221.764 268.589C221.274 268.086 220.749 267.612 220.195 267.172L220.157 267.136C219.699 266.597 219.153 266.134 218.675 265.613L218.712 265.645C218.486 265.47 218.305 265.249 218.182 264.999C218.058 264.749 217.996 264.476 218 264.2C218.004 263.925 218.073 263.653 218.203 263.406C218.333 263.159 218.521 262.943 218.751 262.773L218.697 262.812C219.16 262.254 219.691 261.749 220.28 261.308L220.237 261.352C221.007 260.416 222.502 260.728 223.269 259.789L223.304 259.767C223.874 259.331 224.366 258.814 224.934 258.376L224.897 258.42C225.656 257.87 226.523 257.468 227.448 257.234C228.373 257.001 229.338 256.941 230.288 257.059C231.237 257.177 232.152 257.47 232.982 257.921C233.811 258.373 234.537 258.973 235.119 259.689C236.141 260.614 236.791 261.844 236.958 263.169C237.124 264.494 236.797 265.833 236.033 266.957C234.983 268.752 233.226 270.087 231.141 270.674C229.056 271.26 226.809 271.051 224.886 270.091Z" fill="#FFCEBD"/>
<path opacity="0.7" d="M345.139 202.292C345.251 198.625 346.731 195.131 349.292 192.49C351.852 189.848 355.309 188.248 358.99 188C362.899 188.01 366.651 189.532 369.451 192.243C372.252 194.955 373.881 198.643 373.994 202.528C374.051 204.419 373.723 206.302 373.03 208.064C372.337 209.826 371.293 211.43 369.961 212.781C368.629 214.132 367.036 215.201 365.278 215.925C363.52 216.648 361.633 217.011 359.73 216.992C352.094 217.299 343.821 209.108 345.139 202.292Z" fill="#FFCEBD"/>
<path d="M290 74.5728C289.203 75.0853 288.547 75.7847 288.092 76.6083C287.637 77.4318 287.398 78.3536 287.394 79.2909C282.01 81.5129 276.151 82.3891 270.339 81.8415C269.806 81.0425 269.068 80.397 268.199 79.9711C267.329 79.5452 266.361 79.3542 265.392 79.4175C263.338 76.9482 261.101 74.6038 259.264 71.9863C257.063 69.5509 255.897 66.3766 256.007 63.1191C256.117 59.8615 257.494 56.7699 259.853 54.4832C260.804 52.7933 262.137 51.3415 263.749 50.2408C265.362 49.1401 267.211 48.42 269.152 48.1363C271.093 47.8526 273.074 48.0131 274.942 48.6051C276.81 49.1971 278.515 50.2046 279.923 51.5498C282.491 53.5043 284.956 55.5884 287.306 57.7934C287.58 60.3983 287.359 63.1816 289.965 64.9439C289.975 68.1547 289.987 71.3643 290 74.5728Z" fill="#FFCEBD"/>
</g>
</svg>
