<svg width="42" height="42" viewBox="0 0 42 42" fill="none" xmlns="http://www.w3.org/2000/svg">
<path d="M28.875 0H13.125C5.87738 0 0 5.87738 0 13.125V28.875C0 36.1226 5.87738 42 13.125 42H28.875C36.1226 42 42 36.1226 42 28.875V13.125C42 5.87738 36.1226 0 28.875 0ZM38.0625 28.875C38.0625 33.9412 33.9412 38.0625 28.875 38.0625H13.125C8.05875 38.0625 3.9375 33.9412 3.9375 28.875V13.125C3.9375 8.05875 8.05875 3.9375 13.125 3.9375H28.875C33.9412 3.9375 38.0625 8.05875 38.0625 13.125V28.875Z" fill="#9F3E4B"/>
<path d="M21 10.5C15.2014 10.5 10.5 15.2014 10.5 21C10.5 26.7986 15.2014 31.5 21 31.5C26.7986 31.5 31.5 26.7986 31.5 21C31.5 15.2014 26.7986 10.5 21 10.5ZM21 27.5625C17.3828 27.5625 14.4375 24.6173 14.4375 21C14.4375 17.3801 17.3828 14.4375 21 14.4375C24.6173 14.4375 27.5625 17.3801 27.5625 21C27.5625 24.6173 24.6173 27.5625 21 27.5625Z" fill="#9F3E4B"/>
<path d="M32.2876 11.1112C33.0603 11.1112 33.6867 10.4848 33.6867 9.71211C33.6867 8.9394 33.0603 8.31299 32.2876 8.31299C31.5148 8.31299 30.8884 8.9394 30.8884 9.71211C30.8884 10.4848 31.5148 11.1112 32.2876 11.1112Z" fill="#9F3E4B"/>
</svg>
