<svg width="32" height="26" viewBox="0 0 32 26" fill="none" xmlns="http://www.w3.org/2000/svg">
<path d="M0.473454 12.7286C2.27443 12.7286 4.09398 12.7286 5.89495 12.7096C6.28485 10.9308 7.02752 9.28445 7.86303 7.69486C8.67997 6.10528 9.57117 4.55351 10.6295 3.13424C11.5207 1.94205 12.5604 0.693098 14.0458 0.238929C15.1969 -0.120621 16.8493 -0.12063 17.8891 0.560623C18.9288 1.22295 18.9845 2.41515 18.4646 3.45596C17.6663 4.98877 16.4966 6.54051 15.4011 7.84624C14.3243 9.15197 12.9875 10.136 11.6135 11.12C10.9451 11.5931 10.2767 12.0662 9.51547 12.3879C9.23697 12.5015 8.95846 12.615 8.6614 12.6907C10.4438 12.6718 12.2076 12.6529 13.9901 12.6339C14.0272 12.5393 14.0829 12.4447 14.1943 12.3879C15.6982 11.4417 17.5734 11.1579 19.263 10.7037C21.1197 10.2117 22.9764 9.60614 24.8887 9.36013C26.4298 9.15197 28.0265 9.22768 29.4747 9.87109C30.6444 10.382 31.9812 11.4228 31.9998 12.861C32.0184 14.356 30.6259 15.1508 29.3819 15.4725C27.7852 15.8888 26.0956 16.0591 24.4431 16.0591C20.8783 16.078 17.3692 15.2454 14.1572 13.6747C11.8177 13.7126 9.45977 13.7315 7.12036 13.7504C7.8816 14.0911 8.62426 14.4695 9.36693 14.8669C10.9265 15.6996 12.449 16.6079 13.8415 17.6866C15.0112 18.5949 16.2366 19.6546 16.6822 21.1685C17.035 22.3418 17.035 24.026 16.3666 25.0857C15.7168 26.1454 14.5471 26.2022 13.5259 25.6724C12.022 24.8586 10.4995 23.6665 9.2184 22.55C7.93729 21.4524 6.97182 20.0899 6.00635 18.6895C5.54218 18.0083 5.07801 17.327 4.76238 16.5511C4.40961 15.7374 4.26108 14.8669 3.96401 14.0343C3.94544 13.9965 3.90831 13.9586 3.88974 13.9397C3.85261 13.8829 3.81548 13.8261 3.79691 13.7694C2.6829 13.7694 1.58746 13.7694 0.473454 13.7694C-0.157818 13.7504 -0.157818 12.7286 0.473454 12.7286ZM10.0168 10.9876C11.1865 10.2874 12.3376 9.4169 13.3588 8.52749C14.4357 7.5813 15.2897 6.42698 16.0881 5.23479C16.7379 4.26968 18.8174 2.0556 17.0536 1.27973C14.1015 -0.00707868 11.8734 2.96393 10.4809 5.12123C9.1627 7.16498 7.88159 9.43583 7.15749 11.8202C7.71449 11.366 8.25293 10.893 8.7171 10.3631C9.5526 9.37907 10.2953 8.31933 11.0751 7.29745C12.319 5.65109 13.2288 3.66412 14.677 2.207C15.1412 1.75283 15.8467 2.47191 15.3826 2.92608C13.8972 4.42105 12.9318 6.50266 11.6506 8.20579C10.9637 9.11413 10.2767 10.0603 9.5526 10.9497C9.40407 11.139 9.23697 11.3093 9.06987 11.4796C9.40407 11.3093 9.7197 11.1768 10.0168 10.9876ZM22.8835 14.9805C24.2018 15.0562 25.5386 15.0372 26.8568 14.8669C28.0451 14.7345 31.0158 14.5452 30.9972 12.8232C30.9786 11.3282 28.8249 10.5523 27.6738 10.3631C26.1699 10.0982 24.6288 10.3442 23.162 10.7037C21.7138 11.0633 20.2656 11.4796 18.8174 11.8581C17.9448 12.1041 16.9979 12.2933 16.1252 12.5961C18.9102 12.5582 21.7138 12.5015 24.4988 12.4258C25.1487 12.4069 25.1487 13.4287 24.4988 13.4476C21.8624 13.5233 19.2445 13.5612 16.608 13.599C18.6317 14.3749 20.7484 14.848 22.8835 14.9805ZM6.15488 17.0242C6.84185 18.2164 7.69592 19.3897 8.56856 20.4305C9.4969 21.5281 10.6295 22.3986 11.7992 23.2123C12.7461 23.8746 14.9184 25.9941 15.6796 24.1963C16.9422 21.1874 14.0272 18.9166 11.9106 17.4973C9.90537 16.1727 7.67736 14.848 5.35652 14.11C5.91352 14.8102 6.50765 15.4725 7.21319 16.0402C8.3272 16.9485 9.45977 17.8569 10.6295 18.7274C12.2819 19.9574 14.1386 20.9604 14.8813 23.023C15.1041 23.6475 14.1386 23.9124 13.9158 23.288C13.136 21.1685 10.648 20.052 8.9956 18.7463C8.10439 18.0461 7.21319 17.3649 6.35912 16.6458C6.11775 16.4565 5.89495 16.2484 5.69071 16.0213C5.82068 16.3808 5.96922 16.7214 6.15488 17.0242Z" fill="#EC6985"/>
</svg>
