<svg width="50" height="50" viewBox="0 0 50 50" fill="none" xmlns="http://www.w3.org/2000/svg">
<g clip-path="url(#clip0)">
<path d="M13.5756 26.1195C12.5771 26.1195 11.765 26.9318 11.765 27.9301C11.765 28.9285 12.5773 29.7406 13.5756 29.7406C14.5739 29.7406 15.3861 28.9283 15.3861 27.9301C15.3861 26.9318 14.5739 26.1195 13.5756 26.1195ZM13.5756 28.2743C13.3858 28.2743 13.2313 28.1198 13.2313 27.9301C13.2313 27.7403 13.3858 27.5858 13.5756 27.5858C13.7653 27.5858 13.9198 27.7402 13.9198 27.9301C13.9198 28.1199 13.7654 28.2743 13.5756 28.2743Z" fill="#9F3E4B"/>
<path d="M23.1888 26.1195C22.1905 26.1195 21.3783 26.9318 21.3783 27.9301C21.3783 28.9285 22.1906 29.7406 23.1888 29.7406C24.1873 29.7406 24.9994 28.9283 24.9994 27.9301C24.9994 26.9318 24.1873 26.1195 23.1888 26.1195ZM23.1888 28.2743C22.9991 28.2743 22.8446 28.1198 22.8446 27.9301C22.8446 27.7403 22.999 27.5858 23.1888 27.5858C23.3787 27.5858 23.5331 27.7402 23.5331 27.9301C23.5331 28.1199 23.3786 28.2743 23.1888 28.2743Z" fill="#9F3E4B"/>
<path d="M14.7968 23.9202H12.0229C11.6179 23.9202 11.2897 24.2483 11.2897 24.6534C11.2897 25.0583 11.6178 25.3866 12.0229 25.3866H14.7968C15.2018 25.3866 15.53 25.0584 15.53 24.6534C15.53 24.2484 15.2018 23.9202 14.7968 23.9202Z" fill="#9F3E4B"/>
<path d="M11.8529 36.6211H9.32695C8.92197 36.6211 8.59375 36.9492 8.59375 37.3543C8.59375 37.7593 8.92207 38.0875 9.32695 38.0875H11.8529C12.2579 38.0875 12.5861 37.7594 12.5861 37.3543C12.5861 36.9493 12.258 36.6211 11.8529 36.6211Z" fill="#9F3E4B"/>
<path d="M42.7795 0H22.1285C19.7904 0 17.8882 1.90214 17.8882 4.24032V10.913C11.144 11.1697 5.71618 16.655 5.55339 23.4225C4.06335 23.895 2.98035 25.2908 2.98035 26.9351V27.9944C2.98035 29.7705 4.24363 31.2569 5.91882 31.6027V33.3697C5.91882 35.8189 7.91139 37.8115 10.3606 37.8115H12.9902C13.6198 38.1892 14.2917 38.5032 14.9972 38.7439V41.0691H12.8029C10.0829 41.0691 7.86999 43.2819 7.86999 46.002V49.2669C7.86999 49.6719 8.19811 50.0001 8.60319 50.0001H28.1615C28.5665 50.0001 28.8947 49.672 28.8947 49.2669V46.0019C28.8947 45.7537 28.8762 45.5072 28.8395 45.2639C30.2283 44.7213 31.2152 43.3697 31.2152 41.791V29.3331C31.8164 28.9039 32.2096 28.2011 32.2096 27.4078V27.0244C32.2096 26.231 31.8164 25.5281 31.2152 25.0989V23.7353C31.2152 21.3201 30.5242 18.9453 29.2492 16.9119H37.6351C38.04 16.9119 38.3683 16.5838 38.3683 16.1787C38.3683 15.7736 38.0401 15.4455 37.6351 15.4455H26.1611C26.161 15.4455 26.1611 15.4455 26.161 15.4455C25.9081 15.4455 25.6733 15.5757 25.5392 15.7901L24.834 16.9185L23.9896 15.7494C23.8518 15.5586 23.6306 15.4456 23.3952 15.4456H22.1286C20.5992 15.4456 19.3547 14.2012 19.3547 12.6717V4.24032C19.3547 2.71083 20.5991 1.4664 22.1286 1.4664H42.7796C44.3091 1.4664 45.5535 2.71074 45.5535 4.24032V12.6717C45.5535 14.2011 44.3092 15.4456 42.7796 15.4456H40.568C40.163 15.4456 39.8348 15.7737 39.8348 16.1788C39.8348 16.5839 40.1629 16.912 40.568 16.912H42.7796C45.1178 16.912 47.0199 15.0098 47.0199 12.6717V4.24032C47.0198 1.90214 45.1177 0 42.7795 0ZM6.66471 30.2121C5.44167 30.2122 4.44675 29.2173 4.44675 27.9943V26.935C4.44675 25.7121 5.44167 24.7171 6.66462 24.7171H7.86989V28.7907V30.2122H6.66471V30.2121ZM10.3605 36.3449V36.345C8.71989 36.345 7.38512 35.0103 7.38512 33.3696V31.6786H8.2733C8.78766 33.4766 9.77037 35.0787 11.0798 36.3449H10.3605ZM14.9718 42.5351H15.125H15.1689C15.5425 43.6638 16.4911 44.5172 17.6492 44.7747V44.9142V45.669C17.6492 45.9655 17.4078 46.2069 17.1112 46.2069C15.9316 46.2069 14.9717 45.2473 14.9717 44.0675V42.5351H14.9718ZM21.7929 42.5351V44.0675C21.7929 45.2471 20.8332 46.2069 19.6535 46.2069C19.3569 46.2069 19.1155 45.9655 19.1155 45.669V45.115V44.7746C20.2736 44.5172 21.2221 43.6637 21.5957 42.535H21.6484H21.7929V42.5351ZM21.7674 41.0688V38.7436C22.3836 38.5334 22.9742 38.2671 23.5332 37.9515V41.0688H21.7674ZM20.3011 41.4704C20.3011 41.5437 20.2961 41.6155 20.2881 41.6865C20.2886 41.6867 20.2891 41.6871 20.2896 41.6874C20.2883 41.6954 20.2866 41.7031 20.2855 41.7112C20.1661 42.6678 19.3479 43.3893 18.3824 43.3893C17.4168 43.3893 16.5987 42.6678 16.4792 41.7112C16.4785 41.705 16.477 41.699 16.4761 41.6929C16.4766 41.6927 16.477 41.6924 16.4775 41.6922C16.4691 41.6193 16.4636 41.5454 16.4636 41.4703V39.1268C17.086 39.2421 17.7272 39.303 18.3824 39.303C19.0375 39.303 19.6788 39.2421 20.3011 39.1269V41.4704ZM27.4285 48.5336H27.4283H9.33629V46.0018C9.33629 44.0902 10.8914 42.5353 12.8029 42.5353H13.5055V44.0677C13.5055 46.0559 15.1231 47.6734 17.1113 47.6734C17.5934 47.6734 18.0363 47.5022 18.3824 47.2175C18.7286 47.5022 19.1713 47.6734 19.6535 47.6734C21.6416 47.6734 23.2592 46.0559 23.2592 44.0677V42.5353H23.5333V43.6604C23.5333 44.6851 24.3669 45.5188 25.3917 45.5188H27.3937C27.4159 45.6782 27.4284 45.8394 27.4284 46.0019V48.5336H27.4285ZM29.7489 41.7909C29.7488 43.0378 28.7345 44.0523 27.4875 44.0523H25.3917C25.1756 44.0523 24.9997 43.8764 24.9997 43.6603V36.9525C27.1356 35.2175 28.5796 32.6631 28.8487 29.7725H29.7489V41.7909ZM30.0509 26.1507C30.1368 26.2135 30.2366 26.2581 30.3452 26.2786C30.5852 26.4401 30.7434 26.7141 30.7434 27.0244V27.4078C30.7434 27.6927 30.6097 27.9465 30.4021 28.1112C30.2466 28.1281 30.1062 28.1939 29.9954 28.2924C29.9464 28.3007 29.8964 28.3061 29.8449 28.3061H28.8946V26.1259H29.8449C29.9159 26.1259 29.9846 26.135 30.0509 26.1507ZM22.1285 16.9119H23.0202L24.2834 18.6609C24.4215 18.8521 24.6429 18.9647 24.8777 18.9647C24.8859 18.9647 24.8941 18.9646 24.9023 18.9643C25.1462 18.9561 25.3701 18.8272 25.4994 18.6201L26.5672 16.9118H27.4702C28.961 18.8905 29.7487 21.2416 29.7487 23.7352V24.6595H28.8946V21.8291C28.8946 21.4973 28.6721 21.2071 28.3517 21.1211C27.5125 20.8956 26.7289 20.7482 26.0376 20.618C24.2069 20.2737 22.9974 20.0461 22.1355 18.7935C22.0172 18.6216 21.8315 18.5084 21.6244 18.4819C21.4176 18.4552 21.2093 18.5182 21.0516 18.6549C19.5761 19.9323 17.5704 20.6316 15.6226 21.1968C15.2336 21.3096 15.0099 21.7164 15.1228 22.1053C15.2357 22.4943 15.6429 22.7177 16.0313 22.6051C17.9001 22.0628 19.8284 21.3978 21.4185 20.2351C22.5723 21.4584 24.0686 21.7398 25.7666 22.0592C26.3008 22.1596 26.8487 22.2628 27.4284 22.4002V25.3928V28.7908C27.4284 33.7787 23.3703 37.8366 18.3825 37.8366C18.0692 37.8366 17.7595 37.8205 17.4543 37.7894C18.3643 37.7018 19.2316 37.3453 19.9403 36.7713C20.1516 36.853 20.3803 36.8996 20.62 36.8996C21.664 36.8996 22.5133 36.0503 22.5133 35.0063C22.5133 33.9622 21.664 33.1128 20.62 33.1128C19.8266 33.1128 19.1467 33.6038 18.8655 34.2977C18.8657 34.293 18.8664 34.2885 18.8665 34.2838C18.8794 33.8791 18.5619 33.5406 18.157 33.5278C17.2914 33.5002 17.1142 33.1499 17.0474 33.018C16.8645 32.6568 16.4233 32.512 16.0623 32.6948C15.7009 32.8776 15.5562 33.3187 15.739 33.6799C16.0294 34.2539 16.6766 34.9477 18.1104 34.9934C18.1183 34.9937 18.1262 34.9938 18.134 34.9938C18.4004 34.9938 18.6351 34.8504 18.7634 34.6353C18.7395 34.7554 18.7264 34.8794 18.7264 35.0065C18.7264 35.2671 18.7794 35.5156 18.8751 35.7417C18.3371 36.1296 17.6844 36.3451 17.0133 36.3451H13.4121C10.9585 34.7253 9.336 31.9442 9.336 28.7907V24.5104C10.7112 24.0556 12.0321 23.6928 13.1807 23.3842C13.5717 23.2792 13.8037 22.877 13.6985 22.486C13.5934 22.0949 13.1915 21.8635 12.8002 21.9682C11.5236 22.3113 10.036 22.7213 8.48297 23.2509H7.02692C7.27487 17.3713 12.01 12.6331 17.8883 12.3803V12.6717C17.8883 15.0097 19.7905 16.9119 22.1285 16.9119ZM20.1929 35.0063C20.1929 34.7708 20.3845 34.5792 20.62 34.5792C20.8554 34.5792 21.0469 34.7708 21.0469 35.0063C21.0469 35.2416 20.8553 35.4332 20.62 35.4332C20.5658 35.4332 20.5144 35.4221 20.4666 35.4036C20.4397 35.3666 20.409 35.3314 20.3744 35.299C20.3334 35.2607 20.2889 35.2285 20.2424 35.2015C20.2118 35.1427 20.1929 35.077 20.1929 35.0063Z" fill="#9F3E4B"/>
</g>
<defs>
<clipPath id="clip0">
<rect width="50" height="50" fill="white"/>
</clipPath>
</defs>
</svg>
