<svg width="46" height="46" viewBox="0 0 46 46" fill="none" xmlns="http://www.w3.org/2000/svg">
<path d="M45.5 18.5C45.5 28.9934 35.8208 38 22.2898 38C8.75883 38 0 25.9934 0 15.5C0 5.00659 8.75883 3 22.2898 3C35.8208 3 45.5 8.00659 45.5 18.5Z" fill="#FFCEBD"/>
<g clip-path="url(#clip0)">
<path d="M28.0653 8.40259C26.4167 8.40259 24.8064 8.86601 23.4071 9.74293C23.1388 9.888 21.1043 11.0642 21.4201 13.2069C21.5354 13.9895 21.9495 14.5487 22.35 15.0897C22.9151 15.853 23.4545 16.5827 23.3074 18.0587C23.2994 18.0545 23.292 18.0496 23.284 18.0455C22.8656 17.8321 22.3892 17.7946 21.9426 17.9397C21.5337 18.0725 21.195 18.3441 20.9772 18.7099C20.8284 18.5658 20.6583 18.442 20.4698 18.3431C20.1414 18.1706 19.7829 18.0861 19.4221 18.0915C19.395 17.7977 19.4103 17.6047 19.4277 17.3883C19.4496 17.1146 19.4745 16.8044 19.4084 16.3164C19.28 15.3682 18.737 14.5399 17.8794 13.9839C16.845 13.3132 15.4548 13.1165 14.2513 13.4701C12.0627 14.1133 10.7974 16.4182 11.4308 18.608C11.6177 19.2542 11.9611 19.8503 12.4239 20.3317C12.6669 20.5844 12.7983 20.918 12.7846 21.247C12.7458 22.1817 12.8749 23.1101 13.1685 24.0065C13.7971 25.9258 15.1634 27.5127 17.0155 28.4746C18.1747 29.0767 19.4247 29.3824 20.6715 29.3823C21.4166 29.3823 22.1608 29.2731 22.8834 29.0528C23.2836 28.9307 23.6757 28.7764 24.0487 28.5938C25.0693 28.0946 25.8783 27.2423 26.3266 26.1938C26.5765 25.6095 26.7057 24.9848 26.7121 24.3577C26.9891 24.4087 27.2819 24.3939 27.5665 24.3021C28.4798 24.0078 28.9867 23.0106 28.6969 22.0794L28.2474 20.6355C27.9487 19.6762 27.1917 18.9454 26.2226 18.6804C25.6038 18.5115 24.9632 18.5505 24.3868 18.7758C24.8116 16.4457 23.9764 15.3167 23.2921 14.3923C22.9487 13.9285 22.6522 13.528 22.5797 13.0359C22.3718 11.6256 23.9057 10.8045 23.9692 10.7713C23.9843 10.7635 23.9992 10.755 24.0136 10.7459C25.2299 9.97947 26.6311 9.57435 28.0656 9.57435C32.3461 9.57435 35.8285 13.153 35.8285 17.5517C35.8285 22.3788 32.0385 26.4349 28.8592 28.9877C25.8821 31.3779 22.8655 32.9352 21.9999 33.3614C21.1676 32.9517 18.3497 31.4979 15.4917 29.2654C15.2366 29.0663 14.8685 29.1115 14.6692 29.3665C14.47 29.6216 14.5153 29.9898 14.7703 30.189C18.2708 32.9234 21.6136 34.479 21.7543 34.5438C21.8322 34.5798 21.916 34.5977 21.9998 34.5977C22.0836 34.5977 22.1674 34.5797 22.2453 34.5438C22.3951 34.4747 25.9556 32.8174 29.5734 29.9168C31.7118 28.2026 33.419 26.4099 34.6476 24.589C36.2086 22.2755 37.0001 19.9078 37.0001 17.5519C37.0001 12.5069 32.9919 8.40259 28.0653 8.40259ZM18.6503 20.1285C18.9158 19.8952 19.2024 19.6429 19.3582 19.2683C19.5525 19.25 19.7482 19.2877 19.925 19.3805C20.1306 19.4885 20.2891 19.6597 20.3816 19.8689L20.1372 20.3484L18.4422 20.3149C18.5124 20.2496 18.5821 20.1884 18.6503 20.1285ZM23.7998 20.9041L23.9949 20.5211C24.0728 20.4058 24.165 20.2989 24.2707 20.2032C24.7178 19.7987 25.3318 19.652 25.9133 19.811C26.4949 19.9699 26.949 20.4085 27.1283 20.9841L27.5777 22.4278C27.6775 22.7483 27.5111 23.0888 27.2068 23.1868C26.9179 23.2802 26.6052 23.1358 26.4879 22.8583L26.1454 21.7581C26.0492 21.4491 25.7207 21.2766 25.4117 21.3728C25.1028 21.469 24.9303 21.7975 25.0265 22.1065L25.378 23.2355C25.9087 24.9481 25.133 26.759 23.5336 27.5413C23.2162 27.6965 22.8824 27.828 22.5414 27.9319C19.1633 28.962 15.3809 26.9972 14.2819 23.6418C14.0322 22.8792 13.9223 22.0899 13.9553 21.2957C13.9822 20.6491 13.7319 20.0018 13.2686 19.5197C12.9322 19.1697 12.6925 18.7535 12.5563 18.2825C12.1018 16.7107 13.0103 15.0562 14.5816 14.5944C14.8739 14.5086 15.1809 14.4666 15.4883 14.4666C16.1113 14.4666 16.7357 14.639 17.2418 14.9672C17.6425 15.227 18.1422 15.6992 18.2471 16.4736C18.2963 16.8365 18.2792 17.0487 18.2595 17.2945C18.2356 17.5926 18.2084 17.9305 18.2913 18.5023C18.339 18.8313 18.2744 18.8986 17.8766 19.2483C17.7672 19.3444 17.6432 19.4534 17.5149 19.5799C17.5147 19.5801 17.5106 19.5841 17.5105 19.5843L17.5033 19.5912C17.1828 19.9044 17.082 20.375 17.2463 20.7902C17.4095 21.2024 17.8019 21.4744 18.2461 21.4832L20.2572 21.523C20.6179 21.5308 20.9528 21.3287 21.1157 21.009L21.9636 19.3455C22.0346 19.2061 22.1557 19.1027 22.3046 19.0543C22.4535 19.0061 22.6122 19.0185 22.7517 19.0897C22.8912 19.1607 22.9946 19.2818 23.0429 19.4306C23.0913 19.5795 23.0787 19.7382 23.0076 19.8777L22.9778 19.9363C22.8801 20.0906 22.7973 20.2533 22.7303 20.4219L22.1598 21.5412C21.9034 22.0441 21.4433 22.4301 20.8974 22.6001C20.6812 22.6674 20.4579 22.6994 20.234 22.6948L17.7 22.6438C17.3749 22.6376 17.1089 22.8943 17.1024 23.2178C17.0959 23.5414 17.3528 23.8089 17.6764 23.8154L20.2105 23.8664C20.5606 23.8733 20.909 23.8239 21.2458 23.7191C21.8362 23.5352 22.3622 23.1873 22.7617 22.7278L23.1746 24.054C23.2708 24.3629 23.5991 24.5355 23.9083 24.4392C24.2173 24.343 24.3898 24.0145 24.2935 23.7056L23.7716 22.0294C23.6553 21.6553 23.6702 21.2598 23.7998 20.9041Z" fill="white"/>
<path d="M13.8569 27.8987L13.8401 27.8836C13.5994 27.6674 13.2289 27.6873 13.0126 27.9281C12.7964 28.1689 12.8164 28.5393 13.0571 28.7556L13.0739 28.7706C13.1859 28.8711 13.3258 28.9206 13.4652 28.9206C13.6258 28.9206 13.7857 28.855 13.9014 28.7261C14.1176 28.4853 14.0977 28.1149 13.8569 27.8987Z" fill="white"/>
<path d="M20.6112 9.7547C19.2077 8.87011 17.5906 8.40259 15.9348 8.40259C11.0081 8.40259 7 12.5069 7 17.5519C7 20.7379 8.43286 23.9112 11.2588 26.984C11.3743 27.1096 11.532 27.1732 11.6902 27.1732C11.832 27.1732 11.9742 27.1221 12.0867 27.0185C12.3249 26.7995 12.3404 26.4289 12.1213 26.1906C9.50061 23.3411 8.17188 20.4346 8.17188 17.5519C8.17188 13.1531 11.6544 9.57447 15.9348 9.57447C17.3691 9.57447 18.7702 9.97965 19.9864 10.7461C20.2601 10.9187 20.622 10.8366 20.7945 10.5628C20.967 10.2891 20.885 9.92726 20.6112 9.7547Z" fill="white"/>
<path d="M28.0654 11.1875C27.7418 11.1875 27.4794 11.4498 27.4794 11.7734C27.4794 12.0971 27.7417 12.3594 28.0653 12.3594H28.0685C28.3921 12.3594 28.6529 12.0971 28.6529 11.7734C28.6529 11.4498 28.389 11.1875 28.0654 11.1875Z" fill="white"/>
<path d="M33.1541 13.8921C32.4294 12.8387 31.4259 12.0435 30.2519 11.5924C29.9498 11.4763 29.6109 11.6271 29.4947 11.9291C29.3786 12.2312 29.5294 12.5701 29.8315 12.6863C31.7941 13.4405 33.1128 15.3958 33.1128 17.5518C33.1128 17.8755 33.3752 18.1378 33.6988 18.1378C34.0224 18.1378 34.2847 17.8755 34.2847 17.5518C34.2847 16.2327 33.8938 14.9672 33.1541 13.8921Z" fill="white"/>
</g>
<defs>
<clipPath id="clip0">
<rect width="30" height="30" fill="white" transform="translate(7 6.5)"/>
</clipPath>
</defs>
</svg>
