<svg width="20" height="20" viewBox="0 0 20 20" fill="none" xmlns="http://www.w3.org/2000/svg">
<path fill-rule="evenodd" clip-rule="evenodd" d="M2.0574 5.80764C2.11545 5.74944 2.18442 5.70326 2.26035 5.67175C2.33629 5.64024 2.41769 5.62402 2.4999 5.62402C2.58211 5.62402 2.66351 5.64024 2.73944 5.67175C2.81537 5.70326 2.88434 5.74944 2.9424 5.80764L9.9999 12.8664L17.0574 5.80764C17.1155 5.74953 17.1845 5.70343 17.2604 5.67199C17.3363 5.64054 17.4177 5.62435 17.4999 5.62435C17.5821 5.62435 17.6635 5.64054 17.7394 5.67199C17.8153 5.70343 17.8843 5.74953 17.9424 5.80764C18.0005 5.86575 18.0466 5.93474 18.0781 6.01066C18.1095 6.08659 18.1257 6.16796 18.1257 6.25014C18.1257 6.33232 18.1095 6.4137 18.0781 6.48962C18.0466 6.56554 18.0005 6.63453 17.9424 6.69264L10.4424 14.1926C10.3843 14.2508 10.3154 14.297 10.2394 14.3285C10.1635 14.36 10.0821 14.3763 9.9999 14.3763C9.91769 14.3763 9.83629 14.36 9.76036 14.3285C9.68442 14.297 9.61545 14.2508 9.5574 14.1926L2.0574 6.69264C1.99919 6.63458 1.95301 6.56561 1.92151 6.48968C1.89 6.41375 1.87378 6.33235 1.87378 6.25014C1.87378 6.16793 1.89 6.08653 1.92151 6.0106C1.95301 5.93467 1.99919 5.8657 2.0574 5.80764Z" fill="#B0A2A2"/>
</svg>
