<svg width="46" height="46" viewBox="0 0 46 46" fill="none" xmlns="http://www.w3.org/2000/svg">
<path d="M41 25.5C41 35.9934 33.531 42.5 20 42.5C6.46902 42.5 0 28.9934 0 18.5C0 8.00659 6.46902 0 20 0C33.531 0 41 15.0066 41 25.5Z" fill="#FFCEBD"/>
<g clip-path="url(#clip0)">
<path d="M30.6252 19.4556C30.5979 19.3509 30.5481 19.2505 30.4818 19.1652C30.0602 18.3268 29.5347 17.4261 28.8826 16.4536C28.5843 16.0087 28.3196 15.5336 28.0959 15.0416C27.6723 14.1096 26.2174 14.7669 26.6417 15.7003C26.9014 16.2715 27.2088 16.8233 27.5555 17.3404C28.0121 18.0213 28.401 18.6584 28.7318 19.2577C23.367 21.4178 16.7506 22.3633 11.3377 19.7876C12.8313 16.4511 14.2867 11.7396 13.5298 7.06122C13.032 3.9852 11.8052 2.37197 11.7533 2.30482C11.1269 1.4953 9.85914 2.46483 10.4872 3.27627C10.4978 3.29024 11.5545 4.71033 11.9712 7.42874C12.6728 12.0048 11.0562 16.68 9.5753 19.798C9.44907 20.0556 8.56425 22.067 9.15605 26.7227C9.59861 30.2042 10.6827 33.5912 12.3783 36.7895C14.0447 39.9328 14.2611 40.9668 14.2768 41.2656C14.3306 42.288 15.926 42.2201 15.8715 41.182C15.854 40.8494 15.8008 39.8373 13.7897 36.0439C12.1845 33.016 11.1585 29.8124 10.7402 26.5221C10.479 24.467 10.5305 22.9113 10.6746 21.8694C14.9876 24.8579 17.9166 28.1865 18.6775 29.092C18.4668 34.4321 18.1122 40.2587 17.8713 40.952C17.5215 41.9144 19.0231 42.4573 19.3724 41.4957C19.8045 40.3066 20.1773 31.5746 20.273 29.1591C21.1256 28.158 25.3417 23.3334 29.4896 20.7876C30.8423 23.8996 30.483 25.8892 30.1323 27.8288C29.4587 31.554 27.9058 35.1179 26.5556 38.6394C25.9888 40.1179 25.7355 40.782 25.6729 41.0273C25.4212 42.0152 26.9578 42.4105 27.2203 41.421C27.2682 41.24 27.6465 40.2536 28.047 39.2092C29.4336 35.5928 31.0114 31.9376 31.7038 28.112C32.0878 25.9875 32.5483 23.4411 30.6252 19.4556ZM19.506 27.6034C18.5869 26.5513 16.6882 24.5189 14.0198 22.3767C17.6238 23.2114 21.4152 23.0095 24.9922 22.1396C22.558 24.2174 20.4957 26.4723 19.506 27.6034Z" fill="white"/>
<path d="M26.2762 9.89222C26.7058 9.91809 27.0942 9.57149 27.1188 9.14193C27.3088 5.82039 28.4779 3.1411 28.4897 3.11436C28.9043 2.17884 27.4455 1.53235 27.0295 2.46899C26.9767 2.58811 25.7319 5.42772 25.5245 9.05099C25.4994 9.49045 25.8359 9.86715 26.2762 9.89222Z" fill="white"/>
<path d="M19.054 16.8648C19.495 16.8648 19.8525 16.5079 19.8525 16.0677V14.3916C19.8525 13.3705 18.2556 13.3685 18.2556 14.3916V16.0677C18.2556 16.5079 18.6131 16.8648 19.054 16.8648Z" fill="white"/>
<path d="M27.1902 11.8473C27.0043 11.5633 26.6389 11.4319 26.3134 11.5225C25.9786 11.6156 25.7369 11.9226 25.7287 12.2702C25.7121 12.9797 26.6095 13.3578 27.1032 12.8407C27.3584 12.5734 27.3957 12.1552 27.1902 11.8473Z" fill="white"/>
</g>
<defs>
<clipPath id="clip0">
<rect width="40" height="40" fill="white" transform="translate(0.5 2)"/>
</clipPath>
</defs>
</svg>
