<svg width="98" height="18" viewBox="0 0 98 18" fill="none" xmlns="http://www.w3.org/2000/svg">
<path d="M80.6633 9.34644C80.4311 9.45655 80.1988 9.56668 79.9665 9.67679C81.6442 10.0953 83.1622 10.817 83.6991 12.6297C84.3454 14.713 83.0288 17.1767 80.8346 17.629C78.7944 18.0461 76.7218 16.3546 77.3024 14.2587C77.6745 12.9633 79.6547 13.5798 79.2834 14.8368C79.6847 15.8035 80.3727 15.8945 81.2707 15.1085C81.8184 14.5833 81.9453 14.0111 81.7283 13.3933C81.4859 12.1617 80.4571 11.8718 79.3517 11.5803C77.674 11.1619 75.9524 11.0107 74.2324 10.783C70.7915 10.3659 67.3092 10.1012 63.8236 9.9898C56.815 9.72782 49.8342 9.96472 42.8143 10.2391C35.7945 10.5135 28.8121 10.827 21.7994 10.7566C14.9017 10.6886 8.01043 10.3141 1.10147 10.7824C-0.241855 10.8692 -0.160155 8.80124 1.14485 8.71363C8.43774 8.21499 15.7496 8.63662 23.0313 8.67435C30.4662 8.71529 37.8716 8.33399 45.2746 8.06763C52.6776 7.80128 60.0781 7.64987 67.4659 8.11144C68.193 8.16502 68.9585 8.21942 69.6856 8.27299L69.7239 8.2738C72.4049 8.36836 75.4283 8.58509 78.0847 8.02754C79.4703 7.74997 81.0572 7.01664 80.7853 5.36281C80.6521 4.40181 79.7071 3.76875 78.7502 3.71035C77.8698 3.65356 76.2478 4.23281 78.1401 5.38402C79.275 6.09774 78.2036 7.83836 77.0679 7.16296C75.2131 6.05086 74.4992 3.54452 76.5203 2.20708C78.3467 1.01887 81.1664 1.80627 82.3171 3.59352C83.6897 5.7687 82.7571 8.20216 80.6633 9.34644Z" fill="#B0A2A2"/>
<path d="M96.8517 9.44593C95.2039 11.0171 93.4029 12.5499 91.027 12.6648C88.8045 12.7798 86.1604 11.9367 84.3593 10.6722C84.0144 10.4039 83.8611 10.059 83.8994 9.71415C83.7845 9.44591 83.7462 9.13937 83.8994 8.83281C84.8574 6.80185 87.3483 6.18871 89.3792 6.18871C91.7551 6.18871 94.5908 6.38032 96.5834 7.87481C97.1582 8.14305 97.4265 8.87112 96.8517 9.44593ZM88.0763 8.29632C88.7661 8.29632 89.4559 8.29633 90.1456 8.25801C91.4868 8.18137 91.4868 10.2507 90.1456 10.3273C89.6858 10.3656 89.2643 10.3656 88.8044 10.3656C89.3026 10.4806 89.8008 10.5572 90.2989 10.5955C91.9467 10.6722 93.2112 9.90576 94.3992 8.90944C93.0963 8.37295 91.4102 8.33465 90.184 8.25801C89.5325 8.21969 88.8044 8.18136 88.0763 8.29632Z" fill="#B0A2A2"/>
</svg>
