<svg width="1920" height="1163" viewBox="0 0 1920 1163" fill="none" xmlns="http://www.w3.org/2000/svg">
<path d="M0 0C0 0 581.393 101.377 957 101.623C1334.94 101.87 1920 0 1920 0V968.591C1920 968.591 1818.81 1125.26 1718 1155.43C1614.07 1186.53 1553.6 1112.38 1446 1102.5C1260.04 1085.42 1155.86 1153.36 969.5 1142.2C860.899 1135.69 802.272 1103.34 693.5 1102.5C578.533 1101.61 515.47 1158.21 401.5 1142.2C311.266 1129.52 272.508 1058.77 181.5 1060.69C107.103 1062.26 0 1122.08 0 1122.08V0Z" fill="white"/>
<path d="M1663.99 48.6483C1664.18 54.6404 1663.14 60.6078 1660.93 66.1835C1658.73 71.7593 1655.41 76.8253 1651.18 81.0702C1646.94 85.3151 1641.88 88.6489 1636.31 90.8667C1630.74 93.0845 1624.78 94.1394 1618.78 93.9665C1609.35 94.323 1600.02 91.8297 1592.02 86.8113C1584.02 81.793 1577.72 74.4824 1573.94 65.8319C1570.15 57.1814 1569.06 47.5919 1570.81 38.313C1572.56 29.0341 1577.06 20.496 1583.72 13.8108C1590.39 7.12561 1598.92 2.60339 1608.2 0.833345C1617.47 -0.9367 1627.06 0.127502 1635.73 3.88723C1644.39 7.64696 1651.72 13.9279 1656.76 21.9118C1661.8 29.8957 1664.32 39.2126 1663.99 48.6483Z" fill="#FFBAE4"/>
<path d="M1615.9 79.4257C1611.73 79.513 1607.59 78.752 1603.72 77.1889C1599.85 75.6259 1596.35 73.2934 1593.41 70.3333C1590.48 67.3731 1588.17 63.847 1586.64 59.9693C1585.11 56.0916 1584.39 51.9433 1584.51 47.7764C1584.63 43.6094 1585.6 39.5109 1587.35 35.7298C1589.11 31.9487 1591.62 28.5641 1594.72 25.7814C1597.83 22.9988 1601.46 20.8763 1605.41 19.543C1609.37 18.2096 1613.55 17.6933 1617.7 18.0252C1621.9 17.5188 1626.16 17.9558 1630.17 19.3044C1634.18 20.6529 1637.84 22.8791 1640.88 25.8205C1643.92 28.7619 1646.27 32.3445 1647.75 36.3072C1649.23 40.2699 1649.8 44.5127 1649.44 48.7266C1649.44 68.8673 1637.55 79.7501 1615.9 79.4257Z" fill="#FFA4DC"/>
<path opacity="0.7" d="M358.886 407.091C358.439 406.992 357.978 406.958 357.52 406.99C356.882 406.582 356.293 406.111 355.762 405.585L355.764 405.589C355.274 405.086 354.749 404.612 354.195 404.172L354.157 404.136C353.699 403.597 353.153 403.134 352.675 402.613L352.712 402.645C352.486 402.47 352.305 402.249 352.182 401.999C352.058 401.749 351.996 401.476 352 401.2C352.004 400.925 352.073 400.653 352.203 400.406C352.333 400.159 352.521 399.943 352.751 399.773L352.697 399.812C353.16 399.254 353.691 398.749 354.28 398.308L354.237 398.352C355.007 397.416 356.502 397.728 357.269 396.789L357.304 396.767C357.874 396.331 358.366 395.814 358.934 395.376L358.897 395.42C359.656 394.87 360.523 394.468 361.448 394.234C362.373 394.001 363.338 393.941 364.288 394.059C365.237 394.177 366.152 394.47 366.982 394.921C367.811 395.373 368.537 395.973 369.119 396.689C370.141 397.614 370.791 398.844 370.958 400.169C371.124 401.494 370.797 402.833 370.033 403.957C368.983 405.752 367.226 407.087 365.141 407.674C363.056 408.26 360.809 408.051 358.886 407.091Z" fill="#FFAEE0"/>
<path opacity="0.7" d="M419.183 169.728C419.33 164.923 421.269 160.345 424.623 156.883C427.978 153.422 432.508 151.325 437.332 151C442.454 151.013 447.37 153.007 451.04 156.56C454.709 160.113 456.844 164.946 456.992 170.037C457.067 172.514 456.637 174.982 455.729 177.29C454.821 179.599 453.453 181.702 451.708 183.472C449.962 185.242 447.875 186.643 445.571 187.591C443.267 188.539 440.795 189.015 438.301 188.989C428.296 189.391 417.455 178.659 419.183 169.728Z" fill="#FFA0DA"/>
<path opacity="0.7" d="M1552.18 905.728C1552.33 900.923 1554.27 896.345 1557.62 892.883C1560.98 889.422 1565.51 887.325 1570.33 887C1575.45 887.013 1580.37 889.007 1584.04 892.56C1587.71 896.113 1589.84 900.946 1589.99 906.037C1590.07 908.514 1589.64 910.982 1588.73 913.29C1587.82 915.599 1586.45 917.702 1584.71 919.472C1582.96 921.242 1580.87 922.643 1578.57 923.591C1576.27 924.539 1573.79 925.015 1571.3 924.989C1561.3 925.391 1550.46 914.659 1552.18 905.728Z" fill="#FFE6DD"/>
<path d="M284 51.102C283.367 51.5089 282.846 52.0644 282.485 52.7183C282.124 53.3723 281.933 54.1043 281.931 54.8487C277.655 56.6132 273.002 57.309 268.387 56.8741C267.964 56.2396 267.377 55.727 266.687 55.3888C265.997 55.0506 265.228 54.8989 264.459 54.9492C262.827 52.9883 261.051 51.1265 259.592 49.0479C257.845 47.114 256.919 44.5932 257.006 42.0063C257.093 39.4195 258.186 36.9643 260.06 35.1484C260.815 33.8064 261.873 32.6535 263.154 31.7794C264.434 30.9054 265.903 30.3335 267.444 30.1082C268.986 29.883 270.559 30.0104 272.042 30.4805C273.526 30.9506 274.879 31.7507 275.997 32.8189C278.037 34.3711 279.994 36.0261 281.861 37.7771C282.078 39.8457 281.903 42.056 283.972 43.4554C283.98 46.0052 283.99 48.554 284 51.102Z" fill="#FFA4DC"/>
<path d="M1536.07 682.611C1536.07 690.785 1520.55 701.329 1511.65 701.329C1502.76 701.329 1500.81 685.996 1500.81 677.822C1500.81 669.648 1510.19 674.34 1519.09 674.34C1527.99 674.34 1536.07 674.437 1536.07 682.611Z" fill="#FFE1D7"/>
<path d="M1528.67 685.223C1528.67 690.271 1519.83 695.67 1514.3 695.67C1508.77 695.67 1508.64 690.271 1508.64 685.223C1508.64 680.174 1513.13 677.387 1518.65 677.387C1524.18 677.387 1528.67 680.174 1528.67 685.223Z" fill="#FFC3AE"/>
<path d="M1251.32 41.6703C1251.31 42.2803 1251.3 42.8903 1251.29 43.5003C1250.13 44.5201 1248.91 45.4639 1247.63 46.3257C1247.17 46.697 1246.64 46.9689 1246.07 47.1241C1245.5 47.2794 1244.91 47.3145 1244.32 47.2274C1243.74 47.1402 1243.18 46.9326 1242.68 46.6178C1242.18 46.303 1241.75 45.8879 1241.43 45.3989C1240.56 44.5995 1240.05 43.4909 1240 42.3157C1239.96 41.1405 1240.38 39.9944 1241.17 39.128C1241.47 38.6179 1241.86 38.1744 1242.34 37.8257C1242.81 37.4771 1243.36 37.2307 1243.93 37.1023C1244.51 36.9739 1245.1 36.9663 1245.68 37.0798C1246.26 37.1934 1246.81 37.4256 1247.29 37.762C1248.37 38.3725 1249.4 39.0448 1250.4 39.7756C1250.38 40.144 1250.45 40.5118 1250.61 40.8437C1250.77 41.1757 1251.02 41.4604 1251.32 41.6703Z" fill="#FFA8DD"/>
<path opacity="0.7" d="M1491.89 1143.09C1491.44 1142.99 1490.98 1142.96 1490.52 1142.99C1489.88 1142.58 1489.29 1142.11 1488.76 1141.59L1488.76 1141.59C1488.27 1141.09 1487.75 1140.61 1487.19 1140.17L1487.16 1140.14C1486.7 1139.6 1486.15 1139.13 1485.67 1138.61L1485.71 1138.65C1485.49 1138.47 1485.3 1138.25 1485.18 1138C1485.06 1137.75 1485 1137.48 1485 1137.2C1485 1136.92 1485.07 1136.65 1485.2 1136.41C1485.33 1136.16 1485.52 1135.94 1485.75 1135.77L1485.7 1135.81C1486.16 1135.25 1486.69 1134.75 1487.28 1134.31L1487.24 1134.35C1488.01 1133.42 1489.5 1133.73 1490.27 1132.79L1490.3 1132.77C1490.87 1132.33 1491.37 1131.81 1491.93 1131.38L1491.9 1131.42C1492.66 1130.87 1493.52 1130.47 1494.45 1130.23C1495.37 1130 1496.34 1129.94 1497.29 1130.06C1498.24 1130.18 1499.15 1130.47 1499.98 1130.92C1500.81 1131.37 1501.54 1131.97 1502.12 1132.69C1503.14 1133.61 1503.79 1134.84 1503.96 1136.17C1504.12 1137.49 1503.8 1138.83 1503.03 1139.96C1501.98 1141.75 1500.23 1143.09 1498.14 1143.67C1496.06 1144.26 1493.81 1144.05 1491.89 1143.09Z" fill="#FFC3AE"/>
</svg>
