<svg width="20" height="28" viewBox="0 0 20 28" fill="none" xmlns="http://www.w3.org/2000/svg">
<path d="M19.5856 4.20443C18.7078 1.72556 15.9767 -0.70374 13.2456 0.188651C11.0998 0.882732 9.9293 3.26244 8.95392 5.39426C7.68592 3.51033 6.56424 1.37851 3.73563 2.51879C0.273024 3.90695 -0.312202 8.5672 0.12672 11.8393C0.711949 16.2021 3.10162 19.8708 5.29624 23.5395C6.27162 25.1756 7.83224 29.7863 10.3195 27.2578C11.8313 25.6714 12.8555 23.0933 13.9771 21.2094C15.0988 19.2759 16.1718 17.3424 17.1471 15.3593C18.8053 12.0376 20.9024 8.02187 19.5856 4.20443ZM9.97807 22.7463C9.73423 23.1429 9.05146 23.9362 9.00269 24.3824C8.56377 23.49 7.83224 22.548 7.34454 21.7548C5.93024 19.4246 4.4184 17.0945 3.49179 14.5165C2.66271 12.1864 1.78486 8.02187 3.68686 5.93963C5.88147 3.55992 6.95439 7.42695 8.31993 8.76554C8.61254 9.01342 8.90515 9.16215 9.19777 9.16215C9.63669 9.21173 10.1244 9.063 10.417 8.51765C11.1973 7.03033 11.7825 5.39427 12.7579 4.0061C13.6845 2.7171 15.0501 2.27092 16.2693 3.55993C17.4397 4.79936 17.5861 6.63372 17.2447 8.26976C16.123 13.3762 12.5628 18.4331 9.97807 22.7463Z" fill="#EC6985"/>
</svg>
