<svg width="121" height="133" viewBox="0 0 121 133" fill="none" xmlns="http://www.w3.org/2000/svg">
<path d="M62 37.4984L61.4824 38.9063L62 37.4984ZM77.5002 88.999L78.9903 88.827L77.5002 88.999ZM96.9531 99.4826L96.9429 97.9827L96.9531 99.4826ZM118.383 96.5271L102.125 90.5541L105.081 107.62L118.383 96.5271ZM5.8141 42.4658C6.96889 42.2185 8.60414 41.7504 10.5467 41.1962L9.72361 38.3113C7.73263 38.8793 6.21733 39.3114 5.1859 39.5323L5.8141 42.4658ZM19.7513 38.737C22.6046 38.0554 25.7357 37.3996 29.0503 36.879L28.5849 33.9154C25.176 34.4507 21.9659 35.1236 19.0543 35.8191L19.7513 38.737ZM38.4416 35.8791C41.5256 35.7192 44.6763 35.735 47.8334 35.9957L48.0802 33.0058C44.7712 32.7326 41.4847 32.7172 38.2863 32.8831L38.4416 35.8791ZM57.0423 37.5235C58.5373 37.91 60.0195 38.3685 61.4824 38.9063L62.5176 36.0906C60.9568 35.5168 59.3795 35.0291 57.7932 34.619L57.0423 37.5235ZM61.4824 38.9063C63.163 39.5241 64.7016 40.1733 66.1094 40.8496L67.4084 38.1454C65.9073 37.4243 64.28 36.7385 62.5176 36.0906L61.4824 38.9063ZM74.2506 46.2377C76.8775 48.7098 78.4901 51.3689 79.4176 54.1214L82.2605 53.1634C81.1741 49.9392 79.2893 46.86 76.3066 44.053L74.2506 46.2377ZM80.3926 63.6693C80.1348 66.9592 79.4158 70.2761 78.6143 73.5253L81.527 74.2438C82.3371 70.9597 83.1057 67.4478 83.3835 63.9037L80.3926 63.6693ZM76.2634 83.652C75.9543 85.5732 75.8107 87.4426 76.0101 89.1709L78.9903 88.827C78.8353 87.4834 78.9374 85.9178 79.2253 84.1286L76.2634 83.652ZM76.0101 89.1709C76.3293 91.9372 76.9475 94.1434 77.9133 95.8738L80.5329 94.4117C79.8253 93.1438 79.2826 91.3603 78.9903 88.827L76.0101 89.1709ZM90.5327 101.078C92.4358 101.077 94.7599 100.998 96.9634 100.983L96.9429 97.9827C94.5042 97.9993 92.5366 98.0769 90.5313 98.0779L90.5327 101.078ZM96.9634 100.983C99.1595 100.968 100.916 100.888 102.5 100.745L102.23 97.7569C100.748 97.8907 99.0766 97.9681 96.9429 97.9827L96.9634 100.983Z" fill="#B0A2A2"/>
<circle cx="6" cy="41" r="6" fill="#C6EAAA"/>
<path d="M64.1834 15.9323C64.0687 16.0619 63.9373 16.0196 63.7891 15.8054C63.2783 15.0568 62.1969 14.2298 60.5449 13.3242C58.877 12.4165 56.7196 11.7806 54.0725 11.4165C53.1056 11.2835 52.0846 11.1915 51.0095 11.1405C49.9344 11.0895 48.8063 11.0717 47.6253 11.0869C44.2361 11.186 41.1334 11.9624 38.317 13.4162C35.4963 14.9017 33.9671 16.5083 33.7295 18.2361C33.6924 18.5055 33.6925 18.7397 33.7297 18.9386C33.908 20.5782 35.1859 21.5615 37.5635 21.8886C38.4987 22.0172 39.4117 22.0136 40.3026 21.8777C41.4082 21.7068 42.5418 21.2732 43.7035 20.577C44.1795 20.2871 44.5786 20.0271 44.901 19.7969C45.2255 19.5508 45.4665 19.3255 45.6238 19.1211C45.8778 18.8007 46.1115 18.6875 46.3246 18.7814C46.5127 18.8234 46.4717 19.0035 46.2019 19.3217C45.9544 19.5945 45.6572 19.8767 45.3102 20.1681C44.9655 20.4437 44.563 20.7275 44.1029 21.0195C42.7905 21.8727 41.5191 22.368 40.2889 22.5057C39.3029 22.6285 38.3186 22.6223 37.3358 22.4871C34.134 22.0467 32.5033 20.4577 32.4438 17.7201C32.4432 17.6069 32.4415 17.5017 32.4388 17.4044C32.454 17.2935 32.4693 17.1825 32.4845 17.0716C32.7549 15.1061 34.2622 13.4238 37.0064 12.0247C39.8747 10.5457 43.3478 9.83633 47.4256 9.89656C48.2968 9.90333 49.1399 9.93854 49.9548 10.0022C50.7878 10.0521 51.6084 10.1327 52.4168 10.2439C55.7296 10.6996 58.5286 11.5449 60.8136 12.7797C62.6176 13.7547 63.7091 14.567 64.0881 15.2167C64.2686 15.5484 64.3004 15.7869 64.1834 15.9323ZM46.0973 24.6613C45.5997 25.578 44.9917 26.3585 44.2733 27.0026C43.5706 27.6489 42.8152 28.1506 42.007 28.5078C41.2147 28.8672 40.3864 29.0763 39.5224 29.1351C38.6741 29.1961 37.8556 29.0996 37.0669 28.8458C36.5137 28.6405 36.0031 28.3603 35.5351 28.0052C35.0808 27.6682 34.7751 27.1901 34.618 26.5709C34.4566 25.9834 34.4342 25.3827 34.5509 24.7689C34.6857 24.1414 34.9208 23.665 35.2563 23.3397C35.4294 23.1374 35.6505 22.9982 35.9194 22.9222C36.4527 22.8017 36.7927 22.9131 36.9393 23.2563C37.0356 23.4956 37.0368 23.7219 36.9429 23.9351C36.8489 24.1483 36.6856 24.2792 36.4528 24.328C36.15 24.4155 35.9404 24.3544 35.8239 24.1446C35.7807 24.1063 35.7386 24.0602 35.6976 24.0061C35.6724 23.9541 35.6418 23.9419 35.6058 23.9692C35.4435 24.0922 35.3165 24.2524 35.2247 24.4498C35.133 24.6471 35.0639 24.8556 35.0175 25.0754C34.9892 25.2814 34.9699 25.4807 34.9596 25.673C34.9673 25.8518 34.9873 25.9999 35.0196 26.1174C35.0425 26.1851 35.0655 26.2529 35.0885 26.3207C35.1137 26.3726 35.1367 26.4403 35.1575 26.5239C35.7772 27.772 36.957 28.1766 38.6971 27.7376C39.0835 27.6292 39.4652 27.496 39.8422 27.3379C40.2193 27.1798 40.6097 26.9832 41.0135 26.748C41.3474 26.5517 41.6947 26.3168 42.0553 26.0434C42.4159 25.77 42.7708 25.4796 43.1199 25.1723C43.4712 24.8492 43.8067 24.5239 44.1263 24.1964C44.4639 23.8552 44.7688 23.5176 45.0408 23.1835C45.196 22.9949 45.3904 22.7552 45.6243 22.4643C45.8603 22.1576 46.0648 21.9031 46.238 21.7008C47.0433 20.778 47.7519 19.971 48.3637 19.2799C48.9756 18.5888 49.5157 18.009 49.9839 17.5405C51.2017 16.319 52.5056 15.3517 53.8958 14.6384C55.0805 14.01 56.1535 13.665 57.1149 13.6034C57.2755 13.6094 57.3529 13.6927 57.347 13.8534C57.3388 14.0299 57.1946 14.1393 56.9142 14.1815C56.1453 14.2534 55.1572 14.6262 53.9502 15.3C52.7453 15.958 51.7568 16.6861 50.9849 17.4843C50.6046 17.9004 50.2561 18.3208 49.9392 18.7456C49.6224 19.1704 49.2889 19.6575 48.9388 20.2069C48.5908 20.7405 48.1891 21.3716 47.7335 22.1003C47.296 22.8154 46.7506 23.669 46.0973 24.6613ZM55.6306 21.2243C55.2279 21.6857 54.9209 22.0392 54.7095 22.2846C54.5161 22.5164 54.4014 22.646 54.3653 22.6734C53.8977 23.2551 53.4221 23.8357 52.9387 24.4152C52.471 24.9969 52.0113 25.5797 51.5595 26.1636C50.5369 27.4926 50.0033 28.4367 49.9587 28.9959C49.9222 29.3785 50.1281 29.5844 50.5762 29.6138C51.2327 29.6556 51.8313 29.4715 52.3723 29.0614C52.5706 28.911 52.7209 28.8751 52.8231 28.9538C52.9434 29.0188 52.9361 29.1308 52.8011 29.2899C52.6662 29.449 52.4509 29.6052 52.1553 29.7583C51.8755 29.9136 51.5514 30.0386 51.1831 30.1333C50.8126 30.2439 50.453 30.2752 50.1042 30.2272C49.6561 30.1978 49.3284 30.0559 49.1211 29.8013C48.9276 29.5647 48.8501 29.2472 48.8887 28.8487C48.9447 27.8551 49.7535 26.3189 51.3153 24.2404L52.9272 22.2091L57.0309 17.032C57.0828 17.0068 57.1754 16.9792 57.3088 16.9491C57.4443 16.9031 57.6205 16.8547 57.8375 16.8037C58.0862 16.7572 58.302 16.7142 58.4851 16.6748C58.6841 16.6376 58.8581 16.605 59.0073 16.577C59.2992 16.5687 59.4487 16.5974 59.4558 16.6629C59.4673 16.6968 59.3752 16.8376 59.1797 17.0853C58.9863 17.3171 58.7164 17.6353 58.37 18.0398C58.0237 18.4444 57.6109 18.9206 57.1318 19.4684C56.6686 20.0184 56.1681 20.6037 55.6306 21.2243Z" fill="#9F3E4B"/>
<path d="M68.3339 28.893C68.4489 29.0627 68.3491 29.2495 68.0345 29.4535C67.0309 30.0972 65.5514 30.7357 63.5962 31.369C61.2489 32.1321 59.3035 32.2744 57.76 31.7958C57.1793 31.6158 56.7281 31.3419 56.4066 30.9742C55.9032 30.3826 55.7795 29.6741 56.0353 28.8489C56.457 27.4888 57.626 26.2849 59.5422 25.2374C60.7081 24.6106 61.9236 24.175 63.1887 23.9307C64.4538 23.6864 65.4531 23.678 66.1867 23.9054C66.8744 24.1186 67.1543 24.4316 67.0263 24.8442C66.8984 25.2568 66.3621 25.7438 65.4175 26.3053C64.5824 26.7834 63.7452 27.1604 62.9059 27.4362C61.4685 27.9119 60.0501 28.0835 58.6505 27.9511C58.3508 28.3775 58.1441 28.774 58.0304 29.1408C57.8503 29.7215 57.9087 30.2087 58.2054 30.6022C58.4706 30.9357 58.8324 31.1735 59.2909 31.3156C60.2995 31.6284 61.6531 31.5037 63.3518 30.9415C64.9952 30.3957 66.4388 29.7377 67.6827 28.9675C68.0278 28.773 68.2449 28.7482 68.3339 28.893ZM66.122 24.4382C65.7094 24.3102 65.0423 24.3547 64.1208 24.5715C63.1439 24.8046 62.1926 25.1714 61.2669 25.6717C60.4814 26.0982 59.7549 26.6854 59.0875 27.4333C60.212 27.4804 61.4152 27.3007 62.6971 26.894C63.5164 26.6288 64.3188 26.2829 65.1044 25.8564C65.9052 25.4346 66.3482 25.0862 66.4335 24.8111C66.4856 24.643 66.3818 24.5187 66.122 24.4382ZM68.7686 22.8717C68.6101 23.2748 68.3246 23.4124 67.912 23.2845C67.4841 23.1518 67.3493 22.8839 67.5078 22.4808C67.6711 22.0623 67.9667 21.9195 68.3946 22.0521C68.8072 22.1801 68.9319 22.4532 68.7686 22.8717ZM66.3846 22.1325C66.2261 22.5356 65.9405 22.6732 65.5279 22.5453C65.1 22.4126 64.9653 22.1447 65.1238 21.7416C65.287 21.3232 65.5826 21.1803 66.0105 21.313C66.4231 21.4409 66.5478 21.7141 66.3846 22.1325Z" fill="#9F3E4B"/>
<path d="M81.4618 36.6876C81.3797 36.8259 80.5418 37.0708 78.948 37.4225C76.3511 37.9951 74.6828 38.109 73.9432 37.7643C73.5226 37.5683 73.2069 37.28 72.996 36.8992C72.7851 36.5185 72.7631 36.1111 72.9301 35.677C73.2631 34.7731 74.3178 34.0819 76.0942 33.6035C78.9298 32.8597 80.4895 32.1833 80.7734 31.5742C80.9086 31.2841 80.7876 31.0512 80.4106 30.8755C79.9755 30.6727 79.1805 30.6553 78.0255 30.8231C77.056 30.9715 75.5136 31.4971 73.3982 32.4C72.7614 32.6681 71.723 33.1727 70.2832 33.9138C69.0056 34.5718 68.2852 34.9244 68.1219 34.9719C67.9798 35.0116 67.7179 34.9866 67.336 34.8969C66.9474 34.8217 66.6477 34.7262 66.4369 34.6103C66.3132 34.5349 66.2609 34.4576 66.2802 34.3784C66.2918 34.2778 68.1588 33.3209 71.8812 31.5076C72.5876 31.1661 73.3046 30.8206 74.0323 30.4713C74.8788 30.0185 75.3831 29.6181 75.5454 29.27C75.7008 28.9365 75.5755 28.6751 75.1694 28.4858C74.5458 28.1952 73.37 28.2562 71.6419 28.6689C70.0559 29.0418 68.7518 29.5108 67.7294 30.0758C66.1862 30.963 64.5816 31.8303 62.9156 32.6779C62.7716 32.6461 62.6149 32.5466 62.4457 32.3795C62.262 32.2056 62.1976 32.0785 62.2527 31.9982C62.3898 31.7797 64.0983 30.7842 67.378 29.0118C70.2692 27.4289 71.8357 26.6056 72.0773 26.5417C72.1768 26.5174 72.3716 26.5729 72.6617 26.7081C72.9585 26.8288 73.0972 26.9287 73.0779 27.008C72.8596 27.1357 72.243 27.4927 71.2284 28.079C73.3499 27.6555 74.8457 27.6465 75.7158 28.052C75.8754 28.1264 76.0354 28.2186 76.1959 28.3287C76.6484 28.6455 76.7463 29.0795 76.4894 29.6306C76.3069 30.0222 75.9944 30.3708 75.5519 30.6764C78.1198 30.0903 79.8534 30.0068 80.7525 30.4259C81.5791 30.8111 81.8269 31.359 81.4957 32.0697C81.178 32.7513 80.4853 33.3287 79.4174 33.8019C76.6874 35.0009 75.0886 35.9504 74.6212 36.6505C74.5458 36.7742 74.5314 36.8999 74.5779 37.0275C74.6311 37.1405 74.766 37.2299 74.9825 37.2955C75.5674 37.4798 76.7205 37.3729 78.4418 36.9748C79.8712 36.6348 80.7768 36.3772 81.1585 36.202C81.3421 36.1111 81.4992 36.096 81.6297 36.1568C81.7312 36.2042 81.7728 36.2853 81.7545 36.4004C81.7295 36.5299 81.6319 36.6256 81.4618 36.6876Z" fill="#9F3E4B"/>
<path d="M91.1375 42.9854C91.0918 43.1256 90.1241 43.2692 88.2345 43.4162C86.9428 43.5263 86.0677 43.576 85.6094 43.5653C84.4129 43.5458 83.418 43.3109 82.6247 42.8607C81.5672 42.2914 80.8908 41.6593 80.5953 40.9643C80.2998 40.2692 80.3246 39.4568 80.6697 38.5271C80.3798 38.6717 80.1008 38.8135 79.8328 38.9525C79.5867 39.0858 79.3557 39.2094 79.1397 39.3234C77.9775 39.9375 76.8548 40.5006 75.7716 41.0127C74.6883 41.5248 73.6336 41.9887 72.6073 42.4043C69.578 43.662 67.7259 44.0913 67.051 43.6924C66.7341 43.5052 66.6856 43.2256 66.9054 42.8537C67.5567 41.7518 71.0322 40.1166 77.3318 37.9483C78.0381 37.6966 78.9266 37.404 79.9973 37.0703C81.0762 36.7229 82.3482 36.3317 83.8134 35.8967C84.7921 35.3414 85.5384 34.9276 86.0525 34.6552C86.5747 34.3691 86.8618 34.2136 86.9138 34.1885C87.0534 34.141 87.2845 34.2217 87.6069 34.4309C87.935 34.662 88.0608 34.8107 87.9844 34.877C87.9406 34.8883 87.6616 35.0301 87.1476 35.3024C88.4199 35.1623 89.4004 35.2957 90.0891 35.7028C90.337 35.8493 90.533 36.0209 90.677 36.2175C91.0207 36.7366 90.9686 37.3749 90.5209 38.1325C90.1464 38.7661 89.5553 39.4204 88.7475 40.0953C88.3981 40.372 88.0541 40.624 87.7153 40.8512C87.3903 41.0866 87.0679 41.2863 86.7479 41.4504C85.602 42.0369 84.4859 42.353 83.3996 42.3987C83.7853 42.6266 84.3009 42.7919 84.9464 42.8947C85.9682 43.0526 87.0768 43.0479 88.2721 42.8809C90.3089 42.5793 91.1683 42.446 90.8502 42.481C91.0255 42.4359 91.1545 42.4378 91.2371 42.4867C91.3887 42.5762 91.4237 42.6899 91.3423 42.8276C91.2935 42.9102 91.2252 42.9628 91.1375 42.9854ZM89.5978 36.1094C89.0193 35.7675 87.5968 35.8002 85.3301 36.2077L81.5394 38.0932C81.2376 38.5096 81.0444 38.9623 80.9598 39.4513C80.8377 40.0667 80.9832 40.4966 81.3964 40.7408C82.2229 41.2293 83.7046 41.0178 85.8417 40.1063C87.8172 39.248 89.1184 38.2886 89.7452 37.228C90.0464 36.7184 89.9973 36.3455 89.5978 36.1094ZM81.7179 37.0836C80.3486 37.4824 79.003 37.9509 77.6812 38.4893C76.5973 38.908 75.5354 39.3212 74.4953 39.7287C73.4472 40.15 72.3811 40.5701 71.2973 40.9888C69.3982 41.7807 68.355 42.3351 68.1677 42.6519C68.0863 42.7896 68.0869 42.8829 68.1696 42.9318C68.5139 43.1353 70.0489 42.6765 72.7746 41.5553C73.9868 41.0451 75.0675 40.5687 76.0168 40.1261C76.9579 39.6973 77.7907 39.2788 78.5151 38.8706C78.8213 38.6985 79.2355 38.4694 79.7578 38.1833C80.2881 37.8834 80.9415 37.5168 81.7179 37.0836Z" fill="#9F3E4B"/>
</svg>
