<svg width="225" height="101" viewBox="0 0 225 101" fill="none" xmlns="http://www.w3.org/2000/svg">
<path d="M136.82 33.2152L136.915 31.7182L136.82 33.2152ZM80.576 79.5107L81.9769 78.9744L80.576 79.5107ZM132.602 83.7587L131.104 83.6732L132.602 83.7587ZM88.5439 40.8585L88.8454 39.3892L88.5439 40.8585ZM28.2732 50.5L27.5528 49.1843L28.2732 50.5ZM0 68.5L17.1693 66.2167L6.60724 52.4892L0 68.5ZM11.0789 62.499C13.1981 61.1246 15.574 59.63 18.149 58.0697L16.5943 55.504C13.993 57.0802 11.5911 58.5911 9.4465 59.982L11.0789 62.499ZM25.3485 53.8476C26.5397 53.1719 27.7561 52.4933 28.9937 51.8157L27.5528 49.1843C26.3017 49.8694 25.0722 50.5553 23.8684 51.2381L25.3485 53.8476ZM28.9937 51.8157C30.4721 51.0061 31.9898 50.2179 33.5472 49.4589L32.2331 46.7621C30.6302 47.5431 29.0703 48.3534 27.5528 49.1843L28.9937 51.8157ZM42.9693 45.4642C46.0969 44.3367 49.3605 43.3573 52.7636 42.5745L52.0911 39.6508C48.5634 40.4624 45.1846 41.4765 41.9518 42.642L42.9693 45.4642ZM62.833 40.9173C66.1149 40.5894 69.5128 40.4548 73.0292 40.5486L73.1092 37.5497C69.4644 37.4525 65.9402 37.5919 62.5347 37.9321L62.833 40.9173ZM83.2019 41.4387C84.8579 41.6828 86.538 41.9782 88.2424 42.3279L88.8454 39.3892C87.0865 39.0282 85.3512 38.7231 83.6393 38.4708L83.2019 41.4387ZM88.2424 42.3279C90.0748 42.7039 91.8825 43.1241 93.6581 43.5898L94.4191 40.6879C92.5887 40.2079 90.7283 39.7755 88.8454 39.3892L88.2424 42.3279ZM104.175 47.0636C107.696 48.5016 110.985 50.1655 113.97 52.0658L115.581 49.5352C112.425 47.5258 108.973 45.7825 105.31 44.2863L104.175 47.0636ZM122.383 58.951C124.872 61.614 126.899 64.5776 128.376 67.8611L131.112 66.6302C129.488 63.0211 127.269 59.7854 124.575 56.9026L122.383 58.951ZM131.035 78.2454C131.185 79.9811 131.212 81.7895 131.104 83.6732L134.099 83.8442C134.215 81.8233 134.187 79.8713 134.024 77.9871L131.035 78.2454ZM131.104 83.6732C131.004 85.4318 130.546 87.0279 129.798 88.4613L132.457 89.85C133.401 88.0411 133.975 86.0301 134.099 83.8442L131.104 83.6732ZM122.23 95.1307C119.223 96.5023 115.653 97.3136 111.862 97.4715L111.987 100.469C116.113 100.297 120.071 99.4129 123.475 97.8601L122.23 95.1307ZM101.197 96.1953C97.7895 95.2183 94.5008 93.6824 91.5683 91.55L89.804 93.9763C93.0445 96.3327 96.6564 98.0143 100.37 99.0791L101.197 96.1953ZM84.3425 83.7737C83.4361 82.3052 82.6403 80.7072 81.9769 78.9744L79.1752 80.047C79.9051 81.9537 80.784 83.7202 81.7896 85.3494L84.3425 83.7737ZM81.9769 78.9744C81.3595 77.3618 80.9026 75.7008 80.6084 74.0117L77.6529 74.5264C77.9802 76.4055 78.4885 78.2533 79.1752 80.047L81.9769 78.9744ZM80.8 63.7543C81.4847 60.49 82.7705 57.2603 84.6793 54.2038L82.1347 52.6147C80.0427 55.9647 78.6222 59.5231 77.8639 63.1385L80.8 63.7543ZM91.4936 46.3615C93.9867 44.2288 96.9092 42.2915 100.275 40.6291L98.9464 37.9393C95.3686 39.7064 92.2353 41.7791 89.5434 44.0818L91.4936 46.3615ZM110.192 36.9358C113.41 36.0711 116.9 35.4135 120.669 35.0008L120.343 32.0186C116.43 32.447 112.788 33.1317 109.413 34.0386L110.192 36.9358ZM131.345 34.507C133.091 34.5279 134.884 34.5954 136.725 34.7122L136.915 31.7182C135.024 31.5983 133.18 31.5288 131.381 31.5072L131.345 34.507ZM136.725 34.7122C138.249 34.8088 139.806 34.9436 141.39 35.1142L141.711 32.1314C140.086 31.9565 138.485 31.8178 136.915 31.7182L136.725 34.7122ZM150.689 36.4583C153.723 36.9997 156.809 37.6433 159.911 38.3741L160.599 35.454C157.447 34.7117 154.308 34.0567 151.216 33.505L150.689 36.4583ZM169.036 40.7552C172.07 41.6222 175.085 42.5576 178.05 43.5468L178.999 40.7011C175.994 39.6983 172.937 38.7499 169.86 37.8707L169.036 40.7552ZM186.932 46.7286C189.951 47.8863 192.87 49.0878 195.651 50.3148L196.862 47.5701C194.034 46.3221 191.069 45.102 188.007 43.9276L186.932 46.7286ZM204.143 54.3656C205.581 55.1109 206.955 55.8576 208.255 56.6018L209.745 53.9981C208.405 53.2314 206.995 52.4648 205.523 51.702L204.143 54.3656Z" fill="#B0A2A2"/>
<path d="M134.352 8.96236C134.342 9.09098 134.208 9.14533 133.951 9.12542C133.839 9.1307 133.719 9.13635 133.591 9.14238C133.491 10.0601 133.11 10.8149 132.449 11.4067C131.972 11.8296 131.438 12.055 130.847 12.0829C130.144 12.1161 129.78 11.8689 129.755 11.3415C129.717 10.5424 130.238 9.86913 131.317 9.32168C131.818 9.07382 132.379 8.90322 132.999 8.8099C132.936 7.80378 132.161 7.33575 130.674 7.40584C129.508 7.46085 128.171 7.81221 126.664 8.45991C124.888 9.20034 123.144 10.2437 121.429 11.5899C119.081 13.4305 117.328 15.3152 116.17 17.2439C115.144 18.9421 114.666 20.5184 114.735 21.9727C114.771 22.7399 114.963 23.4116 115.31 23.9879C116.249 25.5454 118.156 26.2563 121.033 26.1207C121.832 26.083 122.588 25.9833 123.302 25.8215C125.344 25.3248 127.166 24.5421 128.765 23.4736C129.851 22.7336 130.704 21.9726 131.324 21.1905C131.567 20.9068 131.785 20.7604 131.976 20.7513C132.04 20.7483 132.081 20.7624 132.099 20.7936C132.218 20.9482 132.094 21.2183 131.728 21.604C130.738 22.6758 129.816 23.5121 128.963 24.113C127.443 25.1617 125.622 25.9524 123.501 26.4849C122.329 26.7644 121.191 26.9301 120.089 26.9821C117.068 27.1246 114.913 26.4413 113.625 24.9323C112.914 24.1169 112.528 23.0699 112.468 21.7913C112.34 19.0903 113.758 16.3645 116.719 13.614C118.944 11.5389 121.428 9.87605 124.173 8.62542C126.572 7.5352 128.691 6.94676 130.529 6.8601C131.551 6.81187 132.302 6.94464 132.782 7.25842C133.311 7.61788 133.591 8.11725 133.621 8.75654C134.117 8.73318 134.36 8.80179 134.352 8.96236ZM132.995 9.24256C132.155 9.42634 131.52 9.70458 131.089 10.0773C130.611 10.4682 130.38 10.8395 130.396 11.1911C130.407 11.4149 130.556 11.52 130.844 11.5064C131.195 11.4898 131.595 11.3028 132.043 10.9453C132.568 10.5361 132.886 9.96854 132.995 9.24256Z" fill="#9F3E4B"/>
<path d="M147.799 22.2997C147.778 22.4592 147.106 23.0159 145.782 23.9699C143.624 25.5239 142.137 26.2891 141.321 26.2654C140.857 26.2519 140.453 26.1121 140.109 25.846C139.764 25.5799 139.583 25.2145 139.564 24.7497C139.512 23.7878 140.207 22.7355 141.649 21.5929C143.958 19.7872 145.123 18.5485 145.142 17.8767C145.151 17.5569 144.948 17.3909 144.532 17.3788C144.053 17.3649 143.316 17.6636 142.321 18.275C141.49 18.7951 140.282 19.8885 138.697 21.5552C138.218 22.0535 137.464 22.928 136.436 24.1787C135.523 25.2887 135.001 25.8978 134.87 26.006C134.755 26.0987 134.505 26.1795 134.118 26.2483C133.732 26.3331 133.419 26.364 133.179 26.3411C133.036 26.3209 132.957 26.2706 132.944 26.1902C132.914 26.0933 134.25 24.4754 136.95 21.3364C137.464 20.7431 137.985 20.142 138.515 19.5331C139.113 18.7821 139.418 18.2147 139.429 17.8309C139.44 17.4631 139.221 17.2726 138.773 17.2596C138.086 17.2397 137.03 17.7612 135.607 18.8244C134.298 19.7948 133.286 20.7418 132.571 21.6655C131.505 23.0911 130.375 24.5229 129.181 25.9609C129.036 25.9887 128.853 25.9593 128.631 25.8729C128.394 25.7859 128.284 25.6947 128.303 25.5992C128.342 25.3443 129.517 23.7537 131.827 20.8275C133.855 18.2293 134.968 16.853 135.164 16.6986C135.246 16.637 135.447 16.6108 135.767 16.6201C136.087 16.6134 136.254 16.6502 136.268 16.7307C136.118 16.9344 135.693 17.5063 134.993 18.4464C136.774 17.2176 138.144 16.6171 139.103 16.6449C139.279 16.6501 139.463 16.6714 139.654 16.7089C140.195 16.8207 140.456 17.1804 140.439 17.7882C140.426 18.22 140.277 18.6639 139.992 19.1198C142.118 17.5648 143.677 16.8018 144.668 16.8306C145.58 16.857 146.024 17.2621 146.002 18.0458C145.98 18.7974 145.572 19.602 144.779 20.4593C142.747 22.6412 141.655 24.1462 141.503 24.9741C141.482 25.1176 141.519 25.2387 141.612 25.3374C141.706 25.4202 141.865 25.4488 142.09 25.4233C142.7 25.361 143.716 24.8063 145.139 23.7591C146.317 22.881 147.047 22.2859 147.328 21.9739C147.461 21.8177 147.599 21.7417 147.743 21.7459C147.855 21.7491 147.925 21.8072 147.954 21.9201C147.982 22.0489 147.931 22.1755 147.799 22.2997Z" fill="#9F3E4B"/>
<path d="M157.808 23.1837C157.952 23.3297 157.887 23.5315 157.615 23.7893C157.462 23.9967 156.551 24.6138 154.882 25.6406C152.713 26.8175 150.826 27.3109 149.221 27.1208C148.617 27.0493 148.124 26.8619 147.741 26.5587C147.138 26.0685 146.888 25.3943 146.99 24.5363C147.157 23.1222 148.088 21.726 149.782 20.3477C150.814 19.5195 151.93 18.8703 153.13 18.4002C154.33 17.93 155.311 17.7402 156.074 17.8305C156.789 17.9152 157.121 18.1721 157.07 18.6011C157.019 19.0301 156.58 19.6065 155.753 20.3302C155.019 20.9521 154.264 21.475 153.489 21.8987C152.162 22.6276 150.798 23.0541 149.398 23.1782C149.181 23.652 149.05 24.0795 149.004 24.4608C148.933 25.0646 149.079 25.533 149.442 25.8661C149.763 26.1459 150.162 26.314 150.639 26.3704C151.688 26.4947 152.996 26.1261 154.564 25.2646C155.942 24.3805 156.814 23.7508 157.181 23.3753C157.485 23.1213 157.694 23.0575 157.808 23.1837ZM156.107 18.3661C155.678 18.3153 155.03 18.4802 154.163 18.8609C153.245 19.2677 152.376 19.8012 151.557 20.4614C150.862 21.0235 150.254 21.7329 149.734 22.5896C150.848 22.4317 151.998 22.0363 153.185 21.4035C153.943 20.9938 154.669 20.5078 155.364 19.9457C156.075 19.3854 156.447 18.9623 156.481 18.6763C156.502 18.5015 156.377 18.3981 156.107 18.3661Z" fill="#9F3E4B"/>
<path d="M168.109 25.867C168.15 25.9894 167.438 26.4099 165.972 27.1284C163.584 28.2988 161.99 28.8039 161.19 28.6439C160.735 28.5529 160.36 28.3473 160.065 28.0273C159.77 27.7072 159.653 27.3165 159.712 26.8553C159.822 25.8982 160.683 24.9773 162.296 24.0924C164.876 22.6993 166.231 21.6732 166.363 21.0143C166.426 20.7005 166.253 20.5028 165.845 20.4212C165.375 20.3271 164.598 20.4981 163.515 20.9342C161.771 21.6622 160.401 22.4733 159.406 23.3675C157.975 24.7293 156.48 26.0864 154.921 27.4388C154.773 27.442 154.598 27.3823 154.394 27.26C154.174 27.1344 154.081 27.0262 154.116 26.9352C154.197 26.6904 155.622 25.3192 158.39 22.8215C160.825 20.6 162.152 19.4296 162.372 19.3103C162.463 19.2633 162.665 19.2711 162.979 19.3339C163.296 19.381 163.454 19.4453 163.454 19.5269C163.451 19.6242 163.02 20.0682 162.16 20.8589C163.795 20.0274 165.098 19.7089 166.071 19.9035C166.966 20.0824 167.336 20.5562 167.182 21.3249C167.035 22.0623 166.498 22.7872 165.572 23.4995C163.203 25.31 161.874 26.6106 161.586 27.4013C161.542 27.5394 161.557 27.6649 161.633 27.7778C161.711 27.8751 161.863 27.93 162.089 27.9426C162.701 27.9834 163.796 27.6069 165.374 26.813C166.683 26.1447 167.458 25.696 167.7 25.4669C167.857 25.3351 168.006 25.2834 168.147 25.3116C168.257 25.3336 168.316 25.4026 168.326 25.5187C168.332 25.6505 168.26 25.7666 168.109 25.867Z" fill="#9F3E4B"/>
<path d="M179.472 29.0661C179.639 29.1254 178.872 29.5067 177.172 30.2101C174.736 31.2039 173.137 31.5451 172.374 31.2337C171.565 30.9105 171.27 30.3226 171.489 29.4703C171.541 29.2688 171.625 29.0675 171.743 28.8665C170.137 29.9741 168.883 30.3873 167.981 30.1061C167.032 29.813 166.703 29.1008 166.993 27.9695C167.263 26.9156 168.056 25.8883 169.37 24.8875C170.684 23.8868 172.128 23.1507 173.703 22.6794C175.145 22.2732 176.3 22.1814 177.168 22.4042C177.54 22.4996 177.812 22.6604 177.986 22.8866C178.159 23.1128 178.177 23.3981 178.039 23.7426C178.486 23.4776 178.757 23.3241 178.851 23.282C178.944 23.2399 179.062 23.229 179.206 23.2493C179.369 23.2581 179.493 23.2899 179.578 23.3448C179.667 23.3841 179.678 23.4366 179.612 23.5021C178.913 24.0993 177.717 25.1551 176.024 26.6696C174.486 28.0919 173.577 29.1554 173.297 29.8599C173.1 30.305 173.172 30.5712 173.513 30.6587C174.102 30.8099 175.352 30.4452 177.263 29.5645C178.964 28.7952 179.612 28.4577 179.208 28.5522C179.289 28.4906 179.385 28.4738 179.493 28.5016C179.679 28.5493 179.672 28.7375 179.472 29.0661ZM176.974 24.5101C177.22 24.3254 177.383 24.0781 177.462 23.7681C177.581 23.3032 177.416 23.013 176.967 22.8977C176.486 22.7744 175.813 22.8575 174.945 23.147C174.008 23.4516 173.058 23.9346 172.096 24.5961C169.937 26.0572 168.698 27.4077 168.38 28.6475C168.245 29.1745 168.355 29.4837 168.712 29.5751C169.115 29.6786 169.858 29.4232 170.94 28.8091C171.848 28.2986 172.697 27.7238 173.489 27.0845C174.487 26.2836 175.649 25.4255 176.974 24.5101Z" fill="#9F3E4B"/>
<path d="M181.914 32.4776C182.07 31.8562 182.993 30.9419 184.683 29.7347C184.379 29.7424 184.025 29.7514 183.621 29.7618C183.236 29.7614 182.864 29.7482 182.504 29.7219C182.164 29.685 181.866 29.6192 181.61 29.5245C181.375 29.4192 181.252 29.2477 181.241 29.0101C180.516 29.5752 179.776 30.1356 179.021 30.6914C178.286 31.2365 177.525 31.7823 176.74 32.3287C176.658 32.3206 176.574 32.2949 176.487 32.2516C176.4 32.2083 176.315 32.1573 176.233 32.0986C176.15 32.04 176.085 31.9784 176.038 31.9138C175.991 31.8492 175.974 31.794 175.988 31.7481C176.074 31.5232 177.627 30.2992 180.647 28.0762C181.973 27.0757 182.989 26.3235 183.695 25.8197C184.421 25.3051 184.841 25.0236 184.956 24.9751C185.036 24.9326 185.237 24.9604 185.558 25.0585C185.854 25.1319 186.005 25.2116 186.012 25.2975C186.015 25.3986 185.542 25.7979 184.593 26.4952L182.574 28.0119C182.668 28.1411 182.716 28.3145 182.716 28.5321C182.393 28.7681 182.287 28.9531 182.396 29.0869C182.511 29.2055 182.716 29.3015 183.011 29.3749C183.327 29.4377 183.684 29.4716 184.084 29.4766C184.484 29.4816 184.813 29.4732 185.071 29.4515C185.24 29.3358 185.429 29.2095 185.638 29.0726C186.761 28.2443 188.008 27.3369 189.38 26.3504C189.525 26.3112 189.682 26.3174 189.851 26.3687C190.054 26.4142 190.137 26.4981 190.1 26.6205C190.058 26.7582 189.628 27.1539 188.809 27.8074C187.514 28.8172 186.728 29.4472 186.451 29.6972C184.851 31.0489 183.895 32.0703 183.583 32.7615C183.367 33.1973 183.427 33.4665 183.763 33.5693C184.345 33.7468 185.61 33.4387 187.559 32.645C189.292 31.9529 190.005 31.6437 189.699 31.7173C189.783 31.6595 189.879 31.6469 189.986 31.6796C190.17 31.7357 190.238 31.8402 190.192 31.9933C190.164 32.0851 190.08 32.1682 189.94 32.2426C190.002 32.3119 189.168 32.6596 187.438 33.2858C184.961 34.1689 183.348 34.4378 182.6 34.0924C181.822 33.7377 181.593 33.1995 181.914 32.4776Z" fill="#9F3E4B"/>
<circle cx="219" cy="61" r="6" fill="#C6EAAA"/>
</svg>
