<svg width="70" height="70" viewBox="0 0 70 70" fill="none" xmlns="http://www.w3.org/2000/svg">
<path d="M54.1045 37.1941L44.295 35.0919L42.6562 33.4533V29.3486C43.5591 28.3267 44.246 27.1327 44.6756 25.8385C44.9928 24.8845 45.2515 23.912 45.4502 22.9264C46.4531 22.7862 47.3764 22.3024 48.0624 21.5576C48.7485 20.8127 49.1549 19.8529 49.2124 18.8419C49.2699 17.8309 48.9749 16.8312 48.3777 16.0134C47.7805 15.1956 46.918 14.6103 45.9375 14.3573V12.0313C45.9375 11.1927 45.8187 10.3583 45.5845 9.55311C45.6958 9.45102 45.7846 9.32691 45.8454 9.18866C45.9062 9.05041 45.9375 8.90104 45.9375 8.75003C45.9355 7.01015 45.2435 5.34211 44.0132 4.11184C42.7829 2.88156 41.1149 2.18952 39.375 2.18753H34.8123C32.742 2.18233 30.7411 2.93305 29.1852 4.29874C28.5403 4.22711 27.8875 4.29233 27.2696 4.49013C26.6516 4.68794 26.0823 5.01389 25.5988 5.44668C25.1153 5.87948 24.7286 6.40939 24.4639 7.00181C24.1992 7.59422 24.0624 8.23582 24.0625 8.8847V14.3418C23.068 14.5834 22.1897 15.1659 21.5803 15.9881C20.9709 16.8102 20.669 17.82 20.7271 18.8418C20.7852 19.8635 21.1997 20.8325 21.8985 21.5803C22.5972 22.328 23.5359 22.8072 24.5514 22.9343C24.7499 23.9172 25.0081 24.8871 25.3246 25.8386C25.7541 27.1328 26.4409 28.3267 27.3438 29.3486V33.4533L25.705 35.0919L15.8956 37.194C14.186 37.5676 12.6548 38.5128 11.5546 39.8737C10.4544 41.2345 9.85094 42.9298 9.84375 44.6797V63.4375C9.84505 64.5975 10.3064 65.7095 11.1266 66.5297C11.9468 67.3499 13.0588 67.8112 14.2188 67.8125H20.7812C20.8594 67.8125 20.9373 67.8042 21.0137 67.7875L35 64.7469L48.9863 67.7875C49.0627 67.8042 49.1406 67.8126 49.2188 67.8125H55.7812C56.9412 67.8112 58.0532 67.3499 58.8734 66.5297C59.6936 65.7095 60.1549 64.5975 60.1562 63.4375V44.6797C60.1491 42.9298 59.5456 41.2346 58.4455 39.8737C57.3453 38.5129 55.8141 37.5677 54.1045 37.1941ZM52.7583 51.4063H57.9688V54.617L47.6291 53.9709L52.7583 51.4063ZM57.9688 44.6797V49.2188H52.5C52.3302 49.2188 52.1627 49.2583 52.0108 49.3343L50.3125 50.1835V47.0313H48.125V51.2772L45.6472 52.516L36.0938 53.1131V45.5197L41.0733 48.0095C41.2237 48.0847 41.3895 48.1243 41.5577 48.125C41.7259 48.1258 41.892 48.0877 42.043 48.0138C42.1941 47.9399 42.3261 47.8322 42.4288 47.699C42.5315 47.5658 42.6021 47.4107 42.6351 47.2458L44.605 37.3956L53.6464 39.3331C54.8674 39.6 55.961 40.2751 56.7468 41.2471C57.5326 42.2191 57.9636 43.4298 57.9688 44.6797V44.6797ZM33.4027 43.3262L29.2292 45.4131L27.4373 36.4534L28.2676 35.6231L33.4027 43.3262ZM35 32.8125C36.9377 32.816 38.8357 32.2635 40.4688 31.2206V33.5751L35 41.7783L29.5312 33.5751V31.2157C31.1666 32.2542 33.0628 32.8079 35 32.8125ZM41.7324 35.6231L42.5627 36.4534L40.7708 45.4127L36.5973 43.3262L41.7324 35.6231ZM43.3821 9.84378C43.6268 10.5471 43.7512 11.2866 43.75 12.0313V13.0322C43.1118 12.0098 42.5451 10.9444 42.0539 9.84378H43.3821ZM47.0312 18.5938C47.0318 18.8809 46.9756 19.1653 46.8658 19.4306C46.756 19.6959 46.5947 19.9369 46.3914 20.1397C46.2216 20.3084 46.0255 20.4484 45.8108 20.5541C45.8951 19.726 45.9374 18.8943 45.9375 18.0619V16.7023C46.2696 16.894 46.5455 17.1697 46.7375 17.5017C46.9294 17.8337 47.0307 18.2103 47.0312 18.5938ZM40.9217 7.65628L42.6854 5.89261C43.1259 6.4013 43.4429 7.00489 43.6116 7.65628H40.9217ZM40.8522 4.6322L37.8283 7.65628H35.0882L37.7132 4.37503H39.375C39.8786 4.37469 40.3784 4.46171 40.8522 4.6322V4.6322ZM34.9118 4.37503L32.2868 7.65628H30.625V5.94264C31.7835 4.92797 33.2723 4.37061 34.8123 4.37503H34.9118ZM26.25 8.8847C26.2504 8.28242 26.4744 7.70175 26.8786 7.25522C27.2827 6.80868 27.8383 6.52808 28.4375 6.46778V8.52704C27.7908 10.0151 27.0605 11.4654 26.25 12.871V8.8847ZM22.9031 18.5938C22.9035 18.1973 23.0115 17.8083 23.2157 17.4685C23.4199 17.1286 23.7126 16.8506 24.0625 16.6641V18.0619C24.0627 18.9046 24.1062 19.7466 24.1928 20.5848C23.9524 20.4757 23.7335 20.3243 23.5467 20.1377C23.3426 19.9357 23.1807 19.6952 23.0703 19.4302C22.9598 19.1652 22.903 18.8809 22.9031 18.5938V18.5938ZM26.5398 21.65C26.3471 20.4637 26.2502 19.2638 26.25 18.0619V16.7935C28.0932 14.462 29.6287 11.2337 30.249 9.84378H39.6758C40.5579 12.0191 41.7099 14.075 43.1047 15.963C43.312 16.2433 43.5293 16.5202 43.7501 16.7935V18.0619C43.7499 20.4699 43.3617 22.862 42.6005 25.1464C42.2262 26.277 41.6025 27.3089 40.7757 28.166C40.4405 28.5133 40.0753 28.8302 39.6843 29.1131C38.3218 30.0993 36.6819 30.6286 35 30.625C33.922 30.6226 32.8554 30.4038 31.8635 29.9815C30.8715 29.5593 29.9745 28.9423 29.2254 28.167C28.3982 27.3098 27.7742 26.2776 27.3997 25.1467C27.0251 24.0204 26.7399 22.8664 26.5468 21.6952L26.5398 21.65ZM16.3543 39.3329L25.3955 37.3956L27.3655 47.2458C27.3985 47.4107 27.4691 47.5658 27.5717 47.699C27.6744 47.8322 27.8064 47.9399 27.9575 48.0138C28.1086 48.0877 28.2747 48.1258 28.4429 48.125C28.6111 48.1243 28.7768 48.0847 28.9272 48.0095L33.9062 45.5197V53.1131L24.3528 52.516L21.875 51.2772V47.0313H19.6875V50.1835L17.9892 49.3343C17.8373 49.2583 17.6698 49.2188 17.5 49.2188H12.0312V44.6797C12.0364 43.4298 12.4674 42.219 13.2532 41.247C14.039 40.2749 15.1327 39.5998 16.3537 39.3329H16.3543ZM20.6638 65.625H14.2188C13.6388 65.6243 13.0828 65.3937 12.6727 64.9836C12.2626 64.5735 12.0319 64.0175 12.0312 63.4375V61.25H16.3286L23.8688 62.3272L29.8516 63.628L20.6638 65.625ZM57.9688 63.4375C57.9681 64.0175 57.7374 64.5735 57.3273 64.9836C56.9172 65.3937 56.3612 65.6243 55.7812 65.625H49.3362L24.2949 60.1809C24.2692 60.1753 24.2433 60.1708 24.2171 60.1672L16.5609 59.0735C16.5097 59.0661 16.458 59.0625 16.4062 59.0625H12.0312V51.4063H17.2417L23.5733 54.572C23.7046 54.6377 23.8478 54.6762 23.9943 54.6853L57.9688 56.8089V63.4375Z" fill="#B0A2A2"/>
<path d="M30.0781 18.5938C30.4026 18.5938 30.7198 18.4975 30.9896 18.3173C31.2594 18.137 31.4697 17.8808 31.5939 17.581C31.718 17.2812 31.7505 16.9513 31.6872 16.6331C31.6239 16.3148 31.4677 16.0225 31.2382 15.793C31.0088 15.5636 30.7164 15.4073 30.3982 15.344C30.0799 15.2807 29.7501 15.3132 29.4503 15.4374C29.1505 15.5616 28.8943 15.7718 28.714 16.0416C28.5337 16.3114 28.4375 16.6286 28.4375 16.9531C28.438 17.3881 28.611 17.8051 28.9185 18.1127C29.2261 18.4203 29.6431 18.5933 30.0781 18.5938Z" fill="#B0A2A2"/>
<path d="M39.9219 18.5938C40.2464 18.5938 40.5636 18.4975 40.8334 18.3173C41.1032 18.137 41.3134 17.8808 41.4376 17.581C41.5618 17.2812 41.5943 16.9513 41.531 16.6331C41.4677 16.3148 41.3114 16.0225 41.082 15.793C40.8525 15.5636 40.5602 15.4073 40.2419 15.344C39.9237 15.2807 39.5938 15.3132 39.294 15.4374C38.9942 15.5616 38.738 15.7718 38.5577 16.0416C38.3775 16.3114 38.2812 16.6286 38.2812 16.9531C38.2817 17.3881 38.4547 17.8051 38.7623 18.1127C39.0699 18.4203 39.4869 18.5933 39.9219 18.5938Z" fill="#B0A2A2"/>
<path d="M38.7704 23.9469L37.7921 21.9905C36.5048 22.6322 35.0864 22.967 33.648 22.9687H32.8125V25.1562H33.648C35.4259 25.1541 37.1792 24.7402 38.7704 23.9469Z" fill="#B0A2A2"/>
</svg>
