<svg width="70" height="70" viewBox="0 0 70 70" fill="none" xmlns="http://www.w3.org/2000/svg">
<g clip-path="url(#clip0)">
<path d="M37.4432 47.3738C36.5441 47.3738 35.6654 47.6315 34.9081 48.1024C34.1508 47.6315 33.2721 47.3738 32.3731 47.3738C29.6943 47.3738 27.5149 49.5934 27.5149 52.3216C27.5149 53.8693 28.6323 55.7325 30.931 58.0182C32.4826 59.5609 34.0129 60.7351 34.0773 60.7843C34.3225 60.9717 34.6155 61.0657 34.9084 61.0657C35.2014 61.0657 35.4942 60.9717 35.7395 60.7843C35.8039 60.7351 37.3342 59.5611 38.8858 58.0182C41.1845 55.7325 42.3019 53.8692 42.3019 52.3216C42.3015 49.5933 40.122 47.3738 37.4432 47.3738ZM34.9076 57.9472C32.5282 55.9752 30.2517 53.443 30.2517 52.3216C30.2517 51.1027 31.2034 50.1108 32.3731 50.1108C32.9552 50.1108 33.4984 50.3521 33.9023 50.79C34.1615 51.0709 34.5261 51.2306 34.9082 51.2306C35.2904 51.2306 35.655 51.0709 35.9142 50.79C36.3182 50.3521 36.8614 50.1108 37.4436 50.1108C38.6129 50.1108 39.5646 51.1027 39.5646 52.3216C39.5645 53.4403 37.2872 55.9731 34.9076 57.9472Z" fill="#B0A2A2"/>
<path d="M33.0956 36.8701C32.2079 36.1045 31.1497 35.7707 30.1136 35.9308C23.6821 36.9246 20.6159 41.9519 20.4885 42.1656C20.1013 42.8146 20.3136 43.6548 20.9626 44.042C21.6118 44.4294 22.4519 44.2167 22.839 43.5678C22.8636 43.5267 25.3586 39.4352 30.5316 38.6358C30.8419 38.5888 31.1511 38.8077 31.3082 38.9429C31.7919 39.3603 32.1277 40.0539 32.1244 40.6296C32.1212 41.1825 31.771 41.6697 31.2528 41.8419C28.7019 42.6901 26.9449 43.6973 26.0304 44.8353L20.7905 51.357C20.25 52.0298 19.504 52.4021 18.7482 52.3764C18.4223 52.3656 18.1912 52.2604 17.9757 52.0251C16.6594 50.5867 16.92 45.8993 17.0313 43.8977C17.0485 43.5885 17.0639 43.3086 17.0743 43.0662C17.6107 30.7013 22.4324 27.1793 30.0386 25.5045L30.5093 25.4007C31.2475 25.2382 31.7139 24.5081 31.5512 23.7699C31.3887 23.0318 30.6581 22.565 29.9205 22.728L29.4499 22.8318C24.3939 23.9451 20.9272 25.8557 18.5402 28.8445C15.9512 32.0866 14.6165 36.5679 14.34 42.9477C14.3298 43.1804 14.3148 43.4489 14.2984 43.7457C14.0874 47.5383 14.0241 51.7614 15.9562 53.8727C16.6662 54.6485 17.6003 55.0768 18.6574 55.1118C18.7125 55.1137 18.7676 55.1147 18.8224 55.1147C18.9183 55.1147 19.0137 55.1118 19.1089 55.1062C19.1426 57.3343 19.6493 59.4748 20.6188 61.4712C20.8554 61.9586 21.3431 62.2421 21.8506 62.2421C22.0512 62.2421 22.255 62.198 22.4474 62.1043C23.1276 61.7743 23.411 60.9555 23.0807 60.2756C22.259 58.5837 21.8424 56.7645 21.8424 54.8681V54.1087C22.2373 53.8196 22.6013 53.4726 22.9236 53.0713L28.1633 46.5498C28.7184 45.8591 30.159 45.0899 32.1159 44.4391C33.7476 43.8964 34.8507 42.3718 34.8608 40.6453C34.8691 39.2625 34.1924 37.816 33.0956 36.8701Z" fill="#B0A2A2"/>
<path d="M25.2454 63.399L25.21 63.3615C24.6935 62.8097 23.8274 62.7811 23.2757 63.2977C22.7239 63.8142 22.6953 64.6802 23.2119 65.232L23.2705 65.2938C23.5392 65.5739 23.8983 65.7149 24.2582 65.7149C24.5989 65.7149 24.9401 65.5884 25.2053 65.3338C25.7507 64.8106 25.7688 63.9444 25.2454 63.399Z" fill="#B0A2A2"/>
<path d="M47.0618 25.4264C45.0743 24.1611 42.8969 23.2511 40.5907 22.7217C39.8542 22.5528 39.1198 23.0128 38.9508 23.7494C38.7817 24.486 39.2417 25.2202 39.9784 25.3892C41.9796 25.8486 43.8684 26.638 45.592 27.7352C45.8199 27.8802 46.0741 27.9493 46.3255 27.9493C46.7778 27.9493 47.2204 27.7252 47.4812 27.3156C47.887 26.6782 47.6993 25.8323 47.0618 25.4264Z" fill="#B0A2A2"/>
<path d="M50.8946 28.5853L50.8223 28.5099C50.2974 27.966 49.431 27.9508 48.8873 28.4758C48.3434 29.0007 48.3283 29.8671 48.8533 30.4108L48.9145 30.4744C49.1834 30.7564 49.5438 30.8983 49.9049 30.8983C50.2441 30.8983 50.5844 30.7728 50.8491 30.5199C51.3958 29.9983 51.4165 29.1321 50.8946 28.5853Z" fill="#B0A2A2"/>
<path d="M53.9593 32.7139C53.5875 32.0556 52.753 31.8235 52.0948 32.1952C51.4365 32.5669 51.2045 33.4015 51.5761 34.0596C52.957 36.5047 53.0666 39.3716 53.0666 42.8653V47.0356C53.0666 51.8507 51.9637 58.614 46.7101 63.4899C45.7476 64.3831 43.8985 65.2873 41.3621 66.1056C41.272 66.1301 41.1829 66.1539 41.094 66.1775C40.4926 66.3002 39.8765 66.1677 39.3717 65.7991C38.8015 65.3825 38.4754 64.7384 38.4771 64.0319C38.4792 63.0587 39.1087 62.2188 40.0436 61.9421C42.4728 61.2228 44.2182 60.3813 45.2311 59.4412C48.8441 56.0879 48.6572 50.8978 48.4921 46.3187C48.4566 45.3316 48.4231 44.3996 48.4231 43.4857C48.4231 43.388 48.4124 43.293 48.393 43.2009C48.6755 42.677 48.8636 42.1341 48.9555 41.5681C49.3693 39.0151 47.7122 36.8573 46.3806 35.1234C45.8543 34.4379 45.059 33.4023 45.0515 33.0348C45.0513 32.2791 44.4387 31.6665 43.683 31.6665C42.9274 31.6665 42.3146 32.2793 42.3146 33.0349C42.3146 34.3221 43.193 35.4661 44.2101 36.7903C45.2735 38.175 46.4787 39.7443 46.254 41.1302C46.108 42.031 45.3454 42.9533 43.9875 43.8713C43.3615 44.2946 43.197 45.1454 43.6202 45.7714C43.8847 46.1625 44.3159 46.3735 44.7551 46.3735C45.0189 46.3735 45.2854 46.2974 45.5203 46.1385C45.5962 46.0872 45.6685 46.0351 45.742 45.9834C45.7471 46.1282 45.7522 46.2736 45.7573 46.4171C45.9083 50.6044 46.0641 54.9342 43.3697 57.4352C42.6883 58.0676 41.2311 58.7363 39.267 59.3179C37.1625 59.9411 35.7455 61.8331 35.7406 64.0258C35.738 65.1453 36.102 66.1943 36.7641 67.0456C35.1961 67.2562 34.2537 67.2633 34.2384 67.2633C32.2254 67.2633 30.2276 66.7703 28.4609 65.8376C27.7926 65.4849 26.9649 65.7406 26.6118 66.4091C26.259 67.0775 26.5147 67.9052 27.1831 68.2583C29.3422 69.3979 31.7818 70.0003 34.2384 70.0003C34.368 70.0003 37.3852 69.9864 41.7539 68.8345C41.8466 68.8132 41.9389 68.7871 42.0312 68.7604C42.0595 68.7528 42.0873 68.7455 42.116 68.7377C42.1231 68.7358 42.1296 68.7329 42.1368 68.7309C42.1491 68.7271 42.1616 68.7245 42.1739 68.7205C45.1446 67.7647 47.2974 66.68 48.5727 65.4964C53.3036 61.1057 55.8043 54.7221 55.8043 47.036V42.8657C55.8036 39.098 55.665 35.7339 53.9593 32.7139Z" fill="#B0A2A2"/>
<path d="M34.9215 0C33.3468 0 31.8526 0.34713 30.5072 0.96469C28.0315 -0.709162 24.6417 -0.151211 22.8413 2.27049C20.99 4.7611 21.51 8.29365 24.0004 10.1448C24.0977 10.2173 24.2016 10.2742 24.3092 10.3171C24.3064 10.418 24.3016 10.5182 24.3016 10.6198V12.3018C24.3016 18.1577 29.0657 22.9218 34.9215 22.9218C40.7773 22.9218 45.5414 18.1577 45.5414 12.3018V10.6199C45.5413 4.76411 40.7773 0 34.9215 0ZM25.0378 3.90333C25.6932 3.02135 26.7594 2.62104 27.7776 2.7687C26.4818 3.94872 25.4808 5.44538 24.8922 7.13373C24.2976 6.15714 24.3148 4.87608 25.0378 3.90333ZM34.9215 20.1848C30.8732 20.1848 27.5295 17.1171 27.0893 13.1844C29.1478 13.0296 33.6043 12.391 36.5613 9.76133C38.6062 12.0557 41.4022 12.8484 42.7634 13.1093C42.3575 17.0781 38.9956 20.1848 34.9215 20.1848ZM37.8678 6.92537C37.636 6.52751 37.2199 6.27281 36.7599 6.24765C36.3011 6.2229 35.8586 6.43031 35.5848 6.80054C33.535 9.57266 29.0822 10.2661 27.0429 10.4393C27.1397 6.17601 30.6353 2.73698 34.9214 2.73698C39.1667 2.73698 42.6372 6.11107 42.7965 10.3183C41.471 9.9943 39.1531 9.1316 37.8678 6.92537Z" fill="#B0A2A2"/>
</g>
<defs>
<clipPath id="clip0">
<rect width="70" height="70" fill="white"/>
</clipPath>
</defs>
</svg>
