<svg width="70" height="70" viewBox="0 0 70 70" fill="none" xmlns="http://www.w3.org/2000/svg">
<path d="M22.9688 25.9448C23.2588 25.9448 23.537 25.8296 23.7421 25.6245C23.9473 25.4194 24.0625 25.1412 24.0625 24.8511V15.3125C24.0625 12.4117 25.2148 9.6297 27.266 7.57852C29.3172 5.52734 32.0992 4.375 35 4.375C37.9008 4.375 40.6828 5.52734 42.734 7.57852C44.7852 9.6297 45.9375 12.4117 45.9375 15.3125V24.8511C45.9375 25.1412 46.0527 25.4194 46.2579 25.6245C46.463 25.8296 46.7412 25.9448 47.0312 25.9448C47.3213 25.9448 47.5995 25.8296 47.8046 25.6245C48.0098 25.4194 48.125 25.1412 48.125 24.8511V15.3125C48.125 11.8315 46.7422 8.49314 44.2808 6.03172C41.8194 3.57031 38.481 2.1875 35 2.1875C31.519 2.1875 28.1806 3.57031 25.7192 6.03172C23.2578 8.49314 21.875 11.8315 21.875 15.3125V24.8511C21.875 25.1412 21.9902 25.4194 22.1954 25.6245C22.4005 25.8296 22.6787 25.9448 22.9688 25.9448Z" fill="#B0A2A2"/>
<path d="M40.752 26.2641C41.6928 25.4459 42.4472 24.4354 42.9644 23.3009C43.4815 22.1664 43.7494 20.9342 43.75 19.6874V18.5936C43.75 18.3036 43.6348 18.0254 43.4296 17.8202C43.2245 17.6151 42.9463 17.4999 42.6562 17.4999C42.3662 17.4999 42.088 17.6151 41.8829 17.8202C41.6777 18.0254 41.5625 18.3036 41.5625 18.5936V19.6874C41.5625 21.4279 40.8711 23.0971 39.6404 24.3278C38.4097 25.5585 36.7405 26.2499 35 26.2499C33.2595 26.2499 31.5903 25.5585 30.3596 24.3278C29.1289 23.0971 28.4375 21.4279 28.4375 19.6874V14.9766C30.218 14.2345 31.7777 13.0469 32.9667 11.528C35.6015 13.9698 39.064 15.3221 42.6562 15.3124C42.9463 15.3124 43.2245 15.1971 43.4296 14.992C43.6348 14.7869 43.75 14.5087 43.75 14.2186C43.75 13.9286 43.6348 13.6504 43.4296 13.4452C43.2245 13.2401 42.9463 13.1249 42.6562 13.1249C41.0655 13.129 39.4897 12.8177 38.0201 12.2088C36.5504 11.6 35.2161 10.7057 34.0944 9.57785L33.5858 9.06926C33.4713 8.95489 33.3329 8.86735 33.1805 8.81295C33.0281 8.75854 32.8656 8.73863 32.7045 8.75463C32.5435 8.77064 32.3881 8.82217 32.2494 8.90552C32.1107 8.98886 31.9922 9.10194 31.9025 9.2366L31.6334 9.64019C30.5227 11.3008 28.8925 12.546 26.9981 13.1807C26.7802 13.2532 26.5907 13.3925 26.4565 13.5788C26.3222 13.7651 26.2499 13.989 26.25 14.2186V19.6874C26.2504 20.9974 26.5455 22.2906 27.1135 23.4711C27.6815 24.6516 28.5078 25.6891 29.5312 26.5069V27.3436C29.5299 28.6998 30.0325 30.0082 30.9415 31.0146C31.8505 32.0211 33.1011 32.6539 34.4504 32.7902C35.7997 32.9265 37.1516 32.5566 38.2435 31.7522C39.3354 30.9478 40.0895 29.7665 40.3594 28.4374H40.4688C42.4986 28.4397 44.4447 29.2471 45.88 30.6824C47.3153 32.1177 48.1227 34.0638 48.125 36.0936V39.3749H43.75V36.0936C43.75 35.8036 43.6348 35.5254 43.4296 35.3202C43.2245 35.1151 42.9463 34.9999 42.6562 34.9999C42.3662 34.9999 42.088 35.1151 41.8829 35.3202C41.6777 35.5254 41.5625 35.8036 41.5625 36.0936V45.9374H40.4688C40.1787 45.9374 39.9005 46.0526 39.6954 46.2577C39.4902 46.4629 39.375 46.7411 39.375 47.0311C39.375 47.3212 39.4902 47.5994 39.6954 47.8045C39.9005 48.0097 40.1787 48.1249 40.4688 48.1249H42.6562C42.9463 48.1249 43.2245 48.0097 43.4296 47.8045C43.6348 47.5994 43.75 47.3212 43.75 47.0311V41.5624H48.125V48.1249C48.125 49.2852 47.6641 50.398 46.8436 51.2185C46.0231 52.0389 44.9103 52.4999 43.75 52.4999H32.8125C32.2323 52.4999 31.6759 52.2694 31.2657 51.8592C30.8555 51.4489 30.625 50.8925 30.625 50.3124C30.625 49.7322 30.8555 49.1758 31.2657 48.7656C31.6759 48.3554 32.2323 48.1249 32.8125 48.1249H36.0938C36.3838 48.1249 36.662 48.0097 36.8671 47.8045C37.0723 47.5994 37.1875 47.3212 37.1875 47.0311C37.1875 46.7411 37.0723 46.4629 36.8671 46.2577C36.662 46.0526 36.3838 45.9374 36.0938 45.9374H32.8125C31.6522 45.9374 30.5394 46.3983 29.7189 47.2188C28.8984 48.0393 28.4375 49.1521 28.4375 50.3124C28.4375 51.4727 28.8984 52.5855 29.7189 53.406C30.5394 54.2264 31.6522 54.6874 32.8125 54.6874H42.6562V66.7186C42.6562 67.0087 42.7715 67.2869 42.9766 67.492C43.1817 67.6972 43.4599 67.8124 43.75 67.8124C44.0401 67.8124 44.3183 67.6972 44.5234 67.492C44.7285 67.2869 44.8438 67.0087 44.8438 66.7186V54.5966C46.3721 54.3361 47.7592 53.5436 48.7599 52.3594C49.7607 51.1752 50.3106 49.6753 50.3125 48.1249V36.0936C50.3099 33.5337 49.3101 31.0755 47.5252 29.2404C45.7404 27.4054 43.3109 26.3378 40.752 26.2641V26.2641ZM35 30.6249C34.213 30.6216 33.4534 30.3356 32.8597 29.819C32.266 29.3024 31.8778 28.5896 31.7658 27.8107C33.841 28.6463 36.159 28.6463 38.2342 27.8107C38.1222 28.5896 37.734 29.3024 37.1403 29.819C36.5466 30.3356 35.787 30.6216 35 30.6249V30.6249Z" fill="#B0A2A2"/>
<path d="M38.2812 18.5938C38.8853 18.5938 39.375 18.1041 39.375 17.5C39.375 16.8959 38.8853 16.4062 38.2812 16.4062C37.6772 16.4062 37.1875 16.8959 37.1875 17.5C37.1875 18.1041 37.6772 18.5938 38.2812 18.5938Z" fill="#B0A2A2"/>
<path d="M31.7188 18.5938C32.3228 18.5938 32.8125 18.1041 32.8125 17.5C32.8125 16.8959 32.3228 16.4062 31.7188 16.4062C31.1147 16.4062 30.625 16.8959 30.625 17.5C30.625 18.1041 31.1147 18.5938 31.7188 18.5938Z" fill="#B0A2A2"/>
<path d="M35.0002 24.0625C35.7185 24.0646 36.4301 23.9241 37.0938 23.6492C37.7575 23.3744 38.3601 22.9706 38.8666 22.4613C38.9711 22.3604 39.0544 22.2397 39.1117 22.1063C39.1691 21.9728 39.1992 21.8293 39.2005 21.6841C39.2018 21.5388 39.1741 21.3948 39.1191 21.2604C39.0641 21.126 38.9829 21.0039 38.8802 20.9012C38.7775 20.7985 38.6554 20.7173 38.5209 20.6623C38.3865 20.6073 38.2425 20.5796 38.0973 20.5809C37.952 20.5821 37.8085 20.6123 37.6751 20.6696C37.5416 20.7269 37.421 20.8103 37.3201 20.9147C36.6948 21.5108 35.8641 21.8433 35.0002 21.8433C34.1364 21.8433 33.3057 21.5108 32.6804 20.9147C32.4741 20.7155 32.1978 20.6052 31.911 20.6077C31.6242 20.6102 31.3499 20.7253 31.1471 20.928C30.9443 21.1308 30.8293 21.4052 30.8268 21.6919C30.8243 21.9787 30.9346 22.255 31.1338 22.4613C31.6404 22.9706 32.2429 23.3744 32.9066 23.6492C33.5703 23.9241 34.2819 24.0646 35.0002 24.0625V24.0625Z" fill="#B0A2A2"/>
<path d="M35.8511 62.101C34.4521 63.5001 32.7296 64.5326 30.8362 65.1069C28.9429 65.6813 26.9371 65.7799 24.9965 65.3939C23.0559 65.0079 21.2405 64.1493 19.7111 62.8941C18.1816 61.6389 16.9853 60.0259 16.2281 58.1979C15.471 56.3699 15.1763 54.3835 15.3703 52.4144C15.5642 50.4454 16.2408 48.5545 17.3401 46.9094C18.4394 45.2643 19.9274 43.9157 21.6724 42.9831C23.4173 42.0504 25.3654 41.5625 27.344 41.5626C27.634 41.5626 27.9122 41.4473 28.1174 41.2422C28.3225 41.0371 28.4377 40.7589 28.4377 40.4688C28.4377 40.1787 28.3225 39.9005 28.1174 39.6954C27.9122 39.4903 27.634 39.3751 27.344 39.3751C26.9743 39.3751 26.6122 39.4024 26.2502 39.4308V37.1876C26.2502 36.8975 26.135 36.6193 25.9299 36.4142C25.7247 36.209 25.4465 36.0938 25.1565 36.0938H21.8752C21.8732 34.4836 22.3797 32.914 23.3225 31.6087C24.2652 30.3033 25.5961 29.3291 27.1252 28.8247C27.4008 28.7335 27.6288 28.5366 27.7592 28.2772C27.8895 28.0178 27.9115 27.7173 27.8203 27.4417C27.7291 27.1661 27.5321 26.9381 27.2727 26.8077C27.0133 26.6774 26.7128 26.6554 26.4372 26.7466C24.4712 27.3953 22.7601 28.6483 21.5481 30.3267C20.3361 32.0052 19.685 34.0235 19.6877 36.0938V41.6315C18.0061 42.7068 16.5699 44.1243 15.4727 45.7917C14.3754 47.4591 13.6417 49.3389 13.3194 51.3087C12.997 53.2786 13.0932 55.2942 13.6017 57.2244C14.1103 59.1545 15.0197 60.9559 16.2708 62.5112C17.5219 64.0665 19.0865 65.3408 20.8629 66.2511C22.6393 67.1613 24.5875 67.6872 26.5806 67.7944C28.5738 67.9016 30.5671 67.5878 32.4309 66.8733C34.2947 66.1588 35.987 65.0597 37.3977 63.6476C37.5969 63.4413 37.7072 63.165 37.7047 62.8782C37.7022 62.5914 37.5872 62.3171 37.3844 62.1143C37.1816 61.9115 36.9073 61.7965 36.6205 61.794C36.3337 61.7915 36.0574 61.9018 35.8511 62.101ZM21.8752 38.2813H24.0627V39.7721C23.3159 39.9449 22.5844 40.1779 21.8752 40.4688V38.2813Z" fill="#B0A2A2"/>
<path d="M23.2894 62.0232C23.4945 62.2283 23.7726 62.3435 24.0626 62.3435C24.3527 62.3435 24.6308 62.2283 24.8359 62.0232L27.5539 59.3053C28.0612 58.7983 28.3713 58.1271 28.4283 57.4122C28.4854 56.6973 28.2858 55.9854 27.8654 55.4044C27.4449 54.8234 26.8311 54.4112 26.1342 54.2419C25.4372 54.0727 24.7028 54.1573 24.0626 54.4807C23.4225 54.1573 22.688 54.0727 21.9911 54.2419C21.2942 54.4112 20.6804 54.8234 20.2599 55.4044C19.8395 55.9854 19.6399 56.6973 19.6969 57.4122C19.754 58.1271 20.0641 58.7983 20.5714 59.3053L23.2894 62.0232ZM22.118 56.5873C22.2735 56.4324 22.4841 56.3455 22.7037 56.3455C22.9232 56.3455 23.1338 56.4324 23.2894 56.5873C23.4945 56.7923 23.7726 56.9075 24.0626 56.9075C24.3527 56.9075 24.6308 56.7923 24.8359 56.5873C24.9913 56.432 25.202 56.3447 25.4216 56.3447C25.6413 56.3447 25.852 56.432 26.0073 56.5873C26.1627 56.7426 26.2499 56.9533 26.2499 57.173C26.2499 57.3927 26.1627 57.6034 26.0073 57.7587L24.0626 59.7034L22.118 57.7587C21.9631 57.6031 21.8761 57.3925 21.8761 57.173C21.8761 56.9535 21.9631 56.7429 22.118 56.5873V56.5873Z" fill="#B0A2A2"/>
<path d="M13.8984 40.1482C14.1035 39.9431 14.2187 39.665 14.2187 39.375C14.2187 39.0849 14.1035 38.8068 13.8984 38.6017L11.1805 35.8837C11.0251 35.7284 10.9379 35.5177 10.9379 35.298C10.9379 35.0783 11.0251 34.8676 11.1805 34.7123C11.3358 34.557 11.5465 34.4697 11.7662 34.4697C11.9858 34.4697 12.1965 34.557 12.3519 34.7123C12.557 34.9173 12.8351 35.0325 13.1251 35.0325C13.4152 35.0325 13.6933 34.9173 13.8984 34.7123C14.0538 34.557 14.2645 34.4697 14.4841 34.4697C14.7038 34.4697 14.9145 34.557 15.0698 34.7123C15.2252 34.8676 15.3124 35.0783 15.3124 35.298C15.3124 35.5177 15.2252 35.7284 15.0698 35.8837C14.9654 35.9846 14.882 36.1053 14.8247 36.2387C14.7674 36.3722 14.7372 36.5157 14.736 36.6609C14.7347 36.8062 14.7624 36.9502 14.8174 37.0846C14.8724 37.219 14.9536 37.3411 15.0563 37.4438C15.159 37.5465 15.2811 37.6277 15.4155 37.6827C15.5499 37.7377 15.694 37.7654 15.8392 37.7641C15.9844 37.7629 16.1279 37.7327 16.2614 37.6754C16.3948 37.6181 16.5155 37.5347 16.6164 37.4303C17.1237 36.9233 17.4338 36.2521 17.4908 35.5372C17.5479 34.8223 17.3483 34.1104 16.9279 33.5294C16.5074 32.9484 15.8936 32.5362 15.1967 32.3669C14.4997 32.1977 13.7653 32.2823 13.1251 32.6057C12.485 32.2823 11.7505 32.1977 11.0536 32.3669C10.3567 32.5362 9.74288 32.9484 9.32242 33.5294C8.90197 34.1104 8.70236 34.8223 8.75945 35.5372C8.81653 36.2521 9.12657 36.9233 9.6339 37.4303L12.3519 40.1482C12.557 40.3533 12.8351 40.4685 13.1251 40.4685C13.4152 40.4685 13.6933 40.3533 13.8984 40.1482V40.1482Z" fill="#B0A2A2"/>
<path d="M23.9599 46.7229C24.2134 46.5907 24.4052 46.3645 24.494 46.0928C24.5828 45.821 24.5617 45.5252 24.4351 45.2688C24.3086 45.0124 24.0867 44.8158 23.8169 44.721C23.5472 44.6262 23.251 44.6409 22.9919 44.7618C20.7925 45.8448 19.0764 47.7095 18.1794 49.991C18.1244 50.1251 18.0965 50.2688 18.0976 50.4138C18.0986 50.5588 18.1284 50.7021 18.1853 50.8355C18.2422 50.9688 18.3251 51.0895 18.429 51.1905C18.533 51.2916 18.656 51.371 18.7909 51.424C18.9258 51.4771 19.07 51.5028 19.2149 51.4997C19.3599 51.4965 19.5027 51.4646 19.6352 51.4058C19.7677 51.3469 19.8872 51.2623 19.9867 51.1569C20.0862 51.0515 20.1638 50.9273 20.2149 50.7916C20.9127 49.0162 22.2482 47.5652 23.9599 46.7229Z" fill="#B0A2A2"/>
<path d="M66.3668 13.4783C65.9092 13.0184 65.3649 12.6537 64.7655 12.4053C64.1661 12.1569 63.5233 12.0298 62.8745 12.0313C61.9079 12.0286 60.9622 12.3121 60.1565 12.8461C59.1352 12.1737 57.9008 11.9042 56.6921 12.0896C55.4835 12.2751 54.3867 12.9024 53.6139 13.85C52.8412 14.7977 52.4475 15.9983 52.5091 17.2195C52.5707 18.4408 53.0832 19.5957 53.9473 20.4608L59.3843 25.8967C59.5895 26.1018 59.8676 26.217 60.1576 26.217C60.4476 26.217 60.7258 26.1018 60.9309 25.8967L66.3679 20.4608C67.2919 19.5337 67.8106 18.2782 67.8104 16.9693C67.8102 15.6605 67.2911 14.4051 66.3668 13.4783V13.4783ZM64.8203 18.9142L60.1565 23.5769L55.4928 18.9142C54.987 18.3963 54.7058 17.6998 54.7102 16.9759C54.7146 16.252 55.0041 15.5589 55.5161 15.0471C56.0281 14.5353 56.7212 14.2459 57.4451 14.2417C58.169 14.2376 58.8654 14.519 59.3833 15.0249C59.5923 15.2222 59.869 15.3322 60.1565 15.3322C60.4441 15.3322 60.7207 15.2222 60.9298 15.0249C61.4539 14.5247 62.1506 14.2456 62.875 14.2456C63.5995 14.2456 64.2962 14.5247 64.8203 15.0249C65.3346 15.5414 65.6233 16.2406 65.6233 16.9695C65.6233 17.6985 65.3346 18.3977 64.8203 18.9142V18.9142Z" fill="#B0A2A2"/>
<path d="M58.5159 31.1872C57.6832 30.69 56.6975 30.5141 55.7442 30.6929C54.7909 30.8716 53.9358 31.3925 53.3397 32.1576C52.7437 32.9228 52.4478 33.8793 52.5077 34.8474C52.5677 35.8154 52.9793 36.7282 53.6651 37.4139L57.7426 41.4914C57.9478 41.6965 58.2259 41.8117 58.5159 41.8117C58.8059 41.8117 59.0841 41.6965 59.2892 41.4914L63.3667 37.4139C64.0526 36.7282 64.4642 35.8154 64.5241 34.8474C64.584 33.8793 64.2881 32.9228 63.6921 32.1576C63.096 31.3925 62.2409 30.8716 61.2877 30.6929C60.3344 30.5141 59.3486 30.69 58.5159 31.1872V31.1872ZM61.8201 35.8674L58.5159 39.1705L55.2117 35.8674C54.8761 35.5317 54.6875 35.0765 54.6875 34.6019C54.6875 34.1273 54.8761 33.672 55.2117 33.3364C55.5473 33.0008 56.0025 32.8123 56.4772 32.8123C56.9518 32.8123 57.407 33.0008 57.7426 33.3364C57.9478 33.5415 58.2259 33.6567 58.5159 33.6567C58.8059 33.6567 59.0841 33.5415 59.2892 33.3364C59.4554 33.1702 59.6527 33.0384 59.8698 32.9485C60.0869 32.8585 60.3197 32.8123 60.5547 32.8123C60.7897 32.8123 61.0224 32.8585 61.2395 32.9485C61.4567 33.0384 61.654 33.1702 61.8201 33.3364C61.9863 33.5026 62.1182 33.6999 62.2081 33.917C62.298 34.1342 62.3443 34.3669 62.3443 34.6019C62.3443 34.8369 62.298 35.0696 62.2081 35.2868C62.1182 35.5039 61.9863 35.7012 61.8201 35.8674V35.8674Z" fill="#B0A2A2"/>
<path d="M13.0541 22.1014C13.7399 21.4157 14.1516 20.5029 14.2115 19.5349C14.2714 18.5668 13.9755 17.6103 13.3795 16.8451C12.7834 16.08 11.9283 15.5591 10.975 15.3804C10.0217 15.2016 9.03601 15.3775 8.20329 15.8747C7.37058 15.3775 6.38484 15.2016 5.43156 15.3804C4.47828 15.5591 3.62317 16.08 3.02712 16.8451C2.43108 17.6103 2.13518 18.5668 2.1951 19.5349C2.25503 20.5029 2.66665 21.4157 3.35251 22.1014L7.43001 26.1789C7.63512 26.384 7.91327 26.4992 8.20329 26.4992C8.49332 26.4992 8.77147 26.384 8.97658 26.1789L13.0541 22.1014ZM4.89908 20.5549C4.56345 20.2192 4.3749 19.764 4.3749 19.2894C4.3749 18.8148 4.56345 18.3596 4.89908 18.0239C5.2347 17.6883 5.6899 17.4998 6.16454 17.4998C6.63919 17.4998 7.09439 17.6883 7.43001 18.0239C7.63512 18.229 7.91327 18.3442 8.20329 18.3442C8.49332 18.3442 8.77147 18.229 8.97658 18.0239C9.3122 17.6883 9.7674 17.4998 10.242 17.4998C10.7167 17.4998 11.1719 17.6883 11.5075 18.0239C11.8431 18.3596 12.0317 18.8148 12.0317 19.2894C12.0317 19.764 11.8431 20.2192 11.5075 20.5549L8.20329 23.858L4.89908 20.5549Z" fill="#B0A2A2"/>
</svg>
