<svg width="72" height="72" viewBox="0 0 72 72" fill="none" xmlns="http://www.w3.org/2000/svg">
<path d="M64.125 42.7499H60.0908L66.0454 36.7953C66.8531 35.9876 67.3068 34.8922 67.3068 33.7499C67.3068 32.6077 66.8531 31.5122 66.0454 30.7045C65.2377 29.8969 64.1422 29.4431 63 29.4431C61.8578 29.4431 60.7623 29.8969 59.9546 30.7045L47.9092 42.7499H46.9598C47.4079 42.3095 47.7638 41.7842 48.0068 41.2047C48.2498 40.6253 48.3749 40.0033 48.375 39.3749C48.3749 39.1063 48.2787 38.8465 48.1037 38.6426C47.9287 38.4388 47.6865 38.3043 47.421 38.2634L18.171 33.7634C17.9354 33.7251 17.6936 33.7635 17.4815 33.8731C17.2694 33.9827 17.0982 34.1577 16.9931 34.372C16.3824 35.6902 16.0821 37.1308 16.1153 38.5832C16.1484 40.0356 16.5142 41.461 17.1844 42.7499H12.375C11.4799 42.7499 10.6214 43.1055 9.98851 43.7384C9.35558 44.3714 9 45.2298 9 46.1249C9 47.02 9.35558 47.8785 9.98851 48.5114C10.6214 49.1443 11.4799 49.4999 12.375 49.4999H15.75V64.1249C15.7518 65.6162 16.345 67.0459 17.3995 68.1004C18.454 69.1549 19.8837 69.7481 21.375 69.7499H55.125C56.6163 69.7481 58.046 69.1549 59.1005 68.1004C60.155 67.0459 60.7482 65.6162 60.75 64.1249V49.4999H64.125C65.0201 49.4999 65.8785 49.1443 66.5115 48.5114C67.1444 47.8785 67.5 47.02 67.5 46.1249C67.5 45.2298 67.1444 44.3714 66.5115 43.7384C65.8785 43.1055 65.0201 42.7499 64.125 42.7499ZM15.75 47.2499H12.375C12.0766 47.2499 11.7905 47.1314 11.5795 46.9204C11.3685 46.7094 11.25 46.4233 11.25 46.1249C11.25 45.8265 11.3685 45.5404 11.5795 45.3294C11.7905 45.1184 12.0766 44.9999 12.375 44.9999H15.75V47.2499ZM54 44.9999V52.8749C54 53.1733 53.8815 53.4594 53.6705 53.6704C53.4595 53.8814 53.1734 53.9999 52.875 53.9999C52.5766 53.9999 52.2905 53.8814 52.0795 53.6704C51.8685 53.4594 51.75 53.1733 51.75 52.8749V50.6249C51.75 49.7298 51.3944 48.8714 50.7615 48.2384C50.1285 47.6055 49.2701 47.2499 48.375 47.2499C47.4799 47.2499 46.6215 47.6055 45.9885 48.2384C45.3556 48.8714 45 49.7298 45 50.6249V58.4999C45 58.7983 44.8815 59.0844 44.6705 59.2954C44.4595 59.5064 44.1734 59.6249 43.875 59.6249C43.5766 59.6249 43.2905 59.5064 43.0795 59.2954C42.8685 59.0844 42.75 58.7983 42.75 58.4999V52.8749C42.75 51.9798 42.3944 51.1214 41.7615 50.4884C41.1285 49.8555 40.2701 49.4999 39.375 49.4999C38.4799 49.4999 37.6215 49.8555 36.9885 50.4884C36.3556 51.1214 36 51.9798 36 52.8749C36 53.1733 35.8815 53.4594 35.6705 53.6704C35.4595 53.8814 35.1734 53.9999 34.875 53.9999C34.5766 53.9999 34.2905 53.8814 34.0795 53.6704C33.8685 53.4594 33.75 53.1733 33.75 52.8749V44.9999H54ZM18.693 36.1192L45.9349 40.3109C45.279 41.8578 43.1224 42.5902 42.5947 42.7499H19.7303C19.0973 41.7813 18.6775 40.6892 18.4987 39.5461C18.3198 38.4029 18.3861 37.2348 18.693 36.1192ZM27.6176 67.4999H21.375C20.4799 67.4999 19.6214 67.1443 18.9885 66.5114C18.3556 65.8785 18 65.02 18 64.1249V60.094C18.8741 59.2739 20.1814 58.4065 20.763 58.5719C21.0206 58.6473 21.2569 59.1209 21.3964 59.8387C21.7777 61.8164 22.5697 63.0708 23.7476 63.5669C24.4042 63.7785 25.1037 63.8203 25.7808 63.6885C26.4579 63.5567 27.0906 63.2555 27.6199 62.8132C27.8325 62.6714 28.2004 62.902 28.4389 63.1934C28.9969 63.8763 29.3839 65.521 27.6176 67.4999ZM58.5 64.1249C58.5 65.02 58.1444 65.8785 57.5115 66.5114C56.8785 67.1443 56.0201 67.4999 55.125 67.4999H30.375C30.9219 66.6357 31.1955 65.6267 31.1602 64.6045C31.1249 63.5824 30.7822 62.5947 30.177 61.7703C29.7689 61.1732 29.1483 60.7543 28.4418 60.5992C27.7354 60.4441 26.9964 60.5644 26.3756 60.9355C25.6129 61.4407 24.9716 61.642 24.6161 61.4924C24.192 61.3135 23.8219 60.5553 23.6036 59.4112C23.2054 57.349 22.1816 56.6425 21.3919 56.413C20.8007 56.3034 20.193 56.3196 19.6086 56.4607C19.0241 56.6018 18.476 56.8647 18 57.232V44.9999H31.5V52.8749C31.5 53.77 31.8556 54.6285 32.4885 55.2614C33.1214 55.8943 33.9799 56.2499 34.875 56.2499C35.7701 56.2499 36.6285 55.8943 37.2615 55.2614C37.8944 54.6285 38.25 53.77 38.25 52.8749C38.25 52.5765 38.3685 52.2904 38.5795 52.0794C38.7905 51.8684 39.0766 51.7499 39.375 51.7499C39.6734 51.7499 39.9595 51.8684 40.1705 52.0794C40.3815 52.2904 40.5 52.5765 40.5 52.8749V58.4999C40.5 59.395 40.8556 60.2535 41.4885 60.8864C42.1215 61.5193 42.9799 61.8749 43.875 61.8749C44.7701 61.8749 45.6285 61.5193 46.2615 60.8864C46.8944 60.2535 47.25 59.395 47.25 58.4999V50.6249C47.25 50.3265 47.3685 50.0404 47.5795 49.8294C47.7905 49.6184 48.0766 49.4999 48.375 49.4999C48.6734 49.4999 48.9595 49.6184 49.1705 49.8294C49.3815 50.0404 49.5 50.3265 49.5 50.6249V52.8749C49.5 53.77 49.8556 54.6285 50.4885 55.2614C51.1215 55.8943 51.9799 56.2499 52.875 56.2499C53.7701 56.2499 54.6285 55.8943 55.2615 55.2614C55.8944 54.6285 56.25 53.77 56.25 52.8749V44.9999H58.5V64.1249ZM56.9092 42.7499H51.0908L61.5454 32.2953C61.9339 31.9231 62.4528 31.7179 62.9909 31.7237C63.5289 31.7294 64.0432 31.9457 64.4237 32.3262C64.8042 32.7067 65.0205 33.221 65.0263 33.7591C65.032 34.2971 64.8268 34.816 64.4546 35.2045L56.9092 42.7499ZM64.125 47.2499H60.75V44.9999H64.125C64.4234 44.9999 64.7095 45.1184 64.9205 45.3294C65.1315 45.5404 65.25 45.8265 65.25 46.1249C65.25 46.4233 65.1315 46.7094 64.9205 46.9204C64.7095 47.1314 64.4234 47.2499 64.125 47.2499Z" fill="url(#paint0_linear)"/>
<path d="M51.75 63H49.5V65.25H51.75V63Z" fill="url(#paint1_linear)"/>
<path d="M56.25 63H54V65.25H56.25V63Z" fill="url(#paint2_linear)"/>
<path d="M33.75 16.875C33.75 13.9825 32.8923 11.1549 31.2853 8.74979C29.6782 6.34472 27.3941 4.4702 24.7218 3.36327C22.0494 2.25634 19.1088 1.96671 16.2718 2.53102C13.4348 3.09533 10.8289 4.48823 8.78357 6.53357C6.73823 8.57891 5.34533 11.1848 4.78102 14.0218C4.21671 16.8588 4.50634 19.7994 5.61327 22.4717C6.7202 25.1441 8.59472 27.4282 10.9998 29.0352C13.4049 30.6423 16.2325 31.5 19.125 31.5C23.0024 31.4955 26.7198 29.9533 29.4615 27.2115C32.2033 24.4698 33.7455 20.7524 33.75 16.875ZM6.75001 16.875C6.75001 14.4275 7.47579 12.0349 8.83557 9.99982C10.1954 7.96477 12.1281 6.37863 14.3893 5.442C16.6505 4.50536 19.1387 4.2603 21.5393 4.73779C23.9398 5.21528 26.1448 6.39389 27.8755 8.12456C29.6061 9.85523 30.7847 12.0602 31.2622 14.4608C31.7397 16.8613 31.4947 19.3495 30.558 21.6107C29.6214 23.8719 28.0352 25.8047 26.0002 27.1644C23.9651 28.5242 21.5726 29.25 19.125 29.25C15.8441 29.2461 12.6988 27.9411 10.3788 25.6212C8.05891 23.3013 6.75388 20.1559 6.75001 16.875Z" fill="url(#paint3_linear)"/>
<path d="M22.8296 25.5454C23.0406 25.7563 23.3267 25.8748 23.625 25.8748C23.9233 25.8748 24.2094 25.7563 24.4204 25.5454L27.7954 22.1704C28.0063 21.9594 28.1248 21.6733 28.1248 21.375C28.1248 21.0767 28.0063 20.7906 27.7954 20.5796L24.0908 16.875L27.7954 13.1704C28.0063 12.9594 28.1248 12.6733 28.1248 12.375C28.1248 12.0767 28.0063 11.7906 27.7954 11.5796L24.4204 8.20463C24.2094 7.99372 23.9233 7.87524 23.625 7.87524C23.3267 7.87524 23.0406 7.99372 22.8296 8.20463L19.125 11.9093L15.4204 8.20463C15.2094 7.99372 14.9233 7.87524 14.625 7.87524C14.3267 7.87524 14.0406 7.99372 13.8296 8.20463L10.4546 11.5796C10.2437 11.7906 10.1252 12.0767 10.1252 12.375C10.1252 12.6733 10.2437 12.9594 10.4546 13.1704L14.1593 16.875L10.4546 20.5796C10.2437 20.7906 10.1252 21.0767 10.1252 21.375C10.1252 21.6733 10.2437 21.9594 10.4546 22.1704L13.8296 25.5454C14.0406 25.7563 14.3267 25.8748 14.625 25.8748C14.9233 25.8748 15.2094 25.7563 15.4204 25.5454L19.125 21.8408L22.8296 25.5454ZM14.625 23.1593L12.8408 21.375L16.5454 17.6704C16.7563 17.4594 16.8748 17.1733 16.8748 16.875C16.8748 16.5767 16.7563 16.2906 16.5454 16.0796L12.8408 12.375L14.625 10.5908L18.3296 14.2954C18.5406 14.5063 18.8267 14.6248 19.125 14.6248C19.4233 14.6248 19.7094 14.5063 19.9204 14.2954L23.625 10.5908L25.4093 12.375L21.7046 16.0796C21.4937 16.2906 21.3752 16.5767 21.3752 16.875C21.3752 17.1733 21.4937 17.4594 21.7046 17.6704L25.4093 21.375L23.625 23.1593L19.9204 19.4546C19.7094 19.2437 19.4233 19.1252 19.125 19.1252C18.8267 19.1252 18.5406 19.2437 18.3296 19.4546L14.625 23.1593Z" fill="url(#paint4_linear)"/>
<path d="M43.875 32.625C44.2988 32.6247 44.7187 32.5441 45.1125 32.3876C45.3068 33.1026 45.731 33.7338 46.3196 34.1837C46.9082 34.6337 47.6285 34.8775 48.3694 34.8775C49.1103 34.8775 49.8306 34.6337 50.4192 34.1837C51.0078 33.7338 51.4319 33.1026 51.6262 32.3876C52.3551 32.6761 53.1617 32.7018 53.9075 32.4604C54.6533 32.219 55.2918 31.7255 55.7134 31.0646C56.227 31.3551 56.8078 31.5059 57.3979 31.5019C57.9879 31.4979 58.5666 31.3393 59.0763 31.0419C59.5859 30.7444 60.0086 30.3185 60.3023 29.8067C60.596 29.2949 60.7504 28.7151 60.75 28.125V13.5C60.7499 13.2959 60.6943 13.0956 60.5891 12.9206L57.375 7.56337V3.375C57.375 3.07663 57.2565 2.79048 57.0455 2.5795C56.8345 2.36853 56.5484 2.25 56.25 2.25H41.625C41.3266 2.25 41.0405 2.36853 40.8295 2.5795C40.6185 2.79048 40.5 3.07663 40.5 3.375V7.48013L36.2464 12.7969C36.0868 12.9965 35.9999 13.2444 36 13.5V23.625C36 24.5201 36.3556 25.3786 36.9885 26.0115C37.6215 26.6444 38.4799 27 39.375 27H40.5V29.25C40.5 30.1451 40.8556 31.0036 41.4885 31.6365C42.1215 32.2694 42.9799 32.625 43.875 32.625ZM39.375 24.75C39.0766 24.75 38.7905 24.6315 38.5795 24.4205C38.3685 24.2095 38.25 23.9234 38.25 23.625V13.8949L42.5036 8.57812C42.6632 8.37854 42.7501 8.13056 42.75 7.875V4.5H55.125V7.875C55.1251 8.07914 55.1807 8.27942 55.2859 8.45437L58.5 13.8116V28.125C58.5 28.4234 58.3815 28.7095 58.1705 28.9205C57.9595 29.1315 57.6734 29.25 57.375 29.25C57.0766 29.25 56.7905 29.1315 56.5795 28.9205C56.3685 28.7095 56.25 28.4234 56.25 28.125V18H54V29.25C54 29.5484 53.8815 29.8345 53.6705 30.0455C53.4595 30.2565 53.1734 30.375 52.875 30.375C52.5766 30.375 52.2905 30.2565 52.0795 30.0455C51.8685 29.8345 51.75 29.5484 51.75 29.25V19.125H49.5V31.5C49.5 31.7984 49.3815 32.0845 49.1705 32.2955C48.9595 32.5065 48.6734 32.625 48.375 32.625C48.0766 32.625 47.7905 32.5065 47.5795 32.2955C47.3685 32.0845 47.25 31.7984 47.25 31.5V18H45V29.25C45 29.5484 44.8815 29.8345 44.6705 30.0455C44.4595 30.2565 44.1734 30.375 43.875 30.375C43.5766 30.375 43.2905 30.2565 43.0795 30.0455C42.8685 29.8345 42.75 29.5484 42.75 29.25V16.875H40.5V24.75H39.375Z" fill="url(#paint5_linear)"/>
<defs>
<linearGradient id="paint0_linear" x1="35.442" y1="29.4431" x2="68.722" y2="31.4175" gradientUnits="userSpaceOnUse">
<stop stop-color="#F2B5C9"/>
<stop offset="1" stop-color="#EF95B2"/>
</linearGradient>
<linearGradient id="paint1_linear" x1="50.517" y1="63" x2="51.7994" y2="63.0524" gradientUnits="userSpaceOnUse">
<stop stop-color="#F2B5C9"/>
<stop offset="1" stop-color="#EF95B2"/>
</linearGradient>
<linearGradient id="paint2_linear" x1="55.017" y1="63" x2="56.2994" y2="63.0524" gradientUnits="userSpaceOnUse">
<stop stop-color="#F2B5C9"/>
<stop offset="1" stop-color="#EF95B2"/>
</linearGradient>
<linearGradient id="paint3_linear" x1="17.721" y1="2.25001" x2="34.3917" y2="2.93144" gradientUnits="userSpaceOnUse">
<stop stop-color="#F2B5C9"/>
<stop offset="1" stop-color="#EF95B2"/>
</linearGradient>
<linearGradient id="paint4_linear" x1="18.261" y1="7.87525" x2="28.5196" y2="8.29458" gradientUnits="userSpaceOnUse">
<stop stop-color="#F2B5C9"/>
<stop offset="1" stop-color="#EF95B2"/>
</linearGradient>
<linearGradient id="paint5_linear" x1="47.187" y1="2.25001" x2="61.303" y2="2.6877" gradientUnits="userSpaceOnUse">
<stop stop-color="#F2B5C9"/>
<stop offset="1" stop-color="#EF95B2"/>
</linearGradient>
</defs>
</svg>
