<svg width="72" height="72" viewBox="0 0 72 72" fill="none" xmlns="http://www.w3.org/2000/svg">
<path d="M65.25 14.75H34.785C34.236 10.9408 30.9589 8 27 8C23.6092 8 20.7202 10.1589 19.6133 13.1705C18.1688 11.3908 15.966 10.25 13.5 10.25C10.3523 10.25 7.6365 12.1119 6.37762 14.7871C3.45263 14.984 1.125 17.4016 1.125 20.375V58.625C1.125 61.7266 3.64838 64.25 6.75 64.25H65.25C68.3516 64.25 70.875 61.7266 70.875 58.625V20.375C70.875 17.2734 68.3516 14.75 65.25 14.75ZM34.875 46.25V17H37.125V46.25H34.875ZM30.2614 46.25C29.7383 43.6861 27.4669 41.75 24.75 41.75C22.0331 41.75 19.7617 43.6861 19.2386 46.25H16.965C17.514 42.4408 20.7911 39.5 24.75 39.5C28.7089 39.5 31.986 42.4408 32.535 46.25H30.2614ZM27.918 46.25H21.5831C22.0489 44.9439 23.2864 44 24.7511 44C26.2159 44 27.4522 44.9439 27.918 46.25ZM13.9657 46.25L10.3781 42.6635C10.8203 42.2889 11.2028 41.8467 11.5121 41.354L14.967 44.8089C14.8433 45.278 14.7454 45.7572 14.6914 46.2511H13.9657V46.25ZM4.54275 34.1529C3.79013 33.4948 3.375 32.597 3.375 31.625C3.375 29.7642 4.88925 28.25 6.75 28.25C7.4565 28.25 8.14162 28.4761 8.72887 28.9059L9.34538 29.3559L9.99112 28.9497C10.719 28.4919 11.5436 28.25 12.375 28.25C14.8568 28.25 16.875 30.2682 16.875 32.75C16.875 35.2318 14.8568 37.25 12.375 37.25C12.0679 37.25 11.7619 37.2196 11.466 37.1577L10.0744 36.8697L10.1137 38.2906C10.116 38.348 10.1216 38.438 10.125 38.375C10.125 40.2357 8.61075 41.75 6.75 41.75C4.88925 41.75 3.375 40.2357 3.375 38.375C3.375 37.403 3.79013 36.5052 4.54275 35.8471L5.51025 35L4.54275 34.1529ZM18.9574 34.2249C20.4637 33.2866 22.5416 32.75 24.75 32.75C29.0182 32.75 32.625 34.811 32.625 37.25V41.0255C30.7676 38.726 27.9293 37.25 24.75 37.25C22.3627 37.25 20.1701 38.0847 18.4376 39.4719L16.8007 37.835C17.8661 36.9058 18.6379 35.6514 18.9574 34.2249ZM15.8659 42.5251L12.8182 39.4775C13.5203 39.4314 14.1919 39.2795 14.8196 39.0354L16.8469 41.0626C16.4801 41.5205 16.1494 42.0076 15.8659 42.5251ZM21.375 15.875C21.375 12.7734 23.8984 10.25 27 10.25C30.1016 10.25 32.625 12.7734 32.625 15.875V32.9637C30.7834 31.4517 27.9653 30.5 24.75 30.5C23.5868 30.5 22.4482 30.6361 21.375 30.8803V15.875ZM13.5 12.5C16.6016 12.5 19.125 15.0234 19.125 18.125V31.6092C19.0924 31.6227 19.0586 31.6351 19.0271 31.6497C18.4995 28.4502 15.7219 26 12.375 26C11.358 26 10.3523 26.2374 9.42975 26.6896C8.93925 26.4208 8.415 26.2374 7.875 26.126V18.125C7.875 15.0234 10.3984 12.5 13.5 12.5ZM5.68575 17.1879C5.64975 17.4961 5.625 17.8077 5.625 18.125V26.1136C4.78912 26.2846 4.032 26.6559 3.375 27.1531V20.375C3.375 18.8877 4.34812 17.6368 5.68575 17.1879ZM3.375 42.8457C4.31775 43.5601 5.47875 44 6.75 44C7.28888 44 7.803 43.9044 8.29575 43.7626L10.7843 46.25H6.75C4.88925 46.25 3.375 44.7357 3.375 42.875V42.8457ZM65.25 62H6.75C4.88925 62 3.375 60.4857 3.375 58.625V47.3457C4.31775 48.0601 5.47875 48.5 6.75 48.5H65.25C66.5212 48.5 67.6823 48.0601 68.625 47.3457V58.625C68.625 60.4857 67.1107 62 65.25 62ZM65.25 46.25H39.375V17H65.25C67.1107 17 68.625 18.5142 68.625 20.375V42.875C68.625 44.7357 67.1107 46.25 65.25 46.25Z" fill="url(#paint0_linear)"/>
<path d="M45 30.5H63C64.8608 30.5 66.375 28.9858 66.375 27.125C66.375 25.2642 64.8608 23.75 63 23.75H57.2389C56.6111 21.1861 53.8853 19.25 50.625 19.25C46.9024 19.25 43.875 21.7734 43.875 24.875C43.875 26.1417 44.3869 27.3084 45.2374 28.25H45C43.1392 28.25 41.625 29.7642 41.625 31.625C41.625 33.4858 43.1392 35 45 35H63C63.6199 35 64.125 35.504 64.125 36.125C64.125 36.746 63.6199 37.25 63 37.25H45C43.1392 37.25 41.625 38.7642 41.625 40.625C41.625 42.4858 43.1392 44 45 44H48.375V41.75H45C44.3801 41.75 43.875 41.246 43.875 40.625C43.875 40.004 44.3801 39.5 45 39.5H63C64.8608 39.5 66.375 37.9858 66.375 36.125C66.375 34.2642 64.8608 32.75 63 32.75H45C44.3801 32.75 43.875 32.246 43.875 31.625C43.875 31.004 44.3801 30.5 45 30.5ZM64.125 27.125C64.125 27.746 63.6199 28.25 63 28.25H56.0126C56.6055 27.5953 57.0353 26.8325 57.2389 26H63C63.6199 26 64.125 26.504 64.125 27.125ZM46.125 24.875C46.125 23.0143 48.1432 21.5 50.625 21.5C53.1068 21.5 55.125 23.0143 55.125 24.875C55.125 26.7358 53.1068 28.25 50.625 28.25C48.1432 28.25 46.125 26.7358 46.125 24.875Z" fill="url(#paint1_linear)"/>
<path d="M50.625 41.75H55.125V44H50.625V41.75Z" fill="url(#paint2_linear)"/>
<path d="M10.125 21.5H16.875V23.75H10.125V21.5Z" fill="url(#paint3_linear)"/>
<path d="M10.125 17H16.875V19.25H10.125V17Z" fill="url(#paint4_linear)"/>
<path d="M23.625 26H30.375V28.25H23.625V26Z" fill="url(#paint5_linear)"/>
<path d="M23.625 21.5H30.375V23.75H23.625V21.5Z" fill="url(#paint6_linear)"/>
<path d="M23.625 17H30.375V19.25H23.625V17Z" fill="url(#paint7_linear)"/>
<defs>
<linearGradient id="paint0_linear" x1="32.652" y1="8.00002" x2="72.3696" y2="10.0131" gradientUnits="userSpaceOnUse">
<stop stop-color="#F2B5C9"/>
<stop offset="1" stop-color="#EF95B2"/>
</linearGradient>
<linearGradient id="paint1_linear" x1="52.812" y1="19.25" x2="66.918" y2="19.8266" gradientUnits="userSpaceOnUse">
<stop stop-color="#F2B5C9"/>
<stop offset="1" stop-color="#EF95B2"/>
</linearGradient>
<linearGradient id="paint2_linear" x1="52.659" y1="41.75" x2="55.211" y2="41.9586" gradientUnits="userSpaceOnUse">
<stop stop-color="#F2B5C9"/>
<stop offset="1" stop-color="#EF95B2"/>
</linearGradient>
<linearGradient id="paint3_linear" x1="13.176" y1="21.5" x2="16.9724" y2="21.9655" gradientUnits="userSpaceOnUse">
<stop stop-color="#F2B5C9"/>
<stop offset="1" stop-color="#EF95B2"/>
</linearGradient>
<linearGradient id="paint4_linear" x1="13.176" y1="17" x2="16.9724" y2="17.4655" gradientUnits="userSpaceOnUse">
<stop stop-color="#F2B5C9"/>
<stop offset="1" stop-color="#EF95B2"/>
</linearGradient>
<linearGradient id="paint5_linear" x1="26.676" y1="26" x2="30.4724" y2="26.4655" gradientUnits="userSpaceOnUse">
<stop stop-color="#F2B5C9"/>
<stop offset="1" stop-color="#EF95B2"/>
</linearGradient>
<linearGradient id="paint6_linear" x1="26.676" y1="21.5" x2="30.4724" y2="21.9655" gradientUnits="userSpaceOnUse">
<stop stop-color="#F2B5C9"/>
<stop offset="1" stop-color="#EF95B2"/>
</linearGradient>
<linearGradient id="paint7_linear" x1="26.676" y1="17" x2="30.4724" y2="17.4655" gradientUnits="userSpaceOnUse">
<stop stop-color="#F2B5C9"/>
<stop offset="1" stop-color="#EF95B2"/>
</linearGradient>
</defs>
</svg>
