<svg width="72" height="72" viewBox="0 0 72 72" fill="none" xmlns="http://www.w3.org/2000/svg">
<path d="M66.9597 40.3506L65.0952 32.8926C65.6049 32.7843 65.9874 32.332 65.9874 31.7902V30.5877C65.9874 27.9769 63.8633 25.8529 61.2526 25.8529H52.76V23.3727C52.76 22.0879 51.7149 21.0428 50.4301 21.0428H34.6388L44.235 17.2043C44.8131 16.9731 45.0942 16.317 44.863 15.7388C44.6318 15.1609 43.9761 14.8795 43.3976 15.1108L35.5403 18.2536C37.9346 16.7175 40.3034 15.0267 41.2052 13.8443C42.9609 11.5425 42.5163 8.24142 40.2144 6.48572C37.9125 4.72988 34.6115 5.17468 32.8558 7.47657C31.573 9.15872 29.8804 13.8853 28.785 17.216C27.6895 13.8856 25.9969 9.15872 24.7141 7.47657C22.9586 5.17468 19.6574 4.73016 17.3555 6.48572C15.0536 8.24128 14.6091 11.5423 16.3647 13.8443C17.2665 15.0269 19.6352 16.7175 22.0296 18.2536L14.1723 15.1108C13.5939 14.8792 12.9381 15.1607 12.7069 15.7388C12.4755 16.317 12.7568 16.9731 13.3349 17.2043L22.9312 21.0428H7.13981C5.85506 21.0428 4.80994 22.0879 4.80994 23.3727V43.8153C4.80994 44.4379 5.31464 44.9427 5.93733 44.9427C6.55988 44.9427 7.06472 44.438 7.06472 43.8153V23.3727C7.06472 23.3312 7.09833 23.2976 7.13981 23.2976H50.43C50.4714 23.2976 50.5051 23.3312 50.5051 23.3727V43.8156C50.5051 44.4382 51.0098 44.943 51.6324 44.943C52.255 44.943 52.7598 44.4383 52.7598 43.8156V42.5376H66.0582C66.0594 42.5376 66.0604 42.5379 66.0617 42.5379C66.063 42.5379 66.0641 42.5378 66.0654 42.5378C67.7017 42.539 69.091 43.6131 69.568 45.093H66.0625C65.44 45.093 64.9351 45.5978 64.9351 46.2204V48.6254C64.9351 50.5732 66.5197 52.1578 68.4675 52.1578H69.7452V57.118H66.7974C65.8291 54.3221 63.1711 52.308 60.05 52.308C56.9288 52.308 54.2707 54.322 53.3025 57.118H52.7597V48.6253C52.7597 48.0027 52.255 47.4979 51.6323 47.4979C51.0098 47.4979 50.5049 48.0026 50.5049 48.6253V57.1179H27.1149C26.1465 54.322 23.4886 52.3078 20.3674 52.3078C17.2463 52.3078 14.5882 54.3218 13.62 57.1179H7.13981C7.09833 57.1179 7.06472 57.0843 7.06472 57.0428V54.5626H11.9499C12.5724 54.5626 13.0773 54.0579 13.0773 53.4352C13.0773 52.8125 12.5726 52.3078 11.9499 52.3078H1.12739C0.504844 52.3078 0 52.8125 0 53.4352C0 54.0579 0.504703 54.5626 1.12739 54.5626H4.81008V57.0428C4.81008 58.3275 5.8552 59.3727 7.13995 59.3727H13.2296C13.2293 59.3977 13.2276 59.4226 13.2276 59.4478C13.2276 63.3846 16.4306 66.5876 20.3674 66.5876C24.3042 66.5876 27.5072 63.3846 27.5072 59.4478C27.5072 59.4225 27.5056 59.3977 27.5053 59.3727H52.912C52.9117 59.3977 52.91 59.4226 52.91 59.4478C52.91 63.3846 56.113 66.5876 60.0498 66.5876C63.9866 66.5876 67.1896 63.3846 67.1896 59.4478C67.1896 59.4225 67.188 59.3977 67.1877 59.3727H70.8725C71.495 59.3727 71.9999 58.868 71.9999 58.2453V46.2203C72 43.2511 69.8095 40.7843 66.9597 40.3506ZM24.3141 17.0239C19.8671 14.2605 18.548 12.9891 18.1575 12.4769C17.1558 11.1636 17.4095 9.28022 18.723 8.27855C19.2644 7.86567 19.9025 7.66613 20.536 7.66613C21.4391 7.66613 22.3327 8.07197 22.9215 8.844C24.012 10.2739 25.7199 15.0865 26.8474 18.5544C26.0865 18.1064 25.2118 17.582 24.3141 17.0239ZM30.7228 18.5543C31.8503 15.0865 33.5582 10.274 34.6486 8.84386C35.6503 7.53057 37.5337 7.27702 38.847 8.27855C40.1604 9.28022 40.4139 11.1636 39.4124 12.4769C39.0219 12.9889 37.7028 14.2605 33.2561 17.0237C32.3585 17.5817 31.4838 18.1063 30.7228 18.5543ZM52.76 28.1074H61.2526C62.6202 28.1074 63.7328 29.22 63.7328 30.5876V30.6627H52.76V28.1074ZM52.76 40.2828V32.9175H62.7774L64.6187 40.2828H52.76ZM20.3674 64.3329C17.6738 64.3329 15.4823 62.1414 15.4823 59.4478C15.4823 56.7541 17.6738 54.5626 20.3674 54.5626C23.0611 54.5626 25.2526 56.7541 25.2526 59.4478C25.2526 62.1414 23.0611 64.3329 20.3674 64.3329ZM60.0501 64.3329C57.3564 64.3329 55.1649 62.1414 55.1649 59.4478C55.1649 56.7541 57.3564 54.5626 60.0501 54.5626C62.7438 54.5626 64.9353 56.7541 64.9353 59.4478C64.9353 62.1414 62.7438 64.3329 60.0501 64.3329ZM69.7454 49.9028H68.4677C67.7631 49.9028 67.1899 49.3297 67.1899 48.6251V47.3474H69.7452V49.9028H69.7454Z" fill="url(#paint0_linear)"/>
<path d="M20.3675 57.1179C19.0827 57.1179 18.0376 58.163 18.0376 59.4478C18.0376 60.7325 19.0827 61.7777 20.3675 61.7777C21.6522 61.7777 22.6974 60.7325 22.6974 59.4478C22.6974 58.163 21.6522 57.1179 20.3675 57.1179Z" fill="url(#paint1_linear)"/>
<path d="M60.0501 57.1179C58.7653 57.1179 57.7202 58.163 57.7202 59.4478C57.7202 60.7325 58.7653 61.7777 60.0501 61.7777C61.3348 61.7777 62.38 60.7325 62.38 59.4478C62.38 58.163 61.3348 57.1179 60.0501 57.1179Z" fill="url(#paint2_linear)"/>
<path d="M46.8226 52.3079H29.9875C29.365 52.3079 28.8601 52.8126 28.8601 53.4352C28.8601 54.0579 29.3648 54.5626 29.9875 54.5626H46.8226C47.4451 54.5626 47.9499 54.0579 47.9499 53.4352C47.9499 52.8126 47.4452 52.3079 46.8226 52.3079Z" fill="url(#paint3_linear)"/>
<path d="M17.9625 47.498H3.53242C2.90987 47.498 2.40503 48.0027 2.40503 48.6254C2.40503 49.2481 2.90973 49.7528 3.53242 49.7528H17.9625C18.5851 49.7528 19.0899 49.2481 19.0899 48.6254C19.0899 48.0027 18.5851 47.498 17.9625 47.498Z" fill="url(#paint4_linear)"/>
<path d="M17.9624 30.6628H13.1523C12.5297 30.6628 12.0249 31.1675 12.0249 31.7902V41.4102C12.0249 42.0328 12.5296 42.5376 13.1523 42.5376C13.775 42.5376 14.2797 42.0329 14.2797 41.4102V37.7276H16.7599C17.3824 37.7276 17.8873 37.2229 17.8873 36.6002C17.8873 35.9775 17.3826 35.4728 16.7599 35.4728H14.2797V32.9176H17.9624C18.5849 32.9176 19.0898 32.4129 19.0898 31.7902C19.0896 31.1677 18.5849 30.6628 17.9624 30.6628Z" fill="url(#paint5_linear)"/>
<path d="M26.8342 38.2562C27.9624 37.5172 28.7097 36.2428 28.7097 34.7965C28.7097 32.5171 26.8554 30.6628 24.5761 30.6628H21.5698C20.9472 30.6628 20.4424 31.1675 20.4424 31.7902V41.4102C20.4424 42.0328 20.9471 42.5376 21.5698 42.5376C22.1925 42.5376 22.6972 42.0329 22.6972 41.4102V38.93H24.5739L26.6442 42.0355C26.8615 42.3613 27.2188 42.5376 27.5832 42.5376C27.7982 42.5376 28.0153 42.4763 28.2074 42.3481C28.7256 42.0028 28.8655 41.3028 28.52 40.7849L26.8342 38.2562ZM24.5761 36.6754H22.6972V32.9176H24.5761C25.6122 32.9176 26.4549 33.7604 26.4549 34.7965C26.4549 35.8326 25.6122 36.6754 24.5761 36.6754Z" fill="url(#paint6_linear)"/>
<path d="M36 40.283H32.3173V37.7239C32.3422 37.7256 32.3671 37.7277 32.3924 37.7277H34.7973C35.4199 37.7277 35.9247 37.223 35.9247 36.6003C35.9247 35.9776 35.42 35.4729 34.7973 35.4729H32.3924C32.3669 35.4729 32.3422 35.475 32.3173 35.4767V32.9176H36C36.6225 32.9176 37.1274 32.4129 37.1274 31.7902C37.1274 31.1677 36.6226 30.6628 36 30.6628H31.1899C30.5673 30.6628 30.0625 31.1675 30.0625 31.7902V41.4102C30.0625 42.0328 30.5672 42.5376 31.1899 42.5376H36C36.6225 42.5376 37.1274 42.0329 37.1274 41.4102C37.1274 40.7876 36.6225 40.283 36 40.283Z" fill="url(#paint7_linear)"/>
<path d="M44.4177 40.283H40.735V37.7277H42.0127C42.6353 37.7277 43.1401 37.223 43.1401 36.6003C43.1401 35.9776 42.6354 35.4729 42.0127 35.4729H40.735V32.9176H44.4177C45.0402 32.9176 45.5451 32.4129 45.5451 31.7902C45.5451 31.1677 45.0404 30.6628 44.4177 30.6628H39.6076C38.9851 30.6628 38.4802 31.1675 38.4802 31.7902V41.4102C38.4802 42.0328 38.9849 42.5376 39.6076 42.5376H44.4177C45.0402 42.5376 45.5451 42.0329 45.5451 41.4102C45.5451 40.7876 45.0402 40.283 44.4177 40.283Z" fill="url(#paint8_linear)"/>
<defs>
<linearGradient id="paint0_linear" x1="32.5439" y1="5.41213" x2="73.5531" y2="7.38502" gradientUnits="userSpaceOnUse">
<stop stop-color="#F2B5C9"/>
<stop offset="1" stop-color="#EF95B2"/>
</linearGradient>
<linearGradient id="paint1_linear" x1="20.1438" y1="57.1179" x2="22.7996" y2="57.2265" gradientUnits="userSpaceOnUse">
<stop stop-color="#F2B5C9"/>
<stop offset="1" stop-color="#EF95B2"/>
</linearGradient>
<linearGradient id="paint2_linear" x1="59.8264" y1="57.1179" x2="62.4822" y2="57.2265" gradientUnits="userSpaceOnUse">
<stop stop-color="#F2B5C9"/>
<stop offset="1" stop-color="#EF95B2"/>
</linearGradient>
<linearGradient id="paint3_linear" x1="37.4887" y1="52.3079" x2="47.2213" y2="55.676" gradientUnits="userSpaceOnUse">
<stop stop-color="#F2B5C9"/>
<stop offset="1" stop-color="#EF95B2"/>
</linearGradient>
<linearGradient id="paint4_linear" x1="9.94659" y1="47.498" x2="18.6734" y2="50.1377" gradientUnits="userSpaceOnUse">
<stop stop-color="#F2B5C9"/>
<stop offset="1" stop-color="#EF95B2"/>
</linearGradient>
<linearGradient id="paint5_linear" x1="15.2182" y1="30.6628" x2="19.2491" y2="30.7609" gradientUnits="userSpaceOnUse">
<stop stop-color="#F2B5C9"/>
<stop offset="1" stop-color="#EF95B2"/>
</linearGradient>
<linearGradient id="paint6_linear" x1="24.1792" y1="30.6628" x2="28.8952" y2="30.7971" gradientUnits="userSpaceOnUse">
<stop stop-color="#F2B5C9"/>
<stop offset="1" stop-color="#EF95B2"/>
</linearGradient>
<linearGradient id="paint7_linear" x1="33.2558" y1="30.6628" x2="37.2867" y2="30.7609" gradientUnits="userSpaceOnUse">
<stop stop-color="#F2B5C9"/>
<stop offset="1" stop-color="#EF95B2"/>
</linearGradient>
<linearGradient id="paint8_linear" x1="41.6735" y1="30.6628" x2="45.7044" y2="30.7609" gradientUnits="userSpaceOnUse">
<stop stop-color="#F2B5C9"/>
<stop offset="1" stop-color="#EF95B2"/>
</linearGradient>
</defs>
</svg>
