<svg width="340" height="50" viewBox="0 0 340 50" fill="none" xmlns="http://www.w3.org/2000/svg">
<path d="M155.917 32.2018C144.633 33.212 133.349 32.8964 122.064 32.9595C110.592 33.0858 99.1193 33.8434 87.7095 34.5379C76.2998 35.2324 64.8272 35.8638 53.3548 35.6744C47.6499 35.6112 41.945 35.2955 36.3028 34.7273C33.5444 34.4116 30.6606 34.2223 27.9022 33.5909C26.523 33.2752 24.893 32.8963 24.1407 31.5705C23.4511 30.2446 23.6392 29.0451 24.6422 27.9086C26.0841 26.5827 27.1499 26.709 27.9022 28.2874C27.338 30.434 30.5979 31.318 31.1621 29.1713C31.9144 26.2039 29.5321 23.6153 26.523 23.6153C23.3884 23.5521 20.7554 26.4565 20.4419 29.4239C20.1285 33.0858 22.6988 35.7376 26.0214 36.6846C26.2722 36.7477 26.5857 36.8108 26.8364 36.874C26.4603 37.0002 26.1468 37.1897 25.8334 37.3791C22.4481 39.3363 20.9435 43.3771 23.263 46.8496C25.2064 49.7539 29.8456 50.9534 32.7921 48.9331C36.052 46.6601 34.7982 42.6195 31.7263 40.7885C29.8456 39.652 28.153 42.6194 30.0337 43.7559C33.6698 45.9025 27.7768 47.986 25.9588 44.7661C24.2034 41.7986 27.7768 39.9045 30.0964 39.3994C34.3594 38.4524 39.3747 38.6418 43.763 38.705H43.8257C67.7111 40.1571 91.5964 37.1897 115.482 36.4952C128.96 36.1163 142.502 36.8109 155.917 35.5481C158.049 35.4218 158.049 32.0124 155.917 32.2018Z" fill="url(#paint0_linear)"/>
<path d="M20.9432 35.4852C17.934 33.3385 13.671 32.0126 10.0349 32.202C6.14808 32.3914 3.20159 34.9169 0.505868 37.5055C-0.434499 38.3894 0.0670379 39.6522 0.944714 40.1573C4.14196 42.5565 8.7811 42.8721 12.7306 42.9352C16.116 42.9352 20.1909 41.9883 21.6955 38.5789C21.9462 38.0738 21.8835 37.5055 21.6955 37.1267C21.7582 36.4953 21.5074 35.864 20.9432 35.4852ZM4.51812 38.3894C6.39885 36.7479 8.46767 35.422 11.2261 35.6114C12.0411 35.6745 12.856 35.8008 13.671 35.9902C12.9814 35.9902 12.2291 36.0534 11.5395 36.0534C9.34534 36.1797 9.34534 39.5259 11.5395 39.4627C12.7307 39.3996 13.9218 39.3996 15.1129 39.3996C11.7903 40.1572 7.21384 39.589 4.51812 38.3894Z" fill="url(#paint1_linear)"/>
<path d="M314.212 37.379C313.836 37.1896 313.46 37.0002 313.084 36.8108C315.842 36.1794 318.35 35.043 319.29 32.0755C320.419 28.6661 318.35 24.5623 314.777 23.7415C311.454 22.9839 308.006 25.6987 308.884 29.1713C309.448 31.3179 312.708 30.3708 312.144 28.2873C312.833 26.7089 313.962 26.5827 315.404 27.9085C316.281 28.7924 316.469 29.7395 316.093 30.7497C315.654 32.77 313.962 33.212 312.144 33.6539C309.385 34.2853 306.564 34.4748 303.743 34.7904C298.101 35.3587 292.396 35.6743 286.691 35.7375C275.219 35.9269 263.809 35.2955 252.336 34.601C240.864 33.9065 229.454 33.1489 217.982 33.0226C206.697 32.8963 195.413 33.2752 184.128 32.265C181.934 32.0756 181.997 35.4849 184.128 35.6743C196.04 36.7476 208.014 36.3057 219.925 36.4951C232.087 36.6845 244.186 37.5684 256.286 38.263C268.385 38.9575 280.485 39.4625 292.584 38.9574C293.775 38.8943 295.029 38.8311 296.22 38.768H296.283C300.671 38.7049 305.624 38.4523 309.949 39.4625C312.206 39.9676 314.777 41.2304 314.275 43.9453C314.024 45.5237 312.457 46.5338 310.89 46.597C309.448 46.6601 306.815 45.6499 309.949 43.8189C311.83 42.6825 310.137 39.7782 308.257 40.8515C305.185 42.6194 303.931 46.7233 307.191 48.9962C310.138 51.0166 314.777 49.8169 316.72 46.9126C319.04 43.377 317.598 39.3363 314.212 37.379Z" fill="url(#paint2_linear)"/>
<path d="M339.477 37.4423C336.781 34.8537 333.835 32.3282 329.948 32.1388C326.312 31.9494 321.986 33.3385 319.04 35.422C318.476 35.8639 318.225 36.4322 318.287 37.0004C318.099 37.4424 318.037 37.9474 318.287 38.4525C319.855 41.7987 323.93 42.8089 327.252 42.8089C331.139 42.8089 335.778 42.4932 339.038 40.0309C339.979 39.589 340.417 38.3894 339.477 37.4423ZM325.121 39.3364C326.249 39.3364 327.378 39.3364 328.506 39.3995C330.7 39.5258 330.7 36.1164 328.506 35.9901C327.754 35.927 327.064 35.927 326.312 35.927C327.127 35.7376 327.942 35.6114 328.757 35.5482C331.453 35.4219 333.521 36.6847 335.465 38.3262C333.333 39.2102 330.575 39.2733 328.569 39.3995C327.503 39.4627 326.312 39.5258 325.121 39.3364Z" fill="url(#paint3_linear)"/>
<path d="M174.85 31.3183C174.223 30.1818 172.969 29.6136 171.778 29.2348C171.026 28.9191 170.211 28.6665 169.333 28.6034C168.518 28.5403 167.64 28.7297 167.013 29.2979C166.951 29.361 166.888 29.4242 166.825 29.4873C166.512 29.6136 166.198 29.8661 166.01 30.1187C165.822 30.3712 165.697 30.6869 165.634 31.0026C165.509 31.5077 165.572 32.0759 165.697 32.6442C165.885 33.2755 166.198 33.7806 166.575 34.2857C166.951 34.8539 167.327 35.4221 167.766 35.9272C169.145 37.3794 171.276 37.9476 173.22 37.5057C173.909 37.3162 174.599 37.0006 175.038 36.4324C175.477 35.9273 175.602 35.1696 175.602 34.4751C175.602 33.7806 175.414 33.1492 175.226 32.4547C175.163 32.0759 175.038 31.6971 174.85 31.3183Z" fill="url(#paint4_linear)"/>
<path d="M168.706 21.9738C169.27 23.0471 170.9 23.489 171.653 22.1C173.659 18.1224 175.539 13.1346 174.975 8.65194C174.536 5.30569 172.906 -0.12411 168.643 0.00216371C164.568 0.128437 162.688 5.11623 162.625 8.52562C162.5 13.9554 165.383 16.9228 168.079 21.3424C168.205 21.6581 168.455 21.8475 168.706 21.9738ZM167.578 4.04293C171.527 1.83314 171.715 11.0511 171.402 12.5033C170.963 14.3342 170.461 16.1652 169.772 17.933C168.706 16.544 167.578 15.155 166.825 13.5765C165.76 11.493 165.007 5.49507 167.578 4.04293Z" fill="url(#paint5_linear)"/>
<path d="M187.952 20.3954C190.021 18.1225 190.648 14.5869 188.015 12.5033C185.57 10.483 182.436 11.5563 180.367 13.5766C179.301 14.65 178.361 15.9128 177.984 17.428C177.546 19.1959 178.11 21.0268 178.047 22.8578C178.047 23.1735 178.11 23.4891 178.235 23.6785C178.235 24.5624 179.05 25.3201 179.928 25.3201C181.244 25.3833 182.874 24.2468 183.94 23.5523C185.382 22.6683 186.824 21.595 187.952 20.3954ZM181.307 21.2794C181.182 20.0166 180.931 18.6907 181.432 17.5543C181.997 16.2284 184.065 14.0818 185.633 15.0288C187.764 16.3547 184.818 18.6907 183.689 19.5746C183.25 19.9534 182.247 20.7743 181.307 21.2794Z" fill="url(#paint6_linear)"/>
<path d="M147.767 16.1022C145.949 18.5646 147.516 21.4689 149.773 22.9842C152.971 25.1308 156.92 25.9516 160.744 25.8884C161.308 25.8884 161.747 25.6359 161.998 25.2571C163.127 25.0677 164.004 23.9944 163.126 22.8579C160.431 19.3223 152.594 9.59917 147.767 16.1022ZM152.532 20.7113C152.156 20.5218 151.842 20.3324 151.466 20.0799C150.463 18.1858 150.651 17.365 151.967 17.6175C154.224 17.2387 156.732 20.0799 158.55 22.4159C157.359 22.2896 156.168 22.1002 154.977 21.7214C154.162 21.4689 153.347 21.0901 152.532 20.7113Z" fill="url(#paint7_linear)"/>
<defs>
<linearGradient id="paint0_linear" x1="82.3853" y1="23.6143" x2="157.261" y2="39.5553" gradientUnits="userSpaceOnUse">
<stop stop-color="#F2B5C9"/>
<stop offset="1" stop-color="#EF95B2"/>
</linearGradient>
<linearGradient id="paint1_linear" x1="9.88111" y1="32.1841" x2="22.2756" y2="33.2143" gradientUnits="userSpaceOnUse">
<stop stop-color="#F2B5C9"/>
<stop offset="1" stop-color="#EF95B2"/>
</linearGradient>
<linearGradient id="paint2_linear" x1="244.472" y1="23.6138" x2="319.36" y2="39.5182" gradientUnits="userSpaceOnUse">
<stop stop-color="#F2B5C9"/>
<stop offset="1" stop-color="#EF95B2"/>
</linearGradient>
<linearGradient id="paint3_linear" x1="328.011" y1="32.1216" x2="340.414" y2="33.1594" gradientUnits="userSpaceOnUse">
<stop stop-color="#F2B5C9"/>
<stop offset="1" stop-color="#EF95B2"/>
</linearGradient>
<linearGradient id="paint4_linear" x1="170.102" y1="28.5918" x2="175.82" y2="28.8507" gradientUnits="userSpaceOnUse">
<stop stop-color="#F2B5C9"/>
<stop offset="1" stop-color="#EF95B2"/>
</linearGradient>
<linearGradient id="paint5_linear" x1="168.251" y1="7.27794e-06" x2="175.358" y2="0.157526" gradientUnits="userSpaceOnUse">
<stop stop-color="#F2B5C9"/>
<stop offset="1" stop-color="#EF95B2"/>
</linearGradient>
<linearGradient id="paint6_linear" x1="183.213" y1="11.4224" x2="190.021" y2="11.6614" gradientUnits="userSpaceOnUse">
<stop stop-color="#F2B5C9"/>
<stop offset="1" stop-color="#EF95B2"/>
</linearGradient>
<linearGradient id="paint7_linear" x1="154.435" y1="13.9141" x2="163.832" y2="14.4436" gradientUnits="userSpaceOnUse">
<stop stop-color="#F2B5C9"/>
<stop offset="1" stop-color="#EF95B2"/>
</linearGradient>
</defs>
</svg>
