<svg width="80" height="80" viewBox="0 0 80 80" fill="none" xmlns="http://www.w3.org/2000/svg">
<path d="M78.7097 46.4518H71.2258C68.6452 38.1937 61.4194 32.1292 52.9032 31.097V27.097C52.9032 26.3228 52.3871 25.8066 51.6129 25.8066C47.7419 25.8066 44.129 27.7421 41.9355 30.9679H34.8387C23.2258 30.9679 13.6774 40.0002 13.0323 51.6131H7.74194V50.3228C7.74194 48.1292 6.06452 46.4518 3.87097 46.4518C1.67742 46.4518 0 48.1292 0 50.3228C0 52.5163 1.67742 54.1937 3.87097 54.1937H5.16129V58.0647H7.74194V54.1937H13.0323C13.4194 61.8066 17.8065 68.6454 24.5161 72.2583V74.8389C24.5161 77.6776 26.8387 80.0002 29.6774 80.0002C32.5161 80.0002 34.8387 77.6776 34.8387 74.8389H50.3226C50.3226 77.6776 52.6452 80.0002 55.4839 80.0002C58.3226 80.0002 60.6452 77.6776 60.6452 74.8389V72.2583C65.8064 69.5486 69.5484 64.9034 71.2258 59.355H78.7097C79.4839 59.355 80 58.8389 80 58.0647V47.7421C80 46.9679 79.4839 46.4518 78.7097 46.4518ZM5.16129 51.6131H3.87097C3.09677 51.6131 2.58065 51.097 2.58065 50.3228C2.58065 49.5486 3.09677 49.0325 3.87097 49.0325C4.64516 49.0325 5.16129 49.5486 5.16129 50.3228V51.6131ZM50.3226 28.5163V36.1292H42.7097C43.2258 32.1292 46.3226 29.0324 50.3226 28.5163ZM32.2581 74.8389C32.2581 76.2583 31.0968 77.4196 29.6774 77.4196C28.2581 77.4196 27.0968 76.2583 27.0968 74.8389V73.4196C28.7742 74.0647 30.4516 74.4518 32.2581 74.7099V74.8389ZM58.0645 74.8389C58.0645 76.2583 56.9032 77.4196 55.4839 77.4196C54.0645 77.4196 52.9032 76.2583 52.9032 74.8389V74.7099C54.7097 74.4518 56.3871 74.0647 58.0645 73.4196V74.8389ZM69.5484 55.4841C68.2581 65.0325 60 72.2583 50.3226 72.2583H34.8387C24.129 72.2583 15.4839 63.6131 15.4839 52.9034C15.4839 42.1937 24.129 33.5486 34.8387 33.5486H40.6452C40.2581 34.8389 40 36.1292 40 37.4195C40 38.1937 40.5161 38.7099 41.2903 38.7099H51.6129C52.3871 38.7099 52.9032 38.1937 52.9032 37.4195V33.6776C63.4839 35.097 70.9677 44.9034 69.5484 55.4841ZM77.4193 56.7744H71.871C72.3871 54.1937 72.3871 51.6131 71.871 49.0325H77.4193V56.7744Z" fill="url(#paint0_linear)"/>
<path d="M20.6451 52.9033H18.0645C18.0645 62.1936 25.5483 69.6775 34.8386 69.6775V67.0969C26.9677 67.0969 20.6451 60.7743 20.6451 52.9033Z" fill="url(#paint1_linear)"/>
<path d="M59.3549 42.5806C55.742 42.5806 52.9033 45.4193 52.9033 49.0322H55.484C55.484 46.8386 57.1614 45.1612 59.3549 45.1612C61.5485 45.1612 63.2259 46.8386 63.2259 49.0322H65.8065C65.8065 45.4193 62.9678 42.5806 59.3549 42.5806Z" fill="url(#paint2_linear)"/>
<path d="M36.1289 12.9031H30.9676C30.1935 12.9031 29.6773 12.3869 29.6773 11.6127C29.6773 10.8386 30.1935 10.3224 30.9676 10.3224H38.7096V7.74178H34.8386V5.16113H32.258V7.74178H30.9676C28.7741 7.74178 27.0967 9.4192 27.0967 11.6127C27.0967 13.8063 28.7741 15.4837 30.9676 15.4837H36.1289C36.9031 15.4837 37.4193 15.9998 37.4193 16.774C37.4193 17.5482 36.9031 18.0644 36.1289 18.0644H28.387V20.645H32.258V23.2256H34.8386V20.645H36.1289C38.3225 20.645 39.9999 18.9676 39.9999 16.774C39.9999 14.5805 38.3225 12.9031 36.1289 12.9031Z" fill="url(#paint3_linear)"/>
<path d="M33.548 0C25.6771 0 19.3545 6.32258 19.3545 14.1935C19.3545 22.0645 25.6771 28.3871 33.548 28.3871C41.419 28.3871 47.7416 22.0645 47.7416 14.1935C47.7416 6.32258 41.419 0 33.548 0ZM33.548 25.8064C27.0964 25.8064 21.9351 20.6452 21.9351 14.1935C21.9351 7.74194 27.0964 2.58065 33.548 2.58065C39.9997 2.58065 45.1609 7.74194 45.1609 14.1935C45.1609 20.6452 39.9997 25.8064 33.548 25.8064Z" fill="url(#paint4_linear)"/>
<path d="M56.7739 2.58057C53.161 2.58057 50.3223 5.41928 50.3223 9.03218C50.3223 12.6451 53.161 15.4838 56.7739 15.4838C60.3868 15.4838 63.2255 12.6451 63.2255 9.03218C63.2255 5.41928 60.3868 2.58057 56.7739 2.58057ZM56.7739 12.9031C54.5803 12.9031 52.9029 11.2257 52.9029 9.03218C52.9029 6.83863 54.5803 5.16121 56.7739 5.16121C58.9674 5.16121 60.6449 6.83863 60.6449 9.03218C60.6449 11.2257 58.9674 12.9031 56.7739 12.9031Z" fill="url(#paint5_linear)"/>
<path d="M52.9029 18.0645H50.3223V23.2257H52.9029V18.0645Z" fill="url(#paint6_linear)"/>
<path d="M58.064 20.645H55.4834V28.387H58.064V20.645Z" fill="url(#paint7_linear)"/>
<path d="M63.2262 18.0645H60.6455V20.6451H63.2262V18.0645Z" fill="url(#paint8_linear)"/>
<defs>
<linearGradient id="paint0_linear" x1="36.16" y1="25.8067" x2="81.6656" y2="28.5525" gradientUnits="userSpaceOnUse">
<stop stop-color="#F2B5C9"/>
<stop offset="1" stop-color="#EF95B2"/>
</linearGradient>
<linearGradient id="paint1_linear" x1="25.6464" y1="52.9033" x2="35.2066" y2="53.2941" gradientUnits="userSpaceOnUse">
<stop stop-color="#F2B5C9"/>
<stop offset="1" stop-color="#EF95B2"/>
</linearGradient>
<linearGradient id="paint2_linear" x1="58.7356" y1="42.5806" x2="66.053" y2="43.1788" gradientUnits="userSpaceOnUse">
<stop stop-color="#F2B5C9"/>
<stop offset="1" stop-color="#EF95B2"/>
</linearGradient>
<linearGradient id="paint3_linear" x1="32.9289" y1="5.16114" x2="40.289" y2="5.37603" gradientUnits="userSpaceOnUse">
<stop stop-color="#F2B5C9"/>
<stop offset="1" stop-color="#EF95B2"/>
</linearGradient>
<linearGradient id="paint4_linear" x1="32.1855" y1="8.99342e-06" x2="48.3644" y2="0.661336" gradientUnits="userSpaceOnUse">
<stop stop-color="#F2B5C9"/>
<stop offset="1" stop-color="#EF95B2"/>
</linearGradient>
<linearGradient id="paint5_linear" x1="56.1545" y1="2.58057" x2="63.5086" y2="2.88117" gradientUnits="userSpaceOnUse">
<stop stop-color="#F2B5C9"/>
<stop offset="1" stop-color="#EF95B2"/>
</linearGradient>
<linearGradient id="paint6_linear" x1="51.4887" y1="18.0645" x2="52.9614" y2="18.0946" gradientUnits="userSpaceOnUse">
<stop stop-color="#F2B5C9"/>
<stop offset="1" stop-color="#EF95B2"/>
</linearGradient>
<linearGradient id="paint7_linear" x1="56.6498" y1="20.645" x2="58.1228" y2="20.6651" gradientUnits="userSpaceOnUse">
<stop stop-color="#F2B5C9"/>
<stop offset="1" stop-color="#EF95B2"/>
</linearGradient>
<linearGradient id="paint8_linear" x1="61.812" y1="18.0645" x2="63.2828" y2="18.1246" gradientUnits="userSpaceOnUse">
<stop stop-color="#F2B5C9"/>
<stop offset="1" stop-color="#EF95B2"/>
</linearGradient>
</defs>
</svg>
