<svg width="80" height="80" viewBox="0 0 80 80" fill="none" xmlns="http://www.w3.org/2000/svg">
<g clip-path="url(#clip0)">
<path d="M72.3036 9.0625H7.38405C3.22632 9.0625 -0.15625 12.4451 -0.15625 16.6028V63.6213C-0.15625 67.7791 3.22632 71.1616 7.38405 71.1616H49.1017C49.7511 71.1616 50.2784 70.6349 50.2784 69.9849C50.2784 69.3349 49.7511 68.8081 49.1017 68.8081H17.7765V29.6106C17.7765 28.9606 17.2498 28.4339 16.5998 28.4339C15.9497 28.4339 15.423 28.9606 15.423 29.6106V36.7213H12.663C12.1912 36.7213 11.8079 36.3379 11.8079 35.8661V21.4911C11.8079 21.0199 12.1912 20.636 12.663 20.636H15.423V24.3024C15.423 24.9524 15.9497 25.4792 16.5998 25.4792C17.2498 25.4792 17.7765 24.9524 17.7765 24.3024V11.416H21.3691V43.8502C21.3691 45.5634 22.7631 46.9575 24.4758 46.9575H45.904C47.6173 46.9575 49.0107 45.5634 49.0107 43.8502V11.416H61.9111V68.8081H53.8288C53.1794 68.8081 52.6521 69.3349 52.6521 69.9849C52.6521 70.6349 53.1794 71.1616 53.8288 71.1616H72.303C76.4613 71.1616 79.8439 67.7791 79.8439 63.6207V16.6028C79.8439 12.4451 76.4613 9.0625 72.3036 9.0625ZM15.423 59.8622H12.663C12.1912 59.8622 11.8079 59.4783 11.8079 59.0058V44.632C11.8079 44.1596 12.1912 43.7757 12.663 43.7757H15.423V59.8622ZM12.663 18.2825C10.8936 18.2825 9.45436 19.7223 9.45436 21.4911V35.8661C9.45436 37.6356 10.8936 39.0748 12.663 39.0748H15.423V41.4222H12.663C10.8936 41.4222 9.45436 42.862 9.45436 44.632V59.0058C9.45436 60.7759 10.8936 62.2157 12.663 62.2157H15.423V64.6931H7.32667C6.88905 64.6931 6.5326 64.3373 6.5326 63.899V16.3245C6.5326 15.8869 6.88905 15.531 7.32667 15.531H15.423V18.2825H12.663ZM15.423 13.1775H7.32667C5.59144 13.1775 4.17908 14.5892 4.17908 16.3245V63.8997C4.17908 65.6349 5.59144 67.0466 7.32667 67.0466H15.423V68.8081H7.38405C4.52393 68.8081 2.19727 66.4814 2.19727 63.6213V16.6028C2.19727 13.7427 4.52393 11.416 7.38405 11.416H15.423V13.1775ZM46.6572 43.8508C46.6572 44.2658 46.3197 44.604 45.904 44.604H24.4758C24.0607 44.604 23.7226 44.2658 23.7226 43.8508V11.416H46.6572V43.8508ZM64.2646 43.7757H67.0247C67.4965 43.7757 67.8798 44.1596 67.8798 44.632V59.0058C67.8798 59.4783 67.4965 59.8622 67.0247 59.8622H64.2646V43.7757ZM64.2646 20.6366H67.0247C67.4965 20.6366 67.8798 21.0199 67.8798 21.4917V35.8668C67.8798 36.3379 67.4965 36.7213 67.0247 36.7213H64.2646V20.6366ZM64.2646 62.2157H67.0247C68.7941 62.2157 70.2333 60.7759 70.2333 59.0058V44.632C70.2333 42.862 68.7941 41.4222 67.0247 41.4222H64.2646V39.0748H67.0247C68.7941 39.0748 70.2333 37.6356 70.2333 35.8661V21.4911C70.2333 19.7223 68.7941 18.2825 67.0247 18.2825H64.2646V15.531H72.361C72.7986 15.531 73.155 15.8869 73.155 16.3245V63.8997C73.155 64.3373 72.7986 64.6931 72.361 64.6931H64.2646V62.2157ZM77.4904 63.6213C77.4904 66.4814 75.1637 68.8081 72.3036 68.8081H64.2646V67.0466H72.361C74.0962 67.0466 75.5086 65.6349 75.5086 63.8997V16.3245C75.5086 14.5892 74.0962 13.1775 72.361 13.1775H64.2646V11.416H72.3036C75.1637 11.416 77.4904 13.7427 77.4904 16.6028V63.6213Z" fill="url(#paint0_linear)"/>
<path d="M27.9238 16.853H41.4151C42.0645 16.853 42.5918 16.3263 42.5918 15.6763C42.5918 15.0262 42.0645 14.4995 41.4151 14.4995H27.9238C27.2738 14.4995 26.7471 15.0262 26.7471 15.6763C26.7471 16.3263 27.2738 16.853 27.9238 16.853Z" fill="url(#paint1_linear)"/>
<path d="M27.9238 21.6309H34.6695C35.3195 21.6309 35.8462 21.1041 35.8462 20.4541C35.8462 19.8041 35.3195 19.2773 34.6695 19.2773H27.9238C27.2738 19.2773 26.7471 19.8041 26.7471 20.4541C26.7471 21.1041 27.2738 21.6309 27.9238 21.6309Z" fill="url(#paint2_linear)"/>
<path d="M27.9238 41.2886H34.6695C35.3195 41.2886 35.8462 40.7618 35.8462 40.1118C35.8462 39.4618 35.3195 38.9351 34.6695 38.9351H27.9238C27.2738 38.9351 26.7471 39.4618 26.7471 40.1118C26.7471 40.7618 27.2738 41.2886 27.9238 41.2886Z" fill="url(#paint3_linear)"/>
</g>
<defs>
<linearGradient id="paint0_linear" x1="36.0038" y1="9.06252" x2="81.5488" y2="11.4609" gradientUnits="userSpaceOnUse">
<stop stop-color="#F2B5C9"/>
<stop offset="1" stop-color="#EF95B2"/>
</linearGradient>
<linearGradient id="paint1_linear" x1="33.9089" y1="14.4995" x2="42.3177" y2="16.8136" gradientUnits="userSpaceOnUse">
<stop stop-color="#F2B5C9"/>
<stop offset="1" stop-color="#EF95B2"/>
</linearGradient>
<linearGradient id="paint2_linear" x1="30.8599" y1="19.2773" x2="35.9279" y2="20.0783" gradientUnits="userSpaceOnUse">
<stop stop-color="#F2B5C9"/>
<stop offset="1" stop-color="#EF95B2"/>
</linearGradient>
<linearGradient id="paint3_linear" x1="30.8599" y1="38.9351" x2="35.9279" y2="39.736" gradientUnits="userSpaceOnUse">
<stop stop-color="#F2B5C9"/>
<stop offset="1" stop-color="#EF95B2"/>
</linearGradient>
<clipPath id="clip0">
<rect width="80" height="80" fill="white"/>
</clipPath>
</defs>
</svg>
